<?xml version="1.0" standalone="no"?>
<!DOCTYPE svg PUBLIC "-//W3C//DTD SVG 1.1//EN" "http://www.w3.org/Graphics/SVG/1.1/DTD/svg11.dtd" >
<svg>
<metadata>
Created by FontForge 20090622 at Wed Jun  1 12:17:21 2016
 By deploy user
Copyright &#194;&#172;&#194;&#169; 2014 Commercial Type.
</metadata>
<defs>
<font id="DuplicateSlab-Thin" horiz-adv-x="600" >
  <font-face 
    font-family="Duplicate Slab Thin"
    font-weight="250"
    font-stretch="normal"
    units-per-em="1000"
    panose-1="0 0 0 0 0 0 0 0 0 0"
    ascent="854"
    descent="-146"
    x-height="472"
    cap-height="639"
    bbox="-183 -186 1003 914"
    underline-thickness="30"
    underline-position="-104"
    unicode-range="U+0020-U+FB04"
  />
<missing-glyph horiz-adv-x="500" 
 />
    <glyph glyph-name="f_b" unicode="fb" horiz-adv-x="797" 
d="M279 641v32h89v-342q11 70 66.5 110t125.5 40q91 0 146.5 -62.5t55.5 -171.5v-2q0 -123 -56 -188t-148 -65q-70 0 -123.5 42t-66.5 106q0 -33 -2.5 -68t-5.5 -54l-2 -18h-92v30h67v611h-54zM558 21q79 0 123.5 55.5t44.5 165.5v20q0 89 -46.5 139.5t-126.5 50.5
q-78 0 -131.5 -56t-53.5 -146v-4q0 -113 57.5 -169t132.5 -56zM21 442v30h70v83q0 57 26.5 89t70.5 32q41 0 55 -23v-18q-20 10 -50 10q-67 0 -67 -89v-84h132v-30h-132v-412h85v-30h-187v30h67v412h-70z" />
    <glyph glyph-name="f_f_b" unicode="ffb" horiz-adv-x="1038" 
d="M520 641v32h89v-342q11 70 66.5 110t125.5 40q91 0 146.5 -62.5t55.5 -171.5v-2q0 -123 -56 -188t-148 -65q-70 0 -123.5 42t-66.5 106q0 -33 -2.5 -68t-4.5 -54l-3 -18h-92v30h67v611h-54zM799 21q79 0 123.5 55.5t44.5 165.5v20q0 89 -46.5 139.5t-126.5 50.5
q-78 0 -131.5 -56t-53.5 -146v-4q0 -113 57.5 -169t132.5 -56zM21 442v30h70v60q0 69 32 104t80 35q46 0 63 -25v-18q-27 12 -54 12q-86 0 -86 -104v-64h206v83q0 57 26.5 89t70.5 32q41 0 55 -23v-18q-20 10 -50 10q-67 0 -67 -89v-84h132v-30h-132v-412h85v-30h-187v30h67
v412h-206v-412h85v-30h-187v30h67v412h-70z" />
    <glyph glyph-name="f_f_h" unicode="ffh" horiz-adv-x="1027" 
d="M21 442v30h70v60q0 69 32 104t80 35q46 0 63 -25v-18q-27 12 -54 12q-86 0 -86 -104v-64h206v83q0 57 26.5 89t70.5 32q41 0 55 -23v-18q-20 10 -50 10q-67 0 -67 -89v-84h132v-30h-132v-412h85v-30h-187v30h67v412h-206v-412h85v-30h-187v30h67v412h-70zM1003 0h-171v30
h75v306q0 58 -28 86.5t-91 28.5q-76 0 -126 -51t-53 -134v-236h75v-30h-177v30h67v611h-54v32h89v-338q11 71 65 108.5t120 37.5q148 0 148 -153v-298h61v-30z" />
    <glyph glyph-name="f_f_j" unicode="ffj" horiz-adv-x="677" 
d="M21 442v30h70v60q0 69 32 104t80 35q46 0 63 -25v-18q-27 12 -54 12q-86 0 -86 -104v-64h206v65q0 68 31.5 103.5t77.5 35.5q43 0 58 -23v-18q-23 10 -49 10q-83 0 -83 -104v-69h241v-528q0 -47 -24 -71t-65 -24q-40 0 -55 17v22q21 -9 44 -9q65 0 65 63v500h-206v-412
h85v-30h-187v30h67v412h-206v-412h85v-30h-187v30h67v412h-70zM584 572q-13 0 -22 8.5t-9 21.5t9 22t22 9t22 -9t9 -22t-9 -21.5t-22 -8.5z" />
    <glyph glyph-name="f_f_k" unicode="ffk" horiz-adv-x="940" 
d="M21 442v30h70v60q0 69 32 104t80 35q46 0 63 -25v-18q-27 12 -54 12q-86 0 -86 -104v-64h206v83q0 57 26.5 89t70.5 32q41 0 55 -23v-18q-20 10 -50 10q-67 0 -67 -89v-84h132v-30h-132v-412h85v-30h-187v30h67v412h-206v-412h85v-30h-187v30h67v412h-70zM520 641v32h89
v-643h75v-30h-177v30h67v611h-54zM840 0l-222 244l217 228h67v-34h-56l-185 -194l196 -214h61v-30h-78z" />
    <glyph glyph-name="f_h" unicode="fh" horiz-adv-x="786" 
d="M591 0v30h75v306q0 58 -28 86.5t-91 28.5q-76 0 -126 -51t-53 -134v-236h75v-30h-177v30h67v611h-54v32h89v-338q11 71 65 108.5t120 37.5q148 0 148 -153v-298h61v-30h-171zM21 442v30h70v83q0 57 26.5 89t70.5 32q41 0 55 -23v-18q-20 10 -50 10q-67 0 -67 -89v-84h132
v-30h-132v-412h85v-30h-187v30h67v412h-70z" />
    <glyph glyph-name="f_j" unicode="fj" horiz-adv-x="436" 
d="M21 442v30h70v65q0 68 31.5 103.5t77.5 35.5q43 0 58 -23v-18q-23 10 -49 10q-83 0 -83 -104v-69h241v-528q0 -47 -24 -71t-65 -24q-40 0 -55 17v22q21 -9 44 -9q65 0 65 63v500h-206v-412h85v-30h-187v30h67v412h-70zM343 572q-13 0 -22 8.5t-9 21.5t9 22t22 9t22 -9
t9 -22t-9 -21.5t-22 -8.5z" />
    <glyph glyph-name="f_k" unicode="fk" horiz-adv-x="699" 
d="M21 442v30h70v83q0 57 26.5 89t70.5 32q41 0 55 -23v-18q-20 10 -50 10q-67 0 -67 -89v-84h132v-30h-132v-412h85v-30h-187v30h67v412h-70zM279 641v32h89v-643h75v-30h-177v30h67v611h-54zM599 0l-222 244l217 228h67v-34h-56l-185 -194l196 -214h61v-30h-78z" />
    <glyph glyph-name="f_f" unicode="ff" horiz-adv-x="527" 
d="M21 442v30h70v60q0 69 32 104t80 35q46 0 63 -25v-18q-27 12 -54 12q-86 0 -86 -104v-64h206v65q0 69 32 104t80 35q46 0 63 -25v-18q-27 12 -54 12q-86 0 -86 -104v-69h140v-30h-140v-412h85v-30h-187v30h67v412h-206v-412h85v-30h-187v30h67v412h-70z" />
    <glyph glyph-name="f_i" unicode="fi" horiz-adv-x="461" 
d="M21 442v30h70v65q0 68 31.5 103.5t77.5 35.5q43 0 58 -23v-18q-23 10 -49 10q-83 0 -83 -104v-69h241v-442h70v-30h-175v30h70v412h-206v-412h85v-30h-187v30h67v412h-70zM343 572q-13 0 -22 8.5t-9 21.5t9 22t22 9t22 -9t9 -22t-9 -21.5t-22 -8.5z" />
    <glyph glyph-name="f_l" unicode="fl" horiz-adv-x="465" 
d="M21 442v30h70v83q0 57 26.5 89t70.5 32q41 0 55 -23v-18q-20 10 -50 10q-67 0 -67 -89v-84h132v-30h-132v-412h85v-30h-187v30h67v412h-70zM279 641v32h92v-643h70v-30h-175v30h70v611h-57z" />
    <glyph glyph-name="f_f_i" unicode="ffi" horiz-adv-x="702" 
d="M21 442v30h70v60q0 69 32 104t80 35q46 0 63 -25v-18q-27 12 -54 12q-86 0 -86 -104v-64h206v65q0 68 31.5 103.5t77.5 35.5q43 0 58 -23v-18q-23 10 -49 10q-83 0 -83 -104v-69h241v-442h70v-30h-175v30h70v412h-206v-412h85v-30h-187v30h67v412h-206v-412h85v-30h-187
v30h67v412h-70zM584 572q-13 0 -22 8.5t-9 21.5t9 22t22 9t22 -9t9 -22t-9 -21.5t-22 -8.5z" />
    <glyph glyph-name="f_f_l" unicode="ffl" horiz-adv-x="706" 
d="M21 442v30h70v60q0 69 32 104t80 35q46 0 63 -25v-18q-27 12 -54 12q-86 0 -86 -104v-64h206v83q0 57 26.5 89t70.5 32q41 0 55 -23v-18q-20 10 -50 10q-67 0 -67 -89v-84h132v-30h-132v-412h85v-30h-187v30h67v412h-206v-412h85v-30h-187v30h67v412h-70zM520 641v32h92
v-643h70v-30h-175v30h70v611h-57z" />
    <glyph glyph-name=".notdef" horiz-adv-x="500" 
 />
    <glyph glyph-name=".null" horiz-adv-x="0" 
 />
    <glyph glyph-name="nonmarkingreturn" horiz-adv-x="333" 
 />
    <glyph glyph-name="space" unicode=" " horiz-adv-x="183" 
 />
    <glyph glyph-name="exclam" unicode="!" horiz-adv-x="192" 
d="M117 660l-7 -529h-30l-7 529h44zM96 -4q-13 0 -22.5 9.5t-9.5 22.5t9.5 22.5t22.5 9.5t22.5 -9.5t9.5 -22.5t-9.5 -22.5t-22.5 -9.5z" />
    <glyph glyph-name="quotedbl" unicode="&#x22;" horiz-adv-x="215" 
d="M79 501h-26l-7 138h40zM162 501h-26l-7 138h40z" />
    <glyph glyph-name="numbersign" unicode="#" horiz-adv-x="446" 
d="M367 639l-33 -202h80v-32h-85l-25 -155h79v-32h-84l-35 -218h-31l35 218h-126l-35 -218h-31l35 218h-79v32h84l25 155h-79v32h84l33 202h31l-33 -202h126l33 202h31zM172 405l-25 -155h126l25 155h-126z" />
    <glyph glyph-name="dollar" unicode="$" horiz-adv-x="469" 
d="M184 -107h-33l15 102q-80 16 -131 65v96h36v-85q46 -33 100 -45l43 288q-57 7 -86 22q-83 41 -83 144q0 81 57 125.5t132 44.5q12 0 30 -2l11 70h33l-11 -74q62 -12 108 -52v-109h-36v97q-37 22 -77 30l-41 -266q69 -10 105 -26q41 -19 60 -52t19 -96q0 -89 -58 -135
t-146 -46q-11 0 -33 2zM343 285q-30 16 -97 25l-43 -288q8 -1 27 -1q74 0 121 37.5t47 114.5q0 83 -55 112zM141 369q27 -14 78 -21l40 267q-3 0 -10.5 0.5t-11.5 0.5q-68 0 -111 -32.5t-43 -105.5q0 -42 12.5 -67t45.5 -42z" />
    <glyph glyph-name="percent" unicode="%" horiz-adv-x="581" 
d="M61 510v-16q0 -58 25 -89t70 -31t70 31t25 89v16q0 53 -24.5 82.5t-70.5 29.5t-70.5 -29.5t-24.5 -82.5zM555 142q0 -72 -37.5 -111.5t-92.5 -39.5t-92.5 39.5t-37.5 111.5v6q0 66 37 105t93 39q57 0 93.5 -39t36.5 -105v-6zM330 137q0 -58 25 -89t70 -31t70 31t25 89v16
q0 53 -24.5 82.5t-70.5 29.5t-70.5 -29.5t-24.5 -82.5v-16zM156 348q-55 0 -92.5 39.5t-37.5 111.5v6q0 66 37 105t93 39q57 0 93.5 -39t36.5 -105v-6q0 -72 -37.5 -111.5t-92.5 -39.5zM529 639l-441 -639h-36l441 639h36z" />
    <glyph glyph-name="ampersand" unicode="&#x26;" horiz-adv-x="562" 
d="M221 -9q-88 0 -138.5 49t-50.5 125q0 69 44.5 112.5t122.5 76.5q-75 79 -75 160q0 58 40.5 97t99.5 39q55 0 94 -35t39 -98q0 -108 -146 -172l152 -207q41 73 76 209h35q-43 -158 -91 -236l60 -81h55v-30h-76l-60 81q-70 -90 -181 -90zM222 19q99 0 161 88l-164 225
q-68 -29 -108 -67.5t-40 -99.5q0 -65 38.5 -105.5t112.5 -40.5zM159 513q0 -77 73 -145q132 55 132 149q0 50 -28 76t-72 26q-48 0 -76.5 -29t-28.5 -77z" />
    <glyph glyph-name="quotesingle" unicode="'" horiz-adv-x="132" 
d="M79 501h-26l-7 138h40z" />
    <glyph glyph-name="parenleft" unicode="(" horiz-adv-x="265" 
d="M89 309v-36q0 -225 157 -366v-5h-35q-64 54 -112 151.5t-48 225.5v25q0 121 48 217.5t112 151.5h35v-5q-67 -59 -112 -152.5t-45 -206.5z" />
    <glyph glyph-name="parenright" unicode=")" horiz-adv-x="265" 
d="M172 266v36q0 225 -157 366v5h35q64 -54 112 -151.5t48 -225.5v-25q0 -121 -48 -217.5t-112 -151.5h-35v5q67 59 112 152.5t45 206.5z" />
    <glyph glyph-name="asterisk" unicode="*" horiz-adv-x="293" 
d="M56 453l-18 29l87 42l-87 42l18 29l79 -53l-6 97h35l-6 -96l79 52l18 -29l-88 -42l88 -42l-18 -29l-79 52l6 -96h-35l6 96z" />
    <glyph glyph-name="plus" unicode="+" horiz-adv-x="418" 
d="M226 492v-162h151v-31h-151v-162h-34v162h-151v31h151v162h34z" />
    <glyph glyph-name="comma" unicode="," horiz-adv-x="142" 
d="M32 -87q20 49 20 100q0 26 -4 43h40q4 -19 4 -41q0 -51 -38 -102h-22z" />
    <glyph glyph-name="hyphen" unicode="-" horiz-adv-x="226" 
d="M40 253v32h146v-32h-146z" />
    <glyph glyph-name="period" unicode="." horiz-adv-x="142" 
d="M71 -6q-13 0 -22.5 9.5t-9.5 22.5t9.5 22.5t22.5 9.5t22.5 -9.5t9.5 -22.5t-9.5 -22.5t-22.5 -9.5z" />
    <glyph glyph-name="slash" unicode="/" horiz-adv-x="300" 
d="M282 673l-246 -771h-35l246 771h35z" />
    <glyph glyph-name="zero" unicode="0" horiz-adv-x="554" 
d="M277 -11q-103 0 -170.5 85t-67.5 239v42q0 141 63.5 218t174.5 77t174.5 -77t63.5 -218v-42q0 -154 -67 -239t-171 -85zM277 21q95 0 147 75t52 215v56q0 118 -50.5 183.5t-148.5 65.5t-148.5 -65.5t-50.5 -183.5v-56q0 -140 52.5 -215t146.5 -75z" />
    <glyph glyph-name="one" unicode="1" horiz-adv-x="335" 
d="M46 0v30h115v572l-129 -129h-3v43l125 123h44v-609h111v-30h-263z" />
    <glyph glyph-name="two" unicode="2" horiz-adv-x="455" 
d="M29 0v49q161 116 247 217t86 202q0 74 -40 111t-106 37q-97 0 -174 -75v34q57 75 173 75q83 0 134.5 -47t51.5 -135q0 -74 -48 -151t-118.5 -141.5t-178.5 -141.5v-1h320v93h36v-126h-383z" />
    <glyph glyph-name="three" unicode="3" horiz-adv-x="460" 
d="M217 650q84 0 132 -43t48 -114q0 -67 -33.5 -107.5t-92.5 -50.5v-1q70 -6 109.5 -51t39.5 -118q0 -79 -53.5 -126t-150.5 -47q-124 0 -191 67v35q75 -70 190 -70q166 0 166 150q0 144 -172 144h-73v30h73q72 0 111.5 37t39.5 100q0 62 -35.5 96.5t-107.5 34.5
q-58 0 -95 -14t-79 -45v30q65 63 174 63z" />
    <glyph glyph-name="four" unicode="4" horiz-adv-x="476" 
d="M301 639h60v-422h89v-33h-89v-154h89v-30h-228v30h102v154h-303v49zM324 618l-275 -401h275v401z" />
    <glyph glyph-name="five" unicode="5" horiz-adv-x="459" 
d="M209 -8q-115 0 -177 66v32q71 -66 177 -66q83 0 127 45.5t44 130.5q0 76 -40.5 116.5t-121.5 40.5q-89 0 -157 -45h-8v327h342v-136h-36v101h-274v-249q60 34 140 34q91 0 142.5 -51t51.5 -143q0 -95 -56 -149t-154 -54z" />
    <glyph glyph-name="six" unicode="6" horiz-adv-x="500" 
d="M379 639v-5q-135 -56 -213.5 -150.5t-86.5 -208.5q21 54 70 85.5t118 31.5q89 0 143 -55.5t54 -141.5v-5q0 -90 -56.5 -145.5t-152.5 -55.5t-156 60t-60 167v25q0 74 26 141.5t68.5 116.5t89.5 84t96 56h60zM261 361q-76 0 -129.5 -47t-53.5 -115v-7q0 -76 46.5 -123.5
t130.5 -47.5q80 0 125.5 45t45.5 122v8q0 79 -42.5 122t-122.5 43z" />
    <glyph glyph-name="seven" unicode="7" horiz-adv-x="470" 
d="M73 483h-36v156h405v-44l-260 -595h-40l264 605h-333v-122z" />
    <glyph glyph-name="eight" unicode="8" horiz-adv-x="495" 
d="M247 -11q-95 0 -153.5 50.5t-58.5 128.5v5q0 65 41.5 109t113.5 57q-60 12 -94.5 49.5t-34.5 97.5v4q0 71 51 115.5t136 44.5q84 0 134.5 -44.5t50.5 -114.5v-5q0 -60 -35 -97.5t-95 -49.5q73 -13 115 -56.5t42 -108.5v-5q0 -78 -58.5 -129t-154.5 -51zM247 21
q80 0 127 40t47 109v11q0 62 -47.5 102.5t-126.5 40.5q-80 0 -126.5 -40t-46.5 -103v-11q0 -69 46 -109t127 -40zM247 355q70 0 109.5 34t39.5 94v10q0 56 -39 89.5t-109 33.5q-71 0 -110.5 -33.5t-39.5 -89.5v-10q0 -60 39 -94t110 -34z" />
    <glyph glyph-name="nine" unicode="9" horiz-adv-x="500" 
d="M121 0v5q287 119 300 361q-20 -54 -68.5 -86.5t-120.5 -32.5q-89 0 -142.5 55.5t-53.5 141.5v5q0 90 56.5 145.5t152.5 55.5t156 -59t60 -165v-25q0 -81 -25.5 -150t-68.5 -117t-89 -80.5t-97 -53.5h-60zM240 278q75 0 128.5 47.5t53.5 117.5v7q0 76 -46.5 122t-130.5 46
q-80 0 -125.5 -45t-45.5 -122v-8q0 -79 42 -122t124 -43z" />
    <glyph glyph-name="colon" unicode=":" horiz-adv-x="142" 
d="M74 -6q-13 0 -22.5 9.5t-9.5 22.5t9.5 22.5t22.5 9.5t22.5 -9.5t9.5 -22.5t-9.5 -22.5t-22.5 -9.5zM74 288q-13 0 -22.5 9.5t-9.5 22.5t9.5 22.5t22.5 9.5t22.5 -9.5t9.5 -22.5t-9.5 -22.5t-22.5 -9.5z" />
    <glyph glyph-name="semicolon" unicode=";" horiz-adv-x="142" 
d="M42 -87q20 49 20 100q0 26 -4 43h40q4 -19 4 -41q0 -51 -38 -102h-22zM74 288q-13 0 -22.5 9.5t-9.5 22.5t9.5 22.5t22.5 9.5t22.5 -9.5t9.5 -22.5t-9.5 -22.5t-22.5 -9.5z" />
    <glyph glyph-name="less" unicode="&#x3c;" horiz-adv-x="416" 
d="M42 327l332 144v-33l-306 -133l306 -132v-34l-332 144v44z" />
    <glyph glyph-name="equal" unicode="=" horiz-adv-x="450" 
d="M44 264h362v-31h-362v31zM44 385h362v-31h-362v31z" />
    <glyph glyph-name="greater" unicode="&#x3e;" horiz-adv-x="416" 
d="M374 283l-332 -144v33l305 132l-305 133v34l332 -144v-44z" />
    <glyph glyph-name="question" unicode="?" horiz-adv-x="382" 
d="M306 513q0 59 -33 88t-89 29q-65 0 -111 -28v-79h-35v83q51 57 149 57q70 0 114.5 -39.5t44.5 -113.5q0 -48 -28 -94.5t-61 -78t-61 -76.5t-28 -90v-40h-30v42q0 41 17.5 78.5t42 67l49 58.5t42 64t17.5 72zM185 28q0 -13 -9.5 -22.5t-22.5 -9.5t-22.5 9.5t-9.5 22.5
t9.5 22.5t22.5 9.5t22.5 -9.5t9.5 -22.5z" />
    <glyph glyph-name="at" unicode="@" horiz-adv-x="836" 
d="M387 62q35 0 66.5 15.5t59.5 58t38 106.5l2 13q12 76 -25.5 123t-106.5 47q-66 0 -113 -52.5t-47 -162.5q0 -72 32 -110t94 -38zM444 640q154 0 256.5 -89t102.5 -247q0 -126 -45.5 -199.5t-121.5 -73.5q-56 0 -78 34.5t-16 91.5q-15 -56 -59 -89.5t-98 -33.5
q-72 0 -116 45.5t-44 135.5q0 62 18.5 110.5t48.5 75t63 40t66 13.5q65 0 102.5 -32.5t41.5 -91.5q4 29 11.5 58t12.5 44l5 15h24l-43 -274q-10 -61 5.5 -88.5t55.5 -27.5q62 0 99 66t37 181q0 145 -92.5 226t-235.5 81q-159 0 -268 -109.5t-109 -284.5q0 -153 92 -245.5
t251 -92.5q157 0 260 80v-28q-94 -80 -265 -80q-166 0 -268.5 99.5t-102.5 267.5q0 127 58 224.5t150.5 147.5t201.5 50z" />
    <glyph glyph-name="A" unicode="A" horiz-adv-x="638" 
d="M20 0v30h53l214 609h64l214 -609h53v-30h-202v30h109l-69 198h-276l-69 -198h107v-30h-198zM318 625l-126 -363h252z" />
    <glyph glyph-name="B" unicode="B" horiz-adv-x="533" 
d="M26 607v32h272q80 0 128 -41t48 -121q0 -140 -142 -154v-1q82 -4 123.5 -44.5t41.5 -110.5q0 -167 -202 -167h-269v30h69v577h-69zM132 33h152q96 0 135 32.5t39 100.5q0 71 -44 104.5t-145 33.5h-137v-271zM132 338h137q88 0 127.5 35.5t39.5 103.5t-37 97.5t-110 29.5
h-157v-266z" />
    <glyph glyph-name="C" unicode="C" horiz-adv-x="573" 
d="M483 483v89q-67 44 -159 44q-127 0 -186 -74t-59 -205v-11q0 -143 61 -224t185 -81q98 0 168 47v88h36v-98q-81 -69 -201 -69q-139 0 -213.5 90.5t-74.5 248.5v2q0 146 71 233t213 87q135 0 195 -71v-96h-36z" />
    <glyph glyph-name="D" unicode="D" horiz-adv-x="612" 
d="M26 607v32h279q143 0 205 -76t62 -227v-2q0 -334 -295 -334h-251v30h69v577h-69zM132 33h135q145 0 205.5 73.5t60.5 225.5v13q0 133 -49.5 196t-185.5 63h-166v-571z" />
    <glyph glyph-name="E" unicode="E" horiz-adv-x="525" 
d="M439 483v121h-307v-260h281v-34h-281v-277h317v123h36v-156h-459v30h69v577h-69v32h449v-156h-36z" />
    <glyph glyph-name="F" unicode="F" horiz-adv-x="507" 
d="M439 483v121h-307v-279h294v-34h-294v-261h103v-30h-209v30h69v577h-69v32h449v-156h-36z" />
    <glyph glyph-name="G" unicode="G" horiz-adv-x="590" 
d="M342 282v32h195v-251q-25 -30 -77 -52t-118 -22q-141 0 -221.5 87t-80.5 245v2q0 154 80.5 240.5t203.5 86.5q128 0 195 -65v-102h-36v93q-68 40 -159 40q-111 0 -178 -74.5t-67 -207.5v-16q0 -144 68.5 -220.5t195.5 -76.5q87 0 157 47v214h-158z" />
    <glyph glyph-name="H" unicode="H" horiz-adv-x="626" 
d="M402 0v30h92v280h-362v-280h92v-30h-198v30h69v577h-69v32h198v-32h-92v-263h362v263h-92v32h198v-32h-69v-577h69v-30h-198z" />
    <glyph glyph-name="I" unicode="I" horiz-adv-x="238" 
d="M26 607v32h186v-32h-74v-577h74v-30h-186v30h75v577h-75z" />
    <glyph glyph-name="J" unicode="J" horiz-adv-x="350" 
d="M131 607v32h193v-32h-69v-477q0 -65 -33 -101t-93 -36q-74 0 -109 39v26q47 -33 102 -33q96 0 96 115v467h-87z" />
    <glyph glyph-name="K" unicode="K" horiz-adv-x="555" 
d="M346 607v32h179v-32h-48l-293 -274l291 -303h56v-30h-191v30h89l-291 303l294 274h-86zM26 607v32h198v-32h-92v-577h92v-30h-198v30h69v577h-69z" />
    <glyph glyph-name="L" unicode="L" horiz-adv-x="498" 
d="M26 0v30h69v577h-69v32h193v-32h-87v-574h297v133h36v-166h-439z" />
    <glyph glyph-name="M" unicode="M" horiz-adv-x="783" 
d="M561 0v30h90v587l-230 -617h-61l-230 617v-587h90v-30h-194v30h69v577h-69v32h133l232 -624l233 624h133v-32h-69v-577h69v-30h-196z" />
    <glyph glyph-name="N" unicode="N" horiz-adv-x="649" 
d="M423 607v32h200v-32h-69v-607h-64l-360 617v-587h99v-30h-203v30h69v577h-69v32h133l360 -616v584h-96z" />
    <glyph glyph-name="O" unicode="O" horiz-adv-x="635" 
d="M317 21q116 0 177.5 80t61.5 229v16q0 127 -58.5 198.5t-180.5 71.5q-121 0 -179.5 -71.5t-58.5 -198.5v-16q0 -149 61.5 -229t176.5 -80zM317 -11q-126 0 -201.5 88.5t-75.5 252.5v2q0 152 70.5 235t206.5 83t207 -83t71 -235v-2q0 -165 -75 -253t-203 -88z" />
    <glyph glyph-name="P" unicode="P" horiz-adv-x="511" 
d="M28 607v32h273q85 0 132 -49.5t47 -133.5q0 -88 -55 -134t-150 -46h-141v-246h95v-30h-203v30h71v577h-69zM134 310h136q172 0 172 147q0 75 -35 111t-115 36h-158v-294z" />
    <glyph glyph-name="Q" unicode="Q" horiz-adv-x="643" 
d="M321 -11q-126 0 -201.5 88.5t-75.5 252.5v2q0 152 70.5 235t206.5 83t207 -83t71 -235v-2q0 -209 -120 -294l71 -97h78v-29h-99l-79 108q-56 -29 -129 -29zM321 21q62 0 110 23l-111 155h42l98 -137q100 74 100 268v16q0 127 -58.5 198.5t-180.5 71.5
q-121 0 -179.5 -71.5t-58.5 -198.5v-16q0 -150 60.5 -229.5t177.5 -79.5z" />
    <glyph glyph-name="R" unicode="R" horiz-adv-x="535" 
d="M26 607v32h259q93 0 140.5 -46t47.5 -121q0 -88 -50 -130t-139 -42h-85l256 -270h59v-30h-78l-304 320v-290h90v-30h-196v30h69v577h-69zM132 332h141q85 0 123.5 34.5t38.5 104.5q0 65 -37 99t-122 34h-144v-272z" />
    <glyph glyph-name="S" unicode="S" horiz-adv-x="481" 
d="M377 483v96q-62 37 -136 37q-158 0 -158 -138q0 -42 12.5 -68t45.5 -41q26 -12 104.5 -22.5t118.5 -28.5t59.5 -51.5t19.5 -96.5q0 -89 -59 -135t-146 -46q-124 0 -205 69v96h36v-84q67 -49 169 -49q70 0 119 38t49 114q0 43 -12 69.5t-43 41.5q-34 17 -114 27.5
t-109 23.5q-83 37 -83 145q0 82 56 126t137 44q107 0 175 -57v-110h-36z" />
    <glyph glyph-name="T" unicode="T" horiz-adv-x="547" 
d="M477 483v121h-185v-574h93v-30h-223v30h93v574h-185v-121h-36v156h479v-156h-36z" />
    <glyph glyph-name="U" unicode="U" horiz-adv-x="646" 
d="M433 607v32h189v-32h-63v-380q0 -238 -236 -238t-236 239v379h-63v32h189v-32h-89v-387q0 -58 15.5 -98.5t44.5 -61.5t62.5 -30t76.5 -9q92 0 145.5 43.5t53.5 154.5v388h-89z" />
    <glyph glyph-name="V" unicode="V" horiz-adv-x="621" 
d="M415 606v33h188v-33h-49l-213 -606h-61l-213 606h-49v33h183v-33h-96l206 -588l206 588h-102z" />
    <glyph glyph-name="W" unicode="W" horiz-adv-x="849" 
d="M585 0l-161 586l-160 -586h-60l-141 606h-45v33h184v-33h-102l136 -585l169 618h41l169 -618l134 585h-107v33h189v-33h-46l-139 -606h-61z" />
    <glyph glyph-name="X" unicode="X" horiz-adv-x="604" 
d="M385 0v30h102l-186 283l-187 -283h105v-30h-195v30h52l199 303l-184 274h-51v32h178v-32h-85l171 -254l172 254h-90v32h181v-32h-53l-184 -274l199 -303h51v-30h-195z" />
    <glyph glyph-name="Y" unicode="Y" horiz-adv-x="569" 
d="M16 606v33h188v-33h-99l181 -330l178 330h-100v33h189v-33h-52l-198 -364v-212h93v-30h-223v30h93v212l-199 364h-51z" />
    <glyph glyph-name="Z" unicode="Z" horiz-adv-x="530" 
d="M55 483v156h433v-55l-423 -551h392v123h36v-156h-458v53l423 551h-367v-121h-36z" />
    <glyph glyph-name="bracketleft" unicode="[" horiz-adv-x="314" 
d="M84 -98v771h203v-32h-167v-709h167v-30h-203z" />
    <glyph glyph-name="backslash" unicode="\" horiz-adv-x="300" 
d="M18 673h35l246 -771h-35z" />
    <glyph glyph-name="bracketright" unicode="]" horiz-adv-x="314" 
d="M230 -98h-203v30h167v709h-167v32h203v-771z" />
    <glyph glyph-name="asciicircum" unicode="^" horiz-adv-x="328" 
d="M299 445h-36l-99 172l-99 -172h-36l109 194h52z" />
    <glyph glyph-name="underscore" unicode="_" horiz-adv-x="341" 
d="M-6 -134v30h353v-30h-353z" />
    <glyph glyph-name="grave" unicode="`" horiz-adv-x="404" 
d="M197 547l-106 113h53l87 -113h-34z" />
    <glyph glyph-name="a" unicode="a" horiz-adv-x="456" 
d="M56 344v78q51 59 157 59q73 0 116 -35.5t43 -105.5v-251q0 -36 10.5 -50.5t32.5 -14.5q15 0 27 3v-22q-12 -8 -33 -8q-71 0 -71 88v30q-12 -57 -52 -90t-108 -33q-66 0 -106.5 33t-40.5 91v1q0 57 41 84t125 46q82 18 111.5 37.5t29.5 59.5v1q0 106 -126 106
q-70 0 -123 -36v-71h-33zM180 19q68 0 113 43.5t45 139.5v80q-27 -34 -139 -62q-76 -19 -104 -40t-28 -63v-3q0 -43 29.5 -69t83.5 -26z" />
    <glyph glyph-name="b" unicode="b" horiz-adv-x="555" 
d="M24 641v32h102v-342q11 70 66.5 110t125.5 40q91 0 146.5 -62.5t55.5 -171.5v-2q0 -123 -56 -188t-148 -65q-70 0 -123.5 42t-66.5 106q0 -33 -2.5 -68t-5.5 -54l-2 -18h-92v30h67v611h-67zM316 21q79 0 123.5 55.5t44.5 165.5v20q0 89 -46.5 139.5t-126.5 50.5
q-78 0 -131.5 -56t-53.5 -146v-4q0 -113 57.5 -169t132.5 -56z" />
    <glyph glyph-name="c" unicode="c" horiz-adv-x="447" 
d="M359 348v79q-45 26 -108 26q-76 0 -129 -48t-53 -143v-22q0 -106 47.5 -162.5t132.5 -56.5q92 0 152 55v-28q-44 -56 -147 -56q-101 0 -161 65t-60 183v4q0 64 19.5 112t52 74.5t69 38.5t77.5 12q102 0 141 -46v-87h-33z" />
    <glyph glyph-name="d" unicode="d" horiz-adv-x="553" 
d="M348 641v32h116v-643h65v-30h-89q-11 65 -11 140q-13 -64 -65.5 -106t-120.5 -42q-94 0 -151 65t-57 188v2q0 109 56.5 171.5t148.5 62.5q70 0 123.5 -40t65.5 -110v310h-81zM243 21q73 0 129.5 56.5t56.5 168.5v4q0 90 -52 146t-130 56q-81 0 -128.5 -50.5t-47.5 -139.5
v-20q0 -110 45.5 -165.5t126.5 -55.5z" />
    <glyph glyph-name="e" unicode="e" horiz-adv-x="457" 
d="M260 -8q-109 0 -168 65t-59 183v1q0 105 59.5 172.5t151.5 67.5q86 0 131.5 -52t45.5 -141q0 -30 -3 -56h-348q0 -101 47 -156t144 -55q94 0 154 53v-29q-16 -19 -59 -36t-96 -17zM244 453q-75 0 -124 -54t-50 -142h317v4q0 98 -35 145t-108 47z" />
    <glyph glyph-name="f" unicode="f" horiz-adv-x="286" 
d="M21 442v30h70v65q0 69 32 104t80 35q46 0 63 -25v-18q-27 12 -54 12q-86 0 -86 -104v-69h140v-30h-140v-412h85v-30h-187v30h67v412h-70z" />
    <glyph glyph-name="g" unicode="g" horiz-adv-x="549" 
d="M245 -152q-60 0 -108 19t-69 45v28q28 -27 75 -44.5t99 -17.5q91 0 139 45.5t48 126.5v110q-13 -65 -65.5 -106.5t-120.5 -41.5q-94 0 -151 62.5t-57 180.5v2q0 105 56.5 164.5t148.5 59.5q69 0 122.5 -37t66.5 -103q0 29 2.5 62t5.5 51l3 18h85v-34h-61v-376
q0 -105 -58.5 -159.5t-160.5 -54.5zM243 41q73 0 129.5 54t56.5 161v4q0 87 -52 139.5t-130 52.5q-81 0 -128.5 -48t-47.5 -132v-20q0 -104 45.5 -157.5t126.5 -53.5z" />
    <glyph glyph-name="h" unicode="h" horiz-adv-x="544" 
d="M349 0v30h75v306q0 58 -28 86.5t-91 28.5q-76 0 -126 -51t-53 -134v-236h75v-30h-177v30h67v611h-67v32h102v-338q11 71 65 108.5t120 37.5q148 0 148 -153v-298h61v-30h-171z" />
    <glyph glyph-name="i" unicode="i" horiz-adv-x="223" 
d="M24 438v34h105v-442h70v-30h-175v30h70v408h-70zM105 572q-13 0 -22 8.5t-9 21.5t9 22t22 9t22 -9t9 -22t-9 -21.5t-22 -8.5z" />
    <glyph glyph-name="j" unicode="j" horiz-adv-x="194" 
d="M20 438v34h105v-528q0 -47 -24 -71t-65 -24q-40 0 -55 17v22q21 -9 44 -9q65 0 65 63v496h-70zM101 572q-13 0 -22 8.5t-9 21.5t9 22t22 9t22 -9t9 -22t-9 -21.5t-22 -8.5z" />
    <glyph glyph-name="k" unicode="k" horiz-adv-x="457" 
d="M24 641v32h102v-643h75v-30h-177v30h67v611h-67zM357 0l-222 244l217 228h67v-34h-56l-185 -194l196 -214h61v-30h-78z" />
    <glyph glyph-name="l" unicode="l" horiz-adv-x="223" 
d="M24 641v32h105v-643h70v-30h-175v30h70v611h-70z" />
    <glyph glyph-name="m" unicode="m" horiz-adv-x="817" 
d="M320 0v30h74v312q0 55 -24.5 82t-79.5 27q-69 0 -115 -51t-49 -134v-236h74v-30h-176v30h67v408h-67v34h91q11 -65 11 -122v-15q11 71 60.5 108.5t109.5 37.5q133 0 133 -146q11 71 60.5 108.5t109.5 37.5q133 0 133 -147v-304h61v-30h-170v30h74v312q0 55 -24.5 82
t-79.5 27q-69 0 -115 -51t-49 -134v-236h74v-30h-183z" />
    <glyph glyph-name="n" unicode="n" horiz-adv-x="544" 
d="M349 0v30h75v306q0 58 -28 86.5t-91 28.5q-76 0 -126 -51t-53 -134v-236h75v-30h-177v30h67v408h-67v34h91q11 -65 11 -122v-15q11 71 65 108.5t120 37.5q148 0 148 -153v-298h61v-30h-171z" />
    <glyph glyph-name="o" unicode="o" horiz-adv-x="503" 
d="M252 20q82 0 132 56.5t50 164.5v20q0 87 -50 139.5t-132 52.5q-83 0 -133 -52.5t-50 -139.5v-20q0 -108 50.5 -164.5t132.5 -56.5zM252 -8q-97 0 -158 66.5t-61 186.5v2q0 107 59 170.5t160 63.5q100 0 159 -62.5t59 -168.5v-2q0 -121 -61 -188.5t-157 -67.5z" />
    <glyph glyph-name="p" unicode="p" horiz-adv-x="555" 
d="M24 438v34h91q11 -65 11 -122v-19q11 70 66.5 110t125.5 40q91 0 146.5 -62.5t55.5 -171.5v-2q0 -123 -56 -188t-148 -65q-70 0 -123.5 42t-66.5 106v-256h81v-30h-183v30h67v554h-67zM316 21q79 0 123.5 55.5t44.5 165.5v20q0 89 -46.5 139.5t-126.5 50.5
q-78 0 -131.5 -56t-53.5 -146v-4q0 -113 57.5 -169t132.5 -56z" />
    <glyph glyph-name="q" unicode="q" horiz-adv-x="555" 
d="M348 -146v30h81v256q-13 -64 -65.5 -106t-120.5 -42q-94 0 -151 65t-57 188v2q0 109 56.5 171.5t148.5 62.5q70 0 123.5 -40t65.5 -110q0 34 2.5 69t5.5 54l3 18h91v-34h-67v-554h67v-30h-183zM243 21q73 0 129.5 56.5t56.5 168.5v4q0 90 -52 146t-130 56
q-81 0 -128.5 -50.5t-47.5 -139.5v-20q0 -110 45.5 -165.5t126.5 -55.5z" />
    <glyph glyph-name="r" unicode="r" horiz-adv-x="332" 
d="M24 438v34h91q11 -65 11 -122v-19q11 70 48 108.5t92 38.5q26 0 35 -13v-22q-89 6 -132 -48t-43 -183v-182h87v-30h-189v30h67v408h-67z" />
    <glyph glyph-name="s" unicode="s" horiz-adv-x="398" 
d="M302 361v72q-47 20 -104 20q-55 0 -87 -25.5t-32 -71.5q0 -29 9 -46.5t33 -28.5q25 -12 84 -22t84 -21q67 -29 67 -115q0 -61 -43.5 -96t-114.5 -35q-105 0 -159 51v80h33v-74q49 -29 125 -29q59 0 91.5 26.5t32.5 74.5q0 68 -45 87q-28 12 -85 22t-79 20
q-34 15 -50.5 39.5t-16.5 67.5q0 57 43 90.5t110 33.5q91 0 137 -38v-82h-33z" />
    <glyph glyph-name="t" unicode="t" horiz-adv-x="320" 
d="M210 -5q-125 0 -125 136v311h-65v19q48 6 61.5 25.5t18.5 92.5h20v-107h162v-30h-162v-315q0 -55 22.5 -78t63.5 -23q52 0 90 31v-26q-26 -36 -86 -36z" />
    <glyph glyph-name="u" unicode="u" horiz-adv-x="536" 
d="M345 438v34h100v-442h67v-30h-91q-11 65 -11 122v15q-11 -72 -59 -109t-112 -37q-154 0 -154 175v272h-61v34h96v-314q0 -67 26.5 -102t94.5 -35q71 0 118.5 51.5t50.5 133.5v232h-65z" />
    <glyph glyph-name="v" unicode="v" horiz-adv-x="508" 
d="M345 438v34h145v-34h-41l-166 -438h-58l-166 438h-41v34h147v-34h-69l159 -422l159 422h-69z" />
    <glyph glyph-name="w" unicode="w" horiz-adv-x="717" 
d="M480 0l-118 426l-127 -426h-55l-126 438h-38v34h144v-34h-71l120 -418l134 452h40l126 -452l120 418h-70v34h142v-34h-38l-126 -438h-57z" />
    <glyph glyph-name="x" unicode="x" horiz-adv-x="505" 
d="M309 0v29h93l-151 196l-152 -196h93v-29h-170v30h41l166 214l-152 194h-55v34h173v-32h-79l137 -176l138 176h-78v32h169v-34h-56l-151 -193l166 -215h42v-30h-174z" />
    <glyph glyph-name="y" unicode="y" horiz-adv-x="508" 
d="M345 438v34h145v-34h-42l-176 -471q-23 -64 -52 -91t-73 -27q-54 0 -75 23v18q26 -11 64 -11q71 0 101 82l14 39h-24l-169 438h-40v34h147v-34h-70l162 -422l156 422h-68z" />
    <glyph glyph-name="z" unicode="z" horiz-adv-x="427" 
d="M51 361v111h339v-41l-322 -402h285v91h33v-120h-351v41l322 402h-273v-82h-33z" />
    <glyph glyph-name="braceleft" unicode="{" horiz-adv-x="275" 
d="M68 291v-3q97 -15 97 -98q0 -27 -15.5 -79.5t-15.5 -76.5q0 -80 83 -127v-5h-37q-32 15 -58 48t-26 78q0 28 17.5 85.5t17.5 80.5q0 35 -19.5 53.5t-77.5 21.5v41q58 3 77.5 21.5t19.5 53.5q0 23 -17.5 78.5t-17.5 83.5q0 45 26 78t58 48h37v-5q-83 -47 -83 -127
q0 -24 15.5 -74.5t15.5 -77.5q0 -83 -97 -98z" />
    <glyph glyph-name="bar" unicode="|" horiz-adv-x="196" 
d="M115 673v-771h-34v771h34z" />
    <glyph glyph-name="braceright" unicode="}" horiz-adv-x="275" 
d="M203 288v3q-97 15 -97 98q0 27 15.5 77.5t15.5 74.5q0 80 -83 127v5h37q32 -15 58 -48t26 -78q0 -28 -17.5 -83.5t-17.5 -78.5q0 -35 19.5 -53.5t77.5 -21.5v-41q-58 -3 -77.5 -21.5t-19.5 -53.5q0 -23 17.5 -80.5t17.5 -85.5q0 -45 -26 -78t-58 -48h-37v5q83 47 83 127
q0 24 -15.5 76.5t-15.5 79.5q0 83 97 98z" />
    <glyph glyph-name="asciitilde" unicode="~" horiz-adv-x="259" 
d="M37 237q-8 30 5 50t40 20q21 0 54 -17t41 -17q25 0 22 37h23q8 -30 -4 -50t-37 -20q-19 0 -54.5 17t-43.5 17q-26 0 -23 -37h-23z" />
    <glyph glyph-name="uni00A0" unicode="&#xa0;" horiz-adv-x="183" 
 />
    <glyph glyph-name="exclamdown" unicode="&#xa1;" horiz-adv-x="192" 
d="M71 -183l7 529h30l7 -529h-44zM92 481q13 0 22.5 -9.5t9.5 -22.5t-9.5 -22.5t-22.5 -9.5t-22.5 9.5t-9.5 22.5t9.5 22.5t22.5 9.5z" />
    <glyph glyph-name="cent" unicode="&#xa2;" horiz-adv-x="431" 
d="M359 348v79q-30 17 -66 23l-73 -428q9 -1 29 -1q92 0 152 55v-28q-44 -56 -147 -56q-20 0 -39 3l-17 -102h-31l18 108q-72 20 -112 81.5t-40 157.5v4q0 64 19.5 112t52 74.5t69 38.5t77.5 12h16l16 93h31l-17 -96q67 -10 95 -43v-87h-33zM69 240q0 -174 121 -211l72 424
h-11q-76 0 -129 -48t-53 -143v-22z" />
    <glyph glyph-name="sterling" unicode="&#xa3;" horiz-adv-x="493" 
d="M44 298v32h60v131q0 88 50.5 138.5t136.5 50.5q96 0 145 -58v-92h-36v85q-43 31 -106 31q-73 0 -113 -40t-40 -118v-128h194v-32h-194v-87q0 -72 -23 -112.5t-69 -64.5v-1h361v93h36v-126h-422v49q43 25 61.5 60.5t18.5 102.5v86h-60z" />
    <glyph glyph-name="yen" unicode="&#xa5;" horiz-adv-x="539" 
d="M468 299v-29h-180v-63h180v-29h-180v-148h93v-30h-223v30h93v148h-166v29h166v63h-166v29h157l-169 307h-47v33h183v-33h-96l157 -290l157 290h-95v33h181v-33h-48l-169 -307h172z" />
    <glyph glyph-name="brokenbar" unicode="&#xa6;" horiz-adv-x="196" 
d="M81 275h34v-373h-34v373zM115 673v-348h-34v348h34z" />
    <glyph glyph-name="section" unicode="&#xa7;" horiz-adv-x="472" 
d="M367 604v-77h-33v68q-40 21 -95 21q-54 0 -81 -25.5t-27 -71.5q0 -53 49 -78q23 -11 90.5 -28.5t92.5 -28.5q80 -35 80 -109q0 -51 -32.5 -81t-88.5 -39q57 -32 57 -100q0 -61 -41.5 -96.5t-109.5 -35.5q-103 0 -156 55v73h33v-65q49 -32 122 -32q56 0 85.5 25.5
t29.5 73.5q0 56 -53 82q-26 12 -91 33.5t-88 31.5q-81 35 -81 104q0 50 35.5 79t95.5 32q-64 27 -64 105q0 58 38.5 92.5t104.5 34.5q85 0 128 -43zM301 175q39 0 71.5 26t32.5 66q0 58 -56 85q-37 18 -95 31t-84 13q-44 0 -74.5 -23t-30.5 -61q0 -50 59 -79q33 -16 98 -37
t79 -21z" />
    <glyph glyph-name="dieresis" unicode="&#xa8;" horiz-adv-x="404" 
d="M134 572q-12 0 -21 8.5t-9 20.5q0 13 9 21.5t21 8.5q13 0 22 -8.5t9 -21.5t-9 -21t-22 -8zM270 572q-13 0 -22 8t-9 21t9 21.5t22 8.5q12 0 21 -8.5t9 -21.5q0 -12 -9 -20.5t-21 -8.5z" />
    <glyph glyph-name="copyright" unicode="&#xa9;" horiz-adv-x="748" 
d="M374 -14q-142 0 -238.5 97t-96.5 234q0 138 97 236t238 98q143 0 239 -97.5t96 -236.5q0 -138 -96 -234.5t-239 -96.5zM374 13q128 0 215 89.5t87 214.5q0 126 -87 216.5t-215 90.5q-126 0 -214 -90.5t-88 -216.5q0 -125 88 -214.5t214 -89.5zM381 132q-79 0 -123.5 52
t-44.5 144v1q0 86 42 136.5t122 50.5q76 0 112 -40v-65h-33v55q-36 17 -77 17q-127 0 -127 -145v-14q0 -162 129 -162q44 0 81 20v56h33v-64q-15 -16 -46 -29t-68 -13z" />
    <glyph glyph-name="ordfeminine" unicode="&#xaa;" horiz-adv-x="354" 
d="M51 551v55q39 41 113 41q55 0 86 -27t31 -78v-166q0 -23 7 -32.5t24 -9.5q6 0 18 2v-20q-9 -6 -27 -6q-54 0 -55 63v17q-9 -39 -38.5 -61.5t-74.5 -22.5q-47 0 -75 22.5t-28 63.5v1q0 41 31 60.5t93 32.5q54 11 73 24t19 40v1q0 69 -86 69q-46 0 -79 -19v-50h-32z
M141 330q45 0 76 29t31 90v54q-19 -21 -90 -40q-53 -14 -72 -27.5t-19 -41.5v-2q0 -28 19.5 -45t54.5 -17z" />
    <glyph glyph-name="guillemotleft" unicode="&#xab;" horiz-adv-x="280" 
d="M118 396h37l-98 -151l98 -150h-37l-97 150zM257 396l-98 -151l98 -150h-37l-97 150l97 151h37z" />
    <glyph glyph-name="registered" unicode="&#xae;" horiz-adv-x="367" 
d="M184 348q-64 0 -108 43.5t-44 105.5q0 61 44 105.5t108 44.5t107.5 -44t43.5 -106t-43 -105.5t-108 -43.5zM184 370q55 0 90 36.5t35 90.5t-35 91t-90 37q-54 0 -90 -37t-36 -91t36 -90.5t90 -36.5zM220 421l-63 71v-71h-27v159h58q27 0 41 -13t14 -35q0 -21 -14.5 -32.5
t-37.5 -11.5l61 -67h-32zM157 505h27q18 0 25 6.5t7 21.5q0 26 -31 26h-28v-54z" />
    <glyph glyph-name="macron" unicode="&#xaf;" horiz-adv-x="404" 
d="M102 572v28h200v-28h-200z" />
    <glyph glyph-name="degree" unicode="&#xb0;" horiz-adv-x="275" 
d="M29 541q0 45 31 76.5t77 31.5t77.5 -31.5t31.5 -76.5t-31.5 -76t-77.5 -31t-77 31t-31 76zM62 541q0 -33 21 -55.5t54 -22.5t54.5 22.5t21.5 55.5q0 34 -21.5 56.5t-54.5 22.5t-54 -22t-21 -57z" />
    <glyph glyph-name="plusminus" unicode="&#xb1;" horiz-adv-x="418" 
d="M226 493v-162h151v-31h-151v-162h-34v162h-151v31h151v162h34zM41 0v31h336v-31h-336z" />
    <glyph glyph-name="acute" unicode="&#xb4;" horiz-adv-x="404" 
d="M173 547l87 113h53l-106 -113h-34z" />
    <glyph glyph-name="paragraph" unicode="&#xb6;" horiz-adv-x="446" 
d="M268 -98h-35v408h-29q-78 0 -125 46t-47 123q0 73 45.5 116.5t119.5 43.5h223v-32h-65v-705h-35v705h-52v-705z" />
    <glyph glyph-name="periodcentered" unicode="&#xb7;" horiz-adv-x="142" 
d="M71 244q-13 0 -22.5 9.5t-9.5 22.5t9.5 22.5t22.5 9.5t22.5 -9.5t9.5 -22.5t-9.5 -22.5t-22.5 -9.5z" />
    <glyph glyph-name="cedilla" unicode="&#xb8;" horiz-adv-x="404" 
d="M156 0h28v-43q36 -1 56 -16.5t20 -43.5q0 -58 -70 -58q-43 0 -64 23v19q25 -16 57 -16q42 0 42 33q0 37 -69 40v62z" />
    <glyph glyph-name="ordmasculine" unicode="&#xba;" horiz-adv-x="383" 
d="M192 331q56 0 89.5 36.5t33.5 109.5v17q0 59 -33.5 93t-89.5 34q-57 0 -90.5 -34t-33.5 -93v-17q0 -73 34 -109.5t90 -36.5zM192 306q-70 0 -114.5 46t-44.5 130v1q0 74 43 119t116 45q72 0 115 -44t43 -118v-2q0 -84 -44.5 -130.5t-113.5 -46.5z" />
    <glyph glyph-name="guillemotright" unicode="&#xbb;" horiz-adv-x="280" 
d="M162 95h-37l98 151l-98 150h37l97 -150zM23 95l98 151l-98 150h37l97 -150l-97 -151h-37z" />
    <glyph glyph-name="onequarter" unicode="&#xbc;" horiz-adv-x="606" 
d="M477 369h52v-235h51v-29h-51v-79h51v-26h-140v26h56v79h-172v40zM568 639l-463 -639h-35l463 639h35zM34 270v26h70v311l-77 -82h-1v39l70 75h42v-343h64v-26h-168zM496 348l-147 -214h147v214z" />
    <glyph glyph-name="onehalf" unicode="&#xbd;" horiz-adv-x="660" 
d="M400 0v43q93 65 140.5 118.5t47.5 106.5q0 78 -80 78q-55 0 -101 -39v27q34 42 102 42q51 0 82 -27t31 -82q0 -59 -51 -115.5t-148 -121.5v-1h175v49h31v-78h-229zM568 639l-463 -639h-35l463 639h35zM34 270v26h70v311l-77 -82h-1v39l70 75h42v-343h64v-26h-168z" />
    <glyph glyph-name="threequarters" unicode="&#xbe;" horiz-adv-x="646" 
d="M517 369h52v-235h51v-29h-51v-79h51v-26h-140v26h56v79h-172v40zM134 646q50 0 80 -25.5t30 -68.5q0 -37 -20 -60.5t-56 -28.5v-1q42 -4 66 -29.5t24 -67.5q0 -45 -33 -72.5t-90 -27.5q-73 0 -113 40v28q43 -40 112 -40q89 0 89 79q0 76 -93 76h-46v27h46q81 0 81 72
q0 69 -79 69q-56 0 -99 -33v26q37 37 101 37zM599 639l-463 -639h-35l463 639h35zM536 348l-147 -214h147v214z" />
    <glyph glyph-name="questiondown" unicode="&#xbf;" horiz-adv-x="382" 
d="M72 -36q0 -59 33 -88t89 -29q63 0 111 28v79h35v-83q-51 -57 -149 -57q-70 0 -114.5 39.5t-44.5 113.5q0 48 28 94.5t61 78t61 76.5t28 90v40h30v-42q0 -41 -17.5 -78.5t-42 -67l-49 -58.5t-42 -64t-17.5 -72zM193 449q0 13 9.5 22.5t22.5 9.5t22.5 -9.5t9.5 -22.5
t-9.5 -22.5t-22.5 -9.5t-22.5 9.5t-9.5 22.5z" />
    <glyph glyph-name="Agrave" unicode="&#xc0;" horiz-adv-x="638" 
d="M20 0v30h53l214 609h64l214 -609h53v-30h-202v30h109l-69 198h-276l-69 -198h107v-30h-198zM318 625l-126 -363h252zM310 688l-90 93h57l69 -93h-36z" />
    <glyph glyph-name="Aacute" unicode="&#xc1;" horiz-adv-x="638" 
d="M20 0v30h53l214 609h64l214 -609h53v-30h-202v30h109l-69 198h-276l-69 -198h107v-30h-198zM318 625l-126 -363h252zM295 688l69 93h57l-90 -93h-36z" />
    <glyph glyph-name="Acircumflex" unicode="&#xc2;" horiz-adv-x="638" 
d="M20 0v30h53l214 609h64l214 -609h53v-30h-202v30h109l-69 198h-276l-69 -198h107v-30h-198zM318 625l-126 -363h252zM437 681h-34l-84 71l-84 -71h-34l89 97h58z" />
    <glyph glyph-name="Atilde" unicode="&#xc3;" horiz-adv-x="638" 
d="M20 0v30h53l214 609h64l214 -609h53v-30h-202v30h109l-69 198h-276l-69 -198h107v-30h-198zM318 625l-126 -363h252zM216 688q-7 32 6.5 51.5t42.5 19.5q21 0 59 -14.5t49 -14.5q28 0 25 37h24q7 -32 -5.5 -51.5t-39.5 -19.5q-19 0 -59 14.5t-52 14.5q-29 0 -26 -37h-24z
" />
    <glyph glyph-name="Adieresis" unicode="&#xc4;" horiz-adv-x="638" 
d="M20 0v30h53l214 609h64l214 -609h53v-30h-202v30h109l-69 198h-276l-69 -198h107v-30h-198zM318 625l-126 -363h252zM393 690q-13 0 -22 8t-9 21t9 21.5t22 8.5q12 0 21 -8.5t9 -21.5q0 -12 -9 -20.5t-21 -8.5zM245 690q-12 0 -21 8.5t-9 20.5q0 13 9 21.5t21 8.5
q13 0 22 -8.5t9 -21.5t-9 -21t-22 -8z" />
    <glyph glyph-name="Aring" unicode="&#xc5;" horiz-adv-x="638" 
d="M20 0v30h53l214 609h64l214 -609h53v-30h-202v30h109l-69 198h-276l-69 -198h107v-30h-198zM318 625l-126 -363h252zM320 668q-31 0 -52 21t-21 52t21 52.5t52 21.5q32 0 53 -21.5t21 -52.5t-21 -52t-53 -21zM320 692q20 0 33 13t13 36q0 21 -13.5 35t-32.5 14
q-18 0 -31.5 -14t-13.5 -35q0 -22 13 -35.5t32 -13.5z" />
    <glyph glyph-name="AE" unicode="&#xc6;" horiz-adv-x="850" 
d="M764 483v121h-294v-260h268v-34h-268v-277h304v123h36v-156h-446v30h69v198h-238l-88 -198h109v-30h-196v30h48l256 577h-75v32h551v-156h-36zM362 604l-152 -342h223v342h-71z" />
    <glyph glyph-name="Ccedilla" unicode="&#xc7;" horiz-adv-x="573" 
d="M328 -11q-13 0 -33 2v-34q36 -1 56 -16.5t20 -43.5q0 -58 -70 -58q-43 0 -64 23v19q25 -16 57 -16q42 0 42 33q0 37 -69 40v56q-110 19 -168.5 107t-58.5 227v2q0 146 71 233t213 87q135 0 195 -71v-96h-36v89q-67 44 -159 44q-127 0 -186 -74t-59 -205v-11
q0 -143 61 -224t185 -81q98 0 168 47v88h36v-98q-81 -69 -201 -69z" />
    <glyph glyph-name="Egrave" unicode="&#xc8;" horiz-adv-x="525" 
d="M439 483v121h-307v-260h281v-34h-281v-277h317v123h36v-156h-459v30h69v577h-69v32h449v-156h-36zM264 688l-90 93h57l69 -93h-36z" />
    <glyph glyph-name="Eacute" unicode="&#xc9;" horiz-adv-x="525" 
d="M439 483v121h-307v-260h281v-34h-281v-277h317v123h36v-156h-459v30h69v577h-69v32h449v-156h-36zM249 688l69 93h57l-90 -93h-36z" />
    <glyph glyph-name="Ecircumflex" unicode="&#xca;" horiz-adv-x="525" 
d="M439 483v121h-307v-260h281v-34h-281v-277h317v123h36v-156h-459v30h69v577h-69v32h449v-156h-36zM391 681h-34l-84 71l-84 -71h-34l89 97h58z" />
    <glyph glyph-name="Edieresis" unicode="&#xcb;" horiz-adv-x="525" 
d="M439 483v121h-307v-260h281v-34h-281v-277h317v123h36v-156h-459v30h69v577h-69v32h449v-156h-36zM347 690q-13 0 -22 8t-9 21t9 21.5t22 8.5q12 0 21 -8.5t9 -21.5q0 -12 -9 -20.5t-21 -8.5zM199 690q-12 0 -21 8.5t-9 20.5q0 13 9 21.5t21 8.5q13 0 22 -8.5t9 -21.5
t-9 -21t-22 -8z" />
    <glyph glyph-name="Igrave" unicode="&#xcc;" horiz-adv-x="238" 
d="M26 607v32h186v-32h-74v-577h74v-30h-186v30h75v577h-75zM110 688l-90 93h57l69 -93h-36z" />
    <glyph glyph-name="Iacute" unicode="&#xcd;" horiz-adv-x="238" 
d="M26 607v32h186v-32h-74v-577h74v-30h-186v30h75v577h-75zM95 688l69 93h57l-90 -93h-36z" />
    <glyph glyph-name="Icircumflex" unicode="&#xce;" horiz-adv-x="238" 
d="M26 607v32h186v-32h-74v-577h74v-30h-186v30h75v577h-75zM237 681h-34l-84 71l-84 -71h-34l89 97h58z" />
    <glyph glyph-name="Idieresis" unicode="&#xcf;" horiz-adv-x="238" 
d="M26 607v32h186v-32h-74v-577h74v-30h-186v30h75v577h-75zM193 690q-13 0 -22 8t-9 21t9 21.5t22 8.5q12 0 21 -8.5t9 -21.5q0 -12 -9 -20.5t-21 -8.5zM45 690q-12 0 -21 8.5t-9 20.5q0 13 9 21.5t21 8.5q13 0 22 -8.5t9 -21.5t-9 -21t-22 -8z" />
    <glyph glyph-name="Eth" unicode="&#xd0;" horiz-adv-x="612" 
d="M24 310v33h71v264h-69v32h279q143 0 205 -76t62 -227v-2q0 -334 -295 -334h-251v30h69v280h-71zM132 33h135q145 0 205.5 73.5t60.5 225.5v13q0 133 -49.5 196t-185.5 63h-166v-261h212v-33h-212v-277z" />
    <glyph glyph-name="Ntilde" unicode="&#xd1;" horiz-adv-x="649" 
d="M423 607v32h200v-32h-69v-607h-64l-360 617v-587h99v-30h-203v30h69v577h-69v32h133l360 -616v584h-96zM223 688q-7 32 6.5 51.5t42.5 19.5q21 0 59 -14.5t49 -14.5q28 0 25 37h24q7 -32 -5.5 -51.5t-39.5 -19.5q-19 0 -59 14.5t-52 14.5q-29 0 -26 -37h-24z" />
    <glyph glyph-name="Ograve" unicode="&#xd2;" horiz-adv-x="635" 
d="M317 -11q-126 0 -201.5 88.5t-75.5 252.5v2q0 152 70.5 235t206.5 83t207 -83t71 -235v-2q0 -165 -75 -253t-203 -88zM317 21q116 0 177.5 80t61.5 229v16q0 127 -58.5 198.5t-180.5 71.5q-121 0 -179.5 -71.5t-58.5 -198.5v-16q0 -149 61.5 -229t176.5 -80zM308 688
l-90 93h57l69 -93h-36z" />
    <glyph glyph-name="Oacute" unicode="&#xd3;" horiz-adv-x="635" 
d="M317 21q116 0 177.5 80t61.5 229v16q0 127 -58.5 198.5t-180.5 71.5q-121 0 -179.5 -71.5t-58.5 -198.5v-16q0 -149 61.5 -229t176.5 -80zM317 -11q-126 0 -201.5 88.5t-75.5 252.5v2q0 152 70.5 235t206.5 83t207 -83t71 -235v-2q0 -165 -75 -253t-203 -88zM293 688
l69 93h57l-90 -93h-36z" />
    <glyph glyph-name="Ocircumflex" unicode="&#xd4;" horiz-adv-x="635" 
d="M317 21q116 0 177.5 80t61.5 229v16q0 127 -58.5 198.5t-180.5 71.5q-121 0 -179.5 -71.5t-58.5 -198.5v-16q0 -149 61.5 -229t176.5 -80zM317 -11q-126 0 -201.5 88.5t-75.5 252.5v2q0 152 70.5 235t206.5 83t207 -83t71 -235v-2q0 -165 -75 -253t-203 -88zM435 681h-34
l-84 71l-84 -71h-34l89 97h58z" />
    <glyph glyph-name="Otilde" unicode="&#xd5;" horiz-adv-x="635" 
d="M317 21q116 0 177.5 80t61.5 229v16q0 127 -58.5 198.5t-180.5 71.5q-121 0 -179.5 -71.5t-58.5 -198.5v-16q0 -149 61.5 -229t176.5 -80zM317 -11q-126 0 -201.5 88.5t-75.5 252.5v2q0 152 70.5 235t206.5 83t207 -83t71 -235v-2q0 -165 -75 -253t-203 -88zM214 688
q-7 32 6.5 51.5t42.5 19.5q21 0 59 -14.5t49 -14.5q28 0 25 37h24q7 -32 -5.5 -51.5t-39.5 -19.5q-19 0 -59 14.5t-52 14.5q-29 0 -26 -37h-24z" />
    <glyph glyph-name="Odieresis" unicode="&#xd6;" horiz-adv-x="635" 
d="M317 21q116 0 177.5 80t61.5 229v16q0 127 -58.5 198.5t-180.5 71.5q-121 0 -179.5 -71.5t-58.5 -198.5v-16q0 -149 61.5 -229t176.5 -80zM317 -11q-126 0 -201.5 88.5t-75.5 252.5v2q0 152 70.5 235t206.5 83t207 -83t71 -235v-2q0 -165 -75 -253t-203 -88zM243 690
q-12 0 -21 8.5t-9 20.5q0 13 9 21.5t21 8.5q13 0 22 -8.5t9 -21.5t-9 -21t-22 -8zM391 690q-13 0 -22 8t-9 21t9 21.5t22 8.5q12 0 21 -8.5t9 -21.5q0 -12 -9 -20.5t-21 -8.5z" />
    <glyph glyph-name="multiply" unicode="&#xd7;" horiz-adv-x="419" 
d="M50 168l137 140l-137 141l22 22l137 -140l138 140l22 -22l-138 -141l138 -140l-22 -22l-138 140l-137 -140z" />
    <glyph glyph-name="Oslash" unicode="&#xd8;" horiz-adv-x="635" 
d="M317 -11q-113 0 -183 66l-57 -74h-39l75 97q-73 89 -73 252v2q0 152 70.5 235t206.5 83q116 0 186 -62l53 68h39l-70 -91q70 -82 70 -233v-2q0 -165 -74 -253t-204 -88zM79 330q0 -145 55 -224l349 455q-61 55 -166 55q-121 0 -179.5 -71.5t-58.5 -198.5v-16zM317 21
q118 0 178.5 79.5t60.5 229.5v16q0 126 -52 192l-350 -456q58 -61 163 -61z" />
    <glyph glyph-name="Ugrave" unicode="&#xd9;" horiz-adv-x="646" 
d="M433 607v32h189v-32h-63v-380q0 -238 -236 -238t-236 239v379h-63v32h189v-32h-89v-387q0 -58 15.5 -98.5t44.5 -61.5t62.5 -30t76.5 -9q92 0 145.5 43.5t53.5 154.5v388h-89zM315 688l-90 93h57l69 -93h-36z" />
    <glyph glyph-name="Uacute" unicode="&#xda;" horiz-adv-x="646" 
d="M433 607v32h189v-32h-63v-380q0 -238 -236 -238t-236 239v379h-63v32h189v-32h-89v-387q0 -58 15.5 -98.5t44.5 -61.5t62.5 -30t76.5 -9q92 0 145.5 43.5t53.5 154.5v388h-89zM300 688l69 93h57l-90 -93h-36z" />
    <glyph glyph-name="Ucircumflex" unicode="&#xdb;" horiz-adv-x="646" 
d="M433 607v32h189v-32h-63v-380q0 -238 -236 -238t-236 239v379h-63v32h189v-32h-89v-387q0 -58 15.5 -98.5t44.5 -61.5t62.5 -30t76.5 -9q92 0 145.5 43.5t53.5 154.5v388h-89zM442 681h-34l-84 71l-84 -71h-34l89 97h58z" />
    <glyph glyph-name="Udieresis" unicode="&#xdc;" horiz-adv-x="646" 
d="M433 607v32h189v-32h-63v-380q0 -238 -236 -238t-236 239v379h-63v32h189v-32h-89v-387q0 -58 15.5 -98.5t44.5 -61.5t62.5 -30t76.5 -9q92 0 145.5 43.5t53.5 154.5v388h-89zM398 690q-13 0 -22 8t-9 21t9 21.5t22 8.5q12 0 21 -8.5t9 -21.5q0 -12 -9 -20.5t-21 -8.5z
M250 690q-12 0 -21 8.5t-9 20.5q0 13 9 21.5t21 8.5q13 0 22 -8.5t9 -21.5t-9 -21t-22 -8z" />
    <glyph glyph-name="Yacute" unicode="&#xdd;" horiz-adv-x="569" 
d="M16 606v33h188v-33h-99l181 -330l178 330h-100v33h189v-33h-52l-198 -364v-212h93v-30h-223v30h93v212l-199 364h-51zM261 688l69 93h57l-90 -93h-36z" />
    <glyph glyph-name="Thorn" unicode="&#xde;" horiz-adv-x="513" 
d="M28 607v32h201v-32h-95v-110h170q180 0 180 -172q0 -85 -54 -128t-152 -43h-144v-124h95v-30h-203v30h71v577h-69zM134 188h140q89 0 130.5 34t41.5 103q0 71 -35 104t-115 33h-162v-274z" />
    <glyph glyph-name="germandbls" unicode="&#xdf;" horiz-adv-x="511" 
d="M21 442v30h70v40q0 81 47.5 123.5t130.5 42.5q62 0 104.5 -30.5t42.5 -95.5q0 -27 -16.5 -53.5t-39.5 -48.5l-46 -42.5t-39.5 -42t-16.5 -40.5q0 -31 35 -46q18 -8 62.5 -18.5t64.5 -20.5q69 -35 69 -117q0 -59 -41 -95t-108 -36q-77 0 -128 42v79h33v-71q41 -22 95 -22
q52 0 83 27.5t31 75.5q0 62 -46 87q-20 11 -64 22t-61 18q-57 23 -57 75q0 23 16 47t39 45l45.5 42t38.5 46t16 50q0 48 -31 72t-83 24q-141 0 -141 -140v-511h-102v30h67v412h-70z" />
    <glyph glyph-name="agrave" unicode="&#xe0;" horiz-adv-x="456" 
d="M56 344v78q51 59 157 59q73 0 116 -35.5t43 -105.5v-251q0 -36 10.5 -50.5t32.5 -14.5q15 0 27 3v-22q-12 -8 -33 -8q-71 0 -71 88v30q-12 -57 -52 -90t-108 -33q-66 0 -106.5 33t-40.5 91v1q0 57 41 84t125 46q82 18 111.5 37.5t29.5 59.5v1q0 106 -126 106
q-70 0 -123 -36v-71h-33zM180 19q68 0 113 43.5t45 139.5v80q-27 -34 -139 -62q-76 -19 -104 -40t-28 -63v-3q0 -43 29.5 -69t83.5 -26zM208 547l-106 113h53l87 -113h-34z" />
    <glyph glyph-name="aacute" unicode="&#xe1;" horiz-adv-x="456" 
d="M56 344v78q51 59 157 59q73 0 116 -35.5t43 -105.5v-251q0 -36 10.5 -50.5t32.5 -14.5q15 0 27 3v-22q-12 -8 -33 -8q-71 0 -71 88v30q-12 -57 -52 -90t-108 -33q-66 0 -106.5 33t-40.5 91v1q0 57 41 84t125 46q82 18 111.5 37.5t29.5 59.5v1q0 106 -126 106
q-70 0 -123 -36v-71h-33zM180 19q68 0 113 43.5t45 139.5v80q-27 -34 -139 -62q-76 -19 -104 -40t-28 -63v-3q0 -43 29.5 -69t83.5 -26zM184 547l87 113h53l-106 -113h-34z" />
    <glyph glyph-name="acircumflex" unicode="&#xe2;" horiz-adv-x="456" 
d="M56 344v78q51 59 157 59q73 0 116 -35.5t43 -105.5v-251q0 -36 10.5 -50.5t32.5 -14.5q15 0 27 3v-22q-12 -8 -33 -8q-71 0 -71 88v30q-12 -57 -52 -90t-108 -33q-66 0 -106.5 33t-40.5 91v1q0 57 41 84t125 46q82 18 111.5 37.5t29.5 59.5v1q0 106 -126 106
q-70 0 -123 -36v-71h-33zM180 19q68 0 113 43.5t45 139.5v80q-27 -34 -139 -62q-76 -19 -104 -40t-28 -63v-3q0 -43 29.5 -69t83.5 -26zM100 547l83 113h54l83 -113h-33l-77 89l-77 -89h-33z" />
    <glyph glyph-name="atilde" unicode="&#xe3;" horiz-adv-x="456" 
d="M56 344v78q51 59 157 59q73 0 116 -35.5t43 -105.5v-251q0 -36 10.5 -50.5t32.5 -14.5q15 0 27 3v-22q-12 -8 -33 -8q-71 0 -71 88v30q-12 -57 -52 -90t-108 -33q-66 0 -106.5 33t-40.5 91v1q0 57 41 84t125 46q82 18 111.5 37.5t29.5 59.5v1q0 106 -126 106
q-70 0 -123 -36v-71h-33zM180 19q68 0 113 43.5t45 139.5v80q-27 -34 -139 -62q-76 -19 -104 -40t-28 -63v-3q0 -43 29.5 -69t83.5 -26zM112 558q-8 30 5 50t41 20q20 0 54.5 -15t43.5 -15q26 0 23 37h23q8 -30 -4 -50t-38 -20q-18 0 -54.5 15t-46.5 15q-27 0 -24 -37h-23z
" />
    <glyph glyph-name="adieresis" unicode="&#xe4;" horiz-adv-x="456" 
d="M56 344v78q51 59 157 59q73 0 116 -35.5t43 -105.5v-251q0 -36 10.5 -50.5t32.5 -14.5q15 0 27 3v-22q-12 -8 -33 -8q-71 0 -71 88v30q-12 -57 -52 -90t-108 -33q-66 0 -106.5 33t-40.5 91v1q0 57 41 84t125 46q82 18 111.5 37.5t29.5 59.5v1q0 106 -126 106
q-70 0 -123 -36v-71h-33zM180 19q68 0 113 43.5t45 139.5v80q-27 -34 -139 -62q-76 -19 -104 -40t-28 -63v-3q0 -43 29.5 -69t83.5 -26zM281 572q-13 0 -22 8t-9 21t9 21.5t22 8.5q12 0 21 -8.5t9 -21.5q0 -12 -9 -20.5t-21 -8.5zM145 572q-12 0 -21 8.5t-9 20.5
q0 13 9 21.5t21 8.5q13 0 22 -8.5t9 -21.5t-9 -21t-22 -8z" />
    <glyph glyph-name="aring" unicode="&#xe5;" horiz-adv-x="456" 
d="M56 344v78q51 59 157 59q73 0 116 -35.5t43 -105.5v-251q0 -36 10.5 -50.5t32.5 -14.5q15 0 27 3v-22q-12 -8 -33 -8q-71 0 -71 88v30q-12 -57 -52 -90t-108 -33q-66 0 -106.5 33t-40.5 91v1q0 57 41 84t125 46q82 18 111.5 37.5t29.5 59.5v1q0 106 -126 106
q-70 0 -123 -36v-71h-33zM180 19q68 0 113 43.5t45 139.5v80q-27 -34 -139 -62q-76 -19 -104 -40t-28 -63v-3q0 -43 29.5 -69t83.5 -26zM214 545q-31 0 -52 21t-21 52t21 52.5t52 21.5q32 0 53 -21.5t21 -52.5t-21 -52t-53 -21zM214 569q20 0 33 13.5t13 35.5q0 21 -13.5 35
t-32.5 14q-18 0 -31.5 -14t-13.5 -35q0 -22 13 -35.5t32 -13.5z" />
    <glyph glyph-name="ae" unicode="&#xe6;" horiz-adv-x="753" 
d="M175 -8q-63 0 -103.5 33t-40.5 91v1q0 57 41 84t125 46q82 18 111.5 37.5t29.5 59.5v1q0 106 -124 106q-72 0 -125 -35v-72h-33v78q53 59 159 59q66 0 106 -31.5t44 -93.5q23 59 69.5 92t109.5 33q85 0 129 -52t44 -141q0 -33 -4 -56h-342q0 -211 189 -211q91 0 151 53
v-29q-16 -19 -57.5 -36t-94.5 -17q-164 0 -208 145q-12 -69 -57.5 -107t-118.5 -38zM544 453q-74 0 -123 -54.5t-50 -141.5h312v4q0 99 -33.5 145.5t-105.5 46.5zM177 19q70 0 115.5 44t45.5 140v79q-26 -33 -139 -62q-75 -19 -103.5 -40t-28.5 -62v-3q0 -43 29 -69.5
t81 -26.5z" />
    <glyph glyph-name="ccedilla" unicode="&#xe7;" horiz-adv-x="447" 
d="M254 -8q-20 0 -38 3v-38q36 -1 56 -16.5t20 -43.5q0 -58 -70 -58q-43 0 -64 23v19q25 -16 57 -16q42 0 42 33q0 37 -69 40v62q-73 19 -114 81t-41 159v4q0 64 19.5 112t52 74.5t69 38.5t77.5 12q102 0 141 -46v-87h-33v79q-45 26 -108 26q-76 0 -129 -48t-53 -143v-22
q0 -106 47.5 -162.5t132.5 -56.5q92 0 152 55v-28q-44 -56 -147 -56z" />
    <glyph glyph-name="egrave" unicode="&#xe8;" horiz-adv-x="457" 
d="M260 -8q-109 0 -168 65t-59 183v1q0 105 59.5 172.5t151.5 67.5q86 0 131.5 -52t45.5 -141q0 -30 -3 -56h-348q0 -101 47 -156t144 -55q94 0 154 53v-29q-16 -19 -59 -36t-96 -17zM244 453q-75 0 -124 -54t-50 -142h317v4q0 98 -35 145t-108 47zM234 547l-106 113h53
l87 -113h-34z" />
    <glyph glyph-name="eacute" unicode="&#xe9;" horiz-adv-x="457" 
d="M260 -8q-109 0 -168 65t-59 183v1q0 105 59.5 172.5t151.5 67.5q86 0 131.5 -52t45.5 -141q0 -30 -3 -56h-348q0 -101 47 -156t144 -55q94 0 154 53v-29q-16 -19 -59 -36t-96 -17zM244 453q-75 0 -124 -54t-50 -142h317v4q0 98 -35 145t-108 47zM207 547l87 113h53
l-106 -113h-34z" />
    <glyph glyph-name="ecircumflex" unicode="&#xea;" horiz-adv-x="457" 
d="M260 -8q-109 0 -168 65t-59 183v1q0 105 59.5 172.5t151.5 67.5q86 0 131.5 -52t45.5 -141q0 -30 -3 -56h-348q0 -101 47 -156t144 -55q94 0 154 53v-29q-16 -19 -59 -36t-96 -17zM244 453q-75 0 -124 -54t-50 -142h317v4q0 98 -35 145t-108 47zM129 547l83 113h54
l83 -113h-33l-77 89l-77 -89h-33z" />
    <glyph glyph-name="edieresis" unicode="&#xeb;" horiz-adv-x="457" 
d="M260 -8q-109 0 -168 65t-59 183v1q0 105 59.5 172.5t151.5 67.5q86 0 131.5 -52t45.5 -141q0 -30 -3 -56h-348q0 -101 47 -156t144 -55q94 0 154 53v-29q-16 -19 -59 -36t-96 -17zM244 453q-75 0 -124 -54t-50 -142h317v4q0 98 -35 145t-108 47zM307 572q-13 0 -22 8
t-9 21t9 21.5t22 8.5q12 0 21 -8.5t9 -21.5q0 -12 -9 -20.5t-21 -8.5zM171 572q-12 0 -21 8.5t-9 20.5q0 13 9 21.5t21 8.5q13 0 22 -8.5t9 -21.5t-9 -21t-22 -8z" />
    <glyph glyph-name="igrave" unicode="&#xec;" horiz-adv-x="223" 
d="M24 438v34h105v-442h70v-30h-175v30h70v408h-70zM86 547l-106 113h53l87 -113h-34z" />
    <glyph glyph-name="iacute" unicode="&#xed;" horiz-adv-x="223" 
d="M24 438v34h105v-442h70v-30h-175v30h70v408h-70zM62 547l87 113h53l-106 -113h-34z" />
    <glyph glyph-name="icircumflex" unicode="&#xee;" horiz-adv-x="223" 
d="M24 438v34h105v-442h70v-30h-175v30h70v408h-70zM-19 547l83 113h54l83 -113h-33l-77 89l-77 -89h-33z" />
    <glyph glyph-name="idieresis" unicode="&#xef;" horiz-adv-x="223" 
d="M24 438v34h105v-442h70v-30h-175v30h70v408h-70zM153 572q-13 0 -22 8t-9 21t9 21.5t22 8.5q12 0 21 -8.5t9 -21.5q0 -12 -9 -20.5t-21 -8.5zM33 572q-12 0 -21 8.5t-9 20.5q0 13 9 21.5t21 8.5q13 0 22 -8.5t9 -21.5t-9 -21t-22 -8z" />
    <glyph glyph-name="eth" unicode="&#xf0;" horiz-adv-x="507" 
d="M96 534l-11 22l133 57q-51 28 -121 55v5h55q55 -21 99 -46l104 45l11 -22l-89 -38q193 -125 193 -347v-17q0 -121 -61.5 -188.5t-156.5 -67.5q-96 0 -157.5 66.5t-61.5 186.5v2q0 106 58 170t153 64q123 0 175 -97l1 1q-45 133 -175 213zM252 20q82 0 132 55.5t50 165.5
v20q0 91 -51 141.5t-133 50.5t-131.5 -51.5t-49.5 -140.5v-20q0 -110 50.5 -165.5t132.5 -55.5z" />
    <glyph glyph-name="ntilde" unicode="&#xf1;" horiz-adv-x="544" 
d="M349 0v30h75v306q0 58 -28 86.5t-91 28.5q-76 0 -126 -51t-53 -134v-236h75v-30h-177v30h67v408h-67v34h91q11 -65 11 -122v-15q11 71 65 108.5t120 37.5q148 0 148 -153v-298h61v-30h-171zM180 558q-8 30 5 50t41 20q20 0 54.5 -15t43.5 -15q26 0 23 37h23q8 -30 -4 -50
t-38 -20q-18 0 -54.5 15t-46.5 15q-27 0 -24 -37h-23z" />
    <glyph glyph-name="ograve" unicode="&#xf2;" horiz-adv-x="503" 
d="M252 20q82 0 132 56.5t50 164.5v20q0 87 -50 139.5t-132 52.5q-83 0 -133 -52.5t-50 -139.5v-20q0 -108 50.5 -164.5t132.5 -56.5zM252 -8q-97 0 -158 66.5t-61 186.5v2q0 107 59 170.5t160 63.5q100 0 159 -62.5t59 -168.5v-2q0 -121 -61 -188.5t-157 -67.5zM246 547
l-106 113h53l87 -113h-34z" />
    <glyph glyph-name="oacute" unicode="&#xf3;" horiz-adv-x="503" 
d="M252 20q82 0 132 56.5t50 164.5v20q0 87 -50 139.5t-132 52.5q-83 0 -133 -52.5t-50 -139.5v-20q0 -108 50.5 -164.5t132.5 -56.5zM252 -8q-97 0 -158 66.5t-61 186.5v2q0 107 59 170.5t160 63.5q100 0 159 -62.5t59 -168.5v-2q0 -121 -61 -188.5t-157 -67.5zM222 547
l87 113h53l-106 -113h-34z" />
    <glyph glyph-name="ocircumflex" unicode="&#xf4;" horiz-adv-x="503" 
d="M252 20q82 0 132 56.5t50 164.5v20q0 87 -50 139.5t-132 52.5q-83 0 -133 -52.5t-50 -139.5v-20q0 -108 50.5 -164.5t132.5 -56.5zM252 -8q-97 0 -158 66.5t-61 186.5v2q0 107 59 170.5t160 63.5q100 0 159 -62.5t59 -168.5v-2q0 -121 -61 -188.5t-157 -67.5zM141 547
l83 113h54l83 -113h-33l-77 89l-77 -89h-33z" />
    <glyph glyph-name="otilde" unicode="&#xf5;" horiz-adv-x="503" 
d="M252 20q82 0 132 56.5t50 164.5v20q0 87 -50 139.5t-132 52.5q-83 0 -133 -52.5t-50 -139.5v-20q0 -108 50.5 -164.5t132.5 -56.5zM252 -8q-97 0 -158 66.5t-61 186.5v2q0 107 59 170.5t160 63.5q100 0 159 -62.5t59 -168.5v-2q0 -121 -61 -188.5t-157 -67.5zM156 558
q-8 30 5 50t41 20q20 0 54.5 -15t43.5 -15q26 0 23 37h23q8 -30 -4 -50t-38 -20q-18 0 -54.5 15t-46.5 15q-27 0 -24 -37h-23z" />
    <glyph glyph-name="odieresis" unicode="&#xf6;" horiz-adv-x="503" 
d="M252 20q82 0 132 56.5t50 164.5v20q0 87 -50 139.5t-132 52.5q-83 0 -133 -52.5t-50 -139.5v-20q0 -108 50.5 -164.5t132.5 -56.5zM252 -8q-97 0 -158 66.5t-61 186.5v2q0 107 59 170.5t160 63.5q100 0 159 -62.5t59 -168.5v-2q0 -121 -61 -188.5t-157 -67.5zM183 572
q-12 0 -21 8.5t-9 20.5q0 13 9 21.5t21 8.5q13 0 22 -8.5t9 -21.5t-9 -21t-22 -8zM319 572q-13 0 -22 8t-9 21t9 21.5t22 8.5q12 0 21 -8.5t9 -21.5q0 -12 -9 -20.5t-21 -8.5z" />
    <glyph glyph-name="divide" unicode="&#xf7;" horiz-adv-x="418" 
d="M41 330h336v-31h-336v31zM210 163q-13 0 -22.5 9.5t-9.5 22.5t9.5 22.5t22.5 9.5t22.5 -9.5t9.5 -22.5t-9.5 -22.5t-22.5 -9.5zM210 402q-13 0 -22.5 9.5t-9.5 22.5t9.5 22.5t22.5 9.5t22.5 -9.5t9.5 -22.5t-9.5 -22.5t-22.5 -9.5z" />
    <glyph glyph-name="oslash" unicode="&#xf8;" horiz-adv-x="503" 
d="M252 -8q-77 0 -134 43l-41 -54h-36l56 73q-64 69 -64 191v2q0 107 59 170.5t160 63.5q82 0 137 -43l38 49h36l-52 -68q59 -62 59 -169v-2q0 -121 -61 -188.5t-157 -67.5zM69 241q0 -109 46 -164l256 337q-47 39 -119 39q-83 0 -133 -52.5t-50 -139.5v-20zM252 20
q82 0 132 56.5t50 164.5v20q0 83 -42 133l-257 -337q44 -37 117 -37z" />
    <glyph glyph-name="ugrave" unicode="&#xf9;" horiz-adv-x="536" 
d="M421 0q-11 65 -11 122v15q-11 -72 -59 -109t-112 -37q-154 0 -154 175v272h-61v34h96v-314q0 -67 26.5 -102t94.5 -35q71 0 118.5 51.5t50.5 133.5v232h-65v34h100v-442h67v-30h-91zM255 547l-106 113h53l87 -113h-34z" />
    <glyph glyph-name="uacute" unicode="&#xfa;" horiz-adv-x="536" 
d="M345 438v34h100v-442h67v-30h-91q-11 65 -11 122v15q-11 -72 -59 -109t-112 -37q-154 0 -154 175v272h-61v34h96v-314q0 -67 26.5 -102t94.5 -35q71 0 118.5 51.5t50.5 133.5v232h-65zM231 547l87 113h53l-106 -113h-34z" />
    <glyph glyph-name="ucircumflex" unicode="&#xfb;" horiz-adv-x="536" 
d="M345 438v34h100v-442h67v-30h-91q-11 65 -11 122v15q-11 -72 -59 -109t-112 -37q-154 0 -154 175v272h-61v34h96v-314q0 -67 26.5 -102t94.5 -35q71 0 118.5 51.5t50.5 133.5v232h-65zM150 547l83 113h54l83 -113h-33l-77 89l-77 -89h-33z" />
    <glyph glyph-name="udieresis" unicode="&#xfc;" horiz-adv-x="536" 
d="M421 0q-11 65 -11 122v15q-11 -72 -59 -109t-112 -37q-154 0 -154 175v272h-61v34h96v-314q0 -67 26.5 -102t94.5 -35q71 0 118.5 51.5t50.5 133.5v232h-65v34h100v-442h67v-30h-91zM328 572q-13 0 -22 8t-9 21t9 21.5t22 8.5q12 0 21 -8.5t9 -21.5q0 -12 -9 -20.5
t-21 -8.5zM192 572q-12 0 -21 8.5t-9 20.5q0 13 9 21.5t21 8.5q13 0 22 -8.5t9 -21.5t-9 -21t-22 -8z" />
    <glyph glyph-name="yacute" unicode="&#xfd;" horiz-adv-x="508" 
d="M345 438v34h145v-34h-42l-176 -471q-23 -64 -52 -91t-73 -27q-54 0 -75 23v18q26 -11 64 -11q71 0 101 82l14 39h-24l-169 438h-40v34h147v-34h-70l162 -422l156 422h-68zM233 547l87 113h53l-106 -113h-34z" />
    <glyph glyph-name="thorn" unicode="&#xfe;" horiz-adv-x="537" 
d="M298 -8q-70 0 -123.5 42t-66.5 106v-256h81v-30h-183v30h67v757h-70v32h105v-342q11 70 66.5 110t125.5 40q91 0 146.5 -62.5t55.5 -171.5v-2q0 -123 -56 -188t-148 -65zM298 21q79 0 123.5 55.5t44.5 165.5v20q0 89 -46.5 139.5t-126.5 50.5q-78 0 -131.5 -56
t-53.5 -146v-4q0 -113 57.5 -169t132.5 -56z" />
    <glyph glyph-name="ydieresis" unicode="&#xff;" horiz-adv-x="508" 
d="M345 438v34h145v-34h-42l-176 -471q-23 -64 -52 -91t-73 -27q-54 0 -75 23v18q26 -11 64 -11q71 0 101 82l14 39h-24l-169 438h-40v34h147v-34h-70l162 -422l156 422h-68zM325 572q-13 0 -22 8t-9 21t9 21.5t22 8.5q12 0 21 -8.5t9 -21.5q0 -12 -9 -20.5t-21 -8.5z
M189 572q-12 0 -21 8.5t-9 20.5q0 13 9 21.5t21 8.5q13 0 22 -8.5t9 -21.5t-9 -21t-22 -8z" />
    <glyph glyph-name="Amacron" unicode="&#x100;" horiz-adv-x="638" 
d="M20 0v30h53l214 609h64l214 -609h53v-30h-202v30h109l-69 198h-276l-69 -198h107v-30h-198zM318 625l-126 -363h252zM215 699v30h208v-30h-208z" />
    <glyph glyph-name="amacron" unicode="&#x101;" horiz-adv-x="456" 
d="M56 344v78q51 59 157 59q73 0 116 -35.5t43 -105.5v-251q0 -36 10.5 -50.5t32.5 -14.5q15 0 27 3v-22q-12 -8 -33 -8q-71 0 -71 88v30q-12 -57 -52 -90t-108 -33q-66 0 -106.5 33t-40.5 91v1q0 57 41 84t125 46q82 18 111.5 37.5t29.5 59.5v1q0 106 -126 106
q-70 0 -123 -36v-71h-33zM180 19q68 0 113 43.5t45 139.5v80q-27 -34 -139 -62q-76 -19 -104 -40t-28 -63v-3q0 -43 29.5 -69t83.5 -26zM113 572v28h200v-28h-200z" />
    <glyph glyph-name="Abreve" unicode="&#x102;" horiz-adv-x="638" 
d="M20 0v30h53l214 609h64l214 -609h53v-30h-202v30h109l-69 198h-276l-69 -198h107v-30h-198zM318 625l-126 -363h252zM384 775h28q2 -38 -23 -65.5t-71 -27.5q-45 0 -69.5 27.5t-22.5 65.5h28q-1 -25 15.5 -42.5t48.5 -17.5q33 0 50 17.5t16 42.5z" />
    <glyph glyph-name="abreve" unicode="&#x103;" horiz-adv-x="456" 
d="M56 344v78q51 59 157 59q73 0 116 -35.5t43 -105.5v-251q0 -36 10.5 -50.5t32.5 -14.5q15 0 27 3v-22q-12 -8 -33 -8q-71 0 -71 88v30q-12 -57 -52 -90t-108 -33q-66 0 -106.5 33t-40.5 91v1q0 57 41 84t125 46q82 18 111.5 37.5t29.5 59.5v1q0 106 -126 106
q-70 0 -123 -36v-71h-33zM180 19q68 0 113 43.5t45 139.5v80q-27 -34 -139 -62q-76 -19 -104 -40t-28 -63v-3q0 -43 29.5 -69t83.5 -26zM276 650h28q2 -42 -21 -71.5t-71 -29.5q-47 0 -69.5 29.5t-20.5 71.5h28q-1 -29 14.5 -48.5t47.5 -19.5q33 0 49 19.5t15 48.5z" />
    <glyph glyph-name="Aogonek" unicode="&#x104;" horiz-adv-x="638" 
d="M20 0v30h53l214 609h64l214 -609h53v-27q-80 -34 -80 -88q0 -39 41 -39q18 0 36 10v-20q-14 -18 -43 -18q-33 0 -51 17.5t-18 47.5t19.5 52.5t45.5 34.5h-152v30h109l-69 198h-276l-69 -198h107v-30h-198zM318 625l-126 -363h252z" />
    <glyph glyph-name="aogonek" unicode="&#x105;" horiz-adv-x="456" 
d="M56 344v78q51 59 157 59q73 0 116 -35.5t43 -105.5v-251q0 -36 10.5 -50.5t32.5 -14.5q15 0 27 3v-22q-85 -35 -85 -90q0 -39 41 -39q18 0 36 10v-20q-14 -18 -43 -18q-33 0 -51 17.5t-18 47.5q0 31 21.5 53t47.5 33q-53 11 -53 86v30q-12 -57 -52 -90t-108 -33
q-66 0 -106.5 33t-40.5 91v1q0 57 41 84t125 46q82 18 111.5 37.5t29.5 59.5v1q0 106 -126 106q-70 0 -123 -36v-71h-33zM180 19q68 0 113 43.5t45 139.5v80q-27 -34 -139 -62q-76 -19 -104 -40t-28 -63v-3q0 -43 29.5 -69t83.5 -26z" />
    <glyph glyph-name="Cacute" unicode="&#x106;" horiz-adv-x="573" 
d="M483 483v89q-67 44 -159 44q-127 0 -186 -74t-59 -205v-11q0 -143 61 -224t185 -81q98 0 168 47v88h36v-98q-81 -69 -201 -69q-139 0 -213.5 90.5t-74.5 248.5v2q0 146 71 233t213 87q135 0 195 -71v-96h-36zM291 688l69 93h57l-90 -93h-36z" />
    <glyph glyph-name="cacute" unicode="&#x107;" horiz-adv-x="447" 
d="M359 348v79q-45 26 -108 26q-76 0 -129 -48t-53 -143v-22q0 -106 47.5 -162.5t132.5 -56.5q92 0 152 55v-28q-44 -56 -147 -56q-101 0 -161 65t-60 183v4q0 64 19.5 112t52 74.5t69 38.5t77.5 12q102 0 141 -46v-87h-33zM213 547l87 113h53l-106 -113h-34z" />
    <glyph glyph-name="Ccircumflex" unicode="&#x108;" horiz-adv-x="573" 
d="M483 483v89q-67 44 -159 44q-127 0 -186 -74t-59 -205v-11q0 -143 61 -224t185 -81q98 0 168 47v88h36v-98q-81 -69 -201 -69q-139 0 -213.5 90.5t-74.5 248.5v2q0 146 71 233t213 87q135 0 195 -71v-96h-36zM433 681h-34l-84 71l-84 -71h-34l89 97h58z" />
    <glyph glyph-name="ccircumflex" unicode="&#x109;" horiz-adv-x="447" 
d="M359 348v79q-45 26 -108 26q-76 0 -129 -48t-53 -143v-22q0 -106 47.5 -162.5t132.5 -56.5q92 0 152 55v-28q-44 -56 -147 -56q-101 0 -161 65t-60 183v4q0 64 19.5 112t52 74.5t69 38.5t77.5 12q102 0 141 -46v-87h-33zM132 547l83 113h54l83 -113h-33l-77 89l-77 -89
h-33z" />
    <glyph glyph-name="Cdotaccent" unicode="&#x10a;" horiz-adv-x="573" 
d="M483 483v89q-67 44 -159 44q-127 0 -186 -74t-59 -205v-11q0 -143 61 -224t185 -81q98 0 168 47v88h36v-98q-81 -69 -201 -69q-139 0 -213.5 90.5t-74.5 248.5v2q0 146 71 233t213 87q135 0 195 -71v-96h-36zM315 690q-13 0 -22 8.5t-9 21.5t9 22t22 9t22 -9t9 -22
t-9 -21.5t-22 -8.5z" />
    <glyph glyph-name="cdotaccent" unicode="&#x10b;" horiz-adv-x="447" 
d="M359 348v79q-45 26 -108 26q-76 0 -129 -48t-53 -143v-22q0 -106 47.5 -162.5t132.5 -56.5q92 0 152 55v-28q-44 -56 -147 -56q-101 0 -161 65t-60 183v4q0 64 19.5 112t52 74.5t69 38.5t77.5 12q102 0 141 -46v-87h-33zM240 572q-13 0 -22 8.5t-9 21.5t9 22t22 9t22 -9
t9 -22t-9 -21.5t-22 -8.5z" />
    <glyph glyph-name="Ccaron" unicode="&#x10c;" horiz-adv-x="573" 
d="M483 483v89q-67 44 -159 44q-127 0 -186 -74t-59 -205v-11q0 -143 61 -224t185 -81q98 0 168 47v88h36v-98q-81 -69 -201 -69q-139 0 -213.5 90.5t-74.5 248.5v2q0 146 71 233t213 87q135 0 195 -71v-96h-36zM197 778h34l84 -71l84 71h34l-89 -97h-58z" />
    <glyph glyph-name="ccaron" unicode="&#x10d;" horiz-adv-x="447" 
d="M359 348v79q-45 26 -108 26q-76 0 -129 -48t-53 -143v-22q0 -106 47.5 -162.5t132.5 -56.5q92 0 152 55v-28q-44 -56 -147 -56q-101 0 -161 65t-60 183v4q0 64 19.5 112t52 74.5t69 38.5t77.5 12q102 0 141 -46v-87h-33zM130 665h33l77 -89l77 89h33l-83 -113h-54z" />
    <glyph glyph-name="Dcaron" unicode="&#x10e;" horiz-adv-x="612" 
d="M26 607v32h279q143 0 205 -76t62 -227v-2q0 -334 -295 -334h-251v30h69v577h-69zM132 33h135q145 0 205.5 73.5t60.5 225.5v13q0 133 -49.5 196t-185.5 63h-166v-571zM163 778h34l84 -71l84 71h34l-89 -97h-58z" />
    <glyph glyph-name="dcaron" unicode="&#x10f;" horiz-adv-x="553" 
d="M348 641v32h116v-643h65v-30h-89q-11 65 -11 140q-13 -64 -65.5 -106t-120.5 -42q-94 0 -151 65t-57 188v2q0 109 56.5 171.5t148.5 62.5q70 0 123.5 -40t65.5 -110v310h-81zM243 21q73 0 129.5 56.5t56.5 168.5v4q0 90 -52 146t-130 56q-81 0 -128.5 -50.5t-47.5 -139.5
v-20q0 -110 45.5 -165.5t126.5 -55.5zM500 552l9 121h40l-24 -121h-25z" />
    <glyph glyph-name="Dcroat" unicode="&#x110;" horiz-adv-x="612" 
d="M24 310v33h71v264h-69v32h279q143 0 205 -76t62 -227v-2q0 -334 -295 -334h-251v30h69v280h-71zM132 33h135q145 0 205.5 73.5t60.5 225.5v13q0 133 -49.5 196t-185.5 63h-166v-261h212v-33h-212v-277z" />
    <glyph glyph-name="dcroat" unicode="&#x111;" horiz-adv-x="553" 
d="M243 -8q-94 0 -151 65t-57 188v2q0 109 56.5 171.5t148.5 62.5q70 0 123.5 -40t65.5 -110v228h-181v27h181v87h35v-87h68v-27h-68v-529h65v-30h-89q-11 65 -11 140q-13 -64 -65.5 -106t-120.5 -42zM243 21q73 0 129.5 56.5t56.5 168.5v4q0 90 -52 146t-130 56
q-81 0 -128.5 -50.5t-47.5 -139.5v-20q0 -110 45.5 -165.5t126.5 -55.5z" />
    <glyph glyph-name="Emacron" unicode="&#x112;" horiz-adv-x="525" 
d="M439 483v121h-307v-260h281v-34h-281v-277h317v123h36v-156h-459v30h69v577h-69v32h449v-156h-36zM169 699v30h208v-30h-208z" />
    <glyph glyph-name="emacron" unicode="&#x113;" horiz-adv-x="457" 
d="M260 -8q-109 0 -168 65t-59 183v1q0 105 59.5 172.5t151.5 67.5q86 0 131.5 -52t45.5 -141q0 -30 -3 -56h-348q0 -101 47 -156t144 -55q94 0 154 53v-29q-16 -19 -59 -36t-96 -17zM244 453q-75 0 -124 -54t-50 -142h317v4q0 98 -35 145t-108 47zM139 572v28h200v-28h-200
z" />
    <glyph glyph-name="Ebreve" unicode="&#x114;" horiz-adv-x="525" 
d="M439 483v121h-307v-260h281v-34h-281v-277h317v123h36v-156h-459v30h69v577h-69v32h449v-156h-36zM338 775h28q2 -38 -23 -65.5t-71 -27.5q-45 0 -69.5 27.5t-22.5 65.5h28q-1 -25 15.5 -42.5t48.5 -17.5q33 0 50 17.5t16 42.5z" />
    <glyph glyph-name="ebreve" unicode="&#x115;" horiz-adv-x="457" 
d="M260 -8q-109 0 -168 65t-59 183v1q0 105 59.5 172.5t151.5 67.5q86 0 131.5 -52t45.5 -141q0 -30 -3 -56h-348q0 -101 47 -156t144 -55q94 0 154 53v-29q-16 -19 -59 -36t-96 -17zM244 453q-75 0 -124 -54t-50 -142h317v4q0 98 -35 145t-108 47zM302 650h28
q2 -42 -21 -71.5t-71 -29.5q-47 0 -69.5 29.5t-20.5 71.5h28q-1 -29 14.5 -48.5t47.5 -19.5q33 0 49 19.5t15 48.5z" />
    <glyph glyph-name="Edotaccent" unicode="&#x116;" horiz-adv-x="525" 
d="M439 483v121h-307v-260h281v-34h-281v-277h317v123h36v-156h-459v30h69v577h-69v32h449v-156h-36zM273 690q-13 0 -22 8.5t-9 21.5t9 22t22 9t22 -9t9 -22t-9 -21.5t-22 -8.5z" />
    <glyph glyph-name="edotaccent" unicode="&#x117;" horiz-adv-x="457" 
d="M260 -8q-109 0 -168 65t-59 183v1q0 105 59.5 172.5t151.5 67.5q86 0 131.5 -52t45.5 -141q0 -30 -3 -56h-348q0 -101 47 -156t144 -55q94 0 154 53v-29q-16 -19 -59 -36t-96 -17zM244 453q-75 0 -124 -54t-50 -142h317v4q0 98 -35 145t-108 47zM239 572q-13 0 -22 8.5
t-9 21.5t9 22t22 9t22 -9t9 -22t-9 -21.5t-22 -8.5z" />
    <glyph glyph-name="Eogonek" unicode="&#x118;" horiz-adv-x="525" 
d="M439 483v121h-307v-260h281v-34h-281v-277h317v123h36v-156h-57q-71 -32 -71 -85q0 -39 41 -39q18 0 36 10v-20q-14 -18 -43 -18q-33 0 -51 17.5t-18 47.5q0 56 59 87h-355v30h69v577h-69v32h449v-156h-36z" />
    <glyph glyph-name="eogonek" unicode="&#x119;" horiz-adv-x="457" 
d="M418 232h-348q0 -101 47 -156t144 -55q94 0 154 53v-29q-12 -12 -50 -31.5t-65 -43t-27 -55.5q0 -39 41 -39q18 0 36 10v-20q-14 -18 -43 -18q-33 0 -51 17.5t-18 47.5q0 50 60 82q-18 -3 -38 -3q-109 0 -168 65t-59 183v1q0 105 59.5 172.5t151.5 67.5q86 0 131.5 -52
t45.5 -141q0 -30 -3 -56zM244 453q-75 0 -124 -54t-50 -142h317v4q0 98 -35 145t-108 47z" />
    <glyph glyph-name="Ecaron" unicode="&#x11a;" horiz-adv-x="525" 
d="M439 483v121h-307v-260h281v-34h-281v-277h317v123h36v-156h-459v30h69v577h-69v32h449v-156h-36zM155 778h34l84 -71l84 71h34l-89 -97h-58z" />
    <glyph glyph-name="ecaron" unicode="&#x11b;" horiz-adv-x="457" 
d="M260 -8q-109 0 -168 65t-59 183v1q0 105 59.5 172.5t151.5 67.5q86 0 131.5 -52t45.5 -141q0 -30 -3 -56h-348q0 -101 47 -156t144 -55q94 0 154 53v-29q-16 -19 -59 -36t-96 -17zM244 453q-75 0 -124 -54t-50 -142h317v4q0 98 -35 145t-108 47zM129 665h33l77 -89l77 89
h33l-83 -113h-54z" />
    <glyph glyph-name="Gcircumflex" unicode="&#x11c;" horiz-adv-x="590" 
d="M342 282v32h195v-251q-25 -30 -77 -52t-118 -22q-141 0 -221.5 87t-80.5 245v2q0 154 80.5 240.5t203.5 86.5q128 0 195 -65v-102h-36v93q-68 40 -159 40q-111 0 -178 -74.5t-67 -207.5v-16q0 -144 68.5 -220.5t195.5 -76.5q87 0 157 47v214h-158zM443 681h-34l-84 71
l-84 -71h-34l89 97h58z" />
    <glyph glyph-name="gcircumflex" unicode="&#x11d;" horiz-adv-x="549" 
d="M245 -152q-60 0 -108 19t-69 45v28q28 -27 75 -44.5t99 -17.5q91 0 139 45.5t48 126.5v110q-13 -65 -65.5 -106.5t-120.5 -41.5q-94 0 -151 62.5t-57 180.5v2q0 105 56.5 164.5t148.5 59.5q69 0 122.5 -37t66.5 -103q0 29 2.5 62t5.5 51l3 18h85v-34h-61v-376
q0 -105 -58.5 -159.5t-160.5 -54.5zM243 41q73 0 129.5 54t56.5 161v4q0 87 -52 139.5t-130 52.5q-81 0 -128.5 -48t-47.5 -132v-20q0 -104 45.5 -157.5t126.5 -53.5zM151 547l83 113h54l83 -113h-33l-77 89l-77 -89h-33z" />
    <glyph glyph-name="Gbreve" unicode="&#x11e;" horiz-adv-x="590" 
d="M342 282v32h195v-251q-25 -30 -77 -52t-118 -22q-141 0 -221.5 87t-80.5 245v2q0 154 80.5 240.5t203.5 86.5q128 0 195 -65v-102h-36v93q-68 40 -159 40q-111 0 -178 -74.5t-67 -207.5v-16q0 -144 68.5 -220.5t195.5 -76.5q87 0 157 47v214h-158zM390 775h28
q2 -38 -23 -65.5t-71 -27.5q-45 0 -69.5 27.5t-22.5 65.5h28q-1 -25 15.5 -42.5t48.5 -17.5q33 0 50 17.5t16 42.5z" />
    <glyph glyph-name="gbreve" unicode="&#x11f;" horiz-adv-x="549" 
d="M245 -152q-60 0 -108 19t-69 45v28q28 -27 75 -44.5t99 -17.5q91 0 139 45.5t48 126.5v110q-13 -65 -65.5 -106.5t-120.5 -41.5q-94 0 -151 62.5t-57 180.5v2q0 105 56.5 164.5t148.5 59.5q69 0 122.5 -37t66.5 -103q0 29 2.5 62t5.5 51l3 18h85v-34h-61v-376
q0 -105 -58.5 -159.5t-160.5 -54.5zM243 41q73 0 129.5 54t56.5 161v4q0 87 -52 139.5t-130 52.5q-81 0 -128.5 -48t-47.5 -132v-20q0 -104 45.5 -157.5t126.5 -53.5zM324 650h28q2 -42 -21 -71.5t-71 -29.5q-47 0 -69.5 29.5t-20.5 71.5h28q-1 -29 14.5 -48.5t47.5 -19.5
q33 0 49 19.5t15 48.5z" />
    <glyph glyph-name="Gdotaccent" unicode="&#x120;" horiz-adv-x="590" 
d="M342 282v32h195v-251q-25 -30 -77 -52t-118 -22q-141 0 -221.5 87t-80.5 245v2q0 154 80.5 240.5t203.5 86.5q128 0 195 -65v-102h-36v93q-68 40 -159 40q-111 0 -178 -74.5t-67 -207.5v-16q0 -144 68.5 -220.5t195.5 -76.5q87 0 157 47v214h-158zM325 690q-13 0 -22 8.5
t-9 21.5t9 22t22 9t22 -9t9 -22t-9 -21.5t-22 -8.5z" />
    <glyph glyph-name="gdotaccent" unicode="&#x121;" horiz-adv-x="549" 
d="M245 -152q-60 0 -108 19t-69 45v28q28 -27 75 -44.5t99 -17.5q91 0 139 45.5t48 126.5v110q-13 -65 -65.5 -106.5t-120.5 -41.5q-94 0 -151 62.5t-57 180.5v2q0 105 56.5 164.5t148.5 59.5q69 0 122.5 -37t66.5 -103q0 29 2.5 62t5.5 51l3 18h85v-34h-61v-376
q0 -105 -58.5 -159.5t-160.5 -54.5zM243 41q73 0 129.5 54t56.5 161v4q0 87 -52 139.5t-130 52.5q-81 0 -128.5 -48t-47.5 -132v-20q0 -104 45.5 -157.5t126.5 -53.5zM261 572q-13 0 -22 8.5t-9 21.5t9 22t22 9t22 -9t9 -22t-9 -21.5t-22 -8.5z" />
    <glyph glyph-name="Gcommaaccent" unicode="&#x122;" horiz-adv-x="590" 
d="M342 282v32h195v-251q-25 -30 -77 -52t-118 -22q-141 0 -221.5 87t-80.5 245v2q0 154 80.5 240.5t203.5 86.5q128 0 195 -65v-102h-36v93q-68 40 -159 40q-111 0 -178 -74.5t-67 -207.5v-16q0 -144 68.5 -220.5t195.5 -76.5q87 0 157 47v214h-158zM313 -152h-24
q21 38 21 78q0 16 -4 29h36q4 -12 4 -30q0 -41 -33 -77z" />
    <glyph glyph-name="gcommaaccent" unicode="&#x123;" horiz-adv-x="549" 
d="M245 -152q-60 0 -108 19t-69 45v28q28 -27 75 -44.5t99 -17.5q91 0 139 45.5t48 126.5v110q-13 -65 -65.5 -106.5t-120.5 -41.5q-94 0 -151 62.5t-57 180.5v2q0 105 56.5 164.5t148.5 59.5q69 0 122.5 -37t66.5 -103q0 29 2.5 62t5.5 51l3 18h85v-34h-61v-376
q0 -105 -58.5 -159.5t-160.5 -54.5zM243 41q73 0 129.5 54t56.5 161v4q0 87 -52 139.5t-130 52.5q-81 0 -128.5 -48t-47.5 -132v-20q0 -104 45.5 -157.5t126.5 -53.5zM266 668h24q-21 -38 -21 -78q0 -16 4 -29h-36q-4 12 -4 30q0 41 33 77z" />
    <glyph glyph-name="Hcircumflex" unicode="&#x124;" horiz-adv-x="626" 
d="M402 0v30h92v280h-362v-280h92v-30h-198v30h69v577h-69v32h198v-32h-92v-263h362v263h-92v32h198v-32h-69v-577h69v-30h-198zM431 681h-34l-84 71l-84 -71h-34l89 97h58z" />
    <glyph glyph-name="hcircumflex" unicode="&#x125;" horiz-adv-x="544" 
d="M349 0v30h75v306q0 58 -28 86.5t-91 28.5q-76 0 -126 -51t-53 -134v-236h75v-30h-177v30h67v611h-67v32h102v-338q11 71 65 108.5t120 37.5q148 0 148 -153v-298h61v-30h-171zM393 703h-34l-84 71l-84 -71h-34l89 97h58z" />
    <glyph glyph-name="Hbar" unicode="&#x126;" horiz-adv-x="626" 
d="M402 0v30h92v280h-362v-280h92v-30h-198v30h69v447h-81v32h81v98h-69v32h198v-32h-92v-98h362v98h-92v32h198v-32h-69v-98h80v-32h-80v-447h69v-30h-198zM132 344h362v133h-362v-133z" />
    <glyph glyph-name="hbar" unicode="&#x127;" horiz-adv-x="544" 
d="M13 559v27h78v87h35v-87h171v-27h-171v-224q11 71 65 108.5t120 37.5q148 0 148 -153v-298h61v-30h-171v30h75v306q0 58 -28 86.5t-91 28.5q-76 0 -126 -51t-53 -134v-236h75v-30h-177v30h67v529h-78z" />
    <glyph glyph-name="Itilde" unicode="&#x128;" horiz-adv-x="238" 
d="M26 607v32h186v-32h-74v-577h74v-30h-186v30h75v577h-75zM16 688q-7 32 6.5 51.5t42.5 19.5q21 0 59 -14.5t49 -14.5q28 0 25 37h24q7 -32 -5.5 -51.5t-39.5 -19.5q-19 0 -59 14.5t-52 14.5q-29 0 -26 -37h-24z" />
    <glyph glyph-name="itilde" unicode="&#x129;" horiz-adv-x="223" 
d="M24 438v34h105v-442h70v-30h-175v30h70v408h-70zM-4 558q-8 30 5 50t41 20q20 0 54.5 -15t43.5 -15q26 0 23 37h23q8 -30 -4 -50t-38 -20q-18 0 -54.5 15t-46.5 15q-27 0 -24 -37h-23z" />
    <glyph glyph-name="Imacron" unicode="&#x12a;" horiz-adv-x="238" 
d="M26 607v32h186v-32h-74v-577h74v-30h-186v30h75v577h-75zM15 699v30h208v-30h-208z" />
    <glyph glyph-name="imacron" unicode="&#x12b;" horiz-adv-x="223" 
d="M24 438v34h105v-442h70v-30h-175v30h70v408h-70zM16 572v28h150v-28h-150z" />
    <glyph glyph-name="Ibreve" unicode="&#x12c;" horiz-adv-x="238" 
d="M26 607v32h186v-32h-74v-577h74v-30h-186v30h75v577h-75zM184 775h28q2 -38 -23 -65.5t-71 -27.5q-45 0 -69.5 27.5t-22.5 65.5h28q-1 -25 15.5 -42.5t48.5 -17.5q33 0 50 17.5t16 42.5z" />
    <glyph glyph-name="ibreve" unicode="&#x12d;" horiz-adv-x="223" 
d="M24 438v34h105v-442h70v-30h-175v30h70v408h-70zM154 650h28q2 -42 -21 -71.5t-71 -29.5q-47 0 -69.5 29.5t-20.5 71.5h28q-1 -29 14.5 -48.5t47.5 -19.5q33 0 49 19.5t15 48.5z" />
    <glyph glyph-name="Iogonek" unicode="&#x12e;" horiz-adv-x="238" 
d="M26 607v32h186v-32h-74v-577h74v-30h-54q-57 -33 -57 -85q0 -39 41 -39q18 0 36 10v-20q-14 -18 -43 -18q-33 0 -51 17.5t-18 47.5q0 52 53 87h-93v30h75v577h-75z" />
    <glyph glyph-name="iogonek" unicode="&#x12f;" horiz-adv-x="223" 
d="M24 438v34h105v-442h70v-30h-44q-56 -30 -56 -83q0 -41 41 -41q18 0 36 10v-20q-14 -18 -43 -18q-33 0 -51 18t-18 48q0 54 54 86h-94v30h70v408h-70zM105 572q-13 0 -22 8.5t-9 21.5t9 22t22 9t22 -9t9 -22t-9 -21.5t-22 -8.5z" />
    <glyph glyph-name="Idotaccent" unicode="&#x130;" horiz-adv-x="238" 
d="M26 607v32h186v-32h-74v-577h74v-30h-186v30h75v577h-75zM119 690q-13 0 -22 8.5t-9 21.5t9 22t22 9t22 -9t9 -22t-9 -21.5t-22 -8.5z" />
    <glyph glyph-name="dotlessi" unicode="&#x131;" horiz-adv-x="223" 
d="M24 438v34h105v-442h70v-30h-175v30h70v408h-70z" />
    <glyph glyph-name="IJ" unicode="&#x132;" horiz-adv-x="567" 
d="M348 607v32h193v-32h-69v-477q0 -65 -32 -101t-91 -36q-68 0 -101 36v26q42 -30 94 -30q93 0 93 115v467h-87zM26 607v32h186v-32h-74v-577h74v-30h-186v30h75v577h-75z" />
    <glyph glyph-name="ij" unicode="&#x133;" horiz-adv-x="398" 
d="M224 438v34h105v-528q0 -47 -24 -71t-65 -24q-40 0 -55 17v22q21 -9 44 -9q65 0 65 63v496h-70zM24 438v34h105v-442h70v-30h-175v30h70v408h-70zM105 572q-13 0 -22 8.5t-9 21.5t9 22t22 9t22 -9t9 -22t-9 -21.5t-22 -8.5zM305 572q-13 0 -22 8.5t-9 21.5t9 22t22 9
t22 -9t9 -22t-9 -21.5t-22 -8.5z" />
    <glyph glyph-name="Jcircumflex" unicode="&#x134;" horiz-adv-x="350" 
d="M131 607v32h193v-32h-69v-477q0 -65 -33 -101t-93 -36q-74 0 -109 39v26q47 -33 102 -33q96 0 96 115v467h-87zM352 681h-34l-84 71l-84 -71h-34l89 97h58z" />
    <glyph glyph-name="jcircumflex" unicode="&#x135;" horiz-adv-x="194" 
d="M20 438v34h105v-528q0 -47 -24 -71t-65 -24q-40 0 -55 17v22q21 -9 44 -9q65 0 65 63v496h-70zM-12 547l83 113h54l83 -113h-33l-77 89l-77 -89h-33z" />
    <glyph glyph-name="Kcommaaccent" unicode="&#x136;" horiz-adv-x="555" 
d="M346 607v32h179v-32h-48l-293 -274l291 -303h56v-30h-191v30h89l-291 303l294 274h-86zM26 607v32h198v-32h-92v-577h92v-30h-198v30h69v577h-69zM264 -152h-24q21 38 21 78q0 16 -4 29h36q4 -12 4 -30q0 -41 -33 -77z" />
    <glyph glyph-name="kcommaaccent" unicode="&#x137;" horiz-adv-x="457" 
d="M24 641v32h102v-643h75v-30h-177v30h67v611h-67zM357 0l-222 244l217 228h67v-34h-56l-185 -194l196 -214h61v-30h-78zM228 -152h-24q21 38 21 78q0 16 -4 29h36q4 -12 4 -30q0 -41 -33 -77z" />
    <glyph glyph-name="Lacute" unicode="&#x139;" horiz-adv-x="498" 
d="M26 607v32h193v-32h-87v-574h297v133h36v-166h-439v30h69v577h-69zM90 688l69 93h57l-90 -93h-36z" />
    <glyph glyph-name="lacute" unicode="&#x13a;" horiz-adv-x="223" 
d="M24 641v32h105v-643h70v-30h-175v30h70v611h-70zM87 710l69 93h57l-90 -93h-36z" />
    <glyph glyph-name="Lcommaaccent" unicode="&#x13b;" horiz-adv-x="498" 
d="M26 0v30h69v577h-69v32h193v-32h-87v-574h297v133h36v-166h-439zM253 -152h-24q21 38 21 78q0 16 -4 29h36q4 -12 4 -30q0 -41 -33 -77z" />
    <glyph glyph-name="lcommaaccent" unicode="&#x13c;" horiz-adv-x="223" 
d="M24 641v32h105v-643h70v-30h-175v30h70v611h-70zM99 -152h-24q21 38 21 78q0 16 -4 29h36q4 -12 4 -30q0 -41 -33 -77z" />
    <glyph glyph-name="Lcaron" unicode="&#x13d;" horiz-adv-x="498" 
d="M26 0v30h69v577h-69v32h193v-32h-87v-574h297v133h36v-166h-439zM258 518l9 121h40l-24 -121h-25z" />
    <glyph glyph-name="lcaron" unicode="&#x13e;" horiz-adv-x="223" 
d="M24 641v32h105v-643h70v-30h-175v30h70v611h-70zM165 552l9 121h40l-24 -121h-25z" />
    <glyph glyph-name="Ldot" unicode="&#x13f;" horiz-adv-x="498" 
d="M26 607v32h193v-32h-87v-574h297v133h36v-166h-439v30h69v577h-69zM420 304q-13 0 -22.5 9.5t-9.5 22.5t9.5 22.5t22.5 9.5t22.5 -9.5t9.5 -22.5t-9.5 -22.5t-22.5 -9.5z" />
    <glyph glyph-name="ldot" unicode="&#x140;" horiz-adv-x="239" 
d="M24 641v32h105v-643h70v-30h-175v30h70v611h-70zM231 314q-13 0 -22.5 9.5t-9.5 22.5t9.5 22.5t22.5 9.5t22.5 -9.5t9.5 -22.5t-9.5 -22.5t-22.5 -9.5z" />
    <glyph glyph-name="Lslash" unicode="&#x141;" horiz-adv-x="498" 
d="M26 607v32h193v-32h-87v-327l218 119v-34l-218 -119v-213h297v133h36v-166h-439v30h69v196l-74 -40v34l74 40v347h-69z" />
    <glyph glyph-name="lslash" unicode="&#x142;" horiz-adv-x="223" 
d="M24 641v32h105v-260l70 67v-38l-70 -67v-345h70v-30h-175v30h70v312l-70 -67v38l70 67v261h-70z" />
    <glyph glyph-name="Nacute" unicode="&#x143;" horiz-adv-x="649" 
d="M423 607v32h200v-32h-69v-607h-64l-360 617v-587h99v-30h-203v30h69v577h-69v32h133l360 -616v584h-96zM302 688l69 93h57l-90 -93h-36z" />
    <glyph glyph-name="nacute" unicode="&#x144;" horiz-adv-x="544" 
d="M349 0v30h75v306q0 58 -28 86.5t-91 28.5q-76 0 -126 -51t-53 -134v-236h75v-30h-177v30h67v408h-67v34h91q11 -65 11 -122v-15q11 71 65 108.5t120 37.5q148 0 148 -153v-298h61v-30h-171zM243 547l87 113h53l-106 -113h-34z" />
    <glyph glyph-name="Ncommaaccent" unicode="&#x145;" horiz-adv-x="649" 
d="M423 607v32h200v-32h-69v-607h-64l-360 617v-587h99v-30h-203v30h69v577h-69v32h133l360 -616v584h-96zM314 -152h-24q21 38 21 78q0 16 -4 29h36q4 -12 4 -30q0 -41 -33 -77z" />
    <glyph glyph-name="ncommaaccent" unicode="&#x146;" horiz-adv-x="544" 
d="M349 0v30h75v306q0 58 -28 86.5t-91 28.5q-76 0 -126 -51t-53 -134v-236h75v-30h-177v30h67v408h-67v34h91q11 -65 11 -122v-15q11 71 65 108.5t120 37.5q148 0 148 -153v-298h61v-30h-171zM261 -152h-24q21 38 21 78q0 16 -4 29h36q4 -12 4 -30q0 -41 -33 -77z" />
    <glyph glyph-name="Ncaron" unicode="&#x147;" horiz-adv-x="649" 
d="M423 607v32h200v-32h-69v-607h-64l-360 617v-587h99v-30h-203v30h69v577h-69v32h133l360 -616v584h-96zM208 778h34l84 -71l84 71h34l-89 -97h-58z" />
    <glyph glyph-name="ncaron" unicode="&#x148;" horiz-adv-x="544" 
d="M349 0v30h75v306q0 58 -28 86.5t-91 28.5q-76 0 -126 -51t-53 -134v-236h75v-30h-177v30h67v408h-67v34h91q11 -65 11 -122v-15q11 71 65 108.5t120 37.5q148 0 148 -153v-298h61v-30h-171zM162 665h33l77 -89l77 89h33l-83 -113h-54z" />
    <glyph glyph-name="napostrophe" unicode="&#x149;" horiz-adv-x="554" 
d="M359 0v30h75v306q0 58 -28 86.5t-91 28.5q-76 0 -126 -51t-53 -134v-236h75v-30h-177v30h67v408h-67v34h91q11 -65 11 -122v-15q11 71 65 108.5t120 37.5q148 0 148 -153v-298h61v-30h-171zM-23 501q14 40 14 96q0 26 -4 42h38q4 -17 4 -40q0 -55 -30 -98h-22z" />
    <glyph glyph-name="Eng" unicode="&#x14a;" horiz-adv-x="649" 
d="M26 607v32h133l360 -616v584h-96v32h200v-32h-69v-619q0 -139 -138 -139q-63 0 -93 27v26q44 -21 88 -21q108 0 108 117v2h-29l-360 617v-587h99v-30h-203v30h69v577h-69z" />
    <glyph glyph-name="eng" unicode="&#x14b;" horiz-adv-x="522" 
d="M24 438v34h91q11 -65 11 -122v-15q11 71 65 108.5t120 37.5q148 0 148 -153v-384q0 -47 -24 -71t-65 -24q-40 0 -55 21v18q21 -9 44 -9q65 0 65 63v394q0 58 -28 86.5t-91 28.5q-76 0 -126 -51t-53 -134v-236h75v-30h-177v30h67v408h-67z" />
    <glyph glyph-name="Omacron" unicode="&#x14c;" horiz-adv-x="635" 
d="M317 21q116 0 177.5 80t61.5 229v16q0 127 -58.5 198.5t-180.5 71.5q-121 0 -179.5 -71.5t-58.5 -198.5v-16q0 -149 61.5 -229t176.5 -80zM317 -11q-126 0 -201.5 88.5t-75.5 252.5v2q0 152 70.5 235t206.5 83t207 -83t71 -235v-2q0 -165 -75 -253t-203 -88zM213 699v30
h208v-30h-208z" />
    <glyph glyph-name="omacron" unicode="&#x14d;" horiz-adv-x="503" 
d="M252 20q82 0 132 56.5t50 164.5v20q0 87 -50 139.5t-132 52.5q-83 0 -133 -52.5t-50 -139.5v-20q0 -108 50.5 -164.5t132.5 -56.5zM252 -8q-97 0 -158 66.5t-61 186.5v2q0 107 59 170.5t160 63.5q100 0 159 -62.5t59 -168.5v-2q0 -121 -61 -188.5t-157 -67.5zM151 572v28
h200v-28h-200z" />
    <glyph glyph-name="Obreve" unicode="&#x14e;" horiz-adv-x="635" 
d="M317 21q116 0 177.5 80t61.5 229v16q0 127 -58.5 198.5t-180.5 71.5q-121 0 -179.5 -71.5t-58.5 -198.5v-16q0 -149 61.5 -229t176.5 -80zM317 -11q-126 0 -201.5 88.5t-75.5 252.5v2q0 152 70.5 235t206.5 83t207 -83t71 -235v-2q0 -165 -75 -253t-203 -88zM382 775h28
q2 -38 -23 -65.5t-71 -27.5q-45 0 -69.5 27.5t-22.5 65.5h28q-1 -25 15.5 -42.5t48.5 -17.5q33 0 50 17.5t16 42.5z" />
    <glyph glyph-name="obreve" unicode="&#x14f;" horiz-adv-x="503" 
d="M252 20q82 0 132 56.5t50 164.5v20q0 87 -50 139.5t-132 52.5q-83 0 -133 -52.5t-50 -139.5v-20q0 -108 50.5 -164.5t132.5 -56.5zM252 -8q-97 0 -158 66.5t-61 186.5v2q0 107 59 170.5t160 63.5q100 0 159 -62.5t59 -168.5v-2q0 -121 -61 -188.5t-157 -67.5zM314 650h28
q2 -42 -21 -71.5t-71 -29.5q-47 0 -69.5 29.5t-20.5 71.5h28q-1 -29 14.5 -48.5t47.5 -19.5q33 0 49 19.5t15 48.5z" />
    <glyph glyph-name="Ohungarumlaut" unicode="&#x150;" horiz-adv-x="635" 
d="M317 21q116 0 177.5 80t61.5 229v16q0 127 -58.5 198.5t-180.5 71.5q-121 0 -179.5 -71.5t-58.5 -198.5v-16q0 -149 61.5 -229t176.5 -80zM317 -11q-126 0 -201.5 88.5t-75.5 252.5v2q0 152 70.5 235t206.5 83t207 -83t71 -235v-2q0 -165 -75 -253t-203 -88zM252 688
l44 93h47l-62 -93h-29zM352 688l44 93h47l-62 -93h-29z" />
    <glyph glyph-name="ohungarumlaut" unicode="&#x151;" horiz-adv-x="503" 
d="M252 20q82 0 132 56.5t50 164.5v20q0 87 -50 139.5t-132 52.5q-83 0 -133 -52.5t-50 -139.5v-20q0 -108 50.5 -164.5t132.5 -56.5zM252 -8q-97 0 -158 66.5t-61 186.5v2q0 107 59 170.5t160 63.5q100 0 159 -62.5t59 -168.5v-2q0 -121 -61 -188.5t-157 -67.5zM186 547
l56 113h47l-74 -113h-29zM286 547l56 113h47l-74 -113h-29z" />
    <glyph glyph-name="OE" unicode="&#x152;" horiz-adv-x="841" 
d="M338 0q-298 0 -298 334v2q0 147 74 225t220 78h457v-156h-36v121h-294v-260h268v-34h-268v-277h304v123h36v-156h-463zM79 332q0 -151 62 -225t207 -74h76v571h-83q-139 0 -200.5 -65.5t-61.5 -193.5v-13z" />
    <glyph glyph-name="oe" unicode="&#x153;" horiz-adv-x="852" 
d="M654 -8q-176 0 -209 165q-19 -80 -71 -122.5t-125 -42.5q-93 0 -154.5 67t-61.5 186v2q0 106 59 170t157 64q79 0 129.5 -41t68.5 -116q18 73 68.5 115t123.5 42q86 0 131.5 -52t45.5 -141q0 -30 -3 -56h-349q0 -101 47 -156t144 -55q95 0 155 53v-29q-16 -18 -59 -35.5
t-97 -17.5zM249 20q80 0 129.5 55.5t49.5 165.5v20q0 88 -49.5 140t-129.5 52q-81 0 -130.5 -52t-49.5 -140v-20q0 -110 50 -165.5t130 -55.5zM639 453q-75 0 -124.5 -54.5t-50.5 -141.5h318v4q0 98 -35 145t-108 47z" />
    <glyph glyph-name="Racute" unicode="&#x154;" horiz-adv-x="535" 
d="M26 607v32h259q93 0 140.5 -46t47.5 -121q0 -88 -50 -130t-139 -42h-85l256 -270h59v-30h-78l-304 320v-290h90v-30h-196v30h69v577h-69zM132 332h141q85 0 123.5 34.5t38.5 104.5q0 65 -37 99t-122 34h-144v-272zM238 688l69 93h57l-90 -93h-36z" />
    <glyph glyph-name="racute" unicode="&#x155;" horiz-adv-x="332" 
d="M24 438v34h91q11 -65 11 -122v-19q11 70 48 108.5t92 38.5q26 0 35 -13v-22q-89 6 -132 -48t-43 -183v-182h87v-30h-189v30h67v408h-67zM152 547l87 113h53l-106 -113h-34z" />
    <glyph glyph-name="Rcommaaccent" unicode="&#x156;" horiz-adv-x="535" 
d="M26 607v32h259q93 0 140.5 -46t47.5 -121q0 -88 -50 -130t-139 -42h-85l256 -270h59v-30h-78l-304 320v-290h90v-30h-196v30h69v577h-69zM132 332h141q85 0 123.5 34.5t38.5 104.5q0 65 -37 99t-122 34h-144v-272zM268 -152h-24q21 38 21 78q0 16 -4 29h36q4 -12 4 -30
q0 -41 -33 -77z" />
    <glyph glyph-name="rcommaaccent" unicode="&#x157;" horiz-adv-x="332" 
d="M24 438v34h91q11 -65 11 -122v-19q11 70 48 108.5t92 38.5q26 0 35 -13v-22q-89 6 -132 -48t-43 -183v-182h87v-30h-189v30h67v408h-67zM91 -152h-24q21 38 21 78q0 16 -4 29h36q4 -12 4 -30q0 -41 -33 -77z" />
    <glyph glyph-name="Rcaron" unicode="&#x158;" horiz-adv-x="535" 
d="M26 607v32h259q93 0 140.5 -46t47.5 -121q0 -88 -50 -130t-139 -42h-85l256 -270h59v-30h-78l-304 320v-290h90v-30h-196v30h69v577h-69zM132 332h141q85 0 123.5 34.5t38.5 104.5q0 65 -37 99t-122 34h-144v-272zM144 778h34l84 -71l84 71h34l-89 -97h-58z" />
    <glyph glyph-name="rcaron" unicode="&#x159;" horiz-adv-x="332" 
d="M24 438v34h91q11 -65 11 -122v-19q11 70 48 108.5t92 38.5q26 0 35 -13v-22q-89 6 -132 -48t-43 -183v-182h87v-30h-189v30h67v408h-67zM71 665h33l77 -89l77 89h33l-83 -113h-54z" />
    <glyph glyph-name="Sacute" unicode="&#x15a;" horiz-adv-x="481" 
d="M377 483v96q-62 37 -136 37q-158 0 -158 -138q0 -42 12.5 -68t45.5 -41q26 -12 104.5 -22.5t118.5 -28.5t59.5 -51.5t19.5 -96.5q0 -89 -59 -135t-146 -46q-124 0 -205 69v96h36v-84q67 -49 169 -49q70 0 119 38t49 114q0 43 -12 69.5t-43 41.5q-34 17 -114 27.5
t-109 23.5q-83 37 -83 145q0 82 56 126t137 44q107 0 175 -57v-110h-36zM217 688l69 93h57l-90 -93h-36z" />
    <glyph glyph-name="sacute" unicode="&#x15b;" horiz-adv-x="398" 
d="M302 361v72q-47 20 -104 20q-55 0 -87 -25.5t-32 -71.5q0 -29 9 -46.5t33 -28.5q25 -12 84 -22t84 -21q67 -29 67 -115q0 -61 -43.5 -96t-114.5 -35q-105 0 -159 51v80h33v-74q49 -29 125 -29q59 0 91.5 26.5t32.5 74.5q0 68 -45 87q-28 12 -85 22t-79 20
q-34 15 -50.5 39.5t-16.5 67.5q0 57 43 90.5t110 33.5q91 0 137 -38v-82h-33zM168 547l87 113h53l-106 -113h-34z" />
    <glyph glyph-name="Scircumflex" unicode="&#x15c;" horiz-adv-x="481" 
d="M377 483v96q-62 37 -136 37q-158 0 -158 -138q0 -42 12.5 -68t45.5 -41q26 -12 104.5 -22.5t118.5 -28.5t59.5 -51.5t19.5 -96.5q0 -89 -59 -135t-146 -46q-124 0 -205 69v96h36v-84q67 -49 169 -49q70 0 119 38t49 114q0 43 -12 69.5t-43 41.5q-34 17 -114 27.5
t-109 23.5q-83 37 -83 145q0 82 56 126t137 44q107 0 175 -57v-110h-36zM359 681h-34l-84 71l-84 -71h-34l89 97h58z" />
    <glyph glyph-name="scircumflex" unicode="&#x15d;" horiz-adv-x="398" 
d="M302 361v72q-47 20 -104 20q-55 0 -87 -25.5t-32 -71.5q0 -29 9 -46.5t33 -28.5q25 -12 84 -22t84 -21q67 -29 67 -115q0 -61 -43.5 -96t-114.5 -35q-105 0 -159 51v80h33v-74q49 -29 125 -29q59 0 91.5 26.5t32.5 74.5q0 68 -45 87q-28 12 -85 22t-79 20
q-34 15 -50.5 39.5t-16.5 67.5q0 57 43 90.5t110 33.5q91 0 137 -38v-82h-33zM87 547l83 113h54l83 -113h-33l-77 89l-77 -89h-33z" />
    <glyph glyph-name="Scedilla" unicode="&#x15e;" horiz-adv-x="481" 
d="M238 -11q-16 0 -23 1v-33q36 -1 56 -16.5t20 -43.5q0 -58 -70 -58q-43 0 -64 23v19q25 -16 57 -16q42 0 42 33q0 37 -69 40v55q-92 11 -154 65v96h36v-84q67 -49 169 -49q70 0 119 38t49 114q0 43 -12 69.5t-43 41.5q-34 17 -114 27.5t-109 23.5q-83 37 -83 145
q0 82 56 126t137 44q107 0 175 -57v-110h-36v96q-62 37 -136 37q-158 0 -158 -138q0 -42 12.5 -68t45.5 -41q26 -12 104.5 -22.5t118.5 -28.5t59.5 -51.5t19.5 -96.5q0 -89 -59 -135t-146 -46z" />
    <glyph glyph-name="scedilla" unicode="&#x15f;" horiz-adv-x="398" 
d="M198 -8h-18v-35q36 -1 56 -16.5t20 -43.5q0 -58 -70 -58q-43 0 -64 23v19q25 -16 57 -16q42 0 42 33q0 37 -69 40v57q-71 8 -113 48v80h33v-74q49 -29 125 -29q59 0 91.5 26.5t32.5 74.5q0 68 -45 87q-28 12 -85 22t-79 20q-34 15 -50.5 39.5t-16.5 67.5q0 57 43 90.5
t110 33.5q91 0 137 -38v-82h-33v72q-47 20 -104 20q-55 0 -87 -25.5t-32 -71.5q0 -29 9 -46.5t33 -28.5q25 -12 84 -22t84 -21q67 -29 67 -115q0 -61 -43.5 -96t-114.5 -35z" />
    <glyph glyph-name="Scaron" unicode="&#x160;" horiz-adv-x="481" 
d="M377 483v96q-62 37 -136 37q-158 0 -158 -138q0 -42 12.5 -68t45.5 -41q26 -12 104.5 -22.5t118.5 -28.5t59.5 -51.5t19.5 -96.5q0 -89 -59 -135t-146 -46q-124 0 -205 69v96h36v-84q67 -49 169 -49q70 0 119 38t49 114q0 43 -12 69.5t-43 41.5q-34 17 -114 27.5
t-109 23.5q-83 37 -83 145q0 82 56 126t137 44q107 0 175 -57v-110h-36zM123 778h34l84 -71l84 71h34l-89 -97h-58z" />
    <glyph glyph-name="scaron" unicode="&#x161;" horiz-adv-x="398" 
d="M302 361v72q-47 20 -104 20q-55 0 -87 -25.5t-32 -71.5q0 -29 9 -46.5t33 -28.5q25 -12 84 -22t84 -21q67 -29 67 -115q0 -61 -43.5 -96t-114.5 -35q-105 0 -159 51v80h33v-74q49 -29 125 -29q59 0 91.5 26.5t32.5 74.5q0 68 -45 87q-28 12 -85 22t-79 20
q-34 15 -50.5 39.5t-16.5 67.5q0 57 43 90.5t110 33.5q91 0 137 -38v-82h-33zM87 665h33l77 -89l77 89h33l-83 -113h-54z" />
    <glyph glyph-name="Tcommaaccent" unicode="&#x162;" horiz-adv-x="547" 
d="M477 483v121h-185v-574h93v-30h-223v30h93v574h-185v-121h-36v156h479v-156h-36zM261 -152h-24q21 38 21 78q0 16 -4 29h36q4 -12 4 -30q0 -41 -33 -77z" />
    <glyph glyph-name="tcommaaccent" unicode="&#x163;" horiz-adv-x="320" 
d="M210 -5q-125 0 -125 136v311h-65v19q48 6 61.5 25.5t18.5 92.5h20v-107h162v-30h-162v-315q0 -55 22.5 -78t63.5 -23q52 0 90 31v-26q-26 -36 -86 -36zM171 -152h-24q21 38 21 78q0 16 -4 29h36q4 -12 4 -30q0 -41 -33 -77z" />
    <glyph glyph-name="Tcaron" unicode="&#x164;" horiz-adv-x="547" 
d="M477 483v121h-185v-574h93v-30h-223v30h93v574h-185v-121h-36v156h479v-156h-36zM155 778h34l84 -71l84 71h34l-89 -97h-58z" />
    <glyph glyph-name="tcaron" unicode="&#x165;" horiz-adv-x="320" 
d="M210 -5q-125 0 -125 136v311h-65v19q48 6 61.5 25.5t18.5 92.5h20v-107h162v-30h-162v-315q0 -55 22.5 -78t63.5 -23q52 0 90 31v-26q-26 -36 -86 -36zM194 552l9 121h40l-24 -121h-25z" />
    <glyph glyph-name="Tbar" unicode="&#x166;" horiz-adv-x="547" 
d="M477 483v121h-185v-246h143v-32h-143v-296h93v-30h-223v30h93v296h-143v32h143v246h-185v-121h-36v156h479v-156h-36z" />
    <glyph glyph-name="tbar" unicode="&#x167;" horiz-adv-x="320" 
d="M210 -5q-125 0 -125 136v155h-65v27h65v129h-65v19q48 6 61.5 25.5t18.5 92.5h20v-107h162v-30h-162v-129h162v-27h-162v-159q0 -55 22.5 -78t63.5 -23q52 0 90 31v-26q-26 -36 -86 -36z" />
    <glyph glyph-name="Utilde" unicode="&#x168;" horiz-adv-x="646" 
d="M433 607v32h189v-32h-63v-380q0 -238 -236 -238t-236 239v379h-63v32h189v-32h-89v-387q0 -58 15.5 -98.5t44.5 -61.5t62.5 -30t76.5 -9q92 0 145.5 43.5t53.5 154.5v388h-89zM221 688q-7 32 6.5 51.5t42.5 19.5q21 0 59 -14.5t49 -14.5q28 0 25 37h24q7 -32 -5.5 -51.5
t-39.5 -19.5q-19 0 -59 14.5t-52 14.5q-29 0 -26 -37h-24z" />
    <glyph glyph-name="utilde" unicode="&#x169;" horiz-adv-x="536" 
d="M421 0q-11 65 -11 122v15q-11 -72 -59 -109t-112 -37q-154 0 -154 175v272h-61v34h96v-314q0 -67 26.5 -102t94.5 -35q71 0 118.5 51.5t50.5 133.5v232h-65v34h100v-442h67v-30h-91zM165 558q-8 30 5 50t41 20q20 0 54.5 -15t43.5 -15q26 0 23 37h23q8 -30 -4 -50
t-38 -20q-18 0 -54.5 15t-46.5 15q-27 0 -24 -37h-23z" />
    <glyph glyph-name="Umacron" unicode="&#x16a;" horiz-adv-x="646" 
d="M433 607v32h189v-32h-63v-380q0 -238 -236 -238t-236 239v379h-63v32h189v-32h-89v-387q0 -58 15.5 -98.5t44.5 -61.5t62.5 -30t76.5 -9q92 0 145.5 43.5t53.5 154.5v388h-89zM220 699v30h208v-30h-208z" />
    <glyph glyph-name="umacron" unicode="&#x16b;" horiz-adv-x="536" 
d="M345 438v34h100v-442h67v-30h-91q-11 65 -11 122v15q-11 -72 -59 -109t-112 -37q-154 0 -154 175v272h-61v34h96v-314q0 -67 26.5 -102t94.5 -35q71 0 118.5 51.5t50.5 133.5v232h-65zM160 572v28h200v-28h-200z" />
    <glyph glyph-name="Ubreve" unicode="&#x16c;" horiz-adv-x="646" 
d="M433 607v32h189v-32h-63v-380q0 -238 -236 -238t-236 239v379h-63v32h189v-32h-89v-387q0 -58 15.5 -98.5t44.5 -61.5t62.5 -30t76.5 -9q92 0 145.5 43.5t53.5 154.5v388h-89zM389 775h28q2 -38 -23 -65.5t-71 -27.5q-45 0 -69.5 27.5t-22.5 65.5h28q-1 -25 15.5 -42.5
t48.5 -17.5q33 0 50 17.5t16 42.5z" />
    <glyph glyph-name="ubreve" unicode="&#x16d;" horiz-adv-x="536" 
d="M421 0q-11 65 -11 122v15q-11 -72 -59 -109t-112 -37q-154 0 -154 175v272h-61v34h96v-314q0 -67 26.5 -102t94.5 -35q71 0 118.5 51.5t50.5 133.5v232h-65v34h100v-442h67v-30h-91zM323 650h28q2 -42 -21 -71.5t-71 -29.5q-47 0 -69.5 29.5t-20.5 71.5h28
q-1 -29 14.5 -48.5t47.5 -19.5q33 0 49 19.5t15 48.5z" />
    <glyph glyph-name="Uring" unicode="&#x16e;" horiz-adv-x="646" 
d="M433 607v32h189v-32h-63v-380q0 -238 -236 -238t-236 239v379h-63v32h189v-32h-89v-387q0 -58 15.5 -98.5t44.5 -61.5t62.5 -30t76.5 -9q92 0 145.5 43.5t53.5 154.5v388h-89zM325 638q-31 0 -52 21t-21 52t21 52.5t52 21.5q32 0 53 -21.5t21 -52.5t-21 -52t-53 -21z
M325 662q19 0 32.5 13t13.5 36q0 21 -13.5 35t-32.5 14q-18 0 -31.5 -14t-13.5 -35q0 -22 13 -35.5t32 -13.5z" />
    <glyph glyph-name="uring" unicode="&#x16f;" horiz-adv-x="536" 
d="M421 0q-11 65 -11 122v15q-11 -72 -59 -109t-112 -37q-154 0 -154 175v272h-61v34h96v-314q0 -67 26.5 -102t94.5 -35q71 0 118.5 51.5t50.5 133.5v232h-65v34h100v-442h67v-30h-91zM261 545q-31 0 -52 21t-21 52t21 52.5t52 21.5q32 0 53 -21.5t21 -52.5t-21 -52
t-53 -21zM261 569q19 0 32.5 13.5t13.5 35.5q0 21 -13.5 35t-32.5 14q-18 0 -31.5 -14t-13.5 -35q0 -22 13 -35.5t32 -13.5z" />
    <glyph glyph-name="Uhungarumlaut" unicode="&#x170;" horiz-adv-x="646" 
d="M433 607v32h189v-32h-63v-380q0 -238 -236 -238t-236 239v379h-63v32h189v-32h-89v-387q0 -58 15.5 -98.5t44.5 -61.5t62.5 -30t76.5 -9q92 0 145.5 43.5t53.5 154.5v388h-89zM359 688l44 93h47l-62 -93h-29zM259 688l44 93h47l-62 -93h-29z" />
    <glyph glyph-name="uhungarumlaut" unicode="&#x171;" horiz-adv-x="536" 
d="M345 438v34h100v-442h67v-30h-91q-11 65 -11 122v15q-11 -72 -59 -109t-112 -37q-154 0 -154 175v272h-61v34h96v-314q0 -67 26.5 -102t94.5 -35q71 0 118.5 51.5t50.5 133.5v232h-65zM190 547l56 113h47l-74 -113h-29zM290 547l56 113h47l-74 -113h-29z" />
    <glyph glyph-name="Uogonek" unicode="&#x172;" horiz-adv-x="646" 
d="M24 607v32h189v-32h-89v-387q0 -58 15.5 -98.5t44.5 -61.5t62.5 -30t76.5 -9q92 0 145.5 43.5t53.5 154.5v388h-89v32h189v-32h-63v-380q0 -168 -118 -217q-51 -21 -75.5 -42t-24.5 -53q0 -39 41 -39q18 0 36 10v-20q-14 -18 -43 -18q-33 0 -51 17.5t-18 47.5q0 51 52 77
q-11 -1 -35 -1q-236 0 -236 239v379h-63z" />
    <glyph glyph-name="uogonek" unicode="&#x173;" horiz-adv-x="536" 
d="M512 0h-58q-71 -32 -71 -85q0 -39 41 -39q18 0 36 10v-20q-14 -18 -43 -18q-33 0 -51 17.5t-18 47.5q0 54 72 90q-10 55 -10 119v15q-11 -72 -59 -109t-112 -37q-154 0 -154 175v272h-61v34h96v-314q0 -67 26.5 -102t94.5 -35q71 0 118.5 51.5t50.5 133.5v232h-65v34h100
v-442h67v-30z" />
    <glyph glyph-name="Wcircumflex" unicode="&#x174;" horiz-adv-x="849" 
d="M585 0l-161 586l-160 -586h-60l-141 606h-45v33h184v-33h-102l136 -585l169 618h41l169 -618l134 585h-107v33h189v-33h-46l-139 -606h-61zM545 681h-34l-84 71l-84 -71h-34l89 97h58z" />
    <glyph glyph-name="wcircumflex" unicode="&#x175;" horiz-adv-x="717" 
d="M480 0l-118 426l-127 -426h-55l-126 438h-38v34h144v-34h-71l120 -418l134 452h40l126 -452l120 418h-70v34h142v-34h-38l-126 -438h-57zM254 547l83 113h54l83 -113h-33l-77 89l-77 -89h-33z" />
    <glyph glyph-name="Ycircumflex" unicode="&#x176;" horiz-adv-x="569" 
d="M16 606v33h188v-33h-99l181 -330l178 330h-100v33h189v-33h-52l-198 -364v-212h93v-30h-223v30h93v212l-199 364h-51zM403 681h-34l-84 71l-84 -71h-34l89 97h58z" />
    <glyph glyph-name="ycircumflex" unicode="&#x177;" horiz-adv-x="508" 
d="M345 438v34h145v-34h-42l-176 -471q-23 -64 -52 -91t-73 -27q-54 0 -75 23v18q26 -11 64 -11q71 0 101 82l14 39h-24l-169 438h-40v34h147v-34h-70l162 -422l156 422h-68zM147 547l83 113h54l83 -113h-33l-77 89l-77 -89h-33z" />
    <glyph glyph-name="Ydieresis" unicode="&#x178;" horiz-adv-x="569" 
d="M16 606v33h188v-33h-99l181 -330l178 330h-100v33h189v-33h-52l-198 -364v-212h93v-30h-223v30h93v212l-199 364h-51zM359 690q-13 0 -22 8t-9 21t9 21.5t22 8.5q12 0 21 -8.5t9 -21.5q0 -12 -9 -20.5t-21 -8.5zM211 690q-12 0 -21 8.5t-9 20.5q0 13 9 21.5t21 8.5
q13 0 22 -8.5t9 -21.5t-9 -21t-22 -8z" />
    <glyph glyph-name="Zacute" unicode="&#x179;" horiz-adv-x="530" 
d="M55 483v156h433v-55l-423 -551h392v123h36v-156h-458v53l423 551h-367v-121h-36zM247 688l69 93h57l-90 -93h-36z" />
    <glyph glyph-name="zacute" unicode="&#x17a;" horiz-adv-x="427" 
d="M51 361v111h339v-41l-322 -402h285v91h33v-120h-351v41l322 402h-273v-82h-33zM192 547l87 113h53l-106 -113h-34z" />
    <glyph glyph-name="Zdotaccent" unicode="&#x17b;" horiz-adv-x="530" 
d="M55 483v156h433v-55l-423 -551h392v123h36v-156h-458v53l423 551h-367v-121h-36zM271 690q-13 0 -22 8.5t-9 21.5t9 22t22 9t22 -9t9 -22t-9 -21.5t-22 -8.5z" />
    <glyph glyph-name="zdotaccent" unicode="&#x17c;" horiz-adv-x="427" 
d="M51 361v111h339v-41l-322 -402h285v91h33v-120h-351v41l322 402h-273v-82h-33zM221 572q-13 0 -22 8.5t-9 21.5t9 22t22 9t22 -9t9 -22t-9 -21.5t-22 -8.5z" />
    <glyph glyph-name="Zcaron" unicode="&#x17d;" horiz-adv-x="530" 
d="M55 483v156h433v-55l-423 -551h392v123h36v-156h-458v53l423 551h-367v-121h-36zM153 778h34l84 -71l84 71h34l-89 -97h-58z" />
    <glyph glyph-name="zcaron" unicode="&#x17e;" horiz-adv-x="427" 
d="M51 361v111h339v-41l-322 -402h285v91h33v-120h-351v41l322 402h-273v-82h-33zM111 665h33l77 -89l77 89h33l-83 -113h-54z" />
    <glyph glyph-name="florin" unicode="&#x192;" horiz-adv-x="350" 
d="M34 380h83l23 181q7 56 38 85.5t77 29.5q53 0 69 -27v-20q-30 16 -62 16q-76 0 -85 -81l-23 -184h134v-30h-137l-61 -496h-37l61 496h-80v30z" />
    <glyph glyph-name="Aringacute" unicode="&#x1fa;" horiz-adv-x="638" 
d="M20 0v30h53l214 609h64l214 -609h53v-30h-202v30h109l-69 198h-276l-69 -198h107v-30h-198zM318 625l-126 -363h252zM320 656q-31 0 -52 21t-21 52t21 52.5t52 21.5q32 0 53 -21.5t21 -52.5t-21 -52t-53 -21zM320 680q20 0 33 13t13 36q0 21 -13.5 35t-32.5 14
q-18 0 -31.5 -14t-13.5 -35q0 -22 13 -35.5t32 -13.5zM298 821l69 93h57l-90 -93h-36z" />
    <glyph glyph-name="aringacute" unicode="&#x1fb;" horiz-adv-x="456" 
d="M56 344v78q51 59 157 59q73 0 116 -35.5t43 -105.5v-251q0 -36 10.5 -50.5t32.5 -14.5q15 0 27 3v-22q-12 -8 -33 -8q-71 0 -71 88v30q-12 -57 -52 -90t-108 -33q-66 0 -106.5 33t-40.5 91v1q0 57 41 84t125 46q82 18 111.5 37.5t29.5 59.5v1q0 106 -126 106
q-70 0 -123 -36v-71h-33zM180 19q68 0 113 43.5t45 139.5v80q-27 -34 -139 -62q-76 -19 -104 -40t-28 -63v-3q0 -43 29.5 -69t83.5 -26zM214 530q-31 0 -52 21t-21 52t21 52.5t52 21.5q32 0 53 -21.5t21 -52.5t-21 -52t-53 -21zM214 554q20 0 33 13t13 36q0 21 -13.5 35
t-32.5 14q-18 0 -31.5 -14t-13.5 -35q0 -22 13 -35.5t32 -13.5zM189 716l69 93h57l-90 -93h-36z" />
    <glyph glyph-name="AEacute" unicode="&#x1fc;" horiz-adv-x="850" 
d="M764 483v121h-294v-260h268v-34h-268v-277h304v123h36v-156h-446v30h69v198h-238l-88 -198h109v-30h-196v30h48l256 577h-75v32h551v-156h-36zM362 604l-152 -342h223v342h-71zM525 688l69 93h57l-90 -93h-36z" />
    <glyph glyph-name="aeacute" unicode="&#x1fd;" horiz-adv-x="753" 
d="M175 -8q-63 0 -103.5 33t-40.5 91v1q0 57 41 84t125 46q82 18 111.5 37.5t29.5 59.5v1q0 106 -124 106q-72 0 -125 -35v-72h-33v78q53 59 159 59q66 0 106 -31.5t44 -93.5q23 59 69.5 92t109.5 33q85 0 129 -52t44 -141q0 -33 -4 -56h-342q0 -211 189 -211q91 0 151 53
v-29q-16 -19 -57.5 -36t-94.5 -17q-164 0 -208 145q-12 -69 -57.5 -107t-118.5 -38zM544 453q-74 0 -123 -54.5t-50 -141.5h312v4q0 99 -33.5 145.5t-105.5 46.5zM177 19q70 0 115.5 44t45.5 140v79q-26 -33 -139 -62q-75 -19 -103.5 -40t-28.5 -62v-3q0 -43 29 -69.5
t81 -26.5zM345 547l87 113h53l-106 -113h-34z" />
    <glyph glyph-name="Oslashacute" unicode="&#x1fe;" horiz-adv-x="635" 
d="M317 -11q-113 0 -183 66l-57 -74h-39l75 97q-73 89 -73 252v2q0 152 70.5 235t206.5 83q116 0 186 -62l53 68h39l-70 -91q70 -82 70 -233v-2q0 -165 -74 -253t-204 -88zM79 330q0 -145 55 -224l349 455q-61 55 -166 55q-121 0 -179.5 -71.5t-58.5 -198.5v-16zM317 21
q118 0 178.5 79.5t60.5 229.5v16q0 126 -52 192l-350 -456q58 -61 163 -61zM293 688l69 93h57l-90 -93h-36z" />
    <glyph glyph-name="oslashacute" unicode="&#x1ff;" horiz-adv-x="503" 
d="M252 -8q-77 0 -134 43l-41 -54h-36l56 73q-64 69 -64 191v2q0 107 59 170.5t160 63.5q82 0 137 -43l38 49h36l-52 -68q59 -62 59 -169v-2q0 -121 -61 -188.5t-157 -67.5zM69 241q0 -109 46 -164l256 337q-47 39 -119 39q-83 0 -133 -52.5t-50 -139.5v-20zM252 20
q82 0 132 56.5t50 164.5v20q0 83 -42 133l-257 -337q44 -37 117 -37zM222 547l87 113h53l-106 -113h-34z" />
    <glyph glyph-name="Scommaaccent" unicode="&#x218;" horiz-adv-x="481" 
d="M377 483v96q-62 37 -136 37q-158 0 -158 -138q0 -42 12.5 -68t45.5 -41q26 -12 104.5 -22.5t118.5 -28.5t59.5 -51.5t19.5 -96.5q0 -89 -59 -135t-146 -46q-124 0 -205 69v96h36v-84q67 -49 169 -49q70 0 119 38t49 114q0 43 -12 69.5t-43 41.5q-34 17 -114 27.5
t-109 23.5q-83 37 -83 145q0 82 56 126t137 44q107 0 175 -57v-110h-36zM229 -152h-24q21 38 21 78q0 16 -4 29h36q4 -12 4 -30q0 -41 -33 -77z" />
    <glyph glyph-name="scommaaccent" unicode="&#x219;" horiz-adv-x="398" 
d="M302 361v72q-47 20 -104 20q-55 0 -87 -25.5t-32 -71.5q0 -29 9 -46.5t33 -28.5q25 -12 84 -22t84 -21q67 -29 67 -115q0 -61 -43.5 -96t-114.5 -35q-105 0 -159 51v80h33v-74q49 -29 125 -29q59 0 91.5 26.5t32.5 74.5q0 68 -45 87q-28 12 -85 22t-79 20
q-34 15 -50.5 39.5t-16.5 67.5q0 57 43 90.5t110 33.5q91 0 137 -38v-82h-33zM185 -152h-24q21 38 21 78q0 16 -4 29h36q4 -12 4 -30q0 -41 -33 -77z" />
    <glyph glyph-name="uni021A" unicode="&#x21a;" horiz-adv-x="547" 
d="M477 483v121h-185v-574h93v-30h-223v30h93v574h-185v-121h-36v156h479v-156h-36zM261 -152h-24q21 38 21 78q0 16 -4 29h36q4 -12 4 -30q0 -41 -33 -77z" />
    <glyph glyph-name="uni021B" unicode="&#x21b;" horiz-adv-x="320" 
d="M210 -5q-125 0 -125 136v311h-65v19q48 6 61.5 25.5t18.5 92.5h20v-107h162v-30h-162v-315q0 -55 22.5 -78t63.5 -23q52 0 90 31v-26q-26 -36 -86 -36zM171 -152h-24q21 38 21 78q0 16 -4 29h36q4 -12 4 -30q0 -41 -33 -77z" />
    <glyph glyph-name="uni0237" unicode="&#x237;" horiz-adv-x="194" 
d="M20 438v34h105v-528q0 -47 -24 -71t-65 -24q-40 0 -55 17v22q21 -9 44 -9q65 0 65 63v496h-70z" />
    <glyph glyph-name="circumflex" unicode="&#x2c6;" horiz-adv-x="404" 
d="M92 547l83 113h54l83 -113h-33l-77 89l-77 -89h-33z" />
    <glyph glyph-name="caron" unicode="&#x2c7;" horiz-adv-x="404" 
d="M92 665h33l77 -89l77 89h33l-83 -113h-54z" />
    <glyph glyph-name="breve" unicode="&#x2d8;" horiz-adv-x="404" 
d="M265 650h28q2 -42 -21 -71.5t-71 -29.5q-47 0 -69.5 29.5t-20.5 71.5h28q-1 -29 14.5 -48.5t47.5 -19.5q33 0 49 19.5t15 48.5z" />
    <glyph glyph-name="dotaccent" unicode="&#x2d9;" horiz-adv-x="404" 
d="M202 572q-13 0 -22 8.5t-9 21.5t9 22t22 9t22 -9t9 -22t-9 -21.5t-22 -8.5z" />
    <glyph glyph-name="ring" unicode="&#x2da;" horiz-adv-x="404" 
d="M203 569q19 0 32.5 13.5t13.5 35.5q0 21 -13.5 35t-32.5 14q-18 0 -31.5 -14t-13.5 -35q0 -22 13 -35.5t32 -13.5zM203 545q-31 0 -52 21t-21 52t21 52.5t52 21.5q32 0 53 -21.5t21 -52.5t-21 -52t-53 -21z" />
    <glyph glyph-name="ogonek" unicode="&#x2db;" horiz-adv-x="404" 
d="M204 -152q-33 0 -51 17.5t-18 47.5q0 32 23 54.5t49 32.5h34q-71 -32 -71 -85q0 -39 41 -39q18 0 36 10v-20q-14 -18 -43 -18z" />
    <glyph glyph-name="tilde" unicode="&#x2dc;" horiz-adv-x="404" 
d="M107 558q-8 30 5 50t41 20q20 0 54.5 -15t43.5 -15q26 0 23 37h23q8 -30 -4 -50t-38 -20q-18 0 -54.5 15t-46.5 15q-27 0 -24 -37h-23z" />
    <glyph glyph-name="hungarumlaut" unicode="&#x2dd;" horiz-adv-x="404" 
d="M137 547l56 113h47l-74 -113h-29zM237 547l56 113h47l-74 -113h-29z" />
    <glyph glyph-name="Wgrave" unicode="&#x1e80;" horiz-adv-x="849" 
d="M585 0l-161 586l-160 -586h-60l-141 606h-45v33h184v-33h-102l136 -585l169 618h41l169 -618l134 585h-107v33h189v-33h-46l-139 -606h-61zM418 688l-90 93h57l69 -93h-36z" />
    <glyph glyph-name="wgrave" unicode="&#x1e81;" horiz-adv-x="717" 
d="M480 0l-118 426l-127 -426h-55l-126 438h-38v34h144v-34h-71l120 -418l134 452h40l126 -452l120 418h-70v34h142v-34h-38l-126 -438h-57zM359 547l-106 113h53l87 -113h-34z" />
    <glyph glyph-name="Wacute" unicode="&#x1e82;" horiz-adv-x="849" 
d="M585 0l-161 586l-160 -586h-60l-141 606h-45v33h184v-33h-102l136 -585l169 618h41l169 -618l134 585h-107v33h189v-33h-46l-139 -606h-61zM403 688l69 93h57l-90 -93h-36z" />
    <glyph glyph-name="wacute" unicode="&#x1e83;" horiz-adv-x="717" 
d="M480 0l-118 426l-127 -426h-55l-126 438h-38v34h144v-34h-71l120 -418l134 452h40l126 -452l120 418h-70v34h142v-34h-38l-126 -438h-57zM335 547l87 113h53l-106 -113h-34z" />
    <glyph glyph-name="Wdieresis" unicode="&#x1e84;" horiz-adv-x="849" 
d="M585 0l-161 586l-160 -586h-60l-141 606h-45v33h184v-33h-102l136 -585l169 618h41l169 -618l134 585h-107v33h189v-33h-46l-139 -606h-61zM501 690q-13 0 -22 8t-9 21t9 21.5t22 8.5q12 0 21 -8.5t9 -21.5q0 -12 -9 -20.5t-21 -8.5zM353 690q-12 0 -21 8.5t-9 20.5
q0 13 9 21.5t21 8.5q13 0 22 -8.5t9 -21.5t-9 -21t-22 -8z" />
    <glyph glyph-name="wdieresis" unicode="&#x1e85;" horiz-adv-x="717" 
d="M480 0l-118 426l-127 -426h-55l-126 438h-38v34h144v-34h-71l120 -418l134 452h40l126 -452l120 418h-70v34h142v-34h-38l-126 -438h-57zM432 572q-13 0 -22 8t-9 21t9 21.5t22 8.5q12 0 21 -8.5t9 -21.5q0 -12 -9 -20.5t-21 -8.5zM296 572q-12 0 -21 8.5t-9 20.5
q0 13 9 21.5t21 8.5q13 0 22 -8.5t9 -21.5t-9 -21t-22 -8z" />
    <glyph glyph-name="Ygrave" unicode="&#x1ef2;" horiz-adv-x="569" 
d="M16 606v33h188v-33h-99l181 -330l178 330h-100v33h189v-33h-52l-198 -364v-212h93v-30h-223v30h93v212l-199 364h-51zM276 688l-90 93h57l69 -93h-36z" />
    <glyph glyph-name="ygrave" unicode="&#x1ef3;" horiz-adv-x="508" 
d="M345 438v34h145v-34h-42l-176 -471q-23 -64 -52 -91t-73 -27q-54 0 -75 23v18q26 -11 64 -11q71 0 101 82l14 39h-24l-169 438h-40v34h147v-34h-70l162 -422l156 422h-68zM259 547l-106 113h53l87 -113h-34z" />
    <glyph glyph-name="uni2009" unicode="&#x2009;" horiz-adv-x="70" 
 />
    <glyph glyph-name="endash" unicode="&#x2013;" horiz-adv-x="504" 
d="M36 254v30h432v-30h-432z" />
    <glyph glyph-name="emdash" unicode="&#x2014;" horiz-adv-x="860" 
d="M36 254v30h788v-30h-788z" />
    <glyph glyph-name="quoteleft" unicode="&#x2018;" horiz-adv-x="140" 
d="M55 501q-4 17 -4 40q0 55 30 98h22q-14 -40 -14 -96q0 -26 4 -42h-38z" />
    <glyph glyph-name="quoteright" unicode="&#x2019;" horiz-adv-x="140" 
d="M37 501q14 40 14 96q0 26 -4 42h38q4 -17 4 -40q0 -55 -30 -98h-22z" />
    <glyph glyph-name="quotesinglbase" unicode="&#x201a;" horiz-adv-x="140" 
d="M89 13q0 -55 -30 -98h-22q14 40 14 96q0 26 -4 42h38q4 -17 4 -40z" />
    <glyph glyph-name="quotedblleft" unicode="&#x201c;" horiz-adv-x="225" 
d="M54 501q-4 17 -4 40q0 54 31 98h22q-14 -40 -14 -96q0 -26 4 -42h-39zM139 501q-4 17 -4 40q0 54 31 98h22q-14 -40 -14 -96q0 -26 4 -42h-39z" />
    <glyph glyph-name="quotedblright" unicode="&#x201d;" horiz-adv-x="225" 
d="M37 501q14 40 14 96q0 26 -4 42h38q4 -17 4 -40q0 -55 -30 -98h-22zM122 501q14 40 14 96q0 26 -4 42h38q4 -17 4 -40q0 -55 -30 -98h-22z" />
    <glyph glyph-name="quotedblbase" unicode="&#x201e;" horiz-adv-x="225" 
d="M59 -85h-22q14 40 14 96q0 26 -4 42h38q4 -17 4 -40q0 -55 -30 -98zM144 -85h-22q14 40 14 96q0 26 -4 42h38q4 -17 4 -40q0 -55 -30 -98z" />
    <glyph glyph-name="dagger" unicode="&#x2020;" horiz-adv-x="324" 
d="M146 -98v490h-111v30h111v217h32v-217h111v-30h-111v-490h-32z" />
    <glyph glyph-name="daggerdbl" unicode="&#x2021;" horiz-adv-x="324" 
d="M289 392h-111v-243h111v-30h-111v-217h-32v217h-111v30h111v243h-111v30h111v217h32v-217h111v-30z" />
    <glyph glyph-name="bullet" unicode="&#x2022;" horiz-adv-x="269" 
d="M134 194q-37 0 -65.5 27.5t-28.5 65.5t28.5 66.5t65.5 28.5q39 0 67 -28t28 -67q0 -38 -27.5 -65.5t-67.5 -27.5z" />
    <glyph glyph-name="ellipsis" unicode="&#x2026;" horiz-adv-x="422" 
d="M351 -6q-13 0 -22.5 9.5t-9.5 22.5t9.5 22.5t22.5 9.5t22.5 -9.5t9.5 -22.5t-9.5 -22.5t-22.5 -9.5zM211 -6q-13 0 -22.5 9.5t-9.5 22.5t9.5 22.5t22.5 9.5t22.5 -9.5t9.5 -22.5t-9.5 -22.5t-22.5 -9.5zM71 -6q-13 0 -22.5 9.5t-9.5 22.5t9.5 22.5t22.5 9.5t22.5 -9.5
t9.5 -22.5t-9.5 -22.5t-22.5 -9.5z" />
    <glyph glyph-name="perthousand" unicode="&#x2030;" horiz-adv-x="876" 
d="M720 -9q-55 0 -92.5 39.5t-37.5 111.5v6q0 66 37 105t93 39q57 0 93.5 -39t36.5 -105v-6q0 -72 -37.5 -111.5t-92.5 -39.5zM720 17q45 0 70 31t25 89v16q0 53 -24.5 82.5t-70.5 29.5t-70.5 -29.5t-24.5 -82.5v-16q0 -58 25 -89t70 -31zM52 0l441 639h36l-441 -639h-36z
M425 17q45 0 70 31t25 89v16q0 53 -24.5 82.5t-70.5 29.5t-70.5 -29.5t-24.5 -82.5v-16q0 -58 25 -89t70 -31zM156 348q-55 0 -92.5 39.5t-37.5 111.5v6q0 66 37 105t93 39q57 0 93.5 -39t36.5 -105v-6q0 -72 -37.5 -111.5t-92.5 -39.5zM425 -9q-55 0 -92.5 39.5
t-37.5 111.5v6q0 66 37 105t93 39q57 0 93.5 -39t36.5 -105v-6q0 -72 -37.5 -111.5t-92.5 -39.5zM156 374q45 0 70 31t25 89v16q0 53 -24.5 82.5t-70.5 29.5t-70.5 -29.5t-24.5 -82.5v-16q0 -58 25 -89t70 -31z" />
    <glyph glyph-name="uni2032" unicode="&#x2032;" horiz-adv-x="137" 
d="M66 501h-28l23 138h42z" />
    <glyph glyph-name="uni2033" unicode="&#x2033;" horiz-adv-x="220" 
d="M66 501h-28l23 138h42zM149 501h-28l23 138h42z" />
    <glyph glyph-name="guilsinglleft" unicode="&#x2039;" horiz-adv-x="187" 
d="M128 396h38l-105 -151l105 -150h-38l-105 150z" />
    <glyph glyph-name="guilsinglright" unicode="&#x203a;" horiz-adv-x="187" 
d="M21 95l105 151l-105 150h38l105 -150l-105 -151h-38z" />
    <glyph glyph-name="fraction" unicode="&#x2044;" horiz-adv-x="132" 
d="M315 639l-463 -639h-35l463 639h35z" />
    <glyph glyph-name="Euro" unicode="&#x20ac;" horiz-adv-x="557" 
d="M350 -11q-115 0 -181 71t-76 205h-72v29h71v14v42v7h-71v29h72q8 122 75 193t178 71q61 0 102.5 -21t61.5 -49v-97h-36v94q-54 39 -128 39q-98 0 -153 -60t-62 -170h254v-29h-254v-51v-12h254v-29h-253q15 -244 215 -244q106 0 169 76v-32q-19 -30 -64 -53t-102 -23z" />
    <glyph glyph-name="trademark" unicode="&#x2122;" horiz-adv-x="536" 
d="M239 615v24h74l62 -182l61 182h74v-24h-24v-169h24v-23h-84v23h29v164l-65 -187h-32l-66 192h-1v-169h31v-23h-83v23h24v169h-24zM180 568v46h-46v-168h30v-23h-91v23h30v168h-47v-46h-28v71h180v-71h-28z" />
    <glyph glyph-name="onethird" unicode="&#x2153;" horiz-adv-x="657" 
d="M503 376q50 0 80 -25.5t30 -68.5q0 -37 -20 -60.5t-56 -28.5v-1q42 -4 66 -29.5t24 -67.5q0 -45 -33 -72.5t-90 -27.5q-73 0 -113 40v28q43 -40 112 -40q89 0 89 79q0 76 -93 76h-46v27h46q81 0 81 72q0 69 -79 69q-56 0 -99 -33v26q37 37 101 37zM569 639l-463 -639h-35
l463 639h35zM34 270v26h70v311l-77 -82h-1v39l70 75h42v-343h64v-26h-168z" />
    <glyph glyph-name="twothirds" unicode="&#x2154;" horiz-adv-x="692" 
d="M25 270v43q93 65 140.5 118.5t47.5 106.5q0 78 -80 78q-55 0 -101 -39v27q34 42 102 42q51 0 82 -27t31 -82q0 -59 -51 -115.5t-148 -121.5v-1h175v49h31v-78h-229zM538 376q50 0 80 -25.5t30 -68.5q0 -37 -20 -60.5t-56 -28.5v-1q42 -4 66 -29.5t24 -67.5
q0 -45 -33 -72.5t-90 -27.5q-73 0 -113 40v28q43 -40 112 -40q89 0 89 79q0 76 -93 76h-46v27h46q81 0 81 72q0 69 -79 69q-56 0 -99 -33v26q37 37 101 37zM602 639l-463 -639h-35l463 639h35z" />
    <glyph glyph-name="oneeighth" unicode="&#x215b;" horiz-adv-x="653" 
d="M499 -7q-56 0 -91.5 29t-35.5 76v4q0 35 22 60t60 35q-68 19 -68 83v3q0 40 31 66.5t82 26.5t82 -26t31 -66v-4q0 -31 -19 -52.5t-50 -30.5q39 -10 61 -35t22 -59v-4q0 -48 -35 -77t-92 -29zM499 21q44 0 68 20.5t24 58.5v7q0 34 -25 55.5t-67 21.5t-67 -21.5t-25 -55.5
v-7q0 -38 24.5 -58.5t67.5 -20.5zM564 639l-463 -639h-35l463 639h35zM34 270v26h70v311l-77 -82h-1v39l70 75h42v-343h64v-26h-168zM499 208q37 0 59 18t22 50v7q0 29 -21.5 47t-59.5 18t-59.5 -18t-21.5 -47v-7q0 -32 22 -50t59 -18z" />
    <glyph glyph-name="threeeighths" unicode="&#x215c;" horiz-adv-x="666" 
d="M512 -7q-56 0 -91.5 29t-35.5 76v4q0 35 22 60t60 35q-68 19 -68 83v3q0 40 31 66.5t82 26.5t82 -26t31 -66v-4q0 -31 -19 -52.5t-50 -30.5q39 -10 61 -35t22 -59v-4q0 -48 -35 -77t-92 -29zM512 21q44 0 68 20.5t24 58.5v7q0 34 -25 55.5t-67 21.5t-67 -21.5t-25 -55.5
v-7q0 -38 24.5 -58.5t67.5 -20.5zM134 646q50 0 80 -25.5t30 -68.5q0 -37 -20 -60.5t-56 -28.5v-1q42 -4 66 -29.5t24 -67.5q0 -45 -33 -72.5t-90 -27.5q-73 0 -113 40v28q43 -40 112 -40q89 0 89 79q0 76 -93 76h-46v27h46q81 0 81 72q0 69 -79 69q-56 0 -99 -33v26
q37 37 101 37zM579 639l-463 -639h-35l463 639h35zM512 208q37 0 59 18t22 50v7q0 29 -21.5 47t-59.5 18t-59.5 -18t-21.5 -47v-7q0 -32 22 -50t59 -18z" />
    <glyph glyph-name="fiveeighths" unicode="&#x215d;" horiz-adv-x="686" 
d="M532 -7q-56 0 -91.5 29t-35.5 76v4q0 35 22 60t60 35q-68 19 -68 83v3q0 40 31 66.5t82 26.5t82 -26t31 -66v-4q0 -31 -19 -52.5t-50 -30.5q39 -10 61 -35t22 -59v-4q0 -48 -35 -77t-92 -29zM131 265q-66 0 -103 37v27q43 -36 102 -36q45 0 69.5 23.5t24.5 67.5
q0 84 -90 84q-51 0 -89 -23h-5v194h204v-82h-30v52h-144v-128q34 14 71 14q58 0 88 -30.5t30 -83.5t-34 -84.5t-94 -31.5zM532 21q44 0 68 20.5t24 58.5v7q0 34 -25 55.5t-67 21.5t-67 -21.5t-25 -55.5v-7q0 -38 24.5 -58.5t67.5 -20.5zM588 639l-463 -639h-35l463 639h35z
M532 208q37 0 59 18t22 50v7q0 29 -21.5 47t-59.5 18t-59.5 -18t-21.5 -47v-7q0 -32 22 -50t59 -18z" />
    <glyph glyph-name="seveneighths" unicode="&#x215e;" horiz-adv-x="648" 
d="M494 -7q-56 0 -91.5 29t-35.5 76v4q0 35 22 60t60 35q-68 19 -68 83v3q0 40 31 66.5t82 26.5t82 -26t31 -66v-4q0 -31 -19 -52.5t-50 -30.5q39 -10 61 -35t22 -59v-4q0 -48 -35 -77t-92 -29zM494 21q44 0 68 20.5t24 58.5v7q0 34 -25 55.5t-67 21.5t-67 -21.5t-25 -55.5
v-7q0 -38 24.5 -58.5t67.5 -20.5zM531 639l-463 -639h-35l463 639h35zM55 547h-31v92h238v-41l-139 -328h-35l143 339h-176v-62zM494 208q37 0 59 18t22 50v7q0 29 -21.5 47t-59.5 18t-59.5 -18t-21.5 -47v-7q0 -32 22 -50t59 -18z" />
    <glyph glyph-name="minus" unicode="&#x2212;" horiz-adv-x="418" 
d="M41 330h336v-31h-336v31z" />
    <glyph glyph-name="approxequal" unicode="&#x2248;" horiz-adv-x="458" 
d="M59 218q3 75 69 75q24 0 101 -14.5t104 -14.5q19 0 27 10t10 33h32q-3 -75 -66 -75q-30 0 -107 15t-98 15q-37 0 -40 -44h-32zM59 326q3 76 66 76q24 0 102.5 -15t105.5 -15q20 0 27.5 10t9.5 33h32q-3 -75 -66 -75q-30 0 -108.5 14.5t-99.5 14.5q-34 0 -37 -43h-32z" />
    <glyph glyph-name="notequal" unicode="&#x2260;" horiz-adv-x="450" 
d="M334 487l-51 -102h123v-31h-139l-45 -90h184v-31h-200l-54 -109h-34l54 109h-128v31h144l45 90h-189v31h204l52 102h34z" />
    <glyph glyph-name="lessequal" unicode="&#x2264;" horiz-adv-x="416" 
d="M42 327l332 144v-34l-306 -133l306 -132v-33l-332 144v44zM42 0v31h332v-31h-332z" />
    <glyph glyph-name="greaterequal" unicode="&#x2265;" horiz-adv-x="416" 
d="M374 327v-44l-332 -144v33l305 132l-305 133v34zM374 0h-332v31h332v-31z" />
    <glyph glyph-name="uni24C5" unicode="&#x24c5;" horiz-adv-x="748" 
d="M374 -14q-142 0 -238.5 97t-96.5 234q0 138 97 236t238 98q143 0 239 -97.5t96 -236.5q0 -138 -96 -234.5t-239 -96.5zM374 13q128 0 215 89.5t87 214.5q0 126 -87 216.5t-215 90.5q-126 0 -214 -90.5t-88 -216.5q0 -125 88 -214.5t214 -89.5zM240 476v27h173
q54 0 82.5 -29.5t28.5 -81.5q0 -53 -32.5 -81t-91.5 -28h-77v-124h62v-26h-146v26h48v317h-47zM323 312h73q93 0 93 81q0 39 -19 59t-62 20h-85v-160z" />
    <glyph glyph-name="f_t" unicode="&#xe22f;" horiz-adv-x="552" 
d="M21 442v30h70v65q0 69 32 104t80 35q46 0 63 -25v-18q-27 12 -54 12q-86 0 -86 -104v-69h170q19 8 25.5 29.5t10.5 77.5h20v-107h162v-30h-162v-315q0 -55 22.5 -78t63.5 -23q52 0 90 31v-26q-26 -36 -86 -36q-125 0 -125 136v311h-191v-412h85v-30h-187v30h67v412h-70z
" />
    <glyph glyph-name="f_f_t" unicode="&#xe230;" horiz-adv-x="793" 
d="M211 0h-187v30h67v412h-70v30h70v60q0 69 32 104t80 35q46 0 63 -25v-18q-27 12 -54 12q-86 0 -86 -104v-64h206v65q0 69 32 104t80 35q46 0 63 -25v-18q-27 12 -54 12q-86 0 -86 -104v-69h170q19 8 25.5 29.5t10.5 77.5h20v-107h162v-30h-162v-315q0 -55 22.5 -78
t63.5 -23q52 0 90 31v-26q-26 -36 -86 -36q-125 0 -125 136v311h-191v-412h85v-30h-187v30h67v412h-206v-412h85v-30z" />
    <glyph glyph-name="zero.tab" unicode="&#xe44f;" 
d="M300 -11q-105 0 -171.5 85t-66.5 239v42q0 141 63.5 218t174.5 77t174.5 -77t63.5 -218v-42q0 -155 -66 -239.5t-172 -84.5zM300 21q95 0 147 75t52 215v56q0 118 -50.5 183.5t-148.5 65.5t-148.5 -65.5t-50.5 -183.5v-56q0 -140 52.5 -215t146.5 -75z" />
    <glyph glyph-name="one.tab" unicode="&#xe450;" 
d="M145 0v30h164v572l-182 -194l-3 1v42l178 188h44v-609h150v-30h-351z" />
    <glyph glyph-name="two.tab" unicode="&#xe451;" 
d="M101 0v49q161 116 247 217t86 202q0 74 -40 111t-106 37q-97 0 -174 -75v34q57 75 173 75q83 0 134.5 -47t51.5 -135q0 -74 -48 -151t-118.5 -141.5t-178.5 -141.5v-1h320v93h36v-126h-383z" />
    <glyph glyph-name="three.tab" unicode="&#xe452;" 
d="M287 650q84 0 132 -43t48 -114q0 -67 -33.5 -107.5t-92.5 -50.5v-1q70 -6 109.5 -51t39.5 -118q0 -79 -53.5 -126t-150.5 -47q-124 0 -191 67v35q75 -70 190 -70q166 0 166 150q0 144 -172 144h-73v30h73q72 0 111.5 37t39.5 100q0 62 -35.5 96.5t-107.5 34.5
q-58 0 -95 -14t-79 -45v30q65 63 174 63z" />
    <glyph glyph-name="four.tab" unicode="&#xe453;" 
d="M363 639h60v-422h89v-33h-89v-154h89v-30h-228v30h102v154h-303v49zM386 618l-275 -401h275v401z" />
    <glyph glyph-name="five.tab" unicode="&#xe454;" 
d="M466 503h-36v101h-275v-252q63 37 141 37q91 0 142.5 -51t51.5 -143q0 -95 -56 -149t-154 -54q-115 0 -177 66v32q71 -66 177 -66q83 0 127 45.5t44 130.5q0 76 -40.5 116.5t-121.5 40.5q-89 0 -157 -45h-8v327h342v-136z" />
    <glyph glyph-name="six.tab" unicode="&#xe455;" 
d="M429 639v-5q-135 -56 -213.5 -150.5t-86.5 -208.5q21 54 70 85.5t118 31.5q89 0 143 -55.5t54 -141.5v-5q0 -90 -56.5 -145.5t-152.5 -55.5t-156 60t-60 167v25q0 74 26 141.5t68.5 116.5t89.5 84t96 56h60zM311 361q-76 0 -129.5 -47t-53.5 -115v-7q0 -76 46.5 -123.5
t130.5 -47.5q80 0 125.5 45t45.5 122v8q0 79 -42.5 122t-122.5 43z" />
    <glyph glyph-name="seven.tab" unicode="&#xe456;" 
d="M138 483h-36v156h405v-45l-260 -594h-40l264 605h-333v-122z" />
    <glyph glyph-name="eight.tab" unicode="&#xe457;" 
d="M300 -11q-95 0 -154 50.5t-59 128.5v5q0 65 42 109t114 57q-60 12 -95 49.5t-35 97.5v4q0 70 51.5 115t136.5 45q84 0 134.5 -44.5t50.5 -114.5v-5q0 -60 -35 -97.5t-95 -49.5q73 -13 115 -56.5t42 -108.5v-5q0 -78 -58.5 -129t-154.5 -51zM300 21q80 0 127 40t47 109v11
q0 62 -47.5 102.5t-126.5 40.5q-81 0 -127.5 -40.5t-46.5 -102.5v-11q0 -69 46.5 -109t127.5 -40zM300 355q70 0 109.5 34t39.5 94v10q0 56 -39 89.5t-109 33.5q-71 0 -111 -33.5t-40 -89.5v-10q0 -60 39.5 -94t110.5 -34z" />
    <glyph glyph-name="nine.tab" unicode="&#xe458;" 
d="M171 0v5q287 119 300 361q-20 -54 -68.5 -86.5t-120.5 -32.5q-89 0 -142.5 55.5t-53.5 141.5v5q0 90 56.5 145.5t152.5 55.5t156 -59t60 -165v-25q0 -81 -25.5 -150t-68.5 -117t-89 -80.5t-97 -53.5h-60zM290 278q75 0 128.5 47.5t53.5 117.5v7q0 76 -46.5 122t-130.5 46
q-80 0 -125.5 -45t-45.5 -122v-8q0 -79 42 -122t124 -43z" />
    <glyph glyph-name="cent.tab" unicode="&#xe459;" 
d="M282 -107h-31l18 108q-72 20 -112 81.5t-40 157.5v4q0 64 19.5 112t52 74.5t69 38.5t77.5 12h16l16 93h31l-17 -96q67 -10 95 -43v-87h-33v79q-30 17 -66 23l-73 -428q9 -1 29 -1q92 0 152 55v-28q-44 -56 -147 -56q-20 0 -39 3zM153 240q0 -174 121 -211l72 424h-11
q-76 0 -129 -48t-53 -143v-22z" />
    <glyph glyph-name="dollar.tab" unicode="&#xe45a;" 
d="M249 -107h-33l15 102q-80 16 -131 65v96h36v-85q46 -33 100 -45l43 288q-57 7 -86 22q-83 41 -83 144q0 81 57 125.5t132 44.5q12 0 30 -2l11 70h33l-11 -74q62 -12 108 -52v-109h-36v97q-37 22 -77 30l-41 -266q69 -10 105 -26q41 -19 60 -52t19 -96q0 -89 -58 -135
t-146 -46q-11 0 -33 2zM408 285q-30 16 -97 25l-43 -288q8 -1 27 -1q74 0 121 37.5t47 114.5q0 83 -55 112zM206 369q27 -14 78 -21l40 267q-4 0 -11 0.5t-11 0.5q-68 0 -111 -32.5t-43 -105.5q0 -42 12.5 -67t45.5 -42z" />
    <glyph glyph-name="Euro.tab" unicode="&#xe45b;" 
d="M488 483v94q-52 39 -122 39q-95 0 -145 -59.5t-56 -170.5h234v-29h-234v-51v-12h234v-29h-233q12 -244 201 -244q100 0 163 76v-32q-19 -30 -62.5 -53t-97.5 -23q-111 0 -173 70.5t-70 205.5h-72v29h71v14v42v7h-71v29h72q8 123 70 193.5t169 70.5q110 0 158 -70v-97h-36
z" />
    <glyph glyph-name="Q.alt" unicode="&#xe490;" horiz-adv-x="643" 
d="M565 0l-61 56q-70 -67 -183 -67q-126 0 -201.5 88.5t-75.5 252.5v2q0 152 70.5 235t206.5 83t207 -83t71 -235v-2q0 -162 -74 -252l53 -49h54v-29h-67zM321 21q100 0 159 56l-143 132h45l119 -109q59 77 59 230v16q0 127 -58.5 198.5t-180.5 71.5q-121 0 -179.5 -71.5
t-58.5 -198.5v-16q0 -150 60.5 -229.5t177.5 -79.5z" />
    <glyph glyph-name="a.alt" unicode="&#xe4c0;" horiz-adv-x="457" 
d="M56 340v80q55 61 161 61q68 0 111.5 -34.5t43.5 -107.5v-309h61v-30h-84q-10 57 -11 119q-12 -57 -55.5 -92t-109.5 -35q-61 0 -101.5 33t-40.5 91v1q0 43 25 71.5t93 51t189 38.5v67q0 106 -122 106q-71 0 -127 -37v-74h-33zM175 20q68 0 115 43.5t48 139.5v50
q-158 -23 -214.5 -50.5t-56.5 -84.5v-3q0 -42 29.5 -68.5t78.5 -26.5z" />
    <glyph glyph-name="g.alt" unicode="&#xe4c6;" horiz-adv-x="451" 
d="M218 -154q-94 0 -147 31.5t-53 89.5v1q0 46 33 75t84 35q-59 8 -59 58q0 55 69 65q-43 11 -70.5 45t-27.5 93v1q0 68 46 104.5t115 36.5q46 0 79 -9h134v-34h-88q48 -36 48 -107v-1q0 -73 -46.5 -108.5t-118.5 -35.5h-42q-66 0 -66 -45q0 -43 63 -46l107 -5
q77 -4 113 -30.5t36 -79.5v-3q0 -64 -55 -97.5t-154 -33.5zM218 -128q84 0 129 26t45 76v3q0 41 -25 59.5t-87 21.5l-99 5q-56 3 -91.5 -22t-35.5 -72v-1q0 -96 164 -96zM214 211q132 0 132 119v9q0 57 -39 86t-98 29q-58 0 -92.5 -28t-34.5 -83v-9q0 -66 37.5 -94.5
t94.5 -28.5z" />
    <glyph glyph-name="x.alt" unicode="&#xe4d7;" horiz-adv-x="473" 
d="M31 438v34h75l131 -205l130 205h72v-34h-56l-122 -190l138 -218h52v-30h-72l-144 228l-142 -228h-71v30h52l137 217l-122 191h-58z" />
    <glyph glyph-name="y.alt" unicode="&#xe4d8;" horiz-adv-x="509" 
d="M346 438v34h145v-34h-44l-213 -554h72v-30h-177v30h69l50 123h-23l-167 431h-40v34h147v-34h-70l159 -415l158 415h-66z" />
    <glyph glyph-name="a.alt1" unicode="&#xe4e0;" horiz-adv-x="526" 
d="M502 0h-87q-13 65 -13 140q-13 -65 -61.5 -106.5t-112.5 -41.5q-89 0 -144.5 65t-55.5 188v2q0 108 56 171t144 63q66 0 114 -39.5t60 -110.5q0 34 3 69t7 54l3 18h22v-442h65v-30zM228 21q69 0 121.5 56t52.5 169v4q0 91 -47 146.5t-120 55.5q-77 0 -124 -51t-47 -139
v-20q0 -110 43.5 -165.5t120.5 -55.5z" />
    <glyph glyph-name="idotaccent" horiz-adv-x="223" 
d="M24 438v34h105v-442h70v-30h-175v30h70v408h-70zM105 572q-13 0 -22 8.5t-9 21.5t9 22t22 9t22 -9t9 -22t-9 -21.5t-22 -8.5z" />
    <glyph glyph-name="space_uni0326" horiz-adv-x="404" 
d="M190 -152h-24q21 38 21 78q0 16 -4 29h36q4 -12 4 -30q0 -41 -33 -77z" />
    <glyph glyph-name="space.tab" horiz-adv-x="300" 
 />
    <glyph glyph-name="sterling.tab" 
d="M453 500v85q-43 31 -106 31q-73 0 -113 -40t-40 -118v-128h194v-32h-194v-87q0 -72 -23 -112.5t-69 -64.5v-1h361v93h36v-126h-422v49q43 25 61.5 60.5t18.5 102.5v86h-60v32h60v131q0 88 50.5 138.5t136.5 50.5q96 0 145 -58v-92h-36z" />
    <glyph glyph-name="yen.tab" 
d="M115 207h166v63h-166v29h157l-169 307h-47v33h183v-33h-96l157 -290l157 290h-95v33h181v-33h-48l-169 -307h172v-29h-180v-63h180v-29h-180v-148h93v-30h-223v30h93v148h-166v29z" />
    <glyph glyph-name="florin.tab" 
d="M142 380h104l21 166q7 65 42 97.5t84 32.5q55 0 71 -27v-20q-30 16 -64 16q-86 0 -97 -97l-21 -168h156v-30h-159l-61 -496h-37l61 496h-100v30z" />
    <glyph glyph-name="percent.tab" horiz-adv-x="700" 
d="M484 -9q-55 0 -92.5 39.5t-37.5 111.5v6q0 66 37 105t93 39q57 0 93.5 -39t36.5 -105v-6q0 -72 -37.5 -111.5t-92.5 -39.5zM215 348q-55 0 -92.5 39.5t-37.5 111.5v6q0 66 37 105t93 39q57 0 93.5 -39t36.5 -105v-6q0 -72 -37.5 -111.5t-92.5 -39.5zM111 0l441 639h36
l-441 -639h-36zM215 374q45 0 70 31t25 89v16q0 53 -24.5 82.5t-70.5 29.5t-70.5 -29.5t-24.5 -82.5v-16q0 -58 25 -89t70 -31zM484 17q45 0 70 31t25 89v16q0 53 -24.5 82.5t-70.5 29.5t-70.5 -29.5t-24.5 -82.5v-16q0 -58 25 -89t70 -31z" />
    <glyph glyph-name="perthousand.tab" horiz-adv-x="1000" 
d="M487 17q45 0 70 31t25 89v16q0 53 -24.5 82.5t-70.5 29.5t-70.5 -29.5t-24.5 -82.5v-16q0 -58 25 -89t70 -31zM218 374q45 0 70 31t25 89v16q0 53 -24.5 82.5t-70.5 29.5t-70.5 -29.5t-24.5 -82.5v-16q0 -58 25 -89t70 -31zM782 -9q-55 0 -92.5 39.5t-37.5 111.5v6
q0 66 37 105t93 39q57 0 93.5 -39t36.5 -105v-6q0 -72 -37.5 -111.5t-92.5 -39.5zM218 348q-55 0 -92.5 39.5t-37.5 111.5v6q0 66 37 105t93 39q57 0 93.5 -39t36.5 -105v-6q0 -72 -37.5 -111.5t-92.5 -39.5zM782 17q45 0 70 31t25 89v16q0 53 -24.5 82.5t-70.5 29.5
t-70.5 -29.5t-24.5 -82.5v-16q0 -58 25 -89t70 -31zM487 -9q-55 0 -92.5 39.5t-37.5 111.5v6q0 66 37 105t93 39q57 0 93.5 -39t36.5 -105v-6q0 -72 -37.5 -111.5t-92.5 -39.5zM114 0l441 639h36l-441 -639h-36z" />
    <glyph glyph-name="plus.tab" 
d="M317 512v-182h171v-31h-171v-182h-34v182h-171v31h171v182h34z" />
    <glyph glyph-name="minus.tab" 
d="M112 330h376v-31h-376v31z" />
    <glyph glyph-name="plusminus.tab" 
d="M317 493v-162h171v-31h-171v-162h-34v162h-171v31h171v162h34zM112 0v31h376v-31h-376z" />
    <glyph glyph-name="multiply.tab" 
d="M127 155l150 153l-150 154l22 22l150 -153l151 153l22 -22l-151 -154l151 -153l-22 -22l-151 153l-150 -153z" />
    <glyph glyph-name="divide.tab" 
d="M112 330h376v-31h-376v31zM301 153q-13 0 -22.5 9.5t-9.5 22.5t9.5 22.5t22.5 9.5t22.5 -9.5t9.5 -22.5t-9.5 -22.5t-22.5 -9.5zM301 412q-13 0 -22.5 9.5t-9.5 22.5t9.5 22.5t22.5 9.5t22.5 -9.5t9.5 -22.5t-9.5 -22.5t-22.5 -9.5z" />
    <glyph glyph-name="equal.tab" 
d="M99 260h402v-31h-402v31zM99 389h402v-31h-402v31z" />
    <glyph glyph-name="notequal.tab" 
d="M409 491l-50 -102h142v-31h-158l-48 -98h206v-31h-221l-53 -109h-34l53 109h-147v31h162l48 98h-210v31h226l50 102h34z" />
    <glyph glyph-name="approxequal.tab" 
d="M110 208q3 75 69 75q24 0 121 -14.5t124 -14.5q19 0 27 10t10 33h32q-3 -75 -66 -75q-30 0 -127 15t-118 15q-37 0 -40 -44h-32zM110 336q3 76 66 76q24 0 122.5 -15t125.5 -15q20 0 27.5 10t9.5 33h32q-3 -75 -66 -75q-30 0 -128.5 14.5t-119.5 14.5q-34 0 -37 -43h-32z
" />
    <glyph glyph-name="less.tab" 
d="M119 327l362 154v-33l-335 -143l335 -142v-34l-362 154v44z" />
    <glyph glyph-name="greater.tab" 
d="M481 283l-362 -154v33l335 142l-335 143v34l362 -154v-44z" />
    <glyph glyph-name="lessequal.tab" 
d="M119 327l362 144v-34l-333 -133l333 -132v-33l-362 144v44zM119 0v31h362v-31h-362z" />
    <glyph glyph-name="greaterequal.tab" 
d="M481 327v-44l-362 -144v33l333 132l-333 133v34zM481 0h-362v31h362v-31z" />
    <glyph glyph-name="period.tab" horiz-adv-x="300" 
d="M150 -6q-13 0 -22.5 9.5t-9.5 22.5t9.5 22.5t22.5 9.5t22.5 -9.5t9.5 -22.5t-9.5 -22.5t-22.5 -9.5z" />
    <glyph glyph-name="comma.tab" horiz-adv-x="300" 
d="M142 -87h-22q20 49 20 100q0 26 -4 43h40q4 -19 4 -41q0 -51 -38 -102z" />
    <glyph glyph-name="colon.tab" horiz-adv-x="300" 
d="M150 290q-13 0 -22.5 9.5t-9.5 22.5t9.5 22.5t22.5 9.5t22.5 -9.5t9.5 -22.5t-9.5 -22.5t-22.5 -9.5zM150 -4q-13 0 -22.5 9.5t-9.5 22.5t9.5 22.5t22.5 9.5t22.5 -9.5t9.5 -22.5t-9.5 -22.5t-22.5 -9.5z" />
    <glyph glyph-name="semicolon.tab" horiz-adv-x="300" 
d="M152 290q-13 0 -22.5 9.5t-9.5 22.5t9.5 22.5t22.5 9.5t22.5 -9.5t9.5 -22.5t-9.5 -22.5t-22.5 -9.5zM142 -87h-22q20 49 20 100q0 26 -4 43h40q4 -19 4 -41q0 -51 -38 -102z" />
    <glyph glyph-name="parenleft.tab" horiz-adv-x="300" 
d="M114 309v-36q0 -225 157 -366v-5h-35q-64 54 -112 151.5t-48 225.5v25q0 121 48 217.5t112 151.5h35v-5q-67 -59 -112 -152.5t-45 -206.5z" />
    <glyph glyph-name="parenright.tab" horiz-adv-x="300" 
d="M186 273v36q0 113 -45 206.5t-112 152.5v5h35q64 -55 112 -151.5t48 -217.5v-25q0 -128 -48 -225.5t-112 -151.5h-35v5q157 141 157 366z" />
    <glyph glyph-name="bracketleft.tab" horiz-adv-x="300" 
d="M98 -98v771h173v-32h-137v-709h137v-30h-173z" />
    <glyph glyph-name="bracketright.tab" horiz-adv-x="300" 
d="M202 673v-771h-173v30h137v709h-137v32h173z" />
    <glyph glyph-name="braceleft.tab" horiz-adv-x="300" 
d="M91 291v-3q97 -15 97 -98q0 -27 -15.5 -79.5t-15.5 -76.5q0 -80 83 -127v-5h-37q-32 15 -58 48t-26 78q0 28 17.5 85.5t17.5 80.5q0 35 -19.5 53.5t-77.5 21.5v41q58 3 77.5 21.5t19.5 53.5q0 23 -17.5 78.5t-17.5 83.5q0 45 26 78t58 48h37v-5q-83 -47 -83 -127
q0 -24 15.5 -74.5t15.5 -77.5q0 -83 -97 -98z" />
    <glyph glyph-name="braceright.tab" horiz-adv-x="300" 
d="M209 288v3q-97 15 -97 98q0 27 15.5 77.5t15.5 74.5q0 80 -83 127v5h37q32 -15 58 -48t26 -78q0 -28 -17.5 -83.5t-17.5 -78.5q0 -35 19.5 -53.5t77.5 -21.5v-41q-58 -3 -77.5 -21.5t-19.5 -53.5q0 -23 17.5 -80.5t17.5 -85.5q0 -45 -26 -78t-58 -48h-37v5q83 47 83 127
q0 24 -15.5 76.5t-15.5 79.5q0 83 97 98z" />
    <glyph glyph-name="zero.num" horiz-adv-x="351" 
d="M176 263q-62 0 -103.5 48t-41.5 138v24q0 83 39.5 128t105.5 45q65 0 104.5 -45t39.5 -128v-24q0 -91 -41 -138.5t-103 -47.5zM176 291q50 0 80 39t30 113v42q0 62 -29 96.5t-81 34.5t-81 -34.5t-29 -96.5v-42q0 -74 30 -113t80 -39z" />
    <glyph glyph-name="one.num" horiz-adv-x="227" 
d="M34 270v26h70v311l-77 -82h-1v39l70 75h42v-343h64v-26h-168z" />
    <glyph glyph-name="two.num" horiz-adv-x="285" 
d="M25 270v43q93 65 140.5 118.5t47.5 106.5q0 78 -80 78q-55 0 -101 -39v27q34 42 102 42q51 0 82 -27t31 -82q0 -59 -51 -115.5t-148 -121.5v-1h175v49h31v-78h-229z" />
    <glyph glyph-name="three.num" horiz-adv-x="288" 
d="M134 646q50 0 80 -25.5t30 -68.5q0 -37 -20 -60.5t-56 -28.5v-1q42 -4 66 -29.5t24 -67.5q0 -45 -33 -72.5t-90 -27.5q-73 0 -113 40v28q43 -40 112 -40q89 0 89 79q0 76 -93 76h-46v27h46q81 0 81 72q0 69 -79 69q-56 0 -99 -33v26q37 37 101 37z" />
    <glyph glyph-name="four.num" horiz-adv-x="305" 
d="M176 639h52v-235h51v-29h-51v-79h51v-26h-140v26h56v79h-172v40zM195 618l-147 -214h147v214z" />
    <glyph glyph-name="five.num" horiz-adv-x="290" 
d="M131 265q-66 0 -103 37v27q43 -36 102 -36q45 0 69.5 23.5t24.5 67.5q0 84 -90 84q-51 0 -89 -23h-5v194h204v-82h-30v52h-144v-128q34 14 71 14q58 0 88 -30.5t30 -83.5t-34 -84.5t-94 -31.5z" />
    <glyph glyph-name="six.num" horiz-adv-x="316" 
d="M247 639v-3q-75 -33 -123.5 -84t-56.5 -114q26 63 103 63q54 0 86 -33t32 -84v-3q0 -53 -33.5 -85.5t-91.5 -32.5q-59 0 -95.5 36t-36.5 99v13q0 82 51 141.5t111 86.5h54zM164 475q-41 0 -68.5 -24t-29.5 -59v-10q0 -41 25.5 -66.5t71.5 -25.5q43 0 67 24.5t24 65.5v5
q0 41 -23 65.5t-67 24.5z" />
    <glyph glyph-name="seven.num" horiz-adv-x="287" 
d="M55 547h-31v92h238v-41l-139 -328h-35l143 339h-176v-62z" />
    <glyph glyph-name="eight.num" horiz-adv-x="308" 
d="M154 263q-56 0 -91.5 29t-35.5 76v4q0 35 22 60t60 35q-68 19 -68 83v3q0 40 31 66.5t82 26.5t82 -26t31 -66v-4q0 -31 -19 -52.5t-50 -30.5q39 -10 61 -35t22 -59v-4q0 -48 -35 -77t-92 -29zM154 291q44 0 68 20.5t24 58.5v7q0 34 -25 55.5t-67 21.5t-67 -21.5
t-25 -55.5v-7q0 -38 24.5 -58.5t67.5 -20.5zM154 478q37 0 59 18t22 50v7q0 29 -21.5 47t-59.5 18t-59.5 -18t-21.5 -47v-7q0 -32 22 -50t59 -18z" />
    <glyph glyph-name="nine.num" horiz-adv-x="316" 
d="M78 270v3q70 31 116 81t54 114q-25 -61 -102 -61q-54 0 -86 33t-32 84v2q0 55 33.5 88t92.5 33t95 -35.5t36 -99.5v-12q0 -84 -47.5 -143t-105.5 -87h-54zM153 433q40 0 68 23.5t29 58.5v13q0 41 -25.5 66t-70.5 25q-43 0 -67 -24.5t-24 -65.5v-5q0 -42 22.5 -66.5
t67.5 -24.5z" />
    <glyph glyph-name="zero.den" horiz-adv-x="351" 
d="M176 -7q-62 0 -103.5 48t-41.5 138v24q0 83 39.5 128t105.5 45q65 0 104.5 -45t39.5 -128v-24q0 -91 -41 -138.5t-103 -47.5zM176 21q50 0 80 39t30 113v42q0 62 -29 96.5t-81 34.5t-81 -34.5t-29 -96.5v-42q0 -74 30 -113t80 -39z" />
    <glyph glyph-name="one.den" horiz-adv-x="227" 
d="M34 0v26h70v311l-77 -82h-1v39l70 75h42v-343h64v-26h-168z" />
    <glyph glyph-name="two.den" horiz-adv-x="285" 
d="M25 0v43q93 65 140.5 118.5t47.5 106.5q0 78 -80 78q-55 0 -101 -39v27q34 42 102 42q51 0 82 -27t31 -82q0 -59 -51 -115.5t-148 -121.5v-1h175v49h31v-78h-229z" />
    <glyph glyph-name="three.den" horiz-adv-x="288" 
d="M134 376q50 0 80 -25.5t30 -68.5q0 -37 -20 -60.5t-56 -28.5v-1q42 -4 66 -29.5t24 -67.5q0 -45 -33 -72.5t-90 -27.5q-73 0 -113 40v28q43 -40 112 -40q89 0 89 79q0 76 -93 76h-46v27h46q81 0 81 72q0 69 -79 69q-56 0 -99 -33v26q37 37 101 37z" />
    <glyph glyph-name="four.den" horiz-adv-x="305" 
d="M176 369h52v-235h51v-29h-51v-79h51v-26h-140v26h56v79h-172v40zM195 348l-147 -214h147v214z" />
    <glyph glyph-name="five.den" horiz-adv-x="290" 
d="M131 -5q-66 0 -103 37v27q43 -36 102 -36q45 0 69.5 23.5t24.5 67.5q0 84 -90 84q-51 0 -89 -23h-5v194h204v-82h-30v52h-144v-128q34 14 71 14q58 0 88 -30.5t30 -83.5t-34 -84.5t-94 -31.5z" />
    <glyph glyph-name="six.den" horiz-adv-x="316" 
d="M247 369v-3q-75 -33 -123.5 -84t-56.5 -114q26 63 103 63q54 0 86 -33t32 -84v-3q0 -53 -33.5 -85.5t-91.5 -32.5q-59 0 -95.5 36t-36.5 99v13q0 82 51 141.5t111 86.5h54zM164 205q-41 0 -68.5 -24t-29.5 -59v-10q0 -41 25.5 -66.5t71.5 -25.5q43 0 67 24.5t24 65.5v5
q0 41 -23 65.5t-67 24.5z" />
    <glyph glyph-name="seven.den" horiz-adv-x="287" 
d="M55 277h-31v92h238v-41l-139 -328h-35l143 339h-176v-62z" />
    <glyph glyph-name="eight.den" horiz-adv-x="308" 
d="M154 -7q-56 0 -91.5 29t-35.5 76v4q0 35 22 60t60 35q-68 19 -68 83v3q0 40 31 66.5t82 26.5t82 -26t31 -66v-4q0 -31 -19 -52.5t-50 -30.5q39 -10 61 -35t22 -59v-4q0 -48 -35 -77t-92 -29zM154 21q44 0 68 20.5t24 58.5v7q0 34 -25 55.5t-67 21.5t-67 -21.5t-25 -55.5
v-7q0 -38 24.5 -58.5t67.5 -20.5zM154 208q37 0 59 18t22 50v7q0 29 -21.5 47t-59.5 18t-59.5 -18t-21.5 -47v-7q0 -32 22 -50t59 -18z" />
    <glyph glyph-name="nine.den" horiz-adv-x="316" 
d="M78 0v3q70 31 116 81t54 114q-25 -61 -102 -61q-54 0 -86 33t-32 84v2q0 55 33.5 88t92.5 33t95 -35.5t36 -99.5v-12q0 -84 -47.5 -143t-105.5 -87h-54zM153 163q40 0 68 23.5t29 58.5v13q0 41 -25.5 66t-70.5 25q-43 0 -67 -24.5t-24 -65.5v-5q0 -42 22.5 -66.5
t67.5 -24.5z" />
    <glyph glyph-name="zero.sub" horiz-adv-x="351" 
d="M176 -67q-62 0 -103.5 48t-41.5 138v24q0 83 39.5 128t105.5 45q65 0 104.5 -45t39.5 -128v-24q0 -91 -41 -138.5t-103 -47.5zM176 -39q50 0 80 39t30 113v42q0 62 -29 96.5t-81 34.5t-81 -34.5t-29 -96.5v-42q0 -74 30 -113t80 -39z" />
    <glyph glyph-name="one.sub" horiz-adv-x="227" 
d="M34 -60v26h70v311l-77 -82h-1v39l70 75h42v-343h64v-26h-168z" />
    <glyph glyph-name="two.sub" horiz-adv-x="285" 
d="M25 -60v43q93 65 140.5 118.5t47.5 106.5q0 78 -80 78q-55 0 -101 -39v27q34 42 102 42q51 0 82 -27t31 -82q0 -59 -51 -115.5t-148 -121.5v-1h175v49h31v-78h-229z" />
    <glyph glyph-name="three.sub" horiz-adv-x="288" 
d="M134 316q50 0 80 -25.5t30 -68.5q0 -37 -20 -60.5t-56 -28.5v-1q42 -4 66 -29.5t24 -67.5q0 -45 -33 -72.5t-90 -27.5q-73 0 -113 40v28q43 -40 112 -40q89 0 89 79q0 76 -93 76h-46v27h46q81 0 81 72q0 69 -79 69q-56 0 -99 -33v26q37 37 101 37z" />
    <glyph glyph-name="four.sub" horiz-adv-x="305" 
d="M176 309h52v-235h51v-29h-51v-79h51v-26h-140v26h56v79h-172v40zM195 288l-147 -214h147v214z" />
    <glyph glyph-name="five.sub" horiz-adv-x="290" 
d="M131 -65q-66 0 -103 37v27q43 -36 102 -36q45 0 69.5 23.5t24.5 67.5q0 84 -90 84q-51 0 -89 -23h-5v194h204v-82h-30v52h-144v-128q34 14 71 14q58 0 88 -30.5t30 -83.5t-34 -84.5t-94 -31.5z" />
    <glyph glyph-name="six.sub" horiz-adv-x="316" 
d="M247 309v-3q-75 -33 -123.5 -84t-56.5 -114q26 63 103 63q54 0 86 -33t32 -84v-3q0 -53 -33.5 -85.5t-91.5 -32.5q-59 0 -95.5 36t-36.5 99v13q0 82 51 141.5t111 86.5h54zM164 145q-41 0 -68.5 -24t-29.5 -59v-10q0 -41 25.5 -66.5t71.5 -25.5q43 0 67 24.5t24 65.5v5
q0 41 -23 65.5t-67 24.5z" />
    <glyph glyph-name="seven.sub" horiz-adv-x="287" 
d="M55 217h-31v92h238v-41l-139 -328h-35l143 339h-176v-62z" />
    <glyph glyph-name="eight.sub" horiz-adv-x="308" 
d="M156 -67q-56 0 -91.5 29t-35.5 76v4q0 35 22 60t60 35q-68 19 -68 83v3q0 40 31 66.5t82 26.5t82 -26t31 -66v-4q0 -31 -19 -52.5t-50 -30.5q39 -10 61 -35t22 -59v-4q0 -48 -35 -77t-92 -29zM156 -39q44 0 68 20.5t24 58.5v7q0 34 -25 55.5t-67 21.5t-67 -21.5
t-25 -55.5v-7q0 -38 24.5 -58.5t67.5 -20.5zM156 148q37 0 59 18t22 50v7q0 29 -21.5 47t-59.5 18t-59.5 -18t-21.5 -47v-7q0 -32 22 -50t59 -18z" />
    <glyph glyph-name="nine.sub" horiz-adv-x="316" 
d="M78 -60v3q71 31 116.5 81.5t53.5 113.5q-25 -61 -102 -61q-54 0 -86 33t-32 84v2q0 55 33.5 88t92.5 33t95 -35.5t36 -99.5v-12q0 -84 -47.5 -143t-105.5 -87h-54zM153 103q40 0 68 23.5t29 58.5v13q0 41 -25.5 66t-70.5 25q-43 0 -67 -24.5t-24 -65.5v-5
q0 -42 22.5 -66.5t67.5 -24.5z" />
    <glyph glyph-name="plus.sub" horiz-adv-x="291" 
d="M160 240v-104h98v-28h-98v-104h-30v104h-97v28h97v104h30z" />
    <glyph glyph-name="minus.sub" horiz-adv-x="291" 
d="M33 136h225v-28h-225v28z" />
    <glyph glyph-name="zero.sup" horiz-adv-x="351" 
d="M176 308q-62 0 -103.5 48t-41.5 138v24q0 83 39.5 128t105.5 45q65 0 104.5 -45t39.5 -128v-24q0 -91 -41 -138.5t-103 -47.5zM176 336q50 0 80 39t30 113v42q0 62 -29 96.5t-81 34.5t-81 -34.5t-29 -96.5v-42q0 -74 30 -113t80 -39z" />
    <glyph glyph-name="one.sup" horiz-adv-x="227" 
d="M34 315v26h70v311l-77 -82h-1v39l70 75h42v-343h64v-26h-168z" />
    <glyph glyph-name="two.sup" horiz-adv-x="285" 
d="M25 315v43q93 65 140.5 118.5t47.5 106.5q0 78 -80 78q-55 0 -101 -39v27q34 42 102 42q51 0 82 -27t31 -82q0 -59 -51 -115.5t-148 -121.5v-1h175v49h31v-78h-229z" />
    <glyph glyph-name="three.sup" horiz-adv-x="288" 
d="M134 691q50 0 80 -25.5t30 -68.5q0 -37 -20 -60.5t-56 -28.5v-1q42 -4 66 -29.5t24 -67.5q0 -45 -33 -72.5t-90 -27.5q-73 0 -113 40v28q43 -40 112 -40q89 0 89 79q0 76 -93 76h-46v27h46q81 0 81 72q0 69 -79 69q-56 0 -99 -33v26q37 37 101 37z" />
    <glyph glyph-name="four.sup" horiz-adv-x="305" 
d="M176 684h52v-235h51v-29h-51v-79h51v-26h-140v26h56v79h-172v40zM195 663l-147 -214h147v214z" />
    <glyph glyph-name="five.sup" horiz-adv-x="290" 
d="M131 310q-66 0 -103 37v27q43 -36 102 -36q45 0 69.5 23.5t24.5 67.5q0 84 -90 84q-51 0 -89 -23h-5v194h204v-82h-30v52h-144v-128q34 14 71 14q58 0 88 -30.5t30 -83.5t-34 -84.5t-94 -31.5z" />
    <glyph glyph-name="six.sup" horiz-adv-x="316" 
d="M247 684v-3q-75 -33 -123.5 -84t-56.5 -114q26 63 103 63q54 0 86 -33t32 -84v-3q0 -53 -33.5 -85.5t-91.5 -32.5q-59 0 -95.5 36t-36.5 99v13q0 82 51 141.5t111 86.5h54zM164 520q-41 0 -68.5 -24t-29.5 -59v-10q0 -41 25.5 -66.5t71.5 -25.5q43 0 67 24.5t24 65.5v5
q0 41 -23 65.5t-67 24.5z" />
    <glyph glyph-name="seven.sup" horiz-adv-x="287" 
d="M55 592h-31v92h238v-41l-139 -328h-35l143 339h-176v-62z" />
    <glyph glyph-name="eight.sup" horiz-adv-x="308" 
d="M156 308q-56 0 -91.5 29t-35.5 76v4q0 35 22 60t60 35q-68 19 -68 83v3q0 40 31 66.5t82 26.5t82 -26t31 -66v-4q0 -31 -19 -52.5t-50 -30.5q39 -10 61 -35t22 -59v-4q0 -48 -35 -77t-92 -29zM156 336q44 0 68 20.5t24 58.5v7q0 34 -25 55.5t-67 21.5t-67 -21.5
t-25 -55.5v-7q0 -38 24.5 -58.5t67.5 -20.5zM156 523q37 0 59 18t22 50v7q0 29 -21.5 47t-59.5 18t-59.5 -18t-21.5 -47v-7q0 -32 22 -50t59 -18z" />
    <glyph glyph-name="nine.sup" horiz-adv-x="316" 
d="M78 315v3q70 31 116 81t54 114q-25 -61 -102 -61q-54 0 -86 33t-32 84v2q0 55 33.5 88t92.5 33t95 -35.5t36 -99.5v-12q0 -84 -47.5 -143t-105.5 -87h-54zM153 478q40 0 68 23.5t29 58.5v13q0 41 -25.5 66t-70.5 25q-43 0 -67 -24.5t-24 -65.5v-5q0 -42 22.5 -66.5
t67.5 -24.5z" />
    <glyph glyph-name="plus.sup" horiz-adv-x="291" 
d="M160 615v-104h98v-28h-98v-104h-30v104h-97v28h97v104h30z" />
    <glyph glyph-name="minus.sup" horiz-adv-x="291" 
d="M33 511h225v-28h-225v28z" />
    <glyph glyph-name="ae.alt" horiz-adv-x="753" 
d="M89 340h-33v80q20 23 61.5 42t97.5 19q66 0 106 -31.5t44 -93.5q23 59 69.5 92t109.5 33q85 0 129 -52t44 -141q0 -33 -4 -56h-342q0 -211 189 -211q91 0 151 53v-29q-16 -19 -57.5 -36t-94.5 -17q-164 0 -208 145q-12 -69 -58.5 -107t-119.5 -38q-63 0 -102.5 33.5
t-39.5 90.5v1q0 43 25 71.5t93 51t189 38.5v67q0 106 -122 106q-72 0 -127 -37v-74zM544 453q-74 0 -123 -54.5t-50 -141.5h312v4q0 99 -33.5 145.5t-105.5 46.5zM67 118v-3q0 -42 29 -68.5t79 -26.5q71 0 117 43.5t46 139.5v25v12v13q-158 -23 -214.5 -50.5t-56.5 -84.5z
" />
    <glyph glyph-name="aacute.alt" horiz-adv-x="457" 
d="M56 340v80q55 61 161 61q68 0 111.5 -34.5t43.5 -107.5v-309h61v-30h-84q-10 57 -11 119q-12 -57 -55.5 -92t-109.5 -35q-61 0 -101.5 33t-40.5 91v1q0 43 25 71.5t93 51t189 38.5v67q0 106 -122 106q-71 0 -127 -37v-74h-33zM175 20q68 0 115 43.5t48 139.5v50
q-158 -23 -214.5 -50.5t-56.5 -84.5v-3q0 -42 29.5 -68.5t78.5 -26.5zM183 547l87 113h53l-106 -113h-34z" />
    <glyph glyph-name="aacute.alt1" horiz-adv-x="526" 
d="M415 0q-13 65 -13 140q-13 -65 -61.5 -106.5t-112.5 -41.5q-89 0 -144.5 65t-55.5 188v2q0 108 56 171t144 63q66 0 114 -39.5t60 -110.5q0 34 3 69t7 54l3 18h22v-442h65v-30h-87zM228 21q69 0 121.5 56t52.5 169v4q0 91 -47 146.5t-120 55.5q-77 0 -124 -51t-47 -139
v-20q0 -110 43.5 -165.5t120.5 -55.5zM212 547l87 113h53l-106 -113h-34z" />
    <glyph glyph-name="abreve.alt" horiz-adv-x="457" 
d="M349 0q-10 57 -11 119q-12 -57 -55.5 -92t-109.5 -35q-61 0 -101.5 33t-40.5 91v1q0 43 25 71.5t93 51t189 38.5v67q0 106 -122 106q-71 0 -127 -37v-74h-33v80q55 61 161 61q68 0 111.5 -34.5t43.5 -107.5v-309h61v-30h-84zM175 20q68 0 115 43.5t48 139.5v50
q-158 -23 -214.5 -50.5t-56.5 -84.5v-3q0 -42 29.5 -68.5t78.5 -26.5zM275 650h28q2 -42 -21 -71.5t-71 -29.5q-47 0 -69.5 29.5t-20.5 71.5h28q-1 -29 14.5 -48.5t47.5 -19.5q33 0 49 19.5t15 48.5z" />
    <glyph glyph-name="abreve.alt1" horiz-adv-x="526" 
d="M415 0q-13 65 -13 140q-13 -65 -61.5 -106.5t-112.5 -41.5q-89 0 -144.5 65t-55.5 188v2q0 108 56 171t144 63q66 0 114 -39.5t60 -110.5q0 34 3 69t7 54l3 18h22v-442h65v-30h-87zM228 21q69 0 121.5 56t52.5 169v4q0 91 -47 146.5t-120 55.5q-77 0 -124 -51t-47 -139
v-20q0 -110 43.5 -165.5t120.5 -55.5zM303 650h28q2 -42 -21 -71.5t-71 -29.5q-47 0 -69.5 29.5t-20.5 71.5h28q-1 -29 14.5 -48.5t47.5 -19.5q33 0 49 19.5t15 48.5z" />
    <glyph glyph-name="acircumflex.alt" horiz-adv-x="457" 
d="M349 0q-10 57 -11 119q-12 -57 -55.5 -92t-109.5 -35q-61 0 -101.5 33t-40.5 91v1q0 43 25 71.5t93 51t189 38.5v67q0 106 -122 106q-71 0 -127 -37v-74h-33v80q55 61 161 61q68 0 111.5 -34.5t43.5 -107.5v-309h61v-30h-84zM175 20q68 0 115 43.5t48 139.5v50
q-158 -23 -214.5 -50.5t-56.5 -84.5v-3q0 -42 29.5 -68.5t78.5 -26.5zM102 547l83 113h54l83 -113h-33l-77 89l-77 -89h-33z" />
    <glyph glyph-name="acircumflex.alt1" horiz-adv-x="526" 
d="M502 0h-87q-13 65 -13 140q-13 -65 -61.5 -106.5t-112.5 -41.5q-89 0 -144.5 65t-55.5 188v2q0 108 56 171t144 63q66 0 114 -39.5t60 -110.5q0 34 3 69t7 54l3 18h22v-442h65v-30zM228 21q69 0 121.5 56t52.5 169v4q0 91 -47 146.5t-120 55.5q-77 0 -124 -51t-47 -139
v-20q0 -110 43.5 -165.5t120.5 -55.5zM132 547l83 113h54l83 -113h-33l-77 89l-77 -89h-33z" />
    <glyph glyph-name="adieresis.alt" horiz-adv-x="457" 
d="M349 0q-10 57 -11 119q-12 -57 -55.5 -92t-109.5 -35q-61 0 -101.5 33t-40.5 91v1q0 43 25 71.5t93 51t189 38.5v67q0 106 -122 106q-71 0 -127 -37v-74h-33v80q55 61 161 61q68 0 111.5 -34.5t43.5 -107.5v-309h61v-30h-84zM175 20q68 0 115 43.5t48 139.5v50
q-158 -23 -214.5 -50.5t-56.5 -84.5v-3q0 -42 29.5 -68.5t78.5 -26.5zM280 572q-13 0 -22 8t-9 21t9 21.5t22 8.5q12 0 21 -8.5t9 -21.5q0 -12 -9 -20.5t-21 -8.5zM144 572q-12 0 -21 8.5t-9 20.5q0 13 9 21.5t21 8.5q13 0 22 -8.5t9 -21.5t-9 -21t-22 -8z" />
    <glyph glyph-name="adieresis.alt1" horiz-adv-x="526" 
d="M502 0h-87q-13 65 -13 140q-13 -65 -61.5 -106.5t-112.5 -41.5q-89 0 -144.5 65t-55.5 188v2q0 108 56 171t144 63q66 0 114 -39.5t60 -110.5q0 34 3 69t7 54l3 18h22v-442h65v-30zM228 21q69 0 121.5 56t52.5 169v4q0 91 -47 146.5t-120 55.5q-77 0 -124 -51t-47 -139
v-20q0 -110 43.5 -165.5t120.5 -55.5zM305 572q-13 0 -22 8t-9 21t9 21.5t22 8.5q12 0 21 -8.5t9 -21.5q0 -12 -9 -20.5t-21 -8.5zM169 572q-12 0 -21 8.5t-9 20.5q0 13 9 21.5t21 8.5q13 0 22 -8.5t9 -21.5t-9 -21t-22 -8z" />
    <glyph glyph-name="agrave.alt" horiz-adv-x="457" 
d="M56 340v80q55 61 161 61q68 0 111.5 -34.5t43.5 -107.5v-309h61v-30h-84q-10 57 -11 119q-12 -57 -55.5 -92t-109.5 -35q-61 0 -101.5 33t-40.5 91v1q0 43 25 71.5t93 51t189 38.5v67q0 106 -122 106q-71 0 -127 -37v-74h-33zM175 20q68 0 115 43.5t48 139.5v50
q-158 -23 -214.5 -50.5t-56.5 -84.5v-3q0 -42 29.5 -68.5t78.5 -26.5zM207 547l-106 113h53l87 -113h-34z" />
    <glyph glyph-name="agrave.alt1" horiz-adv-x="526" 
d="M415 0q-13 65 -13 140q-13 -65 -61.5 -106.5t-112.5 -41.5q-89 0 -144.5 65t-55.5 188v2q0 108 56 171t144 63q66 0 114 -39.5t60 -110.5q0 34 3 69t7 54l3 18h22v-442h65v-30h-87zM228 21q69 0 121.5 56t52.5 169v4q0 91 -47 146.5t-120 55.5q-77 0 -124 -51t-47 -139
v-20q0 -110 43.5 -165.5t120.5 -55.5zM237 547l-106 113h53l87 -113h-34z" />
    <glyph glyph-name="amacron.alt" horiz-adv-x="457" 
d="M349 0q-10 57 -11 119q-12 -57 -55.5 -92t-109.5 -35q-61 0 -101.5 33t-40.5 91v1q0 43 25 71.5t93 51t189 38.5v67q0 106 -122 106q-71 0 -127 -37v-74h-33v80q55 61 161 61q68 0 111.5 -34.5t43.5 -107.5v-309h61v-30h-84zM175 20q68 0 115 43.5t48 139.5v50
q-158 -23 -214.5 -50.5t-56.5 -84.5v-3q0 -42 29.5 -68.5t78.5 -26.5zM109 572v28h200v-28h-200z" />
    <glyph glyph-name="amacron.alt1" horiz-adv-x="526" 
d="M415 0q-13 65 -13 140q-13 -65 -61.5 -106.5t-112.5 -41.5q-89 0 -144.5 65t-55.5 188v2q0 108 56 171t144 63q66 0 114 -39.5t60 -110.5q0 34 3 69t7 54l3 18h22v-442h65v-30h-87zM228 21q69 0 121.5 56t52.5 169v4q0 91 -47 146.5t-120 55.5q-77 0 -124 -51t-47 -139
v-20q0 -110 43.5 -165.5t120.5 -55.5zM141 572v28h200v-28h-200z" />
    <glyph glyph-name="aogonek.alt" horiz-adv-x="457" 
d="M56 340v80q55 61 161 61q68 0 111.5 -34.5t43.5 -107.5v-309h61v-30h-49q-71 -32 -71 -85q0 -39 41 -39q18 0 36 10v-20q-14 -18 -43 -18q-33 0 -51 17.5t-18 47.5q0 54 70 89q-9 85 -10 117q-12 -57 -55.5 -92t-109.5 -35q-61 0 -101.5 33t-40.5 91v1q0 43 25 71.5
t93 51t189 38.5v67q0 106 -122 106q-71 0 -127 -37v-74h-33zM175 20q68 0 115 43.5t48 139.5v50q-158 -23 -214.5 -50.5t-56.5 -84.5v-3q0 -42 29.5 -68.5t78.5 -26.5z" />
    <glyph glyph-name="aogonek.alt1" horiz-adv-x="526" 
d="M502 30v-30h-51q-71 -32 -71 -85q0 -39 41 -39q18 0 36 10v-20q-14 -18 -43 -18q-33 0 -51 17.5t-18 47.5q0 53 69 88q-12 84 -12 139q-13 -65 -61.5 -106.5t-112.5 -41.5q-89 0 -144.5 65t-55.5 188v2q0 108 56 171t144 63q66 0 114 -39.5t60 -110.5q0 34 3 69t7 54
l3 18h22v-442h65zM228 21q69 0 121.5 56t52.5 169v4q0 91 -47 146.5t-120 55.5q-77 0 -124 -51t-47 -139v-20q0 -110 43.5 -165.5t120.5 -55.5z" />
    <glyph glyph-name="aring.alt" horiz-adv-x="457" 
d="M56 340v80q55 61 161 61q68 0 111.5 -34.5t43.5 -107.5v-309h61v-30h-84q-10 57 -11 119q-12 -57 -55.5 -92t-109.5 -35q-61 0 -101.5 33t-40.5 91v1q0 43 25 71.5t93 51t189 38.5v67q0 106 -122 106q-71 0 -127 -37v-74h-33zM175 20q68 0 115 43.5t48 139.5v50
q-158 -23 -214.5 -50.5t-56.5 -84.5v-3q0 -42 29.5 -68.5t78.5 -26.5zM213 545q-31 0 -52 21t-21 52t21 52.5t52 21.5q32 0 53 -21.5t21 -52.5t-21 -52t-53 -21zM213 569q19 0 32.5 13.5t13.5 35.5q0 21 -13.5 35t-32.5 14q-18 0 -31.5 -14t-13.5 -35q0 -22 13 -35.5
t32 -13.5z" />
    <glyph glyph-name="aring.alt1" horiz-adv-x="526" 
d="M502 0h-87q-13 65 -13 140q-13 -65 -61.5 -106.5t-112.5 -41.5q-89 0 -144.5 65t-55.5 188v2q0 108 56 171t144 63q66 0 114 -39.5t60 -110.5q0 34 3 69t7 54l3 18h22v-442h65v-30zM228 21q69 0 121.5 56t52.5 169v4q0 91 -47 146.5t-120 55.5q-77 0 -124 -51t-47 -139
v-20q0 -110 43.5 -165.5t120.5 -55.5zM244 545q-31 0 -52 21t-21 52t21 52.5t52 21.5q32 0 53 -21.5t21 -52.5t-21 -52t-53 -21zM244 569q20 0 33 13.5t13 35.5q0 21 -13.5 35t-32.5 14q-18 0 -31.5 -14t-13.5 -35q0 -22 13 -35.5t32 -13.5z" />
    <glyph glyph-name="aringacute.alt" horiz-adv-x="457" 
d="M349 0q-10 57 -11 119q-12 -57 -55.5 -92t-109.5 -35q-61 0 -101.5 33t-40.5 91v1q0 43 25 71.5t93 51t189 38.5v67q0 106 -122 106q-71 0 -127 -37v-74h-33v80q55 61 161 61q68 0 111.5 -34.5t43.5 -107.5v-309h61v-30h-84zM175 20q68 0 115 43.5t48 139.5v50
q-158 -23 -214.5 -50.5t-56.5 -84.5v-3q0 -42 29.5 -68.5t78.5 -26.5zM214 530q-31 0 -52 21t-21 52t21 52.5t52 21.5q32 0 53 -21.5t21 -52.5t-21 -52t-53 -21zM214 554q20 0 33 13t13 36q0 21 -13.5 35t-32.5 14q-18 0 -31.5 -14t-13.5 -35q0 -22 13 -35.5t32 -13.5z
M189 716l69 93h57l-90 -93h-36z" />
    <glyph glyph-name="aringacute.alt1" horiz-adv-x="526" 
d="M415 0q-13 65 -13 140q-13 -65 -61.5 -106.5t-112.5 -41.5q-89 0 -144.5 65t-55.5 188v2q0 108 56 171t144 63q66 0 114 -39.5t60 -110.5q0 34 3 69t7 54l3 18h22v-442h65v-30h-87zM228 21q69 0 121.5 56t52.5 169v4q0 91 -47 146.5t-120 55.5q-77 0 -124 -51t-47 -139
v-20q0 -110 43.5 -165.5t120.5 -55.5zM244 530q-31 0 -52 21t-21 52t21 52.5t52 21.5q32 0 53 -21.5t21 -52.5t-21 -52t-53 -21zM244 554q20 0 33 13t13 36q0 21 -13.5 35t-32.5 14q-18 0 -31.5 -14t-13.5 -35q0 -22 13 -35.5t32 -13.5zM219 716l69 93h57l-90 -93h-36z" />
    <glyph glyph-name="atilde.alt" horiz-adv-x="457" 
d="M56 340v80q55 61 161 61q68 0 111.5 -34.5t43.5 -107.5v-309h61v-30h-84q-10 57 -11 119q-12 -57 -55.5 -92t-109.5 -35q-61 0 -101.5 33t-40.5 91v1q0 43 25 71.5t93 51t189 38.5v67q0 106 -122 106q-71 0 -127 -37v-74h-33zM175 20q68 0 115 43.5t48 139.5v50
q-158 -23 -214.5 -50.5t-56.5 -84.5v-3q0 -42 29.5 -68.5t78.5 -26.5zM112 558q-8 30 5 50t41 20q20 0 54.5 -15t43.5 -15q26 0 23 37h23q8 -30 -4 -50t-38 -20q-18 0 -54.5 15t-46.5 15q-27 0 -24 -37h-23z" />
    <glyph glyph-name="atilde.alt1" horiz-adv-x="526" 
d="M502 0h-87q-13 65 -13 140q-13 -65 -61.5 -106.5t-112.5 -41.5q-89 0 -144.5 65t-55.5 188v2q0 108 56 171t144 63q66 0 114 -39.5t60 -110.5q0 34 3 69t7 54l3 18h22v-442h65v-30zM228 21q69 0 121.5 56t52.5 169v4q0 91 -47 146.5t-120 55.5q-77 0 -124 -51t-47 -139
v-20q0 -110 43.5 -165.5t120.5 -55.5zM143 558q-8 30 5 50t41 20q20 0 54.5 -15t43.5 -15q26 0 23 37h23q8 -30 -4 -50t-38 -20q-18 0 -54.5 15t-46.5 15q-27 0 -24 -37h-23z" />
    <glyph glyph-name="aeacute.alt" horiz-adv-x="753" 
d="M89 340h-33v80q20 23 61.5 42t97.5 19q66 0 106 -31.5t44 -93.5q23 59 69.5 92t109.5 33q85 0 129 -52t44 -141q0 -33 -4 -56h-342q0 -211 189 -211q91 0 151 53v-29q-16 -19 -57.5 -36t-94.5 -17q-164 0 -208 145q-12 -69 -58.5 -107t-119.5 -38q-63 0 -102.5 33.5
t-39.5 90.5v1q0 43 25 71.5t93 51t189 38.5v67q0 106 -122 106q-72 0 -127 -37v-74zM544 453q-74 0 -123 -54.5t-50 -141.5h312v4q0 99 -33.5 145.5t-105.5 46.5zM67 118v-3q0 -42 29 -68.5t79 -26.5q71 0 117 43.5t46 139.5v50q-158 -23 -214.5 -50.5t-56.5 -84.5zM345 547
l87 113h53l-106 -113h-34z" />
    <glyph glyph-name="gbreve.alt" horiz-adv-x="451" 
d="M218 -154q-94 0 -147 31.5t-53 89.5v1q0 46 33 75t84 35q-59 8 -59 58q0 55 69 65q-43 11 -70.5 45t-27.5 93v1q0 68 46 104.5t115 36.5q46 0 79 -9h134v-34h-88q48 -36 48 -107v-1q0 -73 -46.5 -108.5t-118.5 -35.5h-42q-66 0 -66 -45q0 -43 63 -46l107 -5
q77 -4 113 -30.5t36 -79.5v-3q0 -64 -55 -97.5t-154 -33.5zM218 -128q84 0 129 26t45 76v3q0 41 -25 59.5t-87 21.5l-99 5q-56 3 -91.5 -22t-35.5 -72v-1q0 -96 164 -96zM214 211q132 0 132 119v9q0 57 -39 86t-98 29q-58 0 -92.5 -28t-34.5 -83v-9q0 -66 37.5 -94.5
t94.5 -28.5zM285 650h28q2 -42 -21 -71.5t-71 -29.5q-47 0 -69.5 29.5t-20.5 71.5h28q-1 -29 14.5 -48.5t47.5 -19.5q33 0 49 19.5t15 48.5z" />
    <glyph glyph-name="gcircumflex.alt" horiz-adv-x="451" 
d="M218 -154q-94 0 -147 31.5t-53 89.5v1q0 46 33 75t84 35q-59 8 -59 58q0 55 69 65q-43 11 -70.5 45t-27.5 93v1q0 68 46 104.5t115 36.5q46 0 79 -9h134v-34h-88q48 -36 48 -107v-1q0 -73 -46.5 -108.5t-118.5 -35.5h-42q-66 0 -66 -45q0 -43 63 -46l107 -5
q77 -4 113 -30.5t36 -79.5v-3q0 -64 -55 -97.5t-154 -33.5zM218 -128q84 0 129 26t45 76v3q0 41 -25 59.5t-87 21.5l-99 5q-56 3 -91.5 -22t-35.5 -72v-1q0 -96 164 -96zM214 211q132 0 132 119v9q0 57 -39 86t-98 29q-58 0 -92.5 -28t-34.5 -83v-9q0 -66 37.5 -94.5
t94.5 -28.5zM112 547l83 113h54l83 -113h-33l-77 89l-77 -89h-33z" />
    <glyph glyph-name="gcommaaccent.alt" horiz-adv-x="451" 
d="M218 -154q-94 0 -147 31.5t-53 89.5v1q0 46 33 75t84 35q-59 8 -59 58q0 55 69 65q-43 11 -70.5 45t-27.5 93v1q0 68 46 104.5t115 36.5q46 0 79 -9h134v-34h-88q48 -36 48 -107v-1q0 -73 -46.5 -108.5t-118.5 -35.5h-42q-66 0 -66 -45q0 -43 63 -46l107 -5
q77 -4 113 -30.5t36 -79.5v-3q0 -64 -55 -97.5t-154 -33.5zM218 -128q84 0 129 26t45 76v3q0 41 -25 59.5t-87 21.5l-99 5q-56 3 -91.5 -22t-35.5 -72v-1q0 -96 164 -96zM214 211q132 0 132 119v9q0 57 -39 86t-98 29q-58 0 -92.5 -28t-34.5 -83v-9q0 -66 37.5 -94.5
t94.5 -28.5zM227 668h24q-21 -38 -21 -78q0 -16 4 -29h-36q-4 12 -4 30q0 41 33 77z" />
    <glyph glyph-name="gdotaccent.alt" horiz-adv-x="451" 
d="M218 -154q-94 0 -147 31.5t-53 89.5v1q0 46 33 75t84 35q-59 8 -59 58q0 55 69 65q-43 11 -70.5 45t-27.5 93v1q0 68 46 104.5t115 36.5q46 0 79 -9h134v-34h-88q48 -36 48 -107v-1q0 -73 -46.5 -108.5t-118.5 -35.5h-42q-66 0 -66 -45q0 -43 63 -46l107 -5
q77 -4 113 -30.5t36 -79.5v-3q0 -64 -55 -97.5t-154 -33.5zM218 -128q84 0 129 26t45 76v3q0 41 -25 59.5t-87 21.5l-99 5q-56 3 -91.5 -22t-35.5 -72v-1q0 -96 164 -96zM214 211q132 0 132 119v9q0 57 -39 86t-98 29q-58 0 -92.5 -28t-34.5 -83v-9q0 -66 37.5 -94.5
t94.5 -28.5zM222 572q-13 0 -22 8.5t-9 21.5t9 22t22 9t22 -9t9 -22t-9 -21.5t-22 -8.5z" />
    <glyph glyph-name="yacute.alt" horiz-adv-x="509" 
d="M346 438v34h145v-34h-44l-213 -554h72v-30h-177v30h69l50 123h-23l-167 431h-40v34h147v-34h-70l159 -415l158 415h-66zM231 547l87 113h53l-106 -113h-34z" />
    <glyph glyph-name="ycircumflex.alt" horiz-adv-x="509" 
d="M346 438v34h145v-34h-44l-213 -554h72v-30h-177v30h69l50 123h-23l-167 431h-40v34h147v-34h-70l159 -415l158 415h-66zM150 547l83 113h54l83 -113h-33l-77 89l-77 -89h-33z" />
    <glyph glyph-name="ydieresis.alt" horiz-adv-x="509" 
d="M346 438v34h145v-34h-44l-213 -554h72v-30h-177v30h69l50 123h-23l-167 431h-40v34h147v-34h-70l159 -415l158 415h-66zM330 572q-13 0 -22 8t-9 21t9 21.5t22 8.5q12 0 21 -8.5t9 -21.5q0 -12 -9 -20.5t-21 -8.5zM194 572q-12 0 -21 8.5t-9 20.5q0 13 9 21.5t21 8.5
q13 0 22 -8.5t9 -21.5t-9 -21t-22 -8z" />
    <glyph glyph-name="ygrave.alt" horiz-adv-x="509" 
d="M346 438v34h145v-34h-44l-213 -554h72v-30h-177v30h69l50 123h-23l-167 431h-40v34h147v-34h-70l159 -415l158 415h-66zM255 547l-106 113h53l87 -113h-34z" />
    <glyph glyph-name="f_b.alt" horiz-adv-x="797" 
d="M266 0v30h67v643h35v-342q11 70 66.5 110t125.5 40q91 0 146.5 -62.5t55.5 -171.5v-2q0 -123 -56 -188t-148 -65q-70 0 -123.5 42t-66.5 106q0 -33 -2.5 -68t-5.5 -54l-2 -18h-92zM558 21q79 0 123.5 55.5t44.5 165.5v20q0 89 -46.5 139.5t-126.5 50.5q-78 0 -131.5 -56
t-53.5 -146v-4q0 -113 57.5 -169t132.5 -56zM211 0h-187v30h67v412h-70v30h70v65q0 69 32 104t80 35q46 0 63 -25v-18q-27 12 -54 12q-86 0 -86 -104v-69h132v-30h-132v-412h85v-30z" />
    <glyph glyph-name="f_f_b.alt" horiz-adv-x="1038" 
d="M507 0v30h67v643h35v-342q11 70 66.5 110t125.5 40q91 0 146.5 -62.5t55.5 -171.5v-2q0 -123 -56 -188t-148 -65q-70 0 -123.5 42t-66.5 106q0 -33 -2.5 -68t-4.5 -54l-3 -18h-92zM799 21q79 0 123.5 55.5t44.5 165.5v20q0 89 -46.5 139.5t-126.5 50.5q-78 0 -131.5 -56
t-53.5 -146v-4q0 -113 57.5 -169t132.5 -56zM21 442v30h70v60q0 69 32 104t80 35q46 0 63 -25v-18q-27 12 -54 12q-86 0 -86 -104v-64h206v65q0 69 32 104t80 35q46 0 63 -25v-18q-27 12 -54 12q-86 0 -86 -104v-69h132v-30h-132v-412h85v-30h-187v30h67v412h-206v-412h85
v-30h-187v30h67v412h-70z" />
    <glyph glyph-name="f_f_h.alt" horiz-adv-x="1027" 
d="M21 442v30h70v60q0 69 32 104t80 35q46 0 63 -25v-18q-27 12 -54 12q-86 0 -86 -104v-64h206v65q0 69 32 104t80 35q46 0 63 -25v-18q-27 12 -54 12q-86 0 -86 -104v-69h132v-30h-132v-412h85v-30h-187v30h67v412h-206v-412h85v-30h-187v30h67v412h-70zM507 0v30h67v643
h35v-338q11 71 65 108.5t120 37.5q148 0 148 -153v-298h61v-30h-171v30h75v306q0 58 -28 86.5t-91 28.5q-76 0 -126 -51t-53 -134v-236h75v-30h-177z" />
    <glyph glyph-name="f_f_k.alt" horiz-adv-x="940" 
d="M21 442v30h70v60q0 69 32 104t80 35q46 0 63 -25v-18q-27 12 -54 12q-86 0 -86 -104v-64h206v65q0 69 32 104t80 35q46 0 63 -25v-18q-27 12 -54 12q-86 0 -86 -104v-69h132v-30h-132v-412h85v-30h-187v30h67v412h-206v-412h85v-30h-187v30h67v412h-70zM507 0v30h67v643
h35v-643h75v-30h-177zM840 0l-222 244l217 228h67v-34h-56l-185 -194l196 -214h61v-30h-78z" />
    <glyph glyph-name="f_f_l.alt" horiz-adv-x="706" 
d="M21 442v30h70v60q0 69 32 104t80 35q46 0 63 -25v-18q-27 12 -54 12q-86 0 -86 -104v-64h206v65q0 69 32 104t80 35q46 0 63 -25v-18q-27 12 -54 12q-86 0 -86 -104v-69h132v-30h-132v-412h85v-30h-187v30h67v412h-206v-412h85v-30h-187v30h67v412h-70zM507 0v30h70v643
h35v-643h70v-30h-175z" />
    <glyph glyph-name="f_h.alt" horiz-adv-x="786" 
d="M591 0v30h75v306q0 58 -28 86.5t-91 28.5q-76 0 -126 -51t-53 -134v-236h75v-30h-177v30h67v643h35v-338q11 71 65 108.5t120 37.5q148 0 148 -153v-298h61v-30h-171zM24 0v30h67v412h-70v30h70v65q0 69 32 104t80 35q46 0 63 -25v-18q-27 12 -54 12q-86 0 -86 -104v-69
h132v-30h-132v-412h85v-30h-187z" />
    <glyph glyph-name="f_k.alt" horiz-adv-x="699" 
d="M24 0v30h67v412h-70v30h70v65q0 69 32 104t80 35q46 0 63 -25v-18q-27 12 -54 12q-86 0 -86 -104v-69h132v-30h-132v-412h85v-30h-187zM266 0v30h67v643h35v-643h75v-30h-177zM599 0l-222 244l217 228h67v-34h-56l-185 -194l196 -214h61v-30h-78z" />
    <glyph glyph-name="f_l.alt" horiz-adv-x="465" 
d="M21 442v30h70v65q0 69 32 104t80 35q46 0 63 -25v-18q-27 12 -54 12q-86 0 -86 -104v-69h132v-30h-132v-412h85v-30h-187v30h67v412h-70zM266 0v30h70v643h35v-643h70v-30h-175z" />
    <glyph glyph-name="space_uni0326.alt" horiz-adv-x="404" 
d="M207 668h24q-21 -38 -21 -78q0 -16 4 -29h-36q-4 12 -4 30q0 41 33 77z" />
    <glyph glyph-name="six.alt" horiz-adv-x="505" 
d="M283 616q-203 0 -203 -271v-53q20 48 68 76.5t117 28.5q99 0 151.5 -58.5t52.5 -142.5v-5q0 -89 -58 -145.5t-152 -56.5q-101 0 -158.5 69t-57.5 188v96q0 158 65.5 233t173.5 75q96 0 144 -50v-34q-65 50 -143 50zM260 366q-77 0 -127.5 -42t-52.5 -100v-9
q0 -86 48 -140t130 -54q83 0 128 44.5t45 123.5v8q0 74 -41.5 121.5t-129.5 47.5z" />
    <glyph glyph-name="nine.alt" horiz-adv-x="505" 
d="M222 21q100 0 151.5 55t51.5 185v89q-21 -49 -69 -78.5t-116 -29.5q-99 0 -151.5 59t-52.5 143v5q0 86 59 143.5t151 57.5q102 0 159 -66.5t57 -175.5v-143q0 -276 -237 -276q-58 0 -102.5 18t-65.5 41v32q65 -59 165 -59zM245 273q78 0 129 45.5t51 105.5v5
q0 86 -47 137.5t-132 51.5q-81 0 -126.5 -45t-45.5 -122v-8q0 -74 41.5 -122t129.5 -48z" />
    <glyph glyph-name="ordfeminine.alt" horiz-adv-x="341" 
d="M48 547v58q40 42 113 42q52 0 82.5 -26.5t30.5 -79.5v-203h42v-27h-66q-9 37 -10 78q-8 -39 -37.5 -62t-73.5 -23q-43 0 -71 23.5t-28 64.5v1q0 47 45.5 72.5t164.5 42.5v38q0 74 -81 74q-44 0 -79 -20v-53h-32zM135 330q44 0 74 29t31 90v36q-102 -15 -138.5 -34
t-36.5 -56v-2q0 -29 19 -46t51 -17z" />
    <glyph glyph-name="ordfeminine.alt1" horiz-adv-x="391" 
d="M365 311h-68q-10 43 -10 93q-10 -45 -42.5 -72t-77.5 -27q-62 0 -100 46.5t-38 131.5v1q0 76 39 119.5t99 43.5q46 0 78 -26t42 -74q0 22 2.5 45.5t4.5 35.5l3 12h24v-302h44v-27zM171 331q46 0 81 37.5t35 109.5v6q0 63 -32 99t-80 36q-51 0 -81 -32.5t-30 -92.5v-17
q0 -71 28.5 -108.5t78.5 -37.5z" />
    <glyph glyph-name="braceleft.alt" horiz-adv-x="318" 
d="M150 565q0 -29 9.5 -91.5t9.5 -82.5q0 -47 -25 -69t-76 -31v-2q51 -9 76 -31t25 -69q0 -20 -9.5 -85t-9.5 -94q0 -78 88 -78h53v-30h-55q-57 0 -89.5 28t-32.5 78q0 25 10.5 92t10.5 91q0 37 -22.5 56t-78.5 23v40q56 4 78.5 23t22.5 56q0 24 -10.5 88.5t-10.5 89.5
q0 50 32.5 78t89.5 28h55v-32h-53q-88 0 -88 -76z" />
    <glyph glyph-name="braceright.alt" horiz-adv-x="318" 
d="M164 565q0 76 -88 76h-53v32h55q57 0 89.5 -28t32.5 -78q0 -25 -10.5 -89.5t-10.5 -88.5q0 -37 22.5 -56t78.5 -23v-40q-56 -4 -78.5 -23t-22.5 -56q0 -24 10.5 -91t10.5 -92q0 -50 -32.5 -78t-89.5 -28h-55v30h53q88 0 88 78q0 29 -9.5 94t-9.5 85q0 47 25 69t76 31v2
q-51 9 -76 31t-25 69q0 20 9.5 82.5t9.5 91.5z" />
    <glyph glyph-name="registered.alt" horiz-adv-x="748" 
d="M374 -14q-142 0 -238.5 97t-96.5 234q0 138 97 236t238 98q143 0 239 -97.5t96 -236.5q0 -138 -96 -234.5t-239 -96.5zM374 13q128 0 215 89.5t87 214.5q0 126 -87 216.5t-215 90.5q-126 0 -214 -90.5t-88 -216.5q0 -125 88 -214.5t214 -89.5zM230 483v27h165
q56 0 84.5 -27.5t28.5 -74.5q0 -100 -112 -100h-31l127 -142h40v-26h-61l-158 177v-151h57v-26h-141v26h48v317h-47zM313 333h74q46 0 66 18.5t20 56.5q0 71 -84 71h-76v-146z" />
    <glyph glyph-name="caron.alt" horiz-adv-x="404" 
d="M180 552l9 121h40l-24 -121h-25z" />
    <glyph glyph-name="questiondown.uc" horiz-adv-x="382" 
d="M72 137q0 -59 33 -88t89 -29q62 0 111 27v80h35v-83q-51 -57 -149 -57q-70 0 -114.5 39.5t-44.5 113.5q0 48 28 94.5t61 78t61 76.5t28 90v40h30v-42q0 -41 -17.5 -78.5t-42 -67l-49 -58.5t-42 -64t-17.5 -72zM193 622q0 13 9.5 22.5t22.5 9.5t22.5 -9.5t9.5 -22.5
t-9.5 -22.5t-22.5 -9.5t-22.5 9.5t-9.5 22.5z" />
    <glyph glyph-name="exclamdown.uc" horiz-adv-x="192" 
d="M71 -10l7 529h30l7 -529h-44zM92 654q13 0 22.5 -9.5t9.5 -22.5t-9.5 -22.5t-22.5 -9.5t-22.5 9.5t-9.5 22.5t9.5 22.5t22.5 9.5z" />
    <glyph glyph-name="hyphen.uc" horiz-adv-x="246" 
d="M40 303v32h166v-32h-166z" />
    <glyph glyph-name="endash.uc" horiz-adv-x="534" 
d="M36 304v30h462v-30h-462z" />
    <glyph glyph-name="emdash.uc" horiz-adv-x="890" 
d="M36 304v30h818v-30h-818z" />
    <glyph glyph-name="guilsinglleft.uc" horiz-adv-x="187" 
d="M128 446h38l-105 -151l105 -150h-38l-105 150z" />
    <glyph glyph-name="guilsinglright.uc" horiz-adv-x="187" 
d="M21 145l105 151l-105 150h38l105 -150l-105 -151h-38z" />
    <glyph glyph-name="guillemotleft.uc" horiz-adv-x="280" 
d="M118 446h37l-98 -151l98 -150h-37l-97 150zM257 446l-98 -151l98 -150h-37l-97 150l97 151h37z" />
    <glyph glyph-name="guillemotright.uc" horiz-adv-x="280" 
d="M162 145h-37l98 151l-98 150h37l97 -150zM23 145l98 151l-98 150h37l97 -150l-97 -151h-37z" />
    <glyph glyph-name="parenleft.uc" horiz-adv-x="266" 
d="M90 327v-32q0 -109 45 -200.5t112 -148.5v-5h-36q-62 49 -111 146.5t-49 213.5v21q0 109 49 205.5t111 145.5h36v-5q-65 -54 -111 -147t-46 -194z" />
    <glyph glyph-name="parenright.uc" horiz-adv-x="266" 
d="M172 287v32q0 109 -45 200.5t-112 148.5v5h36q62 -49 111 -146.5t49 -213.5v-21q0 -109 -49 -205.5t-111 -145.5h-36v5q65 54 111 147t46 194z" />
    <glyph glyph-name="bracketleft.uc" horiz-adv-x="314" 
d="M84 -58v731h203v-32h-167v-669h167v-30h-203z" />
    <glyph glyph-name="bracketright.uc" horiz-adv-x="314" 
d="M230 673v-731h-203v30h167v669h-167v32h203z" />
    <glyph glyph-name="braceleft.uc" horiz-adv-x="275" 
d="M68 311v-3q50 -8 73.5 -29t23.5 -61q0 -26 -15.5 -76t-15.5 -73q0 -75 83 -122v-5h-37q-32 15 -58 46.5t-26 74.5q0 26 17.5 81.5t17.5 77.5q0 32 -19 47.5t-78 19.5v41q59 4 78 19.5t19 47.5q0 22 -17.5 75.5t-17.5 79.5q0 43 26 74.5t58 46.5h37v-5q-83 -47 -83 -122
q0 -22 15.5 -71t15.5 -74q0 -40 -23.5 -61t-73.5 -29z" />
    <glyph glyph-name="braceright.uc" horiz-adv-x="275" 
d="M203 308v3q-50 8 -73.5 29t-23.5 61q0 25 15.5 74t15.5 71q0 75 -83 122v5h37q32 -15 58 -46.5t26 -74.5q0 -26 -17.5 -79.5t-17.5 -75.5q0 -32 19 -47.5t78 -19.5v-41q-59 -4 -78 -19.5t-19 -47.5q0 -22 17.5 -77.5t17.5 -81.5q0 -43 -26 -74.5t-58 -46.5h-37v5
q83 47 83 122q0 23 -15.5 73t-15.5 76q0 40 23.5 61t73.5 29z" />
    <glyph glyph-name="slash.uc" horiz-adv-x="300" 
d="M282 673l-234 -732h-35l234 732h35z" />
    <glyph glyph-name="backslash.uc" horiz-adv-x="300" 
d="M18 673h35l234 -732h-35z" />
    <glyph glyph-name="bar.uc" horiz-adv-x="196" 
d="M115 673v-732h-34v732h34z" />
    <glyph glyph-name="at.uc" horiz-adv-x="790" 
d="M367 147q50 0 92 39.5t54 122.5l2 12q10 69 -23.5 111t-93.5 42q-59 0 -101 -47.5t-42 -148.5q0 -63 28.5 -97t83.5 -34zM418 675q142 0 237 -82.5t95 -225.5q0 -114 -42.5 -182t-112.5 -68q-52 0 -73.5 31.5t-15.5 83.5q-14 -52 -54 -83t-89 -31q-66 0 -105.5 42.5
t-39.5 123.5q0 108 55 164.5t125 56.5q56 0 90 -32.5t38 -82.5q4 25 11 52t11 41l5 14h26l-39 -250q-17 -105 55 -105q55 0 89 61t34 164q0 133 -84.5 205.5t-215.5 72.5q-144 0 -244 -99.5t-100 -258.5q0 -140 84.5 -224t230.5 -84q144 0 238 73v-29q-87 -73 -242 -73
q-153 0 -248.5 91.5t-95.5 246.5q0 174 111 280.5t266 106.5z" />
    <glyph glyph-name="grave.uc" horiz-adv-x="404" 
d="M203 688l-90 93h57l69 -93h-36z" />
    <glyph glyph-name="dieresis.uc" horiz-adv-x="404" 
d="M128 690q-12 0 -21 8.5t-9 20.5q0 13 9 21.5t21 8.5q13 0 22 -8.5t9 -21.5t-9 -21t-22 -8zM276 690q-13 0 -22 8t-9 21t9 21.5t22 8.5q12 0 21 -8.5t9 -21.5q0 -12 -9 -20.5t-21 -8.5z" />
    <glyph glyph-name="macron.uc" horiz-adv-x="404" 
d="M98 699v30h208v-30h-208z" />
    <glyph glyph-name="acute.uc" horiz-adv-x="404" 
d="M168 688l69 93h57l-90 -93h-36z" />
    <glyph glyph-name="circumflex.uc" horiz-adv-x="404" 
d="M320 681h-34l-84 71l-84 -71h-34l89 97h58z" />
    <glyph glyph-name="caron.uc" horiz-adv-x="404" 
d="M84 778h34l84 -71l84 71h34l-89 -97h-58z" />
    <glyph glyph-name="breve.uc" horiz-adv-x="404" 
d="M267 775h28q2 -38 -23 -65.5t-71 -27.5q-45 0 -69.5 27.5t-22.5 65.5h28q-1 -25 15.5 -42.5t48.5 -17.5q33 0 50 17.5t16 42.5z" />
    <glyph glyph-name="dotaccent.uc" horiz-adv-x="404" 
d="M202 690q-13 0 -22 8.5t-9 21.5t9 22t22 9t22 -9t9 -22t-9 -21.5t-22 -8.5z" />
    <glyph glyph-name="ring.uc" horiz-adv-x="404" 
d="M203 692q19 0 32.5 13t13.5 36q0 21 -13.5 35t-32.5 14q-18 0 -31.5 -14t-13.5 -35q0 -22 13 -35.5t32 -13.5zM203 668q-31 0 -52 21t-21 52t21 52.5t52 21.5q32 0 53 -21.5t21 -52.5t-21 -52t-53 -21z" />
    <glyph glyph-name="tilde.uc" horiz-adv-x="404" 
d="M99 688q-7 32 6.5 51.5t42.5 19.5q21 0 59 -14.5t49 -14.5q28 0 25 37h24q7 -32 -5.5 -51.5t-39.5 -19.5q-19 0 -59 14.5t-52 14.5q-29 0 -26 -37h-24z" />
    <glyph glyph-name="hungarumlaut.uc" horiz-adv-x="404" 
d="M137 688l44 93h47l-62 -93h-29zM237 688l44 93h47l-62 -93h-29z" />
    <glyph glyph-name="Cacute.pl" horiz-adv-x="573" 
d="M483 483v89q-67 44 -159 44q-127 0 -186 -74t-59 -205v-11q0 -143 61 -224t185 -81q98 0 168 47v88h36v-98q-81 -69 -201 -69q-139 0 -213.5 90.5t-74.5 248.5v2q0 146 71 233t213 87q135 0 195 -71v-96h-36zM293 688l24 93h50l-43 -93h-31z" />
    <glyph glyph-name="Nacute.pl" horiz-adv-x="649" 
d="M423 607v32h200v-32h-69v-607h-64l-360 617v-587h99v-30h-203v30h69v577h-69v32h133l360 -616v584h-96zM304 688l24 93h50l-43 -93h-31z" />
    <glyph glyph-name="Oacute.pl" horiz-adv-x="635" 
d="M317 21q116 0 177.5 80t61.5 229v16q0 127 -58.5 198.5t-180.5 71.5q-121 0 -179.5 -71.5t-58.5 -198.5v-16q0 -149 61.5 -229t176.5 -80zM317 -11q-126 0 -201.5 88.5t-75.5 252.5v2q0 152 70.5 235t206.5 83t207 -83t71 -235v-2q0 -165 -75 -253t-203 -88zM295 688
l24 93h50l-43 -93h-31z" />
    <glyph glyph-name="Sacute.pl" horiz-adv-x="481" 
d="M377 483v96q-62 37 -136 37q-158 0 -158 -138q0 -42 12.5 -68t45.5 -41q26 -12 104.5 -22.5t118.5 -28.5t59.5 -51.5t19.5 -96.5q0 -89 -59 -135t-146 -46q-124 0 -205 69v96h36v-84q67 -49 169 -49q70 0 119 38t49 114q0 43 -12 69.5t-43 41.5q-34 17 -114 27.5
t-109 23.5q-83 37 -83 145q0 82 56 126t137 44q107 0 175 -57v-110h-36zM219 688l24 93h50l-43 -93h-31z" />
    <glyph glyph-name="Zacute.pl" horiz-adv-x="530" 
d="M55 483v156h433v-55l-423 -551h392v123h36v-156h-458v53l423 551h-367v-121h-36zM249 688l24 93h50l-43 -93h-31z" />
    <glyph glyph-name="acute.pl" horiz-adv-x="404" 
d="M183 547l22 113h46l-41 -113h-27z" />
    <glyph glyph-name="acute.ucpl" horiz-adv-x="404" 
d="M180 688l24 93h50l-43 -93h-31z" />
    <glyph glyph-name="braceleft.ucalt" horiz-adv-x="318" 
d="M150 565q0 -29 9.5 -81.5t9.5 -72.5q0 -47 -25 -69t-76 -31v-2q51 -9 76 -31t25 -69q0 -20 -9.5 -75t-9.5 -84q0 -78 88 -78h53v-30h-55q-57 0 -89.5 28t-32.5 78q0 25 10.5 82t10.5 81q0 37 -22.5 56t-78.5 23v40q56 4 78.5 23t22.5 56q0 24 -10.5 78.5t-10.5 79.5
q0 50 32.5 78t89.5 28h55v-32h-53q-88 0 -88 -76z" />
    <glyph glyph-name="braceright.ucalt" horiz-adv-x="318" 
d="M164 565q0 76 -88 76h-53v32h55q57 0 89.5 -28t32.5 -78q0 -25 -10.5 -79.5t-10.5 -78.5q0 -37 22.5 -56t78.5 -23v-40q-56 -4 -78.5 -23t-22.5 -56q0 -24 10.5 -81t10.5 -82q0 -50 -32.5 -78t-89.5 -28h-55v30h53q88 0 88 78q0 29 -9.5 84t-9.5 75q0 47 25 69t76 31v2
q-51 9 -76 31t-25 69q0 20 9.5 72.5t9.5 81.5z" />
    <glyph glyph-name="cacute.pl" horiz-adv-x="447" 
d="M359 348v79q-45 26 -108 26q-76 0 -129 -48t-53 -143v-22q0 -106 47.5 -162.5t132.5 -56.5q92 0 152 55v-28q-44 -56 -147 -56q-101 0 -161 65t-60 183v4q0 64 19.5 112t52 74.5t69 38.5t77.5 12q102 0 141 -46v-87h-33zM223 547l22 113h46l-41 -113h-27z" />
    <glyph glyph-name="f.short" horiz-adv-x="279" 
d="M21 472h70v65q0 68 31.5 103.5t77.5 35.5q43 0 58 -23v-18q-23 10 -49 10q-83 0 -83 -104v-69h132v-30h-132v-412h85v-30h-187v30h67v412h-70v30z" />
    <glyph glyph-name="f_f.short" horiz-adv-x="520" 
d="M21 442v30h70v60q0 69 32 104t80 35q46 0 63 -25v-18q-27 12 -54 12q-86 0 -86 -104v-64h206v65q0 68 31.5 103.5t77.5 35.5q43 0 58 -23v-18q-23 10 -49 10q-83 0 -83 -104v-69h132v-30h-132v-412h85v-30h-187v30h67v412h-206v-412h85v-30h-187v30h67v412h-70z" />
    <glyph glyph-name="nacute.pl" horiz-adv-x="544" 
d="M349 0v30h75v306q0 58 -28 86.5t-91 28.5q-76 0 -126 -51t-53 -134v-236h75v-30h-177v30h67v408h-67v34h91q11 -65 11 -122v-15q11 71 65 108.5t120 37.5q148 0 148 -153v-298h61v-30h-171zM256 547l22 113h46l-41 -113h-27z" />
    <glyph glyph-name="nine.denalt" horiz-adv-x="319" 
d="M141 22q54 0 83 32t29 106v35q-26 -61 -104 -61q-58 0 -89.5 34.5t-31.5 83.5v3q0 54 35 87.5t91 33.5q60 0 96.5 -40t36.5 -110v-61q0 -172 -145 -172q-63 0 -95 32v28q37 -31 94 -31zM154 161q43 0 71 23.5t28 57.5v2q0 50 -26 77.5t-73 27.5q-44 0 -67.5 -25
t-23.5 -68v-4q0 -40 22 -65.5t69 -25.5z" />
    <glyph glyph-name="nine.numalt" horiz-adv-x="319" 
d="M141 292q54 0 83 32t29 106v35q-26 -61 -104 -61q-58 0 -89.5 34.5t-31.5 83.5v3q0 54 35 87.5t91 33.5q60 0 96.5 -40t36.5 -110v-61q0 -172 -145 -172q-63 0 -95 32v28q37 -31 94 -31zM154 431q43 0 71 23.5t28 57.5v2q0 50 -26 77.5t-73 27.5q-44 0 -67.5 -25
t-23.5 -68v-4q0 -40 22 -65.5t69 -25.5z" />
    <glyph glyph-name="nine.subalt" horiz-adv-x="319" 
d="M141 -38q54 0 83 32t29 106v35q-26 -61 -104 -61q-58 0 -89.5 34.5t-31.5 83.5v3q0 54 35 87.5t91 33.5q60 0 96.5 -40t36.5 -110v-61q0 -172 -145 -172q-63 0 -95 32v28q37 -31 94 -31zM154 101q43 0 71 23.5t28 57.5v2q0 50 -26 77.5t-73 27.5q-44 0 -67.5 -25
t-23.5 -68v-4q0 -40 22 -65.5t69 -25.5z" />
    <glyph glyph-name="nine.supalt" horiz-adv-x="319" 
d="M141 337q54 0 83 32t29 106v35q-26 -61 -104 -61q-58 0 -89.5 34.5t-31.5 83.5v3q0 54 35 87.5t91 33.5q60 0 96.5 -40t36.5 -110v-61q0 -172 -145 -172q-63 0 -95 32v28q37 -31 94 -31zM154 476q43 0 71 23.5t28 57.5v2q0 50 -26 77.5t-73 27.5q-44 0 -67.5 -25
t-23.5 -68v-4q0 -40 22 -65.5t69 -25.5z" />
    <glyph glyph-name="nine.tabalt" 
d="M273 21q100 0 150.5 55t50.5 185v89q-21 -49 -69 -78.5t-116 -29.5q-99 0 -151.5 59t-52.5 143v5q0 86 59 143.5t151 57.5q102 0 159 -66.5t57 -175.5v-143q0 -276 -235 -276q-58 0 -101.5 17.5t-64.5 41.5v32q65 -59 163 -59zM294 273q76 0 126.5 43t53.5 102v11
q0 86 -47 137.5t-132 51.5q-81 0 -126.5 -45t-45.5 -122v-8q0 -74 41.5 -122t129.5 -48z" />
    <glyph glyph-name="oacute.pl" horiz-adv-x="503" 
d="M252 20q82 0 132 56.5t50 164.5v20q0 87 -50 139.5t-132 52.5q-83 0 -133 -52.5t-50 -139.5v-20q0 -108 50.5 -164.5t132.5 -56.5zM252 -8q-97 0 -158 66.5t-61 186.5v2q0 107 59 170.5t160 63.5q100 0 159 -62.5t59 -168.5v-2q0 -121 -61 -188.5t-157 -67.5zM232 547
l22 113h46l-41 -113h-27z" />
    <glyph glyph-name="sacute.pl" horiz-adv-x="398" 
d="M302 361v72q-47 20 -104 20q-55 0 -87 -25.5t-32 -71.5q0 -29 9 -46.5t33 -28.5q25 -12 84 -22t84 -21q67 -29 67 -115q0 -61 -43.5 -96t-114.5 -35q-105 0 -159 51v80h33v-74q49 -29 125 -29q59 0 91.5 26.5t32.5 74.5q0 68 -45 87q-28 12 -85 22t-79 20
q-34 15 -50.5 39.5t-16.5 67.5q0 57 43 90.5t110 33.5q91 0 137 -38v-82h-33zM178 547l22 113h46l-41 -113h-27z" />
    <glyph glyph-name="six.denalt" horiz-adv-x="319" 
d="M178 346q-112 0 -112 -149v-23q26 61 104 61q57 0 89 -34.5t32 -83.5v-3q0 -54 -35 -87.5t-91 -33.5q-60 0 -96.5 41t-36.5 114v45q0 94 40 138.5t106 44.5q57 0 86 -29v-28q-37 27 -86 27zM165 208q-42 0 -69.5 -21.5t-29.5 -54.5v-6q0 -49 26.5 -77.5t72.5 -28.5
q44 0 67.5 24.5t23.5 68.5v5q0 40 -22 65t-69 25z" />
    <glyph glyph-name="six.numalt" horiz-adv-x="319" 
d="M178 616q-112 0 -112 -149v-23q26 61 104 61q57 0 89 -34.5t32 -83.5v-3q0 -54 -35 -87.5t-91 -33.5q-60 0 -96.5 41t-36.5 114v45q0 94 40 138.5t106 44.5q57 0 86 -29v-28q-37 27 -86 27zM165 478q-42 0 -69.5 -21.5t-29.5 -54.5v-6q0 -49 26.5 -77.5t72.5 -28.5
q44 0 67.5 24.5t23.5 68.5v5q0 40 -22 65t-69 25z" />
    <glyph glyph-name="six.subalt" horiz-adv-x="319" 
d="M178 286q-112 0 -112 -149v-23q26 61 104 61q57 0 89 -34.5t32 -83.5v-3q0 -54 -35 -87.5t-91 -33.5q-60 0 -96.5 41t-36.5 114v45q0 94 40 138.5t106 44.5q57 0 86 -29v-28q-37 27 -86 27zM165 148q-42 0 -69.5 -21.5t-29.5 -54.5v-6q0 -49 26.5 -77.5t72.5 -28.5
q44 0 67.5 24.5t23.5 68.5v5q0 40 -22 65t-69 25z" />
    <glyph glyph-name="six.supalt" horiz-adv-x="319" 
d="M178 661q-112 0 -112 -149v-23q26 61 104 61q57 0 89 -34.5t32 -83.5v-3q0 -54 -35 -87.5t-91 -33.5q-60 0 -96.5 41t-36.5 114v45q0 94 40 138.5t106 44.5q57 0 86 -29v-28q-37 27 -86 27zM165 523q-42 0 -69.5 -21.5t-29.5 -54.5v-6q0 -49 26.5 -77.5t72.5 -28.5
q44 0 67.5 24.5t23.5 68.5v5q0 40 -22 65t-69 25z" />
    <glyph glyph-name="six.tabalt" 
d="M329 616q-203 0 -203 -271v-53q20 48 68 76.5t117 28.5q99 0 151.5 -58.5t52.5 -142.5v-5q0 -89 -58 -145.5t-152 -56.5q-101 0 -158.5 69t-57.5 188v96q0 158 65.5 233t173.5 75q96 0 144 -50v-34q-65 50 -143 50zM306 366q-77 0 -127.5 -42t-52.5 -100v-9
q0 -86 48 -140t130 -54q83 0 128 44.5t45 123.5v8q0 74 -41.5 121.5t-129.5 47.5z" />
    <glyph glyph-name="zacute.pl" horiz-adv-x="427" 
d="M51 361v111h339v-41l-322 -402h285v91h33v-120h-351v41l322 402h-273v-82h-33zM202 547l22 113h46l-41 -113h-27z" />
    </font>
</defs>
</svg>
