<?xml version="1.0" standalone="no"?> <!DOCTYPE svg PUBLIC "-//W3C//DTD SVG 1.0//EN" "http://www.w3.org/TR/2001/REC-SVG-20010904/DTD/svg10.dtd" > <svg xmlns="http://www.w3.org/2000/svg" width="100%" height="100%">
<defs >
<font id="DuplicateSlabLight" horiz-adv-x="486" ><font-face
    font-family="DuplicateSlabLight"
    units-per-em="1000"
    panose-1="0 0 0 0 0 0 0 0 0 0"
    ascent="854"
    descent="-146"
    alphabetic="0" />
<missing-glyph horiz-adv-x="510" />
<glyph unicode=" " glyph-name="space" horiz-adv-x="192" />
<glyph unicode="!" glyph-name="exclam" horiz-adv-x="223" d="M128 149H83L71 660H139L128 149ZM106 -5Q89 -5 76 7T62 38Q62 57 75 70T106 83Q124 83 137 70T150 38Q150 20 137 8T106 -5Z" />
<glyph unicode="&quot;" glyph-name="quotedbl" horiz-adv-x="275" d="M57 474L45 639H110L98 474H57ZM167 474L155 639H220L208 474H167Z" />
<glyph unicode="#" glyph-name="numbersign" horiz-adv-x="474" d="M353 447H431V396H344L322 260H400V209H314L281 0H234L267 209H157L124 0H77L110 209H32V260H118L140 396H62V447H149L180 639H227L196 447H306L337 639H384L353 447ZM165 260H275L297 396H187L165 260Z" />
<glyph unicode="$" glyph-name="dollar" horiz-adv-x="491" d="M368 483V576Q337 589 300 597L269 349Q298 344 327 338T381 317Q414 297 433 266T452 174Q452 125 435 90T389 32T323 -2T244 -13Q239 -13 234 -13T224 -12L213 -107H168L180 -7Q131 1 97 20T44
57V165H97V73Q116 62 138 54T186 40L219 304Q196 309 175 314T136 329Q97 349 75 383T53 475Q53 520 70 553T115 608T178 640T250 651H261L270 718H315L306 647Q348 640 376 627T422 597V483H368ZM352 269Q335 280 312 285T263 296L230 35H241Q272 35 300 42T349
66T382 109T395 173Q395 207 386 231T352 269ZM161 378Q175 370 191 365T225 357L255 601H254Q227 601 201 595T155 575T123 536T111 474Q111 441 121 418T161 378Z" />
<glyph unicode="%" glyph-name="percent" horiz-adv-x="628" d="M82 487Q82 430 104 404T163 378Q201 378 222 404T244 487V511Q244 559 223 584T163 610Q124 610 103 585T82 511V487ZM589 145Q589 105 578 76T549 28T506 -1T455 -11Q428 -11 404 -2T361 27T331
76T320 145V152Q320 223 358 262T455 301Q513 301 551 262T589 152V145ZM374 137Q374 80 396 54T455 28Q492 28 514 54T536 137V161Q536 209 515 234T455 260Q416 260 395 235T374 161V137ZM163 339Q136 339 112 348T70 377T40 426T29 495V501Q29 536 39 564T67
611T109 641T163 651Q222 651 260 612T298 501V495Q298 455 287 426T258 378T215 349T163 339ZM114 0H64L505 639H555L114 0Z" />
<glyph unicode="&amp;" glyph-name="ampersand" horiz-adv-x="588" d="M222 -10Q176 -10 141 3T81 39T44 94T31 161Q31 199 43 227T77 278T126 317T188 349Q159 382 140 420T120 506Q120 536 130 562T160 608T207 639T267 651Q328 651 369 615T410 512Q410 450
371 410T268 339L405 161Q425 199 442 246T474 354H529Q509 284 488 225T437 119L495 45H549V0H459L403 72Q369 33 325 12T222 -10ZM224 35Q314 35 374 111L218 316Q161 290 127 256T92 163Q92 107 125 71T224 35ZM176 506Q176 469 193 436T242 369Q354 424 354
510Q354 553 330 577T267 602Q225 602 201 576T176 506Z" />
<glyph unicode="&apos;" glyph-name="quotesingle" horiz-adv-x="165" d="M57 474L45 639H110L98 474H57Z" />
<glyph unicode="(" glyph-name="parenleft" horiz-adv-x="290" d="M106 270Q106 206 118 152T152 53T200 -29T258 -93V-98H205Q182 -78 155 -45T103 36T63 144T47 277V306Q47 375 63 433T103 538T154 619T205 673H258V668Q228 641 201 604T152 521T119 423T106 313V270Z" />
<glyph unicode=")" glyph-name="parenright" horiz-adv-x="290" d="M172 305Q172 369 160 423T126 522T78 604T20 668V673H73Q96 653 123 620T175 539T215 431T231 298V269Q231 200 215 142T175 37T124 -44T73 -98H20V-93Q50 -66 77 -29T126 54T159 152T172 262V305Z" />
<glyph unicode="*" glyph-name="asterisk" horiz-adv-x="326" d="M37 471L127 513L37 553L62 595L141 539L133 639H184L175 541L254 595L279 553L188 513L279 471L254 429L175 485L184 385H133L142 486L62 429L37 471Z" />
<glyph unicode="+" glyph-name="plus" horiz-adv-x="454" d="M248 339H399V290H248V128H196V290H45V339H196V501H248V339Z" />
<glyph unicode="," glyph-name="comma" horiz-adv-x="193" d="M37 -98Q51 -63 57 -31T63 26Q63 39 62 52T58 77H122Q124 66 125 58T126 37Q126 -34 71 -98H37V-98Z" />
<glyph unicode="-" glyph-name="hyphen" horiz-adv-x="266" d="M47 294H209V244H47V294Z" />
<glyph unicode="." glyph-name="period" horiz-adv-x="193" d="M92 -6Q74 -6 61 6T47 37Q47 56 60 68T92 81Q110 81 123 69T136 37Q136 19 123 7T92 -6Z" />
<glyph unicode="/" glyph-name="slash" horiz-adv-x="322" d="M57 -98H4L238 673H291L57 -98Z" />
<glyph unicode="0" glyph-name="zero" horiz-adv-x="580" d="M285 -13Q235 -13 191 6T113 66T60 166T40 309V352Q40 425 57 481T107 574T185 631T285 651Q340 651 385 632T462 575T512 481T530 352V309Q530 227 511 167T458 66T380 7T285 -13ZM285 37Q369 37 419
102T470 300V372Q470 478 423 538T285 599Q195 599 148 539T100 372V300Q100 167 151 102T285 37Z" />
<glyph unicode="1" glyph-name="one" horiz-adv-x="377" d="M47 45H168V583L35 441H32V508L153 639H227V45H337V0H47V45Z" />
<glyph unicode="2" glyph-name="two" horiz-adv-x="479" d="M30 73Q105 125 165 174T267 271T332 367T355 464Q355 500 345 525T316 567T272 591T218 599Q160 599 118 579T43 530V579Q66 607 109 629T220 651Q261 651 296 640T358 606T400 548T415 463Q415 407
390 355T319 252T210 151T71 51V50H374V135H427V0H30V73Z" />
<glyph unicode="3" glyph-name="three" horiz-adv-x="482" d="M219 651Q262 651 297 640T358 607T396 555T410 489Q410 423 376 384T279 334V332Q351 325 392 282T433 165Q433 86 378 39T221 -9Q181 -9 150 -3T95 13T54 35T25 61V110Q59 78 103 60T219 41Q298
41 335 76T373 177Q373 240 335 274T212 308H133V356H212Q282 356 316 388T351 479Q351 537 317 568T216 599Q156 599 117 583T44 541V587Q67 610 109 630T219 651Z" />
<glyph unicode="4" glyph-name="four" horiz-adv-x="511" d="M382 639V231H471V182H382V45H471V0H229V45H322V182H27V252L290 639H382ZM70 231H322V602L70 231Z" />
<glyph unicode="5" glyph-name="five" horiz-adv-x="483" d="M212 -9Q174 -9 146 -3T97 12T60 32T33 55V103Q64 77 104 59T209 41Q286 41 329 80T372 197Q372 269 335 306T216 343Q161 343 125 331T62 303H54V639H408V497H354V586H107V366Q162 390 228 390Q331
390 382 336T433 192Q433 147 418 110T375 46T305 6T212 -9Z" />
<glyph unicode="6" glyph-name="six" horiz-adv-x="531" d="M414 634Q352 607 298 571T203 492T136 399T102 294Q122 341 167 370T280 399Q328 399 366 384T430 341T470 277T484 198V193Q484 147 469 109T427 44T359 2T267 -13Q217 -13 176 3T104 49T57 123T40
222V244Q40 324 68 388T139 502T230 586T320 639H414V634ZM269 354Q234 354 204 344T151 314T115 269T100 213V194Q100 123 143 79T267 35Q344 35 384 77T424 191V199Q424 233 415 261T387 310T339 342T269 354Z" />
<glyph unicode="7" glyph-name="seven" horiz-adv-x="480" d="M29 479V639H440V568L201 0H139L387 587H82V479H29Z" />
<glyph unicode="8" glyph-name="eight" horiz-adv-x="515" d="M252 -12Q205 -12 166 1T97 38T52 95T36 170V177Q36 240 75 282T181 340Q127 354 93 390T59 485V490Q59 525 73 554T112 605T173 639T253 651Q296 651 331 639T392 606T431 555T445 491V485Q445 426
411 390T323 340Q391 325 430 283T469 178V171Q469 130 453 97T407 39T339 2T252 -12ZM252 36Q323 36 365 71T408 172V186Q408 243 367 280T252 318Q178 318 138 281T97 186V172Q97 106 138 71T252 36ZM252 360Q315 360 351 390T388 478V490Q388 540 353 571T253
602Q187 602 152 571T116 490V478Q116 421 152 391T252 360Z" />
<glyph unicode="9" glyph-name="nine" horiz-adv-x="531" d="M122 5Q180 30 231 64T321 141T385 234T417 342Q397 296 353 267T240 237Q192 237 154 252T90 295T50 359T36 439V444Q36 490 51 528T94 594T162 637T253 652Q303 652 345 637T417 593T464 520T481
419V397Q481 316 455 251T388 137T302 53T216 0H122V5ZM252 283Q287 283 318 294T371 324T407 371T420 431V446Q420 516 377 560T253 604Q177 604 137 561T96 447V439Q96 405 105 377T133 327T182 295T252 283Z" />
<glyph unicode=":" glyph-name="colon" horiz-adv-x="193" d="M99 -6Q81 -6 68 6T54 37Q54 56 67 68T99 81Q117 81 130 69T143 37Q143 19 130 7T99 -6ZM99 295Q81 295 68 307T54 338Q54 357 67 369T99 382Q117 382 130 370T143 338Q143 320 130 308T99 295Z" />
<glyph unicode=";" glyph-name="semicolon" horiz-adv-x="193" d="M48 -98Q62 -63 68 -31T74 26Q74 39 73 52T69 77H133Q135 66 136 58T137 37Q137 -34 82 -98H48V-98ZM99 295Q81 295 68 307T54 338Q54 357 67 369T99 382Q117 382 130 370T143 338Q143 320 130
308T99 295Z" />
<glyph unicode="&lt;" glyph-name="less" horiz-adv-x="451" d="M396 495V442L90 310L396 178V124L46 275V344L396 495Z" />
<glyph unicode="=" glyph-name="equal" horiz-adv-x="488" d="M429 263V213H49V263H429ZM429 410V361H49V410H429Z" />
<glyph unicode="&gt;" glyph-name="greater" horiz-adv-x="451" d="M46 124V177L352 309L46 441V495L396 344V275L46 124Z" />
<glyph unicode="?" glyph-name="question" horiz-adv-x="398" d="M293 506Q293 563 263 590T176 617Q151 617 128 612T85 599V514H33V610Q56 634 93 649T184 665Q218 665 249 656T303 626T339 576T353 506Q353 467 340 438T307 384T265 339T222 296T189 248T176
189V149H128V195Q128 232 140 261T170 314T210 360T250 403T281 450T293 506ZM199 38Q199 20 186 8T155 -5Q138 -5 125 7T111 38Q111 57 124 70T155 83Q173 83 186 70T199 38Z" />
<glyph unicode="@" glyph-name="at" horiz-adv-x="857" d="M390 76Q413 76 436 85T481 114T517 164T539 237L541 251Q547 290 540 320T517 370T476 400T424 411Q398 411 373 400T327 364T295 299T282 202Q282 143 309 110T390 76ZM450 645Q526 645 592 623T708
557T785 452T814 309Q814 244 801 193T765 106T710 51T637 32Q579 32 555 65T532 146Q516 91 475 61T383 31Q311 31 268 77T225 211Q225 270 241 316T285 393T349 441T424 458Q485 458 518 425T556 339Q559 361 564 381T575 416Q581 434 587 449H630L586 177Q577
120 590 96T640 72Q696 72 731 133T767 309Q767 384 742 439T674 531T573 584T448 602Q371 602 305 575T190 497T112 375T84 217Q84 141 107 80T173 -23T279 -89T421 -112Q502 -112 570 -89T681 -33V-74Q645 -105 576 -129T416 -154Q333 -154 263 -129T143 -55T64
62T36 218Q36 318 70 397T161 531T293 615T450 645Z" />
<glyph unicode="A" glyph-name="A" horiz-adv-x="654" d="M22 45H73L274 639H370L571 45H622V0H413V45H509L454 210H186L131 45H226V0H22V45ZM203 262H437L320 613L203 262Z" />
<glyph unicode="B" glyph-name="B" horiz-adv-x="568" d="M30 639H310Q392 639 443 598T495 474Q495 410 462 369T354 320V318Q434 313 476 276T518 172Q518 133 507 101T471 47T406 12T306 0H30V45H98V591H30V639ZM295 49Q342 49 373 56T423 79T449 117T457 170Q457
235 418 263T286 292H157V49H295ZM286 344Q366 344 400 375T435 469Q435 534 400 560T300 586H157V344H286Z" />
<glyph unicode="C" glyph-name="C" horiz-adv-x="589" d="M471 567Q443 581 409 590T330 599Q269 599 226 581T156 529T115 448T102 343V319Q102 253 116 201T158 113T231 57T334 37Q379 37 415 47T481 74V167H534V59Q523 48 505 36T461 12T404 -6T333 -13Q264
-13 210 10T119 77T61 184T41 326V328Q41 400 58 459T112 561T201 627T327 651Q408 651 455 629T524 582V479H471V567Z" />
<glyph unicode="D" glyph-name="D" horiz-adv-x="639" d="M30 639H320Q392 639 443 618T526 558T573 463T588 334V332Q588 174 518 87T296 0H30V45H98V591H30V639ZM285 49Q352 49 398 67T473 120T514 206T527 324V350Q527 405 518 448T484 522T418 569T311 586H157V49H285Z"
/>
<glyph unicode="E" glyph-name="E" horiz-adv-x="555" d="M441 586H157V348H428V297H157V50H451V161H504V0H30V45H98V591H30V639H494V479H441V586Z" />
<glyph unicode="F" glyph-name="F" horiz-adv-x="539" d="M443 586H157V329H442V278H157V45H257V0H30V45H98V591H30V639H496V479H443V586Z" />
<glyph unicode="G" glyph-name="G" horiz-adv-x="612" d="M347 319H549V63Q520 33 469 10T344 -13Q276 -13 220 9T125 73T63 177T41 321V323Q41 401 63 462T124 565T216 629T333 651Q408 651 453 633T527 588V479H475V571Q447 584 414 591T337 599Q283 599 240
582T166 531T119 450T102 341V314Q102 178 165 108T347 37Q389 37 424 47T489 72V271H347V319Z" />
<glyph unicode="H" glyph-name="H" horiz-adv-x="667" d="M412 45H500V301H157V45H245V0H30V45H98V591H30V639H245V591H157V352H500V591H412V639H627V591H560V45H627V0H412V45Z" />
<glyph unicode="I" glyph-name="I" horiz-adv-x="277" d="M30 639H237V591H164V45H237V0H30V45H104V591H30V639Z" />
<glyph unicode="J" glyph-name="J" horiz-adv-x="380" d="M129 639H340V591H275V142Q275 71 240 32T132 -8Q90 -8 64 3T23 27V66Q40 57 61 49T121 41Q215 41 215 150V591H129V639Z" />
<glyph unicode="K" glyph-name="K" horiz-adv-x="595" d="M351 639H549V591H499L229 336L503 45H559V0H348V45H431L159 333L431 591H351V639ZM30 639H245V591H157V45H245V0H30V45H98V591H30V639Z" />
<glyph unicode="L" glyph-name="L" horiz-adv-x="530" d="M30 639H245V591H157V50H433V166H486V0H30V45H98V591H30V639Z" />
<glyph unicode="M" glyph-name="M" horiz-adv-x="819" d="M565 45H652V591L441 0H364L153 591V45H240V0H30V45H98V591H30V639H194L404 44L617 639H779V591H712V45H779V0H565V45Z" />
<glyph unicode="N" glyph-name="N" horiz-adv-x="683" d="M431 639H645V591H577V0H484L156 591H153V45H245V0H30V45H98V591H30V639H195L521 48V591H431V639Z" />
<glyph unicode="O" glyph-name="O" horiz-adv-x="661" d="M325 37Q435 37 492 107T549 317V350Q549 405 536 451T496 530T427 581T325 599Q267 599 225 581T156 530T115 451T102 350V317Q102 177 159 107T325 37ZM325 -13Q263 -13 211 8T121 72T62 178T41 326V328Q41
403 59 463T113 564T202 628T325 651Q395 651 448 629T538 565T592 463T611 328V326Q611 242 590 179T532 73T441 9T325 -13Z" />
<glyph unicode="P" glyph-name="P" horiz-adv-x="545" d="M31 639H313Q407 639 455 588T504 448Q504 354 448 307T291 259H158V45H254V0H30V45H99V591H31V639ZM284 310Q372 310 408 346T445 449Q445 515 414 550T304 586H158V310H284Z" />
<glyph unicode="Q" glyph-name="Q" horiz-adv-x="667" d="M328 -13Q265 -13 213 8T123 72T64 178T43 326V328Q43 403 61 463T115 564T204 628T328 651Q398 651 451 629T540 565T594 463T613 328V326Q613 221 582 149T494 36L553 -43H632V-88H522L448 10Q393 -13
328 -13ZM328 36Q354 36 376 39T418 50L306 201H371L464 76Q552 141 552 317V350Q552 405 539 451T499 530T429 581T328 599Q269 599 227 581T158 530T117 451T104 350V317Q104 177 160 107T328 36Z" />
<glyph unicode="R" glyph-name="R" horiz-adv-x="567" d="M30 639H299Q349 639 386 626T447 590T483 535T495 464Q495 419 482 387T443 333T381 302T301 292H246L471 45H534V0H440L157 310V45H244V0H30V45H98V591H30V639ZM286 335Q368 335 401 367T435 464Q435
492 428 515T403 553T359 577T290 586H157V335H286Z" />
<glyph unicode="S" glyph-name="S" horiz-adv-x="512" d="M374 573Q349 584 320 591T258 599Q229 599 202 594T155 575T122 537T109 474Q109 441 119 418T158 379Q181 367 210 362T270 351T332 340T390 318Q423 299 441 267T460 174Q460 125 443 90T396 32T329
-2T249 -13Q207 -13 174 -7T115 10T71 31T41 54V166H94V74Q123 58 160 48T246 37Q277 37 305 44T355 68T390 110T403 173Q403 207 394 230T360 268Q339 280 310 286T249 298T187 310T133 327Q93 347 72 382T51 475Q51 520 68 553T112 608T176 640T252 651Q319 651
361 635T427 598V479H374V573Z" />
<glyph unicode="T" glyph-name="T" horiz-adv-x="586" d="M485 586H318V45H406V0H170V45H258V586H91V465H36V639H540V465H485V586Z" />
<glyph unicode="U" glyph-name="U" horiz-adv-x="676" d="M431 639H638V591H576V235Q576 161 557 113T504 37T426 -2T333 -13Q285 -13 241 -2T163 37T109 114T89 236V591H28V639H235V591H149V223Q149 168 162 132T200 75T258 45T333 36Q373 36 407 44T465 74T503
131T517 222V591H431V639Z" />
<glyph unicode="V" glyph-name="V" horiz-adv-x="651" d="M421 639H620V591H570L367 0H273L70 591H21V639H219V591H131L322 28L513 591H421V639Z" />
<glyph unicode="W" glyph-name="W" horiz-adv-x="886" d="M438 564L291 0H199L67 591H21V639H220V591H128L249 35L406 639H475L632 35L753 591H656V639H855V591H810L678 0H586L438 564Z" />
<glyph unicode="X" glyph-name="X" horiz-adv-x="630" d="M391 45H472L309 300L143 45H232V0H27V45H82L270 333L96 591H43V639H238V591H163L313 367L462 591H382V639H577V591H523L351 334L539 45H593V0H391V45Z" />
<glyph unicode="Y" glyph-name="Y" horiz-adv-x="591" d="M20 639H221V591H133L293 294L453 591H362V639H561V591H511L320 243V45H409V0H172V45H261V243L70 591H20V639Z" />
<glyph unicode="Z" glyph-name="Z" horiz-adv-x="552" d="M59 639H500V565L90 50H448V161H501V0H38V73L446 586H113V479H59V639Z" />
<glyph unicode="[" glyph-name="bracketleft" horiz-adv-x="346" d="M81 673H303V625H136V-53H303V-98H81V673Z" />
<glyph unicode="\" glyph-name="backslash" horiz-adv-x="322" d="M74 673L308 -98H255L21 673H74Z" />
<glyph unicode="]" glyph-name="bracketright" horiz-adv-x="346" d="M33 -98V-53H200V625H33V673H255V-98H33Z" />
<glyph unicode="^" glyph-name="asciicircum" horiz-adv-x="376" d="M279 441L183 602L87 441H36L145 639H221L330 441H279Z" />
<glyph unicode="_" glyph-name="underscore" horiz-adv-x="363" d="M-7 -91H360V-134H-7V-91Z" />
<glyph unicode="`" glyph-name="grave" horiz-adv-x="412" d="M77 666H160L234 543H189L77 666Z" />
<glyph unicode="a" glyph-name="a" horiz-adv-x="485" d="M60 427Q78 447 117 466T221 486Q302 486 345 446T389 328V96Q389 64 398 51T432 38Q440 38 445 38T456 40V6Q454 4 443 1T414 -3Q378 -3 356 17T332 89V106Q319 51 280 21T176 -10Q111 -10 71 22T31 115V116Q31
150 45 173T83 211T141 236T211 254Q246 262 269 270T306 288T326 311T332 343V345Q332 395 301 418T215 442Q183 442 158 435T112 418V341H60V427ZM191 31Q217 31 242 40T288 69T320 120T332 195V271Q317 254 290 242T215 217Q180 206 156 198T118 179T97 155T90
121V117Q90 77 115 54T191 31Z" />
<glyph unicode="b" glyph-name="b" horiz-adv-x="579" d="M26 673H148V343Q162 410 214 448T335 486Q381 486 417 470T480 422T520 347T534 247V246Q534 182 519 135T476 55T411 7T331 -9Q261 -9 212 29T147 129Q146 98 144 75T140 34Q137 15 133 0H26V45H90V625H26V673ZM323
35Q393 35 434 84T476 238V266Q476 347 435 393T320 439Q285 439 254 427T200 390T162 332T148 255V244Q148 188 163 148T203 83T259 47T323 35Z" />
<glyph unicode="c" glyph-name="c" horiz-adv-x="465" d="M351 427Q332 435 310 439T258 443Q226 443 196 433T142 402T105 346T91 265V236Q91 134 135 85T260 36Q312 36 349 52T411 89V45Q404 37 391 28T360 10T316 -3T259 -9Q208 -9 166 7T95 56T49 134T32 241V244Q32
311 52 357T104 432T177 473T256 486Q319 486 353 471T403 440V346H351V427Z" />
<glyph unicode="d" glyph-name="d" horiz-adv-x="578" d="M342 673H479V45H542V0H437Q433 18 429 39Q426 57 424 81T422 131Q414 99 398 74T358 29T305 0T241 -10Q195 -10 157 7T92 57T50 138T35 248V250Q35 307 50 350T93 424T158 469T239 485Q308 485 357 449T422
346V625H342V673ZM249 34Q280 34 311 46T366 83T406 146T422 238V248Q422 295 408 330T371 390T317 426T251 439Q179 439 136 396T93 264V237Q93 137 134 86T249 34Z" />
<glyph unicode="e" glyph-name="e" horiz-adv-x="480" d="M267 -9Q157 -9 95 55T32 240V241Q32 295 48 340T93 418T161 468T249 486Q297 486 332 471T390 429T424 366T435 288Q435 273 434 257T431 227H92Q93 131 137 84T272 36Q323 36 362 49T426 83V43Q412 26
371 9T267 -9ZM249 443Q180 443 137 395T92 264H382V271Q382 360 348 401T249 443Z" />
<glyph unicode="f" glyph-name="f" horiz-adv-x="325" d="M24 475H95V535Q95 575 106 602T134 646T173 670T216 678Q246 678 264 670T290 651V623Q279 626 266 628T237 631Q189 631 171 609T152 541V475H290V431H152V45H242V0H26V45H95V431H24V475Z" />
<glyph unicode="g" glyph-name="g" horiz-adv-x="575" d="M249 -153Q177 -153 133 -134T71 -91V-45Q95 -68 138 -87T244 -106Q328 -106 374 -65T420 59V151Q413 120 397 95T356 53T302 27T238 17Q145 17 90 79T34 258V259Q34 312 49 354T92 425T156 469T238 485Q307
485 356 453T420 356Q422 403 428 438Q431 457 435 475H539V424H477V68Q477 12 461 -29T414 -98T342 -139T249 -153ZM247 60Q278 60 309 71T364 105T404 163T420 249V259Q420 302 407 335T370 392T316 427T251 439Q179 439 136 396T92 272V247Q92 154 133 107T247
60Z" />
<glyph unicode="h" glyph-name="h" horiz-adv-x="573" d="M347 45H421V338Q421 388 396 413T313 438Q278 438 249 426T197 392T162 338T148 266V45H223V0H26V45H90V625H26V673H148V341Q154 377 171 404T213 450T267 477T327 486Q401 486 439 446T478 328V45H537V0H347V45Z"
/>
<glyph unicode="i" glyph-name="i" horiz-adv-x="255" d="M26 475H151V45H219V0H26V45H94V424H26V475ZM116 563Q99 563 87 574T74 603Q74 620 86 632T116 645Q133 645 145 633T158 603Q158 586 146 575T116 563Z" />
<glyph unicode="j" glyph-name="j" horiz-adv-x="230" d="M24 475H149V-46Q149 -103 121 -127T50 -152Q24 -152 8 -146T-16 -132V-101Q-6 -104 4 -105T28 -106Q63 -106 77 -94T92 -49V424H24V475ZM114 563Q97 563 85 574T72 603Q72 620 84 632T114 645Q131 645
143 633T156 603Q156 586 144 575T114 563Z" />
<glyph unicode="k" glyph-name="k" horiz-adv-x="494" d="M26 673H148V45H224V0H26V45H90V625H26V673ZM150 248L358 475H441V424H374L215 251L395 45H460V0H368V1L365 0L150 248Z" />
<glyph unicode="l" glyph-name="l" horiz-adv-x="255" d="M26 673H151V45H219V0H26V45H94V625H26V673Z" />
<glyph unicode="m" glyph-name="m" horiz-adv-x="850" d="M321 45H394V341Q394 389 373 413T301 438Q268 438 241 426T193 392T161 338T148 266V45H222V0H26V45H90V424H26V475H132Q136 457 140 437Q143 420 145 399T148 355V343Q154 379 170 406T208 450T258 477T313
486Q379 486 412 449T447 339Q453 376 470 403T510 449T561 477T617 486Q685 486 720 447T755 331V45H815V0H625V45H698V341Q698 389 677 413T605 438Q538 438 496 392T451 266V45H525V0H321V45Z" />
<glyph unicode="n" glyph-name="n" horiz-adv-x="573" d="M347 45H421V338Q421 388 396 413T313 438Q278 438 249 426T197 392T162 338T148 266V45H223V0H26V45H90V424H26V475H132Q136 457 140 437Q143 420 145 399T148 355V341Q154 377 171 404T213 450T267 477T327
486Q401 486 439 446T478 328V45H537V0H347V45Z" />
<glyph unicode="o" glyph-name="o" horiz-adv-x="527" d="M259 33Q295 33 325 45T378 82T413 145T426 237V265Q426 306 414 339T380 395T327 430T259 443Q183 443 137 395T91 265V237Q91 184 104 146T139 82T192 45T259 33ZM259 -9Q211 -9 170 7T98 54T50 134T32
245V247Q32 301 48 345T93 421T165 469T259 486Q310 486 352 469T423 422T468 347T484 249V247Q484 184 467 136T419 56T347 7T259 -9Z" />
<glyph unicode="p" glyph-name="p" horiz-adv-x="579" d="M26 475H132Q136 457 140 437Q143 420 145 399T148 355V343Q162 410 214 448T335 486Q381 486 417 470T480 422T520 347T534 247V246Q534 182 519 135T476 55T411 7T331 -9Q262 -9 212 28T148 128V-103H226V-146H26V-103H90V424H26V475ZM323
35Q393 35 434 84T476 238V266Q476 347 435 393T320 439Q285 439 254 427T200 390T162 332T148 255V244Q148 188 163 148T203 83T259 47T323 35Z" />
<glyph unicode="q" glyph-name="q" horiz-adv-x="579" d="M343 -103H422V131Q414 99 398 74T358 29T305 0T241 -10Q195 -10 157 7T92 57T50 138T35 248V250Q35 307 50 350T93 424T158 469T239 485Q308 485 357 449T422 345Q422 371 424 394T429 436Q433 457 437
475H544V424H479V-103H544V-146H343V-103ZM249 34Q280 34 311 46T366 83T406 146T422 238V248Q422 295 408 330T371 390T317 426T251 439Q179 439 136 396T93 264V237Q93 137 134 86T249 34Z" />
<glyph unicode="r" glyph-name="r" horiz-adv-x="364" d="M26 475H132Q136 457 140 437Q143 420 145 399T148 355V331Q160 407 197 444T283 482Q302 482 310 478T323 466V425Q280 427 248 417T193 382T160 314T148 209V45H235V0H26V45H90V424H26V475Z" />
<glyph unicode="s" glyph-name="s" horiz-adv-x="417" d="M293 430Q274 436 253 439T209 443Q159 443 128 422T96 356Q96 332 103 316T134 289Q153 280 175 276T220 267T265 258T306 243Q335 228 351 202T368 128Q368 95 356 69T321 26T268 0T201 -9Q137 -9 100
5T36 41V128H88V53Q108 43 134 38T196 33Q253 33 283 55T313 126Q313 150 307 168T277 198Q260 207 239 212T195 221T151 229T111 242Q78 258 61 283T44 353Q44 385 56 410T89 452T141 477T206 486Q253 486 288 476T345 448V360H293V430Z" />
<glyph unicode="t" glyph-name="t" horiz-adv-x="356" d="M226 -9Q199 -9 175 -2T132 21T103 65T92 132V429H24V461Q51 463 66 469T91 491T104 531T113 597H149V475H307V429H149V132Q149 77 171 58T231 38Q260 38 280 44T318 62V29Q310 16 288 4T226 -9Z" />
<glyph unicode="u" glyph-name="u" horiz-adv-x="567" d="M425 0Q421 18 417 38Q414 55 412 76T409 120V131Q403 95 387 69T349 25T299 -1T243 -10Q160 -10 123 36T85 169V424H26V475H142V159Q142 99 166 68T252 36Q285 36 313 48T363 83T396 138T409 209V424H340V475H467V45H531V0H425V0Z"
/>
<glyph unicode="v" glyph-name="v" horiz-adv-x="542" d="M337 475H513V424H467L309 0H226L65 424H19V475H196V424H126L270 34L410 424H337V475Z" />
<glyph unicode="w" glyph-name="w" horiz-adv-x="748" d="M371 403L260 0H178L59 424H18V475H193V424H117L222 37L343 475H402L522 37L624 424H547V475H721V424H679L563 0H479L371 403Z" />
<glyph unicode="x" glyph-name="x" horiz-adv-x="534" d="M308 43H392L258 215L123 43H212V0H25V45H66L223 243L82 424H25V475H215V427H147L266 273L384 427H313V475H499V424H438L301 245L457 45H499V0H308V43Z" />
<glyph unicode="y" glyph-name="y" horiz-adv-x="539" d="M336 475H510V424H463L298 -21Q272 -92 241 -122T157 -153Q125 -153 104 -146T71 -125V-95Q85 -100 103 -103T145 -107Q182 -107 206 -90T245 -33L257 0H226L64 424H19V475H196V424H124L269 35L408 424H336V475Z" />
<glyph unicode="z" glyph-name="z" horiz-adv-x="453" d="M47 475H406V416L87 45H355V136H406V0H33V59L351 430H98V351H47V475Z" />
<glyph unicode="{" glyph-name="braceleft" horiz-adv-x="297" d="M75 288Q132 279 156 253T181 184Q181 164 177 145T167 106T158 69T153 32Q153 -12 173 -39T233 -93V-98H180Q166 -92 151 -82T124 -56T103 -20T94 25Q94 45 99 66T111 109T123 150T129 188Q129
201 125 213T111 235T81 251T32 260V319Q62 321 81 327T110 343T125 365T129 391Q129 409 124 428T112 468T100 509T94 550Q94 575 102 595T123 631T151 656T180 673H233V668Q193 642 173 615T153 543Q153 525 157 508T167 472T176 434T181 395Q181 353 157 327T75
291V288Z" />
<glyph unicode="|" glyph-name="bar" horiz-adv-x="224" d="M133 -98H80V673H133V-98Z" />
<glyph unicode="}" glyph-name="braceright" horiz-adv-x="297" d="M210 291Q153 301 129 327T104 395Q104 415 108 434T118 471T127 507T132 543Q132 587 112 614T52 668V673H105Q119 667 134 657T161 631T182 596T191 550Q191 530 186 509T174 468T162 429T156
391Q156 377 160 365T174 344T204 328T253 319V260Q223 258 204 252T175 236T160 214T156 188Q156 170 161 150T173 109T185 67T191 25Q191 0 183 -20T162 -55T134 -81T105 -98H52V-93Q92 -67 112 -40T132 32Q132 50 128 68T118 106T109 144T104 184Q104 226 128
252T210 288V291Z" />
<glyph unicode="~" glyph-name="asciitilde" horiz-adv-x="319" d="M45 230Q37 267 52 293T103 320Q120 320 134 315T161 303T184 291T204 285Q218 285 223 294T229 324H262Q270 287 257 261T209 234Q194 234 180 239T153 251T127 263T105 269Q91 269 85 260T79
230H45V230Z" />
<glyph unicode="&#x8e;" glyph-name="Zcaron" horiz-adv-x="552" d="M204 786L284 723L364 786H411L324 683H244L157 786H204ZM64 639H505V565L95 50H453V161H506V0H43V73L451 586H118V479H64V639Z" />
<glyph unicode="&#x9e;" glyph-name="zcaron" horiz-adv-x="453" d="M157 669L235 585L313 669H359L273 546H197L112 669H157ZM52 475H411V416L92 45H360V136H411V0H38V59L356 430H103V351H52V475Z" />
<glyph unicode="&#xa0;" glyph-name="uni00A0" horiz-adv-x="192" />
<glyph unicode="&#xa1;" glyph-name="exclamdown" horiz-adv-x="223" d="M88 333H133L145 -178H77L88 333ZM110 487Q127 487 140 475T154 444Q154 425 141 412T110 399Q92 399 79 412T66 444Q66 462 79 474T110 487Z" />
<glyph unicode="&#xa2;" glyph-name="cent" horiz-adv-x="453" d="M354 426Q330 437 299 441L241 37Q246 36 251 36T261 36Q313 36 350 51T412 86V47Q398 28 360 10T259 -9Q253 -9 247 -9T235 -8L221 -107H178L193 0Q118 19 76 81T33 241V244Q33 310 53 356T105
431T177 473T256 486H261L274 574H318L305 483Q345 478 368 466T404 439V349H354V426ZM92 236Q92 158 120 110T199 45L255 443Q223 442 194 432T142 399T106 344T92 265V236Z" />
<glyph unicode="&#xa3;" glyph-name="sterling" horiz-adv-x="502" d="M47 341H103V456Q103 502 117 538T156 600T217 638T294 651Q325 651 349 646T391 632T421 613T441 592V497H388V580Q370 589 349 594T298 600Q235 600 198 565T160 450V341H341V294H160V230Q160
193 153 165T133 116T102 79T61 51V50H396V135H449V0H27V76Q66 99 84 132T103 226V294H47V341Z" />
<glyph unicode="&#xa5;" glyph-name="yen" horiz-adv-x="551" d="M475 265H300V202H475V160H300V45H389V0H152V45H241V160H74V202H241V265H74V308H227L72 593H25V639H223V593H134L272 334L410 593H320V639H515V593H468L312 308H475V265Z" />
<glyph unicode="&#xa6;" glyph-name="brokenbar" horiz-adv-x="224" d="M133 271V-98H80V271H133ZM133 325H80V673H133V325Z" />
<glyph unicode="&#xa7;" glyph-name="section" horiz-adv-x="497" d="M382 523H332V590Q315 596 296 599T252 603Q203 603 174 582T145 517Q145 494 154 477T187 449Q205 440 229 434T278 421T330 408T381 391Q412 377 433 351T454 286Q454 235 423 206T343 166Q369
151 384 127T400 61Q400 28 388 2T355 -41T303 -68T238 -77Q175 -77 137 -60T76 -23V59H127V-11Q147 -21 173 -26T234 -32Q343 -32 343 58Q343 82 334 99T301 128Q285 136 261 142T210 156T157 171T109 189Q75 204 54 230T33 295Q33 345 65 372T152 407Q123 421
107 448T91 515Q91 580 134 614T248 649Q299 649 331 637T382 607V523ZM307 189Q323 189 339 194T369 211T390 237T399 272Q399 300 387 317T347 346Q328 354 304 361T257 373T213 382T181 386Q162 386 145 381T115 365T93 340T85 307Q85 282 97 266T135 237Q151
229 175 221T225 205T273 194T307 189Z" />
<glyph unicode="&#xa8;" glyph-name="dieresis" horiz-adv-x="412" d="M125 563Q108 563 97 574T85 602Q85 619 96 630T125 642Q142 642 153 631T165 602Q165 585 154 574T125 563ZM277 563Q260 563 249 574T237 602Q237 619 248 630T277 642Q294 642 305 631T317
602Q317 585 306 574T277 563Z" />
<glyph unicode="&#xa9;" glyph-name="copyright" horiz-adv-x="756" d="M373 -14Q302 -14 241 12T134 83T64 188T38 317Q38 386 63 446T134 552T240 624T373 651Q445 651 506 625T612 553T682 447T708 317Q708 249 683 189T613 83T507 12T373 -14ZM373 22Q436
22 489 45T582 109T643 203T666 317Q666 377 644 431T582 526T490 591T373 615Q311 615 258 591T165 527T103 432T80 317Q80 257 102 204T164 110T257 46T373 22ZM381 131Q303 131 257 182T211 326V328Q211 413 253 463T377 514Q422 514 447 502T486 475V408H438V461Q414
470 383 470Q321 470 294 435T266 339V320Q266 248 295 210T386 172Q401 172 415 174T444 182V241H492V173Q479 159 451 145T381 131Z" />
<glyph unicode="&#xaa;" glyph-name="ordfeminine" horiz-adv-x="367" d="M50 606Q63 620 91 633T165 647Q225 647 256 617T287 532V380Q287 360 293 351T317 342Q322 342 325 342T333 344V314Q331 313 323 310T300 307Q273 307 257 322T238 372V381Q229 343 201
323T130 302Q85 302 57 324T29 389V390Q29 414 39 430T67 457T108 474T157 487Q204 497 221 509T238 546V547Q238 579 218 594T159 610Q139 610 123 606T93 597V544H50V606ZM145 336Q162 336 179 342T209 361T230 394T238 442V494Q227 483 209 475T163 459Q116
445 98 433T80 394V392Q80 366 96 351T145 336Z" />
<glyph unicode="&#xab;" glyph-name="guillemotleft" horiz-adv-x="327" d="M174 401L79 245L174 91H117L23 245L117 401H174ZM197 245L292 91H235L141 245L235 401H292L197 245Z" />
<glyph unicode="&#xae;" glyph-name="registered" horiz-adv-x="375" d="M183 348Q151 348 123 359T75 391T43 439T31 497Q31 527 42 554T74 602T123 635T183 647Q216 647 243 635T291 603T322 555T334 497Q334 466 323 439T291 392T244 360T183 348ZM183 373Q210
373 232 382T271 409T296 448T305 497Q305 523 296 545T271 585T233 612T183 622Q156 622 134 612T95 585T69 546T60 497Q60 471 69 449T94 409T133 383T183 373ZM160 489V423H129V578H187Q243 578 243 532Q243 512 231 501T196 488L252 423H216L160 489ZM183 505Q200
505 206 511T212 531Q212 542 207 548T184 555H160V505H183Z" />
<glyph unicode="&#xaf;" glyph-name="macron" horiz-adv-x="412" d="M93 613H309V568H93V613Z" />
<glyph unicode="&#xb0;" glyph-name="degree" horiz-adv-x="322" d="M32 525Q32 551 41 573T66 613T105 639T155 649Q182 649 205 640T245 613T271 574T281 525Q281 499 272 477T245 438T205 412T155 402Q128 402 106 411T67 438T41 477T32 525ZM80 525Q80 489
101 467T155 444Q189 444 210 466T232 525Q232 561 211 584T155 608Q123 608 102 585T80 525Z" />
<glyph unicode="&#xb1;" glyph-name="plusminus" horiz-adv-x="454" d="M248 347H399V297H248V142H196V297H45V347H196V502H248V347ZM45 49H399V0H45V49Z" />
<glyph unicode="&#xb4;" glyph-name="acute" horiz-adv-x="412" d="M242 666H325L213 543H168L242 666Z" />
<glyph unicode="&#xb6;" glyph-name="paragraph" horiz-adv-x="490" d="M226 -98V301H208Q125 301 79 347T32 474Q32 551 77 595T201 639H451V591H385V-98H331V591H280V-98H226Z" />
<glyph unicode="&#xb7;" glyph-name="periodcentered" horiz-adv-x="193" d="M97 244Q79 244 66 256T52 287Q52 306 65 318T97 331Q115 331 128 319T141 287Q141 269 128 257T97 244Z" />
<glyph unicode="&#xb8;" glyph-name="cedilla" horiz-adv-x="412" d="M192 0V-41Q233 -43 252 -61T271 -108Q271 -140 249 -156T190 -173Q164 -173 148 -166T124 -151V-123Q133 -128 146 -132T178 -136Q220 -136 220 -106Q220 -89 206 -80T152 -68V0H192Z" />
<glyph unicode="&#xba;" glyph-name="ordmasculine" horiz-adv-x="392" d="M191 338Q239 338 270 369T301 473V494Q301 549 272 580T191 611Q141 611 111 580T81 494V473Q81 401 112 370T191 338ZM191 303Q158 303 129 314T77 347T43 402T30 479V480Q30 557 74
602T191 647Q227 647 257 636T308 602T341 550T353 482V480Q353 436 340 403T305 347T254 314T191 303Z" />
<glyph unicode="&#xbb;" glyph-name="guillemotright" horiz-adv-x="327" d="M143 91L238 246L143 401H200L294 246L200 91H143ZM120 246L25 401H82L175 246L82 91H25L120 246Z" />
<glyph unicode="&#xbc;" glyph-name="onequarter" horiz-adv-x="657" d="M131 0H83L555 639H603L131 0ZM576 372V143H626V105H576V36H626V0H476V36H528V105H358V156L506 372H576ZM393 143H528V338L393 143ZM39 303H109V595L32 510H31V563L100 639H159V303H221V267H39V303Z"
/>
<glyph unicode="&#xbd;" glyph-name="onehalf" horiz-adv-x="705" d="M131 0H83L555 639H603L131 0ZM431 56Q519 115 567 164T615 265Q615 305 593 321T539 337Q507 337 482 326T438 301V337Q453 354 478 367T545 380Q595 380 629 354T664 266Q664 203 609 149T463
40V39H628V85H670V0H431V56ZM39 303H109V595L32 510H31V563L100 639H159V303H221V267H39V303Z" />
<glyph unicode="&#xbe;" glyph-name="threequarters" horiz-adv-x="695" d="M160 0H112L584 639H632L160 0ZM614 372V143H664V105H614V36H664V0H514V36H566V105H396V156L544 372H614ZM431 143H566V338L431 143ZM143 647Q194 647 227 621T260 550Q260 512 239 489T178
461V459Q223 455 248 431T273 363Q273 316 239 289T144 262Q96 262 69 275T27 303V340Q47 323 72 312T139 301Q181 301 202 320T223 373Q223 406 202 423T136 441H90V478H135Q174 478 192 495T211 542Q211 604 136 604Q102 604 80 596T39 573V608Q53 622 78 634T143
647Z" />
<glyph unicode="&#xbf;" glyph-name="questiondown" horiz-adv-x="398" d="M98 -24Q98 -81 128 -108T215 -135Q240 -135 263 -130T306 -117V-32H358V-128Q335 -152 298 -167T207 -183Q173 -183 142 -174T88 -144T52 -94T38 -24Q38 15 51 44T84 98T126 143T169
186T202 234T215 293V333H263V287Q263 250 251 221T221 168T181 122T141 79T110 32T98 -24ZM192 444Q192 462 205 474T236 487Q253 487 266 475T280 444Q280 425 267 412T236 399Q218 399 205 412T192 444Z" />
<glyph unicode="&#xc0;" glyph-name="Agrave" horiz-adv-x="654" d="M27 45H78L279 639H375L576 45H627V0H418V45H514L459 210H191L136 45H231V0H27V45ZM208 262H442L325 613L208 262ZM214 788H300L358 687H313L214 788Z" />
<glyph unicode="&#xc1;" glyph-name="Aacute" horiz-adv-x="654" d="M27 45H78L279 639H375L576 45H627V0H418V45H514L459 210H191L136 45H231V0H27V45ZM208 262H442L325 613L208 262ZM355 788H441L342 687H297L355 788Z" />
<glyph unicode="&#xc2;" glyph-name="Acircumflex" horiz-adv-x="654" d="M27 45H78L279 639H375L576 45H627V0H418V45H514L459 210H191L136 45H231V0H27V45ZM208 262H442L325 613L208 262ZM406 683L326 746L246 683H199L286 786H366L453 683H406Z" />
<glyph unicode="&#xc3;" glyph-name="Atilde" horiz-adv-x="654" d="M27 45H78L279 639H375L576 45H627V0H418V45H514L459 210H191L136 45H231V0H27V45ZM208 262H442L325 613L208 262ZM211 687Q203 724 218 750T269 776Q287 776 303 771T333 760T361 749T385 744Q399
744 404 753T410 782H442Q450 745 437 719T389 693Q373 693 357 698T326 709T296 720T270 725Q243 725 244 687H211V687Z" />
<glyph unicode="&#xc4;" glyph-name="Adieresis" horiz-adv-x="654" d="M27 45H78L279 639H375L576 45H627V0H418V45H514L459 210H191L136 45H231V0H27V45ZM208 262H442L325 613L208 262ZM245 681Q228 681 217 692T205 721Q205 738 216 749T245 761Q262 761 273
750T285 721Q285 704 274 693T245 681ZM409 681Q392 681 380 692T368 721Q368 738 380 749T409 761Q426 761 437 750T449 721Q449 704 438 693T409 681Z" />
<glyph unicode="&#xc5;" glyph-name="Aring" horiz-adv-x="654" d="M27 45H78L279 639H375L576 45H627V0H418V45H514L459 210H191L136 45H231V0H27V45ZM208 262H442L325 613L208 262ZM327 698Q346 698 359 711T373 747Q373 769 360 782T327 796Q308 796 295 783T282
747Q282 724 295 711T327 698ZM327 666Q292 666 269 689T245 747Q245 781 268 805T327 829Q362 829 385 805T409 747Q409 713 386 690T327 666Z" />
<glyph unicode="&#xc6;" glyph-name="AE" horiz-adv-x="867" d="M753 586H488V348H740V297H488V50H763V161H816V0H361V45H428V210H199L127 45H224V0H22V45H69L309 591H235V639H806V479H753V586ZM222 262H428V586H364L222 262Z" />
<glyph unicode="&#xc7;" glyph-name="Ccedilla" horiz-adv-x="589" d="M471 567Q443 581 409 590T330 599Q269 599 226 581T156 529T115 448T102 343V319Q102 253 116 201T158 113T231 57T334 37Q379 37 415 47T481 74V167H534V59Q523 48 505 36T461 12T404 -6T333
-13Q319 -13 306 -12V-41Q347 -43 366 -61T385 -108Q385 -140 363 -156T305 -173Q279 -173 263 -166T238 -151V-123Q247 -128 260 -132T292 -136Q335 -136 335 -106Q335 -89 320 -80T266 -68V-6Q236 -1 210 10Q156 34 119 77T61 184T41 326V328Q41 400 58 459T112
561T201 627T327 651Q408 651 455 629T524 582V479H471V567Z" />
<glyph unicode="&#xc8;" glyph-name="Egrave" horiz-adv-x="555" d="M177 788H263L321 687H276L177 788ZM446 586H162V348H433V297H162V50H456V161H509V0H35V45H103V591H35V639H499V479H446V586Z" />
<glyph unicode="&#xc9;" glyph-name="Eacute" horiz-adv-x="555" d="M315 788H401L302 687H257L315 788ZM446 586H162V348H433V297H162V50H456V161H509V0H35V45H103V591H35V639H499V479H446V586Z" />
<glyph unicode="&#xca;" glyph-name="Ecircumflex" horiz-adv-x="555" d="M370 683L290 746L210 683H163L250 786H330L417 683H370ZM446 586H162V348H433V297H162V50H456V161H509V0H35V45H103V591H35V639H499V479H446V586Z" />
<glyph unicode="&#xcb;" glyph-name="Edieresis" horiz-adv-x="555" d="M446 586H162V348H433V297H162V50H456V161H509V0H35V45H103V591H35V639H499V479H446V586ZM208 681Q191 681 180 692T168 721Q168 738 179 749T208 761Q225 761 236 750T248 721Q248 704 237
693T208 681ZM372 681Q355 681 343 692T331 721Q331 738 343 749T372 761Q389 761 400 750T412 721Q412 704 401 693T372 681Z" />
<glyph unicode="&#xcc;" glyph-name="Igrave" horiz-adv-x="277" d="M35 639H242V591H169V45H242V0H35V45H109V591H35V639ZM283 788H369L427 687H382L283 788Z" />
<glyph unicode="&#xcd;" glyph-name="Iacute" horiz-adv-x="277" d="M35 639H242V591H169V45H242V0H35V45H109V591H35V639ZM424 788H510L411 687H366L424 788Z" />
<glyph unicode="&#xce;" glyph-name="Icircumflex" horiz-adv-x="277" d="M35 639H242V591H169V45H242V0H35V45H109V591H35V639ZM475 683L395 746L315 683H268L355 786H435L522 683H475Z" />
<glyph unicode="&#xcf;" glyph-name="Idieresis" horiz-adv-x="277" d="M35 639H242V591H169V45H242V0H35V45H109V591H35V639ZM314 681Q297 681 286 692T274 721Q274 738 285 749T314 761Q331 761 342 750T354 721Q354 704 343 693T314 681ZM478 681Q461 681 449
692T437 721Q437 738 449 749T478 761Q495 761 506 750T518 721Q518 704 507 693T478 681Z" />
<glyph unicode="&#xd0;" glyph-name="Eth" horiz-adv-x="639" d="M27 347H98V591H30V639H320Q392 639 443 618T526 558T573 463T588 334V332Q588 174 518 87T296 0H30V45H98V298H27V347ZM285 49Q352 49 398 67T473 120T514 206T527 324V350Q527 405 518 448T484
522T418 569T311 586H157V347H351V298H157V49H285Z" />
<glyph unicode="&#xd1;" glyph-name="Ntilde" horiz-adv-x="683" d="M232 687Q224 724 239 750T290 776Q308 776 324 771T354 760T382 749T406 744Q420 744 425 753T431 782H463Q471 745 458 719T410 693Q394 693 378 698T347 709T317 720T291 725Q264 725 265
687H232V687ZM436 639H650V591H582V0H489L161 591H158V45H250V0H35V45H103V591H35V639H200L526 48V591H436V639Z" />
<glyph unicode="&#xd2;" glyph-name="Ograve" horiz-adv-x="661" d="M218 788H304L362 687H317L218 788ZM330 37Q440 37 497 107T554 317V350Q554 405 541 451T501 530T432 581T330 599Q272 599 230 581T161 530T120 451T107 350V317Q107 177 164 107T330 37ZM330
-13Q268 -13 216 8T126 72T67 178T46 326V328Q46 403 64 463T118 564T207 628T330 651Q400 651 453 629T543 565T597 463T616 328V326Q616 242 595 179T537 73T446 9T330 -13Z" />
<glyph unicode="&#xd3;" glyph-name="Oacute" horiz-adv-x="661" d="M359 788H445L346 687H301L359 788ZM330 37Q440 37 497 107T554 317V350Q554 405 541 451T501 530T432 581T330 599Q272 599 230 581T161 530T120 451T107 350V317Q107 177 164 107T330 37ZM330
-13Q268 -13 216 8T126 72T67 178T46 326V328Q46 403 64 463T118 564T207 628T330 651Q400 651 453 629T543 565T597 463T616 328V326Q616 242 595 179T537 73T446 9T330 -13Z" />
<glyph unicode="&#xd4;" glyph-name="Ocircumflex" horiz-adv-x="661" d="M410 683L330 746L250 683H203L290 786H370L457 683H410ZM330 37Q440 37 497 107T554 317V350Q554 405 541 451T501 530T432 581T330 599Q272 599 230 581T161 530T120 451T107 350V317Q107
177 164 107T330 37ZM330 -13Q268 -13 216 8T126 72T67 178T46 326V328Q46 403 64 463T118 564T207 628T330 651Q400 651 453 629T543 565T597 463T616 328V326Q616 242 595 179T537 73T446 9T330 -13Z" />
<glyph unicode="&#xd5;" glyph-name="Otilde" horiz-adv-x="661" d="M215 687Q207 724 222 750T273 776Q291 776 307 771T337 760T365 749T389 744Q403 744 408 753T414 782H446Q454 745 441 719T393 693Q377 693 361 698T330 709T300 720T274 725Q247 725 248
687H215V687ZM330 37Q440 37 497 107T554 317V350Q554 405 541 451T501 530T432 581T330 599Q272 599 230 581T161 530T120 451T107 350V317Q107 177 164 107T330 37ZM330 -13Q268 -13 216 8T126 72T67 178T46 326V328Q46 403 64 463T118 564T207 628T330 651Q400
651 453 629T543 565T597 463T616 328V326Q616 242 595 179T537 73T446 9T330 -13Z" />
<glyph unicode="&#xd6;" glyph-name="Odieresis" horiz-adv-x="661" d="M249 681Q232 681 221 692T209 721Q209 738 220 749T249 761Q266 761 277 750T289 721Q289 704 278 693T249 681ZM413 681Q396 681 384 692T372 721Q372 738 384 749T413 761Q430 761 441
750T453 721Q453 704 442 693T413 681ZM330 37Q440 37 497 107T554 317V350Q554 405 541 451T501 530T432 581T330 599Q272 599 230 581T161 530T120 451T107 350V317Q107 177 164 107T330 37ZM330 -13Q268 -13 216 8T126 72T67 178T46 326V328Q46 403 64 463T118
564T207 628T330 651Q400 651 453 629T543 565T597 463T616 328V326Q616 242 595 179T537 73T446 9T330 -13Z" />
<glyph unicode="&#xd7;" glyph-name="multiply" horiz-adv-x="445" d="M183 308L50 443L85 477L217 343L350 477L385 443L252 308L385 174L350 139L217 273L85 139L50 174L183 308Z" />
<glyph unicode="&#xd8;" glyph-name="Oslash" horiz-adv-x="661" d="M325 -13Q216 -13 143 49L91 -19H33L111 82Q77 125 59 185T41 326V328Q41 403 59 463T113 564T202 628T325 651Q436 651 507 594L555 656H612L539 562Q611 478 611 328V326Q611 242 591 179T533
73T442 9T325 -13ZM325 37Q436 37 493 107T550 317V350Q550 403 540 446T507 521L172 87Q225 37 325 37ZM102 317Q102 191 143 124L476 554Q422 599 325 599Q267 599 225 581T156 530T115 451T102 350V317Z" />
<glyph unicode="&#xd9;" glyph-name="Ugrave" horiz-adv-x="676" d="M226 788H312L370 687H325L226 788ZM436 639H643V591H581V235Q581 161 562 113T509 37T431 -2T338 -13Q290 -13 246 -2T168 37T114 114T94 236V591H33V639H240V591H154V223Q154 168 167 132T205
75T263 45T338 36Q378 36 412 44T470 74T508 131T522 222V591H436V639Z" />
<glyph unicode="&#xda;" glyph-name="Uacute" horiz-adv-x="676" d="M367 788H453L354 687H309L367 788ZM436 639H643V591H581V235Q581 161 562 113T509 37T431 -2T338 -13Q290 -13 246 -2T168 37T114 114T94 236V591H33V639H240V591H154V223Q154 168 167 132T205
75T263 45T338 36Q378 36 412 44T470 74T508 131T522 222V591H436V639Z" />
<glyph unicode="&#xdb;" glyph-name="Ucircumflex" horiz-adv-x="676" d="M418 683L338 746L258 683H211L298 786H378L465 683H418ZM436 639H643V591H581V235Q581 161 562 113T509 37T431 -2T338 -13Q290 -13 246 -2T168 37T114 114T94 236V591H33V639H240V591H154V223Q154
168 167 132T205 75T263 45T338 36Q378 36 412 44T470 74T508 131T522 222V591H436V639Z" />
<glyph unicode="&#xdc;" glyph-name="Udieresis" horiz-adv-x="676" d="M436 639H643V591H581V235Q581 161 562 113T509 37T431 -2T338 -13Q290 -13 246 -2T168 37T114 114T94 236V591H33V639H240V591H154V223Q154 168 167 132T205 75T263 45T338 36Q378 36 412
44T470 74T508 131T522 222V591H436V639ZM257 681Q240 681 229 692T217 721Q217 738 228 749T257 761Q274 761 285 750T297 721Q297 704 286 693T257 681ZM421 681Q404 681 392 692T380 721Q380 738 392 749T421 761Q438 761 449 750T461 721Q461 704 450 693T421
681Z" />
<glyph unicode="&#xdd;" glyph-name="Yacute" horiz-adv-x="591" d="M25 639H226V591H138L298 294L458 591H367V639H566V591H516L325 243V45H414V0H177V45H266V243L75 591H25V639ZM330 788H416L317 687H272L330 788Z" />
<glyph unicode="&#xde;" glyph-name="Thorn" horiz-adv-x="547" d="M31 639H253V591H158V496H322Q413 496 459 451T506 324Q506 237 451 195T300 153H158V45H253V0H30V45H99V591H31V639ZM294 203Q375 203 411 233T447 324Q447 385 416 414T313 443H158V203H294Z" />
<glyph unicode="&#xdf;" glyph-name="germandbls" horiz-adv-x="551" d="M24 475H95V498Q95 544 109 578T148 634T209 668T286 679Q314 679 342 673T394 651T431 611T446 546Q446 510 422 480T370 425T317 377T293 333Q293 317 300 307T327 289Q353 278 387 269T445
249Q478 231 497 203T517 128Q517 63 476 27T362 -9Q314 -9 282 4T228 34V123H280V49Q312 36 357 36Q403 36 432 59T462 127Q462 179 421 201Q396 215 366 222T303 244Q271 258 256 277T240 327Q240 359 263 385T315 437T366 490T390 551Q390 593 361 614T284 636Q218
636 185 601T152 497V0H26V45H95V431H24V475Z" />
<glyph unicode="&#xe0;" glyph-name="agrave" horiz-adv-x="485" d="M65 427Q83 447 122 466T226 486Q307 486 350 446T394 328V96Q394 64 403 51T437 38Q445 38 450 38T461 40V6Q459 4 448 1T419 -3Q383 -3 361 17T337 89V106Q324 51 285 21T181 -10Q116 -10
76 22T36 115V116Q36 150 50 173T88 211T146 236T216 254Q251 262 274 270T311 288T331 311T337 343V345Q337 395 306 418T220 442Q188 442 163 435T117 418V341H65V427ZM196 31Q222 31 247 40T293 69T325 120T337 195V271Q322 254 295 242T220 217Q185 206 161
198T123 179T102 155T95 121V117Q95 77 120 54T196 31ZM105 666H188L262 543H217L105 666Z" />
<glyph unicode="&#xe1;" glyph-name="aacute" horiz-adv-x="485" d="M65 427Q83 447 122 466T226 486Q307 486 350 446T394 328V96Q394 64 403 51T437 38Q445 38 450 38T461 40V6Q459 4 448 1T419 -3Q383 -3 361 17T337 89V106Q324 51 285 21T181 -10Q116 -10
76 22T36 115V116Q36 150 50 173T88 211T146 236T216 254Q251 262 274 270T311 288T331 311T337 343V345Q337 395 306 418T220 442Q188 442 163 435T117 418V341H65V427ZM196 31Q222 31 247 40T293 69T325 120T337 195V271Q322 254 295 242T220 217Q185 206 161
198T123 179T102 155T95 121V117Q95 77 120 54T196 31ZM267 666H350L238 543H193L267 666Z" />
<glyph unicode="&#xe2;" glyph-name="acircumflex" horiz-adv-x="485" d="M65 427Q83 447 122 466T226 486Q307 486 350 446T394 328V96Q394 64 403 51T437 38Q445 38 450 38T461 40V6Q459 4 448 1T419 -3Q383 -3 361 17T337 89V106Q324 51 285 21T181 -10Q116
-10 76 22T36 115V116Q36 150 50 173T88 211T146 236T216 254Q251 262 274 270T311 288T331 311T337 343V345Q337 395 306 418T220 442Q188 442 163 435T117 418V341H65V427ZM196 31Q222 31 247 40T293 69T325 120T337 195V271Q322 254 295 242T220 217Q185 206
161 198T123 179T102 155T95 121V117Q95 77 120 54T196 31ZM190 666H266L352 543H306L228 627L150 543H105L190 666Z" />
<glyph unicode="&#xe3;" glyph-name="atilde" horiz-adv-x="485" d="M65 427Q83 447 122 466T226 486Q307 486 350 446T394 328V96Q394 64 403 51T437 38Q445 38 450 38T461 40V6Q459 4 448 1T419 -3Q383 -3 361 17T337 89V106Q324 51 285 21T181 -10Q116 -10
76 22T36 115V116Q36 150 50 173T88 211T146 236T216 254Q251 262 274 270T311 288T331 311T337 343V345Q337 395 306 418T220 442Q188 442 163 435T117 418V341H65V427ZM196 31Q222 31 247 40T293 69T325 120T337 195V271Q322 254 295 242T220 217Q185 206 161
198T123 179T102 155T95 121V117Q95 77 120 54T196 31ZM114 558Q106 593 119 619T169 646Q185 646 200 641T228 631T253 620T274 615Q288 615 293 623T298 652H330Q338 617 326 591T279 564Q265 564 250 569T221 580T194 591T170 596Q145 596 146 558H114V558Z"
/>
<glyph unicode="&#xe4;" glyph-name="adieresis" horiz-adv-x="485" d="M65 427Q83 447 122 466T226 486Q307 486 350 446T394 328V96Q394 64 403 51T437 38Q445 38 450 38T461 40V6Q459 4 448 1T419 -3Q383 -3 361 17T337 89V106Q324 51 285 21T181 -10Q116 -10
76 22T36 115V116Q36 150 50 173T88 211T146 236T216 254Q251 262 274 270T311 288T331 311T337 343V345Q337 395 306 418T220 442Q188 442 163 435T117 418V341H65V427ZM196 31Q222 31 247 40T293 69T325 120T337 195V271Q322 254 295 242T220 217Q185 206 161
198T123 179T102 155T95 121V117Q95 77 120 54T196 31ZM153 563Q136 563 125 574T113 602Q113 619 124 630T153 642Q170 642 181 631T193 602Q193 585 182 574T153 563ZM305 563Q288 563 277 574T265 602Q265 619 276 630T305 642Q322 642 333 631T345 602Q345
585 334 574T305 563Z" />
<glyph unicode="&#xe5;" glyph-name="aring" horiz-adv-x="485" d="M65 427Q83 447 122 466T226 486Q307 486 350 446T394 328V96Q394 64 403 51T437 38Q445 38 450 38T461 40V6Q459 4 448 1T419 -3Q383 -3 361 17T337 89V106Q324 51 285 21T181 -10Q116 -10 76
22T36 115V116Q36 150 50 173T88 211T146 236T216 254Q251 262 274 270T311 288T331 311T337 343V345Q337 395 306 418T220 442Q188 442 163 435T117 418V341H65V427ZM196 31Q222 31 247 40T293 69T325 120T337 195V271Q322 254 295 242T220 217Q185 206 161 198T123
179T102 155T95 121V117Q95 77 120 54T196 31ZM228 576Q247 576 260 589T274 625Q274 647 261 661T228 675Q209 675 196 661T183 625Q183 602 196 589T228 576ZM228 545Q193 545 170 568T146 625Q146 659 169 683T228 707Q263 707 286 683T310 625Q310 591 287
568T228 545Z" />
<glyph unicode="&#xe6;" glyph-name="ae" horiz-adv-x="775" d="M179 -10Q113 -10 72 22T31 115V116Q31 150 45 173T83 211T141 236T211 254Q246 262 269 270T306 288T326 311T332 343V345Q332 395 301 418T216 442Q184 442 158 436T112 418V341H60V427Q80 448
119 467T222 486Q286 486 323 460T373 382Q398 430 442 458T546 486Q594 486 628 471T685 429T719 366T730 288Q730 273 729 257T724 227H388Q390 36 568 36Q619 36 658 49T720 83V43Q706 26 666 9T563 -9Q481 -9 427 27T348 132Q336 60 292 25T179 -10ZM546 443Q477
443 434 395T388 264H677V271Q677 360 643 401T546 443ZM189 31Q216 31 242 40T288 69T320 120T332 195V271Q317 254 290 242T215 217Q180 206 156 198T118 179T97 155T90 121V117Q90 78 115 55T189 31Z" />
<glyph unicode="&#xe7;" glyph-name="ccedilla" horiz-adv-x="465" d="M351 427Q332 435 310 439T258 443Q226 443 196 433T142 402T105 346T91 265V236Q91 134 135 85T260 36Q312 36 349 52T411 89V45Q404 37 391 28T360 10T316 -3T259 -9Q245 -9 232 -8V-41Q273
-43 292 -61T311 -108Q311 -140 289 -156T230 -173Q204 -173 188 -166T164 -151V-123Q173 -128 186 -132T218 -136Q261 -136 261 -106Q261 -89 246 -80T192 -68V-1Q178 2 166 7Q124 24 95 56T49 134T32 241V244Q32 311 52 357T104 432T177 473T256 486Q319 486
353 471T403 440V346H351V427Z" />
<glyph unicode="&#xe8;" glyph-name="egrave" horiz-adv-x="480" d="M272 -9Q162 -9 100 55T37 240V241Q37 295 53 340T98 418T166 468T254 486Q302 486 337 471T395 429T429 366T440 288Q440 273 439 257T436 227H97Q98 131 142 84T277 36Q328 36 367 49T431
83V43Q417 26 376 9T272 -9ZM254 443Q185 443 142 395T97 264H387V271Q387 360 353 401T254 443ZM130 666H213L287 543H242L130 666Z" />
<glyph unicode="&#xe9;" glyph-name="eacute" horiz-adv-x="480" d="M292 666H375L263 543H218L292 666ZM272 -9Q162 -9 100 55T37 240V241Q37 295 53 340T98 418T166 468T254 486Q302 486 337 471T395 429T429 366T440 288Q440 273 439 257T436 227H97Q98 131
142 84T277 36Q328 36 367 49T431 83V43Q417 26 376 9T272 -9ZM254 443Q185 443 142 395T97 264H387V271Q387 360 353 401T254 443Z" />
<glyph unicode="&#xea;" glyph-name="ecircumflex" horiz-adv-x="480" d="M213 666H289L375 543H329L251 627L173 543H128L213 666ZM272 -9Q162 -9 100 55T37 240V241Q37 295 53 340T98 418T166 468T254 486Q302 486 337 471T395 429T429 366T440 288Q440 273
439 257T436 227H97Q98 131 142 84T277 36Q328 36 367 49T431 83V43Q417 26 376 9T272 -9ZM254 443Q185 443 142 395T97 264H387V271Q387 360 353 401T254 443Z" />
<glyph unicode="&#xeb;" glyph-name="edieresis" horiz-adv-x="480" d="M174 563Q157 563 146 574T134 602Q134 619 145 630T174 642Q191 642 202 631T214 602Q214 585 203 574T174 563ZM326 563Q309 563 298 574T286 602Q286 619 297 630T326 642Q343 642 354
631T366 602Q366 585 355 574T326 563ZM272 -9Q162 -9 100 55T37 240V241Q37 295 53 340T98 418T166 468T254 486Q302 486 337 471T395 429T429 366T440 288Q440 273 439 257T436 227H97Q98 131 142 84T277 36Q328 36 367 49T431 83V43Q417 26 376 9T272 -9ZM254
443Q185 443 142 395T97 264H387V271Q387 360 353 401T254 443Z" />
<glyph unicode="&#xec;" glyph-name="igrave" horiz-adv-x="255" d="M31 475H156V45H224V0H31V45H99V424H31V475ZM242 666H325L399 543H354L242 666Z" />
<glyph unicode="&#xed;" glyph-name="iacute" horiz-adv-x="255" d="M407 666H490L378 543H333L407 666ZM31 475H156V45H224V0H31V45H99V424H31V475Z" />
<glyph unicode="&#xee;" glyph-name="icircumflex" horiz-adv-x="255" d="M328 666H404L490 543H444L366 627L288 543H243L328 666ZM31 475H156V45H224V0H31V45H99V424H31V475Z" />
<glyph unicode="&#xef;" glyph-name="idieresis" horiz-adv-x="255" d="M39 563Q22 563 11 574T-1 602Q-1 619 10 630T39 642Q56 642 68 631T80 602Q80 585 68 574T39 563ZM172 563Q155 563 144 574T132 602Q132 619 143 630T172 642Q189 642 201 631T213 602Q213
585 201 574T172 563ZM26 475H151V45H219V0H26V45H94V424H26V475Z" />
<glyph unicode="&#xf0;" glyph-name="eth" horiz-adv-x="531" d="M86 556L213 607Q183 625 152 640T92 668V673H179Q199 665 220 654T265 629L366 670L382 637L302 604Q337 578 370 545T428 470T469 377T484 265V247Q484 184 466 136T418 56T346 7T259 -9Q212
-9 171 7T99 54T50 134T32 245V247Q32 301 48 345T92 419T158 466T242 483Q293 483 332 465T401 401L402 402Q378 461 339 505T251 583L103 523L86 556ZM259 33Q294 33 324 44T377 81T413 144T426 237V265Q426 307 414 340T379 396T325 431T258 443Q183 443 137
396T91 265V237Q91 183 104 145T139 81T192 45T259 33Z" />
<glyph unicode="&#xf1;" glyph-name="ntilde" horiz-adv-x="573" d="M352 45H426V338Q426 388 401 413T318 438Q283 438 254 426T202 392T167 338T153 266V45H228V0H31V45H95V424H31V475H137Q141 457 145 437Q148 420 150 399T153 355V341Q159 377 176 404T218
450T272 477T332 486Q406 486 444 446T483 328V45H542V0H352V45ZM176 558Q168 593 181 619T231 646Q247 646 262 641T290 631T315 620T336 615Q350 615 355 623T360 652H392Q400 617 388 591T341 564Q327 564 312 569T283 580T256 591T232 596Q207 596 208 558H176V558Z"
/>
<glyph unicode="&#xf2;" glyph-name="ograve" horiz-adv-x="527" d="M264 33Q300 33 330 45T383 82T418 145T431 237V265Q431 306 419 339T385 395T332 430T264 443Q188 443 142 395T96 265V237Q96 184 109 146T144 82T197 45T264 33ZM264 -9Q216 -9 175 7T103
54T55 134T37 245V247Q37 301 53 345T98 421T170 469T264 486Q315 486 357 469T428 422T473 347T489 249V247Q489 184 472 136T424 56T352 7T264 -9ZM139 666H222L296 543H251L139 666Z" />
<glyph unicode="&#xf3;" glyph-name="oacute" horiz-adv-x="527" d="M304 666H387L275 543H230L304 666ZM264 33Q300 33 330 45T383 82T418 145T431 237V265Q431 306 419 339T385 395T332 430T264 443Q188 443 142 395T96 265V237Q96 184 109 146T144 82T197 45T264
33ZM264 -9Q216 -9 175 7T103 54T55 134T37 245V247Q37 301 53 345T98 421T170 469T264 486Q315 486 357 469T428 422T473 347T489 249V247Q489 184 472 136T424 56T352 7T264 -9Z" />
<glyph unicode="&#xf4;" glyph-name="ocircumflex" horiz-adv-x="527" d="M225 666H301L387 543H341L263 627L185 543H140L225 666ZM264 33Q300 33 330 45T383 82T418 145T431 237V265Q431 306 419 339T385 395T332 430T264 443Q188 443 142 395T96 265V237Q96
184 109 146T144 82T197 45T264 33ZM264 -9Q216 -9 175 7T103 54T55 134T37 245V247Q37 301 53 345T98 421T170 469T264 486Q315 486 357 469T428 422T473 347T489 249V247Q489 184 472 136T424 56T352 7T264 -9Z" />
<glyph unicode="&#xf5;" glyph-name="otilde" horiz-adv-x="527" d="M264 33Q300 33 330 45T383 82T418 145T431 237V265Q431 306 419 339T385 395T332 430T264 443Q188 443 142 395T96 265V237Q96 184 109 146T144 82T197 45T264 33ZM264 -9Q216 -9 175 7T103
54T55 134T37 245V247Q37 301 53 345T98 421T170 469T264 486Q315 486 357 469T428 422T473 347T489 249V247Q489 184 472 136T424 56T352 7T264 -9ZM155 558Q147 593 160 619T210 646Q226 646 241 641T269 631T294 620T315 615Q329 615 334 623T339 652H371Q379
617 367 591T320 564Q306 564 291 569T262 580T235 591T211 596Q186 596 187 558H155V558Z" />
<glyph unicode="&#xf6;" glyph-name="odieresis" horiz-adv-x="527" d="M187 563Q170 563 159 574T147 602Q147 619 158 630T187 642Q204 642 215 631T227 602Q227 585 216 574T187 563ZM339 563Q322 563 311 574T299 602Q299 619 310 630T339 642Q356 642 367
631T379 602Q379 585 368 574T339 563ZM264 33Q300 33 330 45T383 82T418 145T431 237V265Q431 306 419 339T385 395T332 430T264 443Q188 443 142 395T96 265V237Q96 184 109 146T144 82T197 45T264 33ZM264 -9Q216 -9 175 7T103 54T55 134T37 245V247Q37 301
53 345T98 421T170 469T264 486Q315 486 357 469T428 422T473 347T489 249V247Q489 184 472 136T424 56T352 7T264 -9Z" />
<glyph unicode="&#xf7;" glyph-name="divide" horiz-adv-x="454" d="M399 339V290H45V339H399ZM223 136Q205 136 192 148T178 179Q178 198 191 210T223 223Q241 223 254 211T267 179Q267 161 254 149T223 136ZM223 406Q205 406 192 418T178 449Q178 468 191 480T223
493Q241 493 254 481T267 449Q267 431 254 419T223 406Z" />
<glyph unicode="&#xf8;" glyph-name="oslash" horiz-adv-x="527" d="M259 -9Q221 -9 187 1T124 31L85 -19H36L95 57Q66 89 49 135T32 245V247Q32 301 48 345T93 421T165 469T259 486Q299 486 333 476T394 446L431 493H480L424 420Q453 389 468 346T484 249V247Q484
184 467 136T419 56T347 7T259 -9ZM91 237Q91 189 99 155T124 96L367 410Q323 443 259 443Q183 443 137 395T91 265V237ZM259 33Q295 33 325 45T378 82T413 145T426 237V265Q426 301 418 330T394 381L151 66Q172 49 199 41T259 33Z" />
<glyph unicode="&#xf9;" glyph-name="ugrave" horiz-adv-x="567" d="M430 0Q426 18 422 38Q419 55 417 76T414 120V131Q408 95 392 69T354 25T304 -1T248 -10Q165 -10 128 36T90 169V424H31V475H147V159Q147 99 171 68T257 36Q290 36 318 48T368 83T401 138T414
209V424H345V475H472V45H536V0H430V0ZM150 666H233L307 543H262L150 666Z" />
<glyph unicode="&#xfa;" glyph-name="uacute" horiz-adv-x="567" d="M314 666H397L285 543H240L314 666ZM430 0Q426 18 422 38Q419 55 417 76T414 120V131Q408 95 392 69T354 25T304 -1T248 -10Q165 -10 128 36T90 169V424H31V475H147V159Q147 99 171 68T257 36Q290
36 318 48T368 83T401 138T414 209V424H345V475H472V45H536V0H430V0Z" />
<glyph unicode="&#xfb;" glyph-name="ucircumflex" horiz-adv-x="567" d="M236 666H312L398 543H352L274 627L196 543H151L236 666ZM430 0Q426 18 422 38Q419 55 417 76T414 120V131Q408 95 392 69T354 25T304 -1T248 -10Q165 -10 128 36T90 169V424H31V475H147V159Q147
99 171 68T257 36Q290 36 318 48T368 83T401 138T414 209V424H345V475H472V45H536V0H430V0Z" />
<glyph unicode="&#xfc;" glyph-name="udieresis" horiz-adv-x="567" d="M198 563Q181 563 170 574T158 602Q158 619 169 630T198 642Q215 642 226 631T238 602Q238 585 227 574T198 563ZM350 563Q333 563 322 574T310 602Q310 619 321 630T350 642Q367 642 378
631T390 602Q390 585 379 574T350 563ZM430 0Q426 18 422 38Q419 55 417 76T414 120V131Q408 95 392 69T354 25T304 -1T248 -10Q165 -10 128 36T90 169V424H31V475H147V159Q147 99 171 68T257 36Q290 36 318 48T368 83T401 138T414 209V424H345V475H472V45H536V0H430V0Z"
/>
<glyph unicode="&#xfd;" glyph-name="yacute" horiz-adv-x="539" d="M341 475H515V424H468L303 -21Q277 -92 246 -122T162 -153Q130 -153 109 -146T76 -125V-95Q90 -100 108 -103T150 -107Q187 -107 211 -90T250 -33L262 0H231L69 424H24V475H201V424H129L274
35L413 424H341V475ZM316 666H399L287 543H242L316 666Z" />
<glyph unicode="&#xfe;" glyph-name="thorn" horiz-adv-x="563" d="M315 -9Q245 -9 196 29T131 128V-103H210V-146H9V-103H74V625H7V673H131V343Q138 376 155 402T197 447T253 476T319 486Q364 486 401 470T464 422T504 347T518 247V246Q518 182 503 135T460 55T395
7T315 -9ZM306 35Q376 35 417 84T459 238V266Q459 347 418 393T303 439Q268 439 237 427T183 390T145 332T131 255V244Q131 188 146 148T186 83T242 47T306 35Z" />
<glyph unicode="&#xff;" glyph-name="ydieresis" horiz-adv-x="539" d="M341 475H515V424H468L303 -21Q277 -92 246 -122T162 -153Q130 -153 109 -146T76 -125V-95Q90 -100 108 -103T150 -107Q187 -107 211 -90T250 -33L262 0H231L69 424H24V475H201V424H129L274
35L413 424H341V475ZM196 563Q179 563 168 574T156 602Q156 619 167 630T196 642Q213 642 224 631T236 602Q236 585 225 574T196 563ZM348 563Q331 563 320 574T308 602Q308 619 319 630T348 642Q365 642 376 631T388 602Q388 585 377 574T348 563Z" />
<glyph unicode="&#x100;" glyph-name="Amacron" horiz-adv-x="654" d="M27 45H78L279 639H375L576 45H627V0H418V45H514L459 210H191L136 45H231V0H27V45ZM208 262H442L325 613L208 262ZM216 745H436V699H216V745Z" />
<glyph unicode="&#x101;" glyph-name="amacron" horiz-adv-x="485" d="M65 427Q83 447 122 466T226 486Q307 486 350 446T394 328V96Q394 64 403 51T437 38Q445 38 450 38T461 40V6Q459 4 448 1T419 -3Q383 -3 361 17T337 89V106Q324 51 285 21T181 -10Q116 -10
76 22T36 115V116Q36 150 50 173T88 211T146 236T216 254Q251 262 274 270T311 288T331 311T337 343V345Q337 395 306 418T220 442Q188 442 163 435T117 418V341H65V427ZM196 31Q222 31 247 40T293 69T325 120T337 195V271Q322 254 295 242T220 217Q185 206 161
198T123 179T102 155T95 121V117Q95 77 120 54T196 31ZM121 613H337V568H121V613Z" />
<glyph unicode="&#x102;" glyph-name="Abreve" horiz-adv-x="654" d="M27 45H78L279 639H375L576 45H627V0H418V45H514L459 210H191L136 45H231V0H27V45ZM208 262H442L325 613L208 262ZM426 782Q427 763 422 745T404 711T373 687T325 678Q298 678 279 687T247
711T230 744T226 782H264Q264 760 277 743T325 726Q360 726 374 743T388 782H426Z" />
<glyph unicode="&#x103;" glyph-name="abreve" horiz-adv-x="485" d="M65 427Q83 447 122 466T226 486Q307 486 350 446T394 328V96Q394 64 403 51T437 38Q445 38 450 38T461 40V6Q459 4 448 1T419 -3Q383 -3 361 17T337 89V106Q324 51 285 21T181 -10Q116 -10
76 22T36 115V116Q36 150 50 173T88 211T146 236T216 254Q251 262 274 270T311 288T331 311T337 343V345Q337 395 306 418T220 442Q188 442 163 435T117 418V341H65V427ZM196 31Q222 31 247 40T293 69T325 120T337 195V271Q322 254 295 242T220 217Q185 206 161
198T123 179T102 155T95 121V117Q95 77 120 54T196 31ZM331 660Q332 639 327 618T310 581T277 554T228 544Q199 544 179 554T147 580T130 618T126 660H166Q165 633 179 612T228 591Q263 591 278 612T292 660H331Z" />
<glyph unicode="&#x104;" glyph-name="Aogonek" horiz-adv-x="654" d="M22 45H73L274 639H370L571 45H622V5Q584 -12 567 -35T549 -79Q549 -93 557 -102T585 -112Q596 -112 604 -110T618 -103V-135Q613 -143 601 -148T571 -153Q534 -153 515 -135T495 -85Q495
-54 515 -33T558 0H413V45H509L454 210H186L131 45H226V0H22V45ZM203 262H437L320 613L203 262Z" />
<glyph unicode="&#x105;" glyph-name="aogonek" horiz-adv-x="485" d="M60 427Q78 447 117 466T221 486Q302 486 345 446T389 328V96Q389 64 398 51T432 38Q440 38 445 38T456 40V6Q418 -11 396 -32T374 -79Q374 -94 383 -103T412 -113Q424 -113 432 -111T447
-104V-135Q442 -143 431 -148T401 -153Q364 -153 345 -135T326 -86Q326 -54 349 -32T396 -2Q367 2 350 23T332 89V106Q319 51 280 21T176 -10Q111 -10 71 22T31 115V116Q31 150 45 173T83 211T141 236T211 254Q246 262 269 270T306 288T326 311T332 343V345Q332
395 301 418T215 442Q183 442 158 435T112 418V341H60V427ZM191 31Q217 31 242 40T288 69T320 120T332 195V271Q317 254 290 242T215 217Q180 206 156 198T118 179T97 155T90 121V117Q90 77 115 54T191 31Z" />
<glyph unicode="&#x106;" glyph-name="Cacute" horiz-adv-x="589" d="M476 567Q448 581 414 590T335 599Q274 599 231 581T161 529T120 448T107 343V319Q107 253 121 201T163 113T236 57T339 37Q384 37 420 47T486 74V167H539V59Q528 48 510 36T466 12T409 -6T338
-13Q269 -13 215 10T124 77T66 184T46 326V328Q46 400 63 459T117 561T206 627T332 651Q413 651 460 629T529 582V479H476V567ZM353 788H439L340 687H295L353 788Z" />
<glyph unicode="&#x107;" glyph-name="cacute" horiz-adv-x="465" d="M295 666H378L266 543H221L295 666ZM356 427Q337 435 315 439T263 443Q231 443 201 433T147 402T110 346T96 265V236Q96 134 140 85T265 36Q317 36 354 52T416 89V45Q409 37 396 28T365 10T321
-3T264 -9Q213 -9 171 7T100 56T54 134T37 241V244Q37 311 57 357T109 432T182 473T261 486Q324 486 358 471T408 440V346H356V427Z" />
<glyph unicode="&#x108;" glyph-name="Ccircumflex" horiz-adv-x="589" d="M405 683L325 746L245 683H198L285 786H365L452 683H405ZM476 567Q448 581 414 590T335 599Q274 599 231 581T161 529T120 448T107 343V319Q107 253 121 201T163 113T236 57T339 37Q384
37 420 47T486 74V167H539V59Q528 48 510 36T466 12T409 -6T338 -13Q269 -13 215 10T124 77T66 184T46 326V328Q46 400 63 459T117 561T206 627T332 651Q413 651 460 629T529 582V479H476V567Z" />
<glyph unicode="&#x109;" glyph-name="ccircumflex" horiz-adv-x="465" d="M216 666H292L378 543H332L254 627L176 543H131L216 666ZM356 427Q337 435 315 439T263 443Q231 443 201 433T147 402T110 346T96 265V236Q96 134 140 85T265 36Q317 36 354 52T416 89V45Q409
37 396 28T365 10T321 -3T264 -9Q213 -9 171 7T100 56T54 134T37 241V244Q37 311 57 357T109 432T182 473T261 486Q324 486 358 471T408 440V346H356V427Z" />
<glyph unicode="&#x10a;" glyph-name="Cdotaccent" horiz-adv-x="589" d="M476 567Q448 581 414 590T335 599Q274 599 231 581T161 529T120 448T107 343V319Q107 253 121 201T163 113T236 57T339 37Q384 37 420 47T486 74V167H539V59Q528 48 510 36T466 12T409
-6T338 -13Q269 -13 215 10T124 77T66 184T46 326V328Q46 400 63 459T117 561T206 627T332 651Q413 651 460 629T529 582V479H476V567ZM325 686Q308 686 296 698T283 727Q283 744 295 756T325 769Q342 769 354 757T367 727Q367 710 355 698T325 686Z" />
<glyph unicode="&#x10b;" glyph-name="cdotaccent" horiz-adv-x="465" d="M356 427Q337 435 315 439T263 443Q231 443 201 433T147 402T110 346T96 265V236Q96 134 140 85T265 36Q317 36 354 52T416 89V45Q409 37 396 28T365 10T321 -3T264 -9Q213 -9 171 7T100
56T54 134T37 241V244Q37 311 57 357T109 432T182 473T261 486Q324 486 358 471T408 440V346H356V427ZM253 563Q236 563 224 574T211 603Q211 620 223 632T253 645Q270 645 282 633T295 603Q295 586 283 575T253 563Z" />
<glyph unicode="&#x10c;" glyph-name="Ccaron" horiz-adv-x="589" d="M245 786L325 723L405 786H452L365 683H285L198 786H245ZM476 567Q448 581 414 590T335 599Q274 599 231 581T161 529T120 448T107 343V319Q107 253 121 201T163 113T236 57T339 37Q384 37
420 47T486 74V167H539V59Q528 48 510 36T466 12T409 -6T338 -13Q269 -13 215 10T124 77T66 184T46 326V328Q46 400 63 459T117 561T206 627T332 651Q413 651 460 629T529 582V479H476V567Z" />
<glyph unicode="&#x10d;" glyph-name="ccaron" horiz-adv-x="465" d="M175 669L253 585L331 669H377L291 546H215L130 669H175ZM356 427Q337 435 315 439T263 443Q231 443 201 433T147 402T110 346T96 265V236Q96 134 140 85T265 36Q317 36 354 52T416 89V45Q409
37 396 28T365 10T321 -3T264 -9Q213 -9 171 7T100 56T54 134T37 241V244Q37 311 57 357T109 432T182 473T261 486Q324 486 358 471T408 440V346H356V427Z" />
<glyph unicode="&#x10e;" glyph-name="Dcaron" horiz-adv-x="639" d="M219 786L299 723L379 786H426L339 683H259L172 786H219ZM35 639H325Q397 639 448 618T531 558T578 463T593 334V332Q593 174 523 87T301 0H35V45H103V591H35V639ZM290 49Q357 49 403 67T478
120T519 206T532 324V350Q532 405 523 448T489 522T423 569T316 586H162V49H290Z" />
<glyph unicode="&#x10f;" glyph-name="dcaron" horiz-adv-x="578" d="M527 673H586L557 547H519L527 673ZM347 673H484V45H547V0H442Q438 18 434 39Q431 57 429 81T427 131Q419 99 403 74T363 29T310 0T246 -10Q200 -10 162 7T97 57T55 138T40 248V250Q40 307
55 350T98 424T163 469T244 485Q313 485 362 449T427 346V625H347V673ZM254 34Q285 34 316 46T371 83T411 146T427 238V248Q427 295 413 330T376 390T322 426T256 439Q184 439 141 396T98 264V237Q98 137 139 86T254 34Z" />
<glyph unicode="&#x110;" glyph-name="Dcroat" horiz-adv-x="639" d="M32 347H103V591H35V639H325Q397 639 448 618T531 558T578 463T593 334V332Q593 174 523 87T301 0H35V45H103V298H32V347ZM290 49Q357 49 403 67T478 120T519 206T532 324V350Q532 405 523
448T489 522T423 569T316 586H162V347H356V298H162V49H290Z" />
<glyph unicode="&#x111;" glyph-name="dcroat" horiz-adv-x="578" d="M241 -10Q195 -10 157 7T92 57T50 138T35 248V250Q35 307 50 350T93 424T158 469T239 485Q308 485 357 449T422 346V550H250V592H422V673H479V592H547V550H479V45H542V0H437Q433 18 429 39Q426
57 424 81T422 131Q414 99 398 74T358 29T305 0T241 -10ZM249 34Q280 34 311 46T366 83T406 146T422 238V248Q422 295 408 330T371 390T317 426T251 439Q179 439 136 396T93 264V237Q93 137 134 86T249 34Z" />
<glyph unicode="&#x112;" glyph-name="Emacron" horiz-adv-x="555" d="M446 586H162V348H433V297H162V50H456V161H509V0H35V45H103V591H35V639H499V479H446V586ZM177 745H397V699H177V745Z" />
<glyph unicode="&#x113;" glyph-name="emacron" horiz-adv-x="480" d="M272 -9Q162 -9 100 55T37 240V241Q37 295 53 340T98 418T166 468T254 486Q302 486 337 471T395 429T429 366T440 288Q440 273 439 257T436 227H97Q98 131 142 84T277 36Q328 36 367 49T431
83V43Q417 26 376 9T272 -9ZM254 443Q185 443 142 395T97 264H387V271Q387 360 353 401T254 443ZM142 613H358V568H142V613Z" />
<glyph unicode="&#x114;" glyph-name="Ebreve" horiz-adv-x="555" d="M446 586H162V348H433V297H162V50H456V161H509V0H35V45H103V591H35V639H499V479H446V586ZM390 782Q391 763 386 745T368 711T337 687T289 678Q262 678 243 687T211 711T194 744T190 782H228Q228
760 241 743T289 726Q324 726 338 743T352 782H390Z" />
<glyph unicode="&#x115;" glyph-name="ebreve" horiz-adv-x="480" d="M272 -9Q162 -9 100 55T37 240V241Q37 295 53 340T98 418T166 468T254 486Q302 486 337 471T395 429T429 366T440 288Q440 273 439 257T436 227H97Q98 131 142 84T277 36Q328 36 367 49T431
83V43Q417 26 376 9T272 -9ZM254 443Q185 443 142 395T97 264H387V271Q387 360 353 401T254 443ZM354 660Q355 639 350 618T333 581T300 554T251 544Q222 544 202 554T170 580T153 618T149 660H189Q188 633 202 612T251 591Q286 591 301 612T315 660H354Z" />
<glyph unicode="&#x116;" glyph-name="Edotaccent" horiz-adv-x="555" d="M290 686Q273 686 261 698T248 727Q248 744 260 756T290 769Q307 769 319 757T332 727Q332 710 320 698T290 686ZM446 586H162V348H433V297H162V50H456V161H509V0H35V45H103V591H35V639H499V479H446V586Z"
/>
<glyph unicode="&#x117;" glyph-name="edotaccent" horiz-adv-x="480" d="M272 -9Q162 -9 100 55T37 240V241Q37 295 53 340T98 418T166 468T254 486Q302 486 337 471T395 429T429 366T440 288Q440 273 439 257T436 227H97Q98 131 142 84T277 36Q328 36 367 49T431
83V43Q417 26 376 9T272 -9ZM254 443Q185 443 142 395T97 264H387V271Q387 360 353 401T254 443ZM252 563Q235 563 223 574T210 603Q210 620 222 632T252 645Q269 645 281 633T294 603Q294 586 282 575T252 563Z" />
<glyph unicode="&#x118;" glyph-name="Eogonek" horiz-adv-x="555" d="M449 0Q416 -16 401 -37T385 -79Q385 -93 393 -102T421 -112Q432 -112 440 -110T454 -103V-135Q449 -143 437 -148T407 -153Q370 -153 351 -135T331 -85Q331 -56 349 -35T391 0H30V45H98V591H30V639H494V479H441V586H157V348H428V297H157V50H451V161H504V0H449Z"
/>
<glyph unicode="&#x119;" glyph-name="eogonek" horiz-adv-x="480" d="M92 227Q93 131 137 84T272 36Q323 36 362 49T426 83V43Q416 31 395 19T352 -6T314 -37T297 -79Q297 -94 306 -103T335 -113Q346 -113 354 -111T370 -104V-135Q364 -143 353 -148T323 -153Q286
-153 267 -135T248 -86Q248 -57 266 -38T307 -7Q297 -8 288 -8T267 -9Q157 -9 95 55T32 240V241Q32 295 48 340T93 418T161 468T249 486Q297 486 332 471T390 429T424 366T435 288Q435 273 434 257T431 227H92ZM249 443Q180 443 137 395T92 264H382V271Q382 360
348 401T249 443Z" />
<glyph unicode="&#x11a;" glyph-name="Ecaron" horiz-adv-x="555" d="M210 786L290 723L370 786H417L330 683H250L163 786H210ZM446 586H162V348H433V297H162V50H456V161H509V0H35V45H103V591H35V639H499V479H446V586Z" />
<glyph unicode="&#x11b;" glyph-name="ecaron" horiz-adv-x="480" d="M173 669L251 585L329 669H375L289 546H213L128 669H173ZM272 -9Q162 -9 100 55T37 240V241Q37 295 53 340T98 418T166 468T254 486Q302 486 337 471T395 429T429 366T440 288Q440 273 439
257T436 227H97Q98 131 142 84T277 36Q328 36 367 49T431 83V43Q417 26 376 9T272 -9ZM254 443Q185 443 142 395T97 264H387V271Q387 360 353 401T254 443Z" />
<glyph unicode="&#x11c;" glyph-name="Gcircumflex" horiz-adv-x="612" d="M413 683L333 746L253 683H206L293 786H373L460 683H413ZM352 319H554V63Q525 33 474 10T349 -13Q281 -13 225 9T130 73T68 177T46 321V323Q46 401 68 462T129 565T221 629T338 651Q413
651 458 633T532 588V479H480V571Q452 584 419 591T342 599Q288 599 245 582T171 531T124 450T107 341V314Q107 178 170 108T352 37Q394 37 429 47T494 72V271H352V319Z" />
<glyph unicode="&#x11d;" glyph-name="gcircumflex" horiz-adv-x="575" d="M235 666H311L397 543H351L273 627L195 543H150L235 666ZM254 -153Q182 -153 138 -134T76 -91V-45Q100 -68 143 -87T249 -106Q333 -106 379 -65T425 59V151Q418 120 402 95T361 53T307
27T243 17Q150 17 95 79T39 258V259Q39 312 54 354T97 425T161 469T243 485Q312 485 361 453T425 356Q427 403 433 438Q436 457 440 475H544V424H482V68Q482 12 466 -29T419 -98T347 -139T254 -153ZM252 60Q283 60 314 71T369 105T409 163T425 249V259Q425 302
412 335T375 392T321 427T256 439Q184 439 141 396T97 272V247Q97 154 138 107T252 60Z" />
<glyph unicode="&#x11e;" glyph-name="Gbreve" horiz-adv-x="612" d="M433 782Q434 763 429 745T411 711T380 687T332 678Q305 678 286 687T254 711T237 744T233 782H271Q271 760 284 743T332 726Q367 726 381 743T395 782H433ZM352 319H554V63Q525 33 474 10T349
-13Q281 -13 225 9T130 73T68 177T46 321V323Q46 401 68 462T129 565T221 629T338 651Q413 651 458 633T532 588V479H480V571Q452 584 419 591T342 599Q288 599 245 582T171 531T124 450T107 341V314Q107 178 170 108T352 37Q394 37 429 47T494 72V271H352V319Z"
/>
<glyph unicode="&#x11f;" glyph-name="gbreve" horiz-adv-x="575" d="M254 -153Q182 -153 138 -134T76 -91V-45Q100 -68 143 -87T249 -106Q333 -106 379 -65T425 59V151Q418 120 402 95T361 53T307 27T243 17Q150 17 95 79T39 258V259Q39 312 54 354T97 425T161
469T243 485Q312 485 361 453T425 356Q427 403 433 438Q436 457 440 475H544V424H482V68Q482 12 466 -29T419 -98T347 -139T254 -153ZM252 60Q283 60 314 71T369 105T409 163T425 249V259Q425 302 412 335T375 392T321 427T256 439Q184 439 141 396T97 272V247Q97
154 138 107T252 60ZM375 660Q376 639 371 618T354 581T321 554T272 544Q243 544 223 554T191 580T174 618T170 660H210Q209 633 223 612T272 591Q307 591 322 612T336 660H375Z" />
<glyph unicode="&#x120;" glyph-name="Gdotaccent" horiz-adv-x="612" d="M333 686Q316 686 304 698T291 727Q291 744 303 756T333 769Q350 769 362 757T375 727Q375 710 363 698T333 686ZM352 319H554V63Q525 33 474 10T349 -13Q281 -13 225 9T130 73T68 177T46
321V323Q46 401 68 462T129 565T221 629T338 651Q413 651 458 633T532 588V479H480V571Q452 584 419 591T342 599Q288 599 245 582T171 531T124 450T107 341V314Q107 178 170 108T352 37Q394 37 429 47T494 72V271H352V319Z" />
<glyph unicode="&#x121;" glyph-name="gdotaccent" horiz-adv-x="575" d="M254 -153Q182 -153 138 -134T76 -91V-45Q100 -68 143 -87T249 -106Q333 -106 379 -65T425 59V151Q418 120 402 95T361 53T307 27T243 17Q150 17 95 79T39 258V259Q39 312 54 354T97 425T161
469T243 485Q312 485 361 453T425 356Q427 403 433 438Q436 457 440 475H544V424H482V68Q482 12 466 -29T419 -98T347 -139T254 -153ZM252 60Q283 60 314 71T369 105T409 163T425 249V259Q425 302 412 335T375 392T321 427T256 439Q184 439 141 396T97 272V247Q97
154 138 107T252 60ZM273 563Q256 563 244 574T231 603Q231 620 243 632T273 645Q290 645 302 633T315 603Q315 586 303 575T273 563Z" />
<glyph unicode="&#x122;" glyph-name="Gcommaaccent" horiz-adv-x="612" d="M286 -164Q298 -141 302 -121T307 -83Q307 -62 303 -47H360Q362 -52 363 -58T364 -74Q364 -99 354 -122T324 -164H286ZM352 319H554V63Q525 33 474 10T349 -13Q281 -13 225 9T130 73T68
177T46 321V323Q46 401 68 462T129 565T221 629T338 651Q413 651 458 633T532 588V479H480V571Q452 584 419 591T342 599Q288 599 245 582T171 531T124 450T107 341V314Q107 178 170 108T352 37Q394 37 429 47T494 72V271H352V319Z" />
<glyph unicode="&#x123;" glyph-name="gcommaaccent" horiz-adv-x="575" d="M315 676Q303 653 299 633T294 595Q294 574 298 559H241Q239 564 238 570T237 586Q237 611 247 634T277 676H315ZM254 -153Q182 -153 138 -134T76 -91V-45Q100 -68 143 -87T249 -106Q333
-106 379 -65T425 59V151Q418 120 402 95T361 53T307 27T243 17Q150 17 95 79T39 258V259Q39 312 54 354T97 425T161 469T243 485Q312 485 361 453T425 356Q427 403 433 438Q436 457 440 475H544V424H482V68Q482 12 466 -29T419 -98T347 -139T254 -153ZM252 60Q283
60 314 71T369 105T409 163T425 249V259Q425 302 412 335T375 392T321 427T256 439Q184 439 141 396T97 272V247Q97 154 138 107T252 60Z" />
<glyph unicode="&#x124;" glyph-name="Hcircumflex" horiz-adv-x="667" d="M417 45H505V301H162V45H250V0H35V45H103V591H35V639H250V591H162V352H505V591H417V639H632V591H565V45H632V0H417V45ZM414 683L334 746L254 683H207L294 786H374L461 683H414Z" />
<glyph unicode="&#x125;" glyph-name="hcircumflex" horiz-adv-x="573" d="M352 45H426V338Q426 388 401 413T318 438Q283 438 254 426T202 392T167 338T153 266V45H228V0H31V45H95V625H31V673H153V341Q159 377 176 404T218 450T272 477T332 486Q406 486 444 446T483
328V45H542V0H352V45ZM370 709L290 772L210 709H163L250 812H330L417 709H370Z" />
<glyph unicode="&#x126;" glyph-name="Hbar" horiz-adv-x="667" d="M412 45H500V301H157V45H245V0H30V45H98V463H12V507H98V591H30V639H245V591H157V507H500V591H412V639H627V591H560V507H645V463H560V45H627V0H412V45ZM500 352V463H157V352H500Z" />
<glyph unicode="&#x127;" glyph-name="hbar" horiz-adv-x="573" d="M17 592H90V673H148V592H314V550H148V341Q154 377 171 404T213 450T267 477T327 486Q401 486 439 446T478 328V45H537V0H347V45H421V338Q421 388 396 413T313 438Q278 438 249 426T197 392T162
338T148 266V45H223V0H26V45H90V550H17V592Z" />
<glyph unicode="&#x128;" glyph-name="Itilde" horiz-adv-x="277" d="M35 639H242V591H169V45H242V0H35V45H109V591H35V639ZM280 687Q272 724 287 750T338 776Q356 776 372 771T402 760T430 749T454 744Q468 744 473 753T479 782H511Q519 745 506 719T458 693Q442
693 426 698T395 709T365 720T339 725Q312 725 313 687H280V687Z" />
<glyph unicode="&#x129;" glyph-name="itilde" horiz-adv-x="255" d="M31 475H156V45H224V0H31V45H99V424H31V475ZM258 558Q250 593 263 619T313 646Q329 646 344 641T372 631T397 620T418 615Q432 615 437 623T442 652H474Q482 617 470 591T423 564Q409 564 394
569T365 580T338 591T314 596Q289 596 290 558H258V558Z" />
<glyph unicode="&#x12a;" glyph-name="Imacron" horiz-adv-x="277" d="M35 639H242V591H169V45H242V0H35V45H109V591H35V639ZM285 745H505V699H285V745Z" />
<glyph unicode="&#x12b;" glyph-name="imacron" horiz-adv-x="255" d="M17 613H190V568H17V613ZM26 475H151V45H219V0H26V45H94V424H26V475Z" />
<glyph unicode="&#x12c;" glyph-name="Ibreve" horiz-adv-x="277" d="M35 639H242V591H169V45H242V0H35V45H109V591H35V639ZM495 782Q496 763 491 745T473 711T442 687T394 678Q367 678 348 687T316 711T299 744T295 782H333Q333 760 346 743T394 726Q429 726
443 743T457 782H495Z" />
<glyph unicode="&#x12d;" glyph-name="ibreve" horiz-adv-x="255" d="M31 475H156V45H224V0H31V45H99V424H31V475ZM468 660Q469 639 464 618T447 581T414 554T365 544Q336 544 316 554T284 580T267 618T263 660H303Q302 633 316 612T365 591Q400 591 415 612T429
660H468Z" />
<glyph unicode="&#x12e;" glyph-name="Iogonek" horiz-adv-x="277" d="M30 639H237V591H164V45H237V0H183Q158 -17 147 -37T135 -78Q135 -92 143 -102T171 -112Q182 -112 190 -110T204 -103V-135Q199 -143 187 -148T157 -153Q120 -153 101 -135T82 -85Q82 -58
97 -37T132 0H30V45H104V591H30V639Z" />
<glyph unicode="&#x12f;" glyph-name="iogonek" horiz-adv-x="255" d="M26 475H151V45H219V0H168Q142 -17 130 -37T118 -78Q118 -94 127 -103T156 -113Q167 -113 175 -111T191 -104V-135Q185 -143 174 -148T144 -153Q107 -153 88 -135T69 -86Q69 -54 87 -33T125
0H26V45H94V424H26V475ZM116 563Q99 563 87 574T74 603Q74 620 86 632T116 645Q133 645 145 633T158 603Q158 586 146 575T116 563Z" />
<glyph unicode="&#x130;" glyph-name="Idotaccent" horiz-adv-x="277" d="M35 639H242V591H169V45H242V0H35V45H109V591H35V639ZM395 686Q378 686 366 698T353 727Q353 744 365 756T395 769Q412 769 424 757T437 727Q437 710 425 698T395 686Z" />
<glyph unicode="&#x131;" glyph-name="dotlessi" horiz-adv-x="255" d="M26 475H151V45H219V0H26V45H94V424H26V475Z" />
<glyph unicode="&#x132;" glyph-name="IJ" horiz-adv-x="628" d="M377 639H588V591H523V140Q523 70 488 30T384 -10Q345 -10 320 1T283 23V62Q297 54 317 47T374 40Q464 40 464 149V591H377V639ZM30 639H237V591H164V45H237V0H30V45H104V591H30V639Z" />
<glyph unicode="&#x133;" glyph-name="ij" horiz-adv-x="457" d="M31 475H156V45H224V0H31V45H99V424H31V475ZM121 563Q104 563 92 574T79 603Q79 620 91 632T121 645Q138 645 150 633T163 603Q163 586 151 575T121 563ZM256 475H381V-46Q381 -103 353 -127T282
-152Q256 -152 240 -146T216 -132V-101Q226 -104 236 -105T260 -106Q295 -106 309 -94T324 -49V424H256V475ZM346 563Q329 563 317 574T304 603Q304 620 316 632T346 645Q363 645 375 633T388 603Q388 586 376 575T346 563Z" />
<glyph unicode="&#x134;" glyph-name="Jcircumflex" horiz-adv-x="380" d="M322 683L242 746L162 683H115L202 786H282L369 683H322ZM134 639H345V591H280V142Q280 71 245 32T137 -8Q95 -8 69 3T28 27V66Q45 57 66 49T126 41Q220 41 220 150V591H134V639Z" />
<glyph unicode="&#x135;" glyph-name="jcircumflex" horiz-adv-x="230" d="M29 475H154V-46Q154 -103 126 -127T55 -152Q29 -152 13 -146T-11 -132V-101Q-1 -104 9 -105T33 -106Q68 -106 82 -94T97 -49V424H29V475ZM331 666H407L493 543H447L369 627L291 543H246L331
666Z" />
<glyph unicode="&#x136;" glyph-name="Kcommaaccent" horiz-adv-x="595" d="M247 -164Q259 -141 263 -121T268 -83Q268 -62 264 -47H321Q323 -52 324 -58T325 -74Q325 -99 315 -122T285 -164H247ZM356 639H554V591H504L234 336L508 45H564V0H353V45H436L164 333L436
591H356V639ZM35 639H250V591H162V45H250V0H35V45H103V591H35V639Z" />
<glyph unicode="&#x137;" glyph-name="kcommaaccent" horiz-adv-x="494" d="M206 -164Q218 -141 222 -121T227 -83Q227 -62 223 -47H280Q282 -52 283 -58T284 -74Q284 -99 274 -122T244 -164H206ZM31 673H153V45H229V0H31V45H95V625H31V673ZM155 248L363 475H446V424H379L220
251L400 45H465V0H373V1L370 0L155 248Z" />
<glyph unicode="&#x139;" glyph-name="Lacute" horiz-adv-x="530" d="M418 788H504L405 687H360L418 788ZM35 639H250V591H162V50H438V166H491V0H35V45H103V591H35V639Z" />
<glyph unicode="&#x13a;" glyph-name="lacute" horiz-adv-x="255" d="M413 814H499L400 713H355L413 814ZM31 673H156V45H224V0H31V45H99V625H31V673Z" />
<glyph unicode="&#x13b;" glyph-name="Lcommaaccent" horiz-adv-x="530" d="M232 -164Q244 -141 248 -121T253 -83Q253 -62 249 -47H306Q308 -52 309 -58T310 -74Q310 -99 300 -122T270 -164H232ZM35 639H250V591H162V50H438V166H491V0H35V45H103V591H35V639Z" />
<glyph unicode="&#x13c;" glyph-name="lcommaaccent" horiz-adv-x="255" d="M337 -164Q349 -141 353 -121T358 -83Q358 -62 354 -47H411Q413 -52 414 -58T415 -74Q415 -99 405 -122T375 -164H337ZM31 673H156V45H224V0H31V45H99V625H31V673Z" />
<glyph unicode="&#x13d;" glyph-name="Lcaron" horiz-adv-x="530" d="M295 896H354L325 770H287L295 896ZM35 639H250V591H162V50H438V166H491V0H35V45H103V591H35V639Z" />
<glyph unicode="&#x13e;" glyph-name="lcaron" horiz-adv-x="255" d="M200 673H259L230 547H192L200 673ZM31 673H156V45H224V0H31V45H99V625H31V673Z" />
<glyph unicode="&#x13f;" glyph-name="Ldot" horiz-adv-x="530" d="M30 639H245V591H157V50H433V166H486V0H30V45H98V591H30V639ZM434 295Q416 295 403 307T389 338Q389 357 402 369T434 382Q452 382 465 370T478 338Q478 320 465 308T434 295Z" />
<glyph unicode="&#x140;" glyph-name="ldot" horiz-adv-x="300" d="M273 296Q255 296 242 308T228 339Q228 358 241 370T273 383Q291 383 304 371T317 339Q317 321 304 309T273 296ZM31 673H156V45H224V0H31V45H99V625H31V673Z" />
<glyph unicode="&#x141;" glyph-name="Lslash" horiz-adv-x="530" d="M30 639H245V591H157V302L368 420V368L157 250V50H433V166H486V0H30V45H98V217L24 176V228L98 269V591H30V639Z" />
<glyph unicode="&#x142;" glyph-name="lslash" horiz-adv-x="255" d="M26 673H151V423L219 480V427L151 370V45H219V0H26V45H94V322L25 264V318L94 375V625H26V673Z" />
<glyph unicode="&#x143;" glyph-name="Nacute" horiz-adv-x="683" d="M376 788H462L363 687H318L376 788ZM436 639H650V591H582V0H489L161 591H158V45H250V0H35V45H103V591H35V639H200L526 48V591H436V639Z" />
<glyph unicode="&#x144;" glyph-name="nacute" horiz-adv-x="573" d="M323 666H406L294 543H249L323 666ZM352 45H426V338Q426 388 401 413T318 438Q283 438 254 426T202 392T167 338T153 266V45H228V0H31V45H95V424H31V475H137Q141 457 145 437Q148 420 150 399T153
355V341Q159 377 176 404T218 450T272 477T332 486Q406 486 444 446T483 328V45H542V0H352V45Z" />
<glyph unicode="&#x145;" glyph-name="Ncommaaccent" horiz-adv-x="683" d="M296 -164Q308 -141 312 -121T317 -83Q317 -62 313 -47H370Q372 -52 373 -58T374 -74Q374 -99 364 -122T334 -164H296ZM436 639H650V591H582V0H489L161 591H158V45H250V0H35V45H103V591H35V639H200L526
48V591H436V639Z" />
<glyph unicode="&#x146;" glyph-name="ncommaaccent" horiz-adv-x="573" d="M235 -164Q247 -141 251 -121T256 -83Q256 -62 252 -47H309Q311 -52 312 -58T313 -74Q313 -99 303 -122T273 -164H235ZM352 45H426V338Q426 388 401 413T318 438Q283 438 254 426T202
392T167 338T153 266V45H228V0H31V45H95V424H31V475H137Q141 457 145 437Q148 420 150 399T153 355V341Q159 377 176 404T218 450T272 477T332 486Q406 486 444 446T483 328V45H542V0H352V45Z" />
<glyph unicode="&#x147;" glyph-name="Ncaron" horiz-adv-x="683" d="M267 786L347 723L427 786H474L387 683H307L220 786H267ZM436 639H650V591H582V0H489L161 591H158V45H250V0H35V45H103V591H35V639H200L526 48V591H436V639Z" />
<glyph unicode="&#x148;" glyph-name="ncaron" horiz-adv-x="573" d="M204 669L282 585L360 669H406L320 546H244L159 669H204ZM352 45H426V338Q426 388 401 413T318 438Q283 438 254 426T202 392T167 338T153 266V45H228V0H31V45H95V424H31V475H137Q141 457 145
437Q148 420 150 399T153 355V341Q159 377 176 404T218 450T272 477T332 486Q406 486 444 446T483 328V45H542V0H352V45Z" />
<glyph unicode="&#x149;" glyph-name="napostrophe" horiz-adv-x="611" d="M228 474Q239 506 243 537T247 591Q247 616 242 639H304Q306 629 306 621T307 600Q307 569 297 536T263 474H228V474ZM390 45H464V338Q464 388 439 413T356 438Q321 438 292 426T240 392T205
338T191 266V45H266V0H69V45H133V424H69V475H175Q179 457 183 437Q186 420 188 399T191 355V341Q197 377 214 404T256 450T310 477T370 486Q444 486 482 446T521 328V45H580V0H390V45Z" />
<glyph unicode="&#x14a;" glyph-name="Eng" horiz-adv-x="684" d="M30 639H195L521 48V591H431V639H645V591H577V0Q577 -71 542 -111T428 -151Q393 -151 367 -143T327 -122V-84Q344 -92 364 -97T417 -102Q470 -102 494 -77T521 0H484L156 591H153V45H245V0H30V45H98V591H30V639Z"
/>
<glyph unicode="&#x14b;" glyph-name="eng" horiz-adv-x="553" d="M26 475H132Q136 457 140 437Q143 420 145 399T148 355V341Q154 377 171 404T213 450T267 477T327 486Q401 486 439 446T478 328V-35Q478 -68 470 -90T447 -126T413 -146T372 -152Q344 -152 328
-145T304 -130V-101Q316 -106 338 -106Q384 -106 402 -91T421 -34V338Q421 388 396 413T313 438Q278 438 249 426T197 392T162 338T148 266V45H223V0H26V45H90V424H26V475Z" />
<glyph unicode="&#x14c;" glyph-name="Omacron" horiz-adv-x="661" d="M220 745H440V699H220V745ZM330 37Q440 37 497 107T554 317V350Q554 405 541 451T501 530T432 581T330 599Q272 599 230 581T161 530T120 451T107 350V317Q107 177 164 107T330 37ZM330 -13Q268
-13 216 8T126 72T67 178T46 326V328Q46 403 64 463T118 564T207 628T330 651Q400 651 453 629T543 565T597 463T616 328V326Q616 242 595 179T537 73T446 9T330 -13Z" />
<glyph unicode="&#x14d;" glyph-name="omacron" horiz-adv-x="527" d="M155 613H371V568H155V613ZM264 33Q300 33 330 45T383 82T418 145T431 237V265Q431 306 419 339T385 395T332 430T264 443Q188 443 142 395T96 265V237Q96 184 109 146T144 82T197 45T264
33ZM264 -9Q216 -9 175 7T103 54T55 134T37 245V247Q37 301 53 345T98 421T170 469T264 486Q315 486 357 469T428 422T473 347T489 249V247Q489 184 472 136T424 56T352 7T264 -9Z" />
<glyph unicode="&#x14e;" glyph-name="Obreve" horiz-adv-x="661" d="M430 782Q431 763 426 745T408 711T377 687T329 678Q302 678 283 687T251 711T234 744T230 782H268Q268 760 281 743T329 726Q364 726 378 743T392 782H430ZM330 37Q440 37 497 107T554 317V350Q554
405 541 451T501 530T432 581T330 599Q272 599 230 581T161 530T120 451T107 350V317Q107 177 164 107T330 37ZM330 -13Q268 -13 216 8T126 72T67 178T46 326V328Q46 403 64 463T118 564T207 628T330 651Q400 651 453 629T543 565T597 463T616 328V326Q616 242
595 179T537 73T446 9T330 -13Z" />
<glyph unicode="&#x14f;" glyph-name="obreve" horiz-adv-x="527" d="M264 33Q300 33 330 45T383 82T418 145T431 237V265Q431 306 419 339T385 395T332 430T264 443Q188 443 142 395T96 265V237Q96 184 109 146T144 82T197 45T264 33ZM264 -9Q216 -9 175 7T103
54T55 134T37 245V247Q37 301 53 345T98 421T170 469T264 486Q315 486 357 469T428 422T473 347T489 249V247Q489 184 472 136T424 56T352 7T264 -9ZM365 660Q366 639 361 618T344 581T311 554T262 544Q233 544 213 554T181 580T164 618T160 660H200Q199 633 213
612T262 591Q297 591 312 612T326 660H365Z" />
<glyph unicode="&#x150;" glyph-name="Ohungarumlaut" horiz-adv-x="661" d="M288 788H358L292 687H247L288 788ZM406 788H476L409 687H364L406 788ZM330 37Q440 37 497 107T554 317V350Q554 405 541 451T501 530T432 581T330 599Q272 599 230 581T161 530T120
451T107 350V317Q107 177 164 107T330 37ZM330 -13Q268 -13 216 8T126 72T67 178T46 326V328Q46 403 64 463T118 564T207 628T330 651Q400 651 453 629T543 565T597 463T616 328V326Q616 242 595 179T537 73T446 9T330 -13Z" />
<glyph unicode="&#x151;" glyph-name="ohungarumlaut" horiz-adv-x="527" d="M229 666H299L223 543H178L229 666ZM350 666H419L343 543H298L350 666ZM264 33Q300 33 330 45T383 82T418 145T431 237V265Q431 306 419 339T385 395T332 430T264 443Q188 443 142 395T96
265V237Q96 184 109 146T144 82T197 45T264 33ZM264 -9Q216 -9 175 7T103 54T55 134T37 245V247Q37 301 53 345T98 421T170 469T264 486Q315 486 357 469T428 422T473 347T489 249V247Q489 184 472 136T424 56T352 7T264 -9Z" />
<glyph unicode="&#x152;" glyph-name="OE" horiz-adv-x="855" d="M741 586H478V348H728V297H478V50H751V161H804V0H335Q183 0 112 87T41 332V334Q41 477 110 558T324 639H794V479H741V586ZM101 324Q101 258 114 207T156 120T231 67T345 49H419V586H332Q267 586
223 570T151 523T113 449T101 350V324Z" />
<glyph unicode="&#x153;" glyph-name="oe" horiz-adv-x="865" d="M651 -9Q565 -9 515 29T445 140Q424 65 374 28T254 -9Q209 -9 169 7T98 54T50 134T32 245V247Q32 301 48 345T93 421T163 469T254 486Q332 486 380 448T447 341Q467 407 514 446T634 486Q682 486
717 471T775 429T809 366T820 288Q820 273 819 257T815 227H476Q478 36 656 36Q707 36 747 49T811 83V43Q797 26 755 9T651 -9ZM254 33Q289 33 319 44T370 81T404 144T417 237V265Q417 349 373 396T254 443Q180 443 136 396T91 265V237Q91 183 103 145T138 81T189
45T254 33ZM634 443Q565 443 522 395T476 264H767V271Q767 360 733 401T634 443Z" />
<glyph unicode="&#x154;" glyph-name="Racute" horiz-adv-x="567" d="M313 788H399L300 687H255L313 788ZM35 639H304Q354 639 391 626T452 590T488 535T500 464Q500 419 487 387T448 333T386 302T306 292H251L476 45H539V0H445L162 310V45H249V0H35V45H103V591H35V639ZM291
335Q373 335 406 367T440 464Q440 492 433 515T408 553T364 577T295 586H162V335H291Z" />
<glyph unicode="&#x155;" glyph-name="racute" horiz-adv-x="364" d="M495 666H578L466 543H421L495 666ZM31 475H137Q141 457 145 437Q148 420 150 399T153 355V331Q165 407 202 444T288 482Q307 482 315 478T328 466V425Q285 427 253 417T198 382T165 314T153
209V45H240V0H31V45H95V424H31V475Z" />
<glyph unicode="&#x156;" glyph-name="Rcommaaccent" horiz-adv-x="567" d="M250 -164Q262 -141 266 -121T271 -83Q271 -62 267 -47H324Q326 -52 327 -58T328 -74Q328 -99 318 -122T288 -164H250ZM35 639H304Q354 639 391 626T452 590T488 535T500 464Q500 419
487 387T448 333T386 302T306 292H251L476 45H539V0H445L162 310V45H249V0H35V45H103V591H35V639ZM291 335Q373 335 406 367T440 464Q440 492 433 515T408 553T364 577T295 586H162V335H291Z" />
<glyph unicode="&#x157;" glyph-name="rcommaaccent" horiz-adv-x="364" d="M331 -164Q343 -141 347 -121T352 -83Q352 -62 348 -47H405Q407 -52 408 -58T409 -74Q409 -99 399 -122T369 -164H331ZM31 475H137Q141 457 145 437Q148 420 150 399T153 355V331Q165
407 202 444T288 482Q307 482 315 478T328 466V425Q285 427 253 417T198 382T165 314T153 209V45H240V0H31V45H95V424H31V475Z" />
<glyph unicode="&#x158;" glyph-name="Rcaron" horiz-adv-x="567" d="M200 786L280 723L360 786H407L320 683H240L153 786H200ZM35 639H304Q354 639 391 626T452 590T488 535T500 464Q500 419 487 387T448 333T386 302T306 292H251L476 45H539V0H445L162 310V45H249V0H35V45H103V591H35V639ZM291
335Q373 335 406 367T440 464Q440 492 433 515T408 553T364 577T295 586H162V335H291Z" />
<glyph unicode="&#x159;" glyph-name="rcaron" horiz-adv-x="364" d="M376 669L454 585L532 669H578L492 546H416L331 669H376ZM31 475H137Q141 457 145 437Q148 420 150 399T153 355V331Q165 407 202 444T288 482Q307 482 315 478T328 466V425Q285 427 253 417T198
382T165 314T153 209V45H240V0H31V45H95V424H31V475Z" />
<glyph unicode="&#x15a;" glyph-name="Sacute" horiz-adv-x="512" d="M379 573Q354 584 325 591T263 599Q234 599 207 594T160 575T127 537T114 474Q114 441 124 418T163 379Q186 367 215 362T275 351T337 340T395 318Q428 299 446 267T465 174Q465 125 448 90T401
32T334 -2T254 -13Q212 -13 179 -7T120 10T76 31T46 54V166H99V74Q128 58 165 48T251 37Q282 37 310 44T360 68T395 110T408 173Q408 207 399 230T365 268Q344 280 315 286T254 298T192 310T138 327Q98 347 77 382T56 475Q56 520 73 553T117 608T181 640T257 651Q324
651 366 635T432 598V479H379V573ZM284 788H370L271 687H226L284 788Z" />
<glyph unicode="&#x15b;" glyph-name="sacute" horiz-adv-x="417" d="M247 666H330L218 543H173L247 666ZM298 430Q279 436 258 439T214 443Q164 443 133 422T101 356Q101 332 108 316T139 289Q158 280 180 276T225 267T270 258T311 243Q340 228 356 202T373 128Q373
95 361 69T326 26T273 0T206 -9Q142 -9 105 5T41 41V128H93V53Q113 43 139 38T201 33Q258 33 288 55T318 126Q318 150 312 168T282 198Q265 207 244 212T200 221T156 229T116 242Q83 258 66 283T49 353Q49 385 61 410T94 452T146 477T211 486Q258 486 293 476T350
448V360H298V430Z" />
<glyph unicode="&#x15c;" glyph-name="Scircumflex" horiz-adv-x="512" d="M336 683L256 746L176 683H129L216 786H296L383 683H336ZM379 573Q354 584 325 591T263 599Q234 599 207 594T160 575T127 537T114 474Q114 441 124 418T163 379Q186 367 215 362T275
351T337 340T395 318Q428 299 446 267T465 174Q465 125 448 90T401 32T334 -2T254 -13Q212 -13 179 -7T120 10T76 31T46 54V166H99V74Q128 58 165 48T251 37Q282 37 310 44T360 68T395 110T408 173Q408 207 399 230T365 268Q344 280 315 286T254 298T192 310T138
327Q98 347 77 382T56 475Q56 520 73 553T117 608T181 640T257 651Q324 651 366 635T432 598V479H379V573Z" />
<glyph unicode="&#x15d;" glyph-name="scircumflex" horiz-adv-x="417" d="M169 666H245L331 543H285L207 627L129 543H84L169 666ZM298 430Q279 436 258 439T214 443Q164 443 133 422T101 356Q101 332 108 316T139 289Q158 280 180 276T225 267T270 258T311 243Q340
228 356 202T373 128Q373 95 361 69T326 26T273 0T206 -9Q142 -9 105 5T41 41V128H93V53Q113 43 139 38T201 33Q258 33 288 55T318 126Q318 150 312 168T282 198Q265 207 244 212T200 221T156 229T116 242Q83 258 66 283T49 353Q49 385 61 410T94 452T146 477T211
486Q258 486 293 476T350 448V360H298V430Z" />
<glyph unicode="&#x15e;" glyph-name="Scedilla" horiz-adv-x="512" d="M374 573Q349 584 320 591T258 599Q229 599 202 594T155 575T122 537T109 474Q109 441 119 418T158 379Q181 367 210 362T270 351T332 340T390 318Q423 299 441 267T460 174Q460 125 443
90T396 32T329 -2T249 -13H236V-41Q277 -43 296 -61T315 -108Q315 -140 293 -156T234 -173Q208 -173 192 -166T168 -151V-123Q177 -128 190 -132T221 -136Q264 -136 264 -106Q264 -89 250 -80T196 -68V-10Q184 -8 174 -6Q141 0 115 10T71 31T41 54V166H94V74Q123
58 160 48T246 37Q277 37 305 44T355 68T390 110T403 173Q403 207 394 230T360 268Q339 280 310 286T249 298T187 310T133 327Q93 347 72 382T51 475Q51 520 68 553T112 608T176 640T252 651Q319 651 361 635T427 598V479H374V573Z" />
<glyph unicode="&#x15f;" glyph-name="scedilla" horiz-adv-x="417" d="M293 430Q274 436 253 439T209 443Q159 443 128 422T96 356Q96 332 103 316T134 289Q153 280 175 276T220 267T265 258T306 243Q335 228 351 202T368 128Q368 95 356 69T321 26T268 0T201
-9H192V-41Q233 -43 252 -61T271 -108Q271 -140 249 -156T190 -173Q164 -173 148 -166T124 -151V-123Q133 -128 146 -132T178 -136Q220 -136 220 -106Q220 -89 206 -80T152 -68V-6Q121 -3 99 5Q62 20 36 41V128H88V53Q108 43 134 38T196 33Q253 33 283 55T313 126Q313
150 307 168T277 198Q260 207 239 212T195 221T151 229T111 242Q78 258 61 283T44 353Q44 385 56 410T89 452T141 477T206 486Q253 486 288 476T345 448V360H293V430Z" />
<glyph unicode="&#x160;" glyph-name="Scaron" horiz-adv-x="512" d="M176 786L256 723L336 786H383L296 683H216L129 786H176ZM379 573Q354 584 325 591T263 599Q234 599 207 594T160 575T127 537T114 474Q114 441 124 418T163 379Q186 367 215 362T275 351T337
340T395 318Q428 299 446 267T465 174Q465 125 448 90T401 32T334 -2T254 -13Q212 -13 179 -7T120 10T76 31T46 54V166H99V74Q128 58 165 48T251 37Q282 37 310 44T360 68T395 110T408 173Q408 207 399 230T365 268Q344 280 315 286T254 298T192 310T138 327Q98
347 77 382T56 475Q56 520 73 553T117 608T181 640T257 651Q324 651 366 635T432 598V479H379V573Z" />
<glyph unicode="&#x161;" glyph-name="scaron" horiz-adv-x="417" d="M129 669L207 585L285 669H331L245 546H169L84 669H129ZM298 430Q279 436 258 439T214 443Q164 443 133 422T101 356Q101 332 108 316T139 289Q158 280 180 276T225 267T270 258T311 243Q340
228 356 202T373 128Q373 95 361 69T326 26T273 0T206 -9Q142 -9 105 5T41 41V128H93V53Q113 43 139 38T201 33Q258 33 288 55T318 126Q318 150 312 168T282 198Q265 207 244 212T200 221T156 229T116 242Q83 258 66 283T49 353Q49 385 61 410T94 452T146 477T211
486Q258 486 293 476T350 448V360H298V430Z" />
<glyph unicode="&#x162;" glyph-name="Tcommaaccent" horiz-adv-x="586" d="M245 -164Q257 -141 261 -121T266 -83Q266 -62 262 -47H319Q321 -52 322 -58T323 -74Q323 -99 313 -122T283 -164H245ZM490 586H323V45H411V0H175V45H263V586H96V465H41V639H545V465H490V586Z" />
<glyph unicode="&#x163;" glyph-name="tcommaaccent" horiz-adv-x="356" d="M159 -164Q171 -141 175 -121T180 -83Q180 -62 176 -47H233Q235 -52 236 -58T237 -74Q237 -99 227 -122T197 -164H159ZM231 -9Q204 -9 180 -2T137 21T108 65T97 132V429H29V461Q56 463
71 469T96 491T109 531T118 597H154V475H312V429H154V132Q154 77 176 58T236 38Q265 38 285 44T323 62V29Q315 16 293 4T231 -9Z" />
<glyph unicode="&#x164;" glyph-name="Tcaron" horiz-adv-x="586" d="M212 786L292 723L372 786H419L332 683H252L165 786H212ZM490 586H323V45H411V0H175V45H263V586H96V465H41V639H545V465H490V586Z" />
<glyph unicode="&#x165;" glyph-name="tcaron" horiz-adv-x="356" d="M230 673H289L260 547H222L230 673ZM231 -9Q204 -9 180 -2T137 21T108 65T97 132V429H29V461Q56 463 71 469T96 491T109 531T118 597H154V475H312V429H154V132Q154 77 176 58T236 38Q265 38
285 44T323 62V29Q315 16 293 4T231 -9Z" />
<glyph unicode="&#x166;" glyph-name="Tbar" horiz-adv-x="586" d="M112 363H463V317H112V363ZM485 586H318V45H406V0H170V45H258V586H91V465H36V639H540V465H485V586Z" />
<glyph unicode="&#x167;" glyph-name="tbar" horiz-adv-x="356" d="M307 273H24V315H307V273ZM226 -9Q199 -9 175 -2T132 21T103 65T92 132V429H24V461Q51 463 66 469T91 491T104 531T113 597H149V475H307V429H149V132Q149 77 171 58T231 38Q260 38 280 44T318
62V29Q310 16 288 4T226 -9Z" />
<glyph unicode="&#x168;" glyph-name="Utilde" horiz-adv-x="676" d="M436 639H643V591H581V235Q581 161 562 113T509 37T431 -2T338 -13Q290 -13 246 -2T168 37T114 114T94 236V591H33V639H240V591H154V223Q154 168 167 132T205 75T263 45T338 36Q378 36 412
44T470 74T508 131T522 222V591H436V639ZM223 687Q215 724 230 750T281 776Q299 776 315 771T345 760T373 749T397 744Q411 744 416 753T422 782H454Q462 745 449 719T401 693Q385 693 369 698T338 709T308 720T282 725Q255 725 256 687H223V687Z" />
<glyph unicode="&#x169;" glyph-name="utilde" horiz-adv-x="567" d="M430 0Q426 18 422 38Q419 55 417 76T414 120V131Q408 95 392 69T354 25T304 -1T248 -10Q165 -10 128 36T90 169V424H31V475H147V159Q147 99 171 68T257 36Q290 36 318 48T368 83T401 138T414
209V424H345V475H472V45H536V0H430V0ZM166 558Q158 593 171 619T221 646Q237 646 252 641T280 631T305 620T326 615Q340 615 345 623T350 652H382Q390 617 378 591T331 564Q317 564 302 569T273 580T246 591T222 596Q197 596 198 558H166V558Z" />
<glyph unicode="&#x16a;" glyph-name="Umacron" horiz-adv-x="676" d="M436 639H643V591H581V235Q581 161 562 113T509 37T431 -2T338 -13Q290 -13 246 -2T168 37T114 114T94 236V591H33V639H240V591H154V223Q154 168 167 132T205 75T263 45T338 36Q378 36 412
44T470 74T508 131T522 222V591H436V639ZM228 745H448V699H228V745Z" />
<glyph unicode="&#x16b;" glyph-name="umacron" horiz-adv-x="567" d="M430 0Q426 18 422 38Q419 55 417 76T414 120V131Q408 95 392 69T354 25T304 -1T248 -10Q165 -10 128 36T90 169V424H31V475H147V159Q147 99 171 68T257 36Q290 36 318 48T368 83T401 138T414
209V424H345V475H472V45H536V0H430V0ZM166 613H382V568H166V613Z" />
<glyph unicode="&#x16c;" glyph-name="Ubreve" horiz-adv-x="676" d="M436 639H643V591H581V235Q581 161 562 113T509 37T431 -2T338 -13Q290 -13 246 -2T168 37T114 114T94 236V591H33V639H240V591H154V223Q154 168 167 132T205 75T263 45T338 36Q378 36 412
44T470 74T508 131T522 222V591H436V639ZM438 782Q439 763 434 745T416 711T385 687T337 678Q310 678 291 687T259 711T242 744T238 782H276Q276 760 289 743T337 726Q372 726 386 743T400 782H438Z" />
<glyph unicode="&#x16d;" glyph-name="ubreve" horiz-adv-x="567" d="M430 0Q426 18 422 38Q419 55 417 76T414 120V131Q408 95 392 69T354 25T304 -1T248 -10Q165 -10 128 36T90 169V424H31V475H147V159Q147 99 171 68T257 36Q290 36 318 48T368 83T401 138T414
209V424H345V475H472V45H536V0H430V0ZM376 660Q377 639 372 618T355 581T322 554T273 544Q244 544 224 554T192 580T175 618T171 660H211Q210 633 224 612T273 591Q308 591 323 612T337 660H376Z" />
<glyph unicode="&#x16e;" glyph-name="Uring" horiz-adv-x="676" d="M436 639H643V591H581V235Q581 161 562 113T509 37T431 -2T338 -13Q290 -13 246 -2T168 37T114 114T94 236V591H33V639H240V591H154V223Q154 168 167 132T205 75T263 45T338 36Q378 36 412 44T470
74T508 131T522 222V591H436V639ZM339 682Q358 682 371 695T385 731Q385 753 372 766T339 780Q320 780 307 767T294 731Q294 708 307 695T339 682ZM339 650Q304 650 281 673T257 731Q257 765 280 789T339 813Q374 813 397 789T421 731Q421 697 398 674T339 650Z"
/>
<glyph unicode="&#x16f;" glyph-name="uring" horiz-adv-x="567" d="M275 576Q294 576 307 589T321 625Q321 647 308 661T275 675Q256 675 243 661T230 625Q230 602 243 589T275 576ZM275 545Q240 545 217 568T193 625Q193 659 216 683T275 707Q310 707 333 683T357
625Q357 591 334 568T275 545ZM430 0Q426 18 422 38Q419 55 417 76T414 120V131Q408 95 392 69T354 25T304 -1T248 -10Q165 -10 128 36T90 169V424H31V475H147V159Q147 99 171 68T257 36Q290 36 318 48T368 83T401 138T414 209V424H345V475H472V45H536V0H430V0Z"
/>
<glyph unicode="&#x170;" glyph-name="Uhungarumlaut" horiz-adv-x="676" d="M296 788H366L300 687H255L296 788ZM414 788H484L417 687H372L414 788ZM436 639H643V591H581V235Q581 161 562 113T509 37T431 -2T338 -13Q290 -13 246 -2T168 37T114 114T94 236V591H33V639H240V591H154V223Q154
168 167 132T205 75T263 45T338 36Q378 36 412 44T470 74T508 131T522 222V591H436V639Z" />
<glyph unicode="&#x171;" glyph-name="uhungarumlaut" horiz-adv-x="567" d="M430 0Q426 18 422 38Q419 55 417 76T414 120V131Q408 95 392 69T354 25T304 -1T248 -10Q165 -10 128 36T90 169V424H31V475H147V159Q147 99 171 68T257 36Q290 36 318 48T368 83T401
138T414 209V424H345V475H472V45H536V0H430V0ZM237 666H307L231 543H186L237 666ZM358 666H427L351 543H306L358 666Z" />
<glyph unicode="&#x172;" glyph-name="Uogonek" horiz-adv-x="676" d="M28 639H235V591H149V223Q149 168 162 132T200 75T258 45T333 36Q373 36 407 44T465 74T503 131T517 222V591H431V639H638V591H576V235Q576 184 567 147T542 82T504 38T456 9Q408 -11 386
-32T364 -79Q364 -93 372 -102T400 -112Q411 -112 419 -110T433 -103V-135Q428 -143 416 -148T386 -153Q349 -153 330 -135T310 -87Q310 -61 326 -41T362 -12Q354 -13 348 -13H333Q285 -13 241 -2T163 37T109 114T89 236V591H28V639Z" />
<glyph unicode="&#x173;" glyph-name="uogonek" horiz-adv-x="567" d="M465 0Q427 -18 412 -38T397 -79Q397 -94 406 -103T435 -113Q446 -113 454 -111T470 -104V-135Q464 -143 453 -148T423 -153Q386 -153 367 -135T348 -86Q348 -53 371 -30T423 6Q422 12 420
23T415 50T411 83T409 120V131Q403 95 387 69T349 25T299 -1T243 -10Q160 -10 123 36T85 169V424H26V475H142V159Q142 99 166 68T252 36Q285 36 313 48T363 83T396 138T409 209V424H340V475H467V45H531V0H465Z" />
<glyph unicode="&#x174;" glyph-name="Wcircumflex" horiz-adv-x="886" d="M525 683L445 746L365 683H318L405 786H485L572 683H525ZM443 564L296 0H204L72 591H26V639H225V591H133L254 35L411 639H480L637 35L758 591H661V639H860V591H815L683 0H591L443 564Z" />
<glyph unicode="&#x175;" glyph-name="wcircumflex" horiz-adv-x="748" d="M339 666H415L501 543H455L377 627L299 543H254L339 666ZM376 403L265 0H183L64 424H23V475H198V424H122L227 37L348 475H407L527 37L629 424H552V475H726V424H684L568 0H484L376 403Z" />
<glyph unicode="&#x176;" glyph-name="Ycircumflex" horiz-adv-x="591" d="M25 639H226V591H138L298 294L458 591H367V639H566V591H516L325 243V45H414V0H177V45H266V243L75 591H25V639ZM377 683L297 746L217 683H170L257 786H337L424 683H377Z" />
<glyph unicode="&#x177;" glyph-name="ycircumflex" horiz-adv-x="539" d="M341 475H515V424H468L303 -21Q277 -92 246 -122T162 -153Q130 -153 109 -146T76 -125V-95Q90 -100 108 -103T150 -107Q187 -107 211 -90T250 -33L262 0H231L69 424H24V475H201V424H129L274
35L413 424H341V475ZM234 666H310L396 543H350L272 627L194 543H149L234 666Z" />
<glyph unicode="&#x178;" glyph-name="Ydieresis" horiz-adv-x="591" d="M25 639H226V591H138L298 294L458 591H367V639H566V591H516L325 243V45H414V0H177V45H266V243L75 591H25V639ZM216 681Q199 681 188 692T176 721Q176 738 187 749T216 761Q233 761 244 750T256
721Q256 704 245 693T216 681ZM380 681Q363 681 351 692T339 721Q339 738 351 749T380 761Q397 761 408 750T420 721Q420 704 409 693T380 681Z" />
<glyph unicode="&#x179;" glyph-name="Zacute" horiz-adv-x="552" d="M313 788H399L300 687H255L313 788ZM64 639H505V565L95 50H453V161H506V0H43V73L451 586H118V479H64V639Z" />
<glyph unicode="&#x17a;" glyph-name="zacute" horiz-adv-x="453" d="M276 666H359L247 543H202L276 666ZM52 475H411V416L92 45H360V136H411V0H38V59L356 430H103V351H52V475Z" />
<glyph unicode="&#x17b;" glyph-name="Zdotaccent" horiz-adv-x="552" d="M64 639H505V565L95 50H453V161H506V0H43V73L451 586H118V479H64V639ZM284 686Q267 686 255 698T242 727Q242 744 254 756T284 769Q301 769 313 757T326 727Q326 710 314 698T284 686Z" />
<glyph unicode="&#x17c;" glyph-name="zdotaccent" horiz-adv-x="453" d="M52 475H411V416L92 45H360V136H411V0H38V59L356 430H103V351H52V475ZM235 563Q218 563 206 574T193 603Q193 620 205 632T235 645Q252 645 264 633T277 603Q277 586 265 575T235 563Z" />
<glyph unicode="&#x17d;" glyph-name="Zcaron" horiz-adv-x="552" d="M204 786L284 723L364 786H411L324 683H244L157 786H204ZM64 639H505V565L95 50H453V161H506V0H43V73L451 586H118V479H64V639Z" />
<glyph unicode="&#x17e;" glyph-name="zcaron" horiz-adv-x="453" d="M157 669L235 585L313 669H359L273 546H197L112 669H157ZM52 475H411V416L92 45H360V136H411V0H38V59L356 430H103V351H52V475Z" />
<glyph unicode="&#x192;" glyph-name="florin" horiz-adv-x="378" d="M116 389L134 540Q142 612 179 645T265 678Q297 678 315 669T342 650V619Q332 623 318 626T284 629Q239 629 219 609T194 546L175 389H307V343H170L112 -146H52L110 343H30V389H116Z" />
<glyph unicode="&#x1fa;" glyph-name="Aringacute" horiz-adv-x="654" d="M27 45H78L279 639H375L576 45H627V0H418V45H514L459 210H191L136 45H231V0H27V45ZM208 262H442L325 613L208 262ZM356 939H442L343 838H298L356 939ZM327 945Q346 945 359 958T373 994Q373
1016 360 1029T327 1043Q308 1043 295 1030T282 994Q282 971 295 958T327 945ZM327 913Q292 913 269 936T245 994Q245 1028 268 1052T327 1076Q362 1076 385 1052T409 994Q409 960 386 937T327 913Z" />
<glyph unicode="&#x1fb;" glyph-name="aringacute" horiz-adv-x="485" d="M65 427Q83 447 122 466T226 486Q307 486 350 446T394 328V96Q394 64 403 51T437 38Q445 38 450 38T461 40V6Q459 4 448 1T419 -3Q383 -3 361 17T337 89V106Q324 51 285 21T181 -10Q116
-10 76 22T36 115V116Q36 150 50 173T88 211T146 236T216 254Q251 262 274 270T311 288T331 311T337 343V345Q337 395 306 418T220 442Q188 442 163 435T117 418V341H65V427ZM196 31Q222 31 247 40T293 69T325 120T337 195V271Q322 254 295 242T220 217Q185 206
161 198T123 179T102 155T95 121V117Q95 77 120 54T196 31ZM230 817Q249 817 262 830T276 866Q276 888 263 902T230 916Q211 916 198 902T185 866Q185 843 198 830T230 817ZM230 786Q195 786 172 809T148 866Q148 900 171 924T230 948Q265 948 288 924T312 866Q312
832 289 809T230 786ZM258 828H344L245 727H200L258 828Z" />
<glyph unicode="&#x1fc;" glyph-name="AEacute" horiz-adv-x="867" d="M581 788H667L568 687H523L581 788ZM758 586H493V348H745V297H493V50H768V161H821V0H366V45H433V210H204L132 45H229V0H27V45H74L314 591H240V639H811V479H758V586ZM227 262H433V586H369L227 262Z" />
<glyph unicode="&#x1fd;" glyph-name="aeacute" horiz-adv-x="775" d="M431 666H514L402 543H357L431 666ZM184 -10Q118 -10 77 22T36 115V116Q36 150 50 173T88 211T146 236T216 254Q251 262 274 270T311 288T331 311T337 343V345Q337 395 306 418T221 442Q189
442 163 436T117 418V341H65V427Q85 448 124 467T227 486Q291 486 328 460T378 382Q403 430 447 458T551 486Q599 486 633 471T690 429T724 366T735 288Q735 273 734 257T729 227H393Q395 36 573 36Q624 36 663 49T725 83V43Q711 26 671 9T568 -9Q486 -9 432 27T353
132Q341 60 297 25T184 -10ZM551 443Q482 443 439 395T393 264H682V271Q682 360 648 401T551 443ZM194 31Q221 31 247 40T293 69T325 120T337 195V271Q322 254 295 242T220 217Q185 206 161 198T123 179T102 155T95 121V117Q95 78 120 55T194 31Z" />
<glyph unicode="&#x1fe;" glyph-name="Oslashacute" horiz-adv-x="661" d="M330 -13Q221 -13 148 49L96 -19H38L116 82Q82 125 64 185T46 326V328Q46 403 64 463T118 564T207 628T330 651Q441 651 512 594L560 656H617L544 562Q616 478 616 328V326Q616 242 596
179T538 73T447 9T330 -13ZM330 37Q441 37 498 107T555 317V350Q555 403 545 446T512 521L177 87Q230 37 330 37ZM107 317Q107 191 148 124L481 554Q427 599 330 599Q272 599 230 581T161 530T120 451T107 350V317ZM359 788H445L346 687H301L359 788Z" />
<glyph unicode="&#x1ff;" glyph-name="oslashacute" horiz-adv-x="527" d="M264 -9Q226 -9 192 1T129 31L90 -19H41L100 57Q71 89 54 135T37 245V247Q37 301 53 345T98 421T170 469T264 486Q304 486 338 476T399 446L436 493H485L429 420Q458 389 473 346T489
249V247Q489 184 472 136T424 56T352 7T264 -9ZM96 237Q96 189 104 155T129 96L372 410Q328 443 264 443Q188 443 142 395T96 265V237ZM264 33Q300 33 330 45T383 82T418 145T431 237V265Q431 301 423 330T399 381L156 66Q177 49 204 41T264 33ZM304 666H387L275
543H230L304 666Z" />
<glyph unicode="&#x218;" glyph-name="Scommaaccent" horiz-adv-x="512" d="M209 -164Q221 -141 225 -121T230 -83Q230 -62 226 -47H283Q285 -52 286 -58T287 -74Q287 -99 277 -122T247 -164H209ZM379 573Q354 584 325 591T263 599Q234 599 207 594T160 575T127
537T114 474Q114 441 124 418T163 379Q186 367 215 362T275 351T337 340T395 318Q428 299 446 267T465 174Q465 125 448 90T401 32T334 -2T254 -13Q212 -13 179 -7T120 10T76 31T46 54V166H99V74Q128 58 165 48T251 37Q282 37 310 44T360 68T395 110T408 173Q408
207 399 230T365 268Q344 280 315 286T254 298T192 310T138 327Q98 347 77 382T56 475Q56 520 73 553T117 608T181 640T257 651Q324 651 366 635T432 598V479H379V573Z" />
<glyph unicode="&#x219;" glyph-name="scommaaccent" horiz-adv-x="417" d="M160 -164Q172 -141 176 -121T181 -83Q181 -62 177 -47H234Q236 -52 237 -58T238 -74Q238 -99 228 -122T198 -164H160ZM298 430Q279 436 258 439T214 443Q164 443 133 422T101 356Q101
332 108 316T139 289Q158 280 180 276T225 267T270 258T311 243Q340 228 356 202T373 128Q373 95 361 69T326 26T273 0T206 -9Q142 -9 105 5T41 41V128H93V53Q113 43 139 38T201 33Q258 33 288 55T318 126Q318 150 312 168T282 198Q265 207 244 212T200 221T156
229T116 242Q83 258 66 283T49 353Q49 385 61 410T94 452T146 477T211 486Q258 486 293 476T350 448V360H298V430Z" />
<glyph unicode="&#x21a;" glyph-name="uni021A" horiz-adv-x="586" d="M245 -164Q257 -141 261 -121T266 -83Q266 -62 262 -47H319Q321 -52 322 -58T323 -74Q323 -99 313 -122T283 -164H245ZM490 586H323V45H411V0H175V45H263V586H96V465H41V639H545V465H490V586Z" />
<glyph unicode="&#x21b;" glyph-name="uni021B" horiz-adv-x="356" d="M159 -164Q171 -141 175 -121T180 -83Q180 -62 176 -47H233Q235 -52 236 -58T237 -74Q237 -99 227 -122T197 -164H159ZM231 -9Q204 -9 180 -2T137 21T108 65T97 132V429H29V461Q56 463 71
469T96 491T109 531T118 597H154V475H312V429H154V132Q154 77 176 58T236 38Q265 38 285 44T323 62V29Q315 16 293 4T231 -9Z" />
<glyph unicode="&#x237;" glyph-name="uni0237" horiz-adv-x="230" d="M24 475H149V-46Q149 -103 121 -127T50 -152Q24 -152 8 -146T-16 -132V-101Q-6 -104 4 -105T28 -106Q63 -106 77 -94T92 -49V424H24V475Z" />
<glyph unicode="&#x2c6;" glyph-name="circumflex" horiz-adv-x="412" d="M163 666H239L325 543H279L201 627L123 543H78L163 666Z" />
<glyph unicode="&#x2c7;" glyph-name="caron" horiz-adv-x="412" d="M123 669L201 585L279 669H325L239 546H163L78 669H123Z" />
<glyph unicode="&#x2d8;" glyph-name="breve" horiz-adv-x="412" d="M303 660Q304 639 299 618T282 581T249 554T200 544Q171 544 151 554T119 580T102 618T98 660H138Q137 633 151 612T200 591Q235 591 250 612T264 660H303Z" />
<glyph unicode="&#x2d9;" glyph-name="dotaccent" horiz-adv-x="412" d="M201 563Q184 563 172 574T159 603Q159 620 171 632T201 645Q218 645 230 633T243 603Q243 586 231 575T201 563Z" />
<glyph unicode="&#x2da;" glyph-name="ring" horiz-adv-x="412" d="M202 576Q221 576 234 589T248 625Q248 647 235 661T202 675Q183 675 170 661T157 625Q157 602 170 589T202 576ZM202 545Q167 545 144 568T120 625Q120 659 143 683T202 707Q237 707 260 683T284
625Q284 591 261 568T202 545Z" />
<glyph unicode="&#x2db;" glyph-name="ogonek" horiz-adv-x="412" d="M208 -153Q171 -153 152 -135T133 -86Q133 -69 140 -55T159 -30T184 -12T210 0H250Q212 -18 197 -38T182 -79Q182 -94 191 -103T220 -113Q232 -113 240 -111T255 -104V-135Q250 -143 239 -148T208
-153Z" />
<glyph unicode="&#x2dc;" glyph-name="tilde" horiz-adv-x="412" d="M93 558Q85 593 98 619T148 646Q164 646 179 641T207 631T232 620T253 615Q267 615 272 623T277 652H309Q317 617 305 591T258 564Q244 564 229 569T200 580T173 591T149 596Q124 596 125 558H93V558Z" />
<glyph unicode="&#x2dd;" glyph-name="hungarumlaut" horiz-adv-x="412" d="M167 666H237L161 543H116L167 666ZM288 666H357L281 543H236L288 666Z" />
</font>
</defs>
</svg>
